# AIGen_Surface_ReverseSenseDemo.obj
# AI-generated half-cylinder open shell; quad faces with consistent winding.
v 1.000000 0.000000 0.000000
v 0.992115 0.125333 0.000000
v 0.968583 0.248690 0.000000
v 0.929776 0.368125 0.000000
v 0.876307 0.481754 0.000000
v 0.809017 0.587785 0.000000
v 0.728969 0.684547 0.000000
v 0.637424 0.770513 0.000000
v 0.535827 0.844328 0.000000
v 0.425779 0.904827 0.000000
v 0.309017 0.951057 0.000000
v 0.187381 0.982287 0.000000
v 0.062791 0.998027 0.000000
v -0.062791 0.998027 0.000000
v -0.187381 0.982287 0.000000
v -0.309017 0.951057 0.000000
v -0.425779 0.904827 0.000000
v -0.535827 0.844328 0.000000
v -0.637424 0.770513 0.000000
v -0.728969 0.684547 0.000000
v -0.809017 0.587785 0.000000
v -0.876307 0.481754 0.000000
v -0.929776 0.368125 0.000000
v -0.968583 0.248690 0.000000
v -0.992115 0.125333 0.000000
v -1.000000 0.000000 0.000000
v 1.000000 0.000000 0.222222
v 0.992115 0.125333 0.222222
v 0.968583 0.248690 0.222222
v 0.929776 0.368125 0.222222
v 0.876307 0.481754 0.222222
v 0.809017 0.587785 0.222222
v 0.728969 0.684547 0.222222
v 0.637424 0.770513 0.222222
v 0.535827 0.844328 0.222222
v 0.425779 0.904827 0.222222
v 0.309017 0.951057 0.222222
v 0.187381 0.982287 0.222222
v 0.062791 0.998027 0.222222
v -0.062791 0.998027 0.222222
v -0.187381 0.982287 0.222222
v -0.309017 0.951057 0.222222
v -0.425779 0.904827 0.222222
v -0.535827 0.844328 0.222222
v -0.637424 0.770513 0.222222
v -0.728969 0.684547 0.222222
v -0.809017 0.587785 0.222222
v -0.876307 0.481754 0.222222
v -0.929776 0.368125 0.222222
v -0.968583 0.248690 0.222222
v -0.992115 0.125333 0.222222
v -1.000000 0.000000 0.222222
v 1.000000 0.000000 0.444444
v 0.992115 0.125333 0.444444
v 0.968583 0.248690 0.444444
v 0.929776 0.368125 0.444444
v 0.876307 0.481754 0.444444
v 0.809017 0.587785 0.444444
v 0.728969 0.684547 0.444444
v 0.637424 0.770513 0.444444
v 0.535827 0.844328 0.444444
v 0.425779 0.904827 0.444444
v 0.309017 0.951057 0.444444
v 0.187381 0.982287 0.444444
v 0.062791 0.998027 0.444444
v -0.062791 0.998027 0.444444
v -0.187381 0.982287 0.444444
v -0.309017 0.951057 0.444444
v -0.425779 0.904827 0.444444
v -0.535827 0.844328 0.444444
v -0.637424 0.770513 0.444444
v -0.728969 0.684547 0.444444
v -0.809017 0.587785 0.444444
v -0.876307 0.481754 0.444444
v -0.929776 0.368125 0.444444
v -0.968583 0.248690 0.444444
v -0.992115 0.125333 0.444444
v -1.000000 0.000000 0.444444
v 1.000000 0.000000 0.666667
v 0.992115 0.125333 0.666667
v 0.968583 0.248690 0.666667
v 0.929776 0.368125 0.666667
v 0.876307 0.481754 0.666667
v 0.809017 0.587785 0.666667
v 0.728969 0.684547 0.666667
v 0.637424 0.770513 0.666667
v 0.535827 0.844328 0.666667
v 0.425779 0.904827 0.666667
v 0.309017 0.951057 0.666667
v 0.187381 0.982287 0.666667
v 0.062791 0.998027 0.666667
v -0.062791 0.998027 0.666667
v -0.187381 0.982287 0.666667
v -0.309017 0.951057 0.666667
v -0.425779 0.904827 0.666667
v -0.535827 0.844328 0.666667
v -0.637424 0.770513 0.666667
v -0.728969 0.684547 0.666667
v -0.809017 0.587785 0.666667
v -0.876307 0.481754 0.666667
v -0.929776 0.368125 0.666667
v -0.968583 0.248690 0.666667
v -0.992115 0.125333 0.666667
v -1.000000 0.000000 0.666667
v 1.000000 0.000000 0.888889
v 0.992115 0.125333 0.888889
v 0.968583 0.248690 0.888889
v 0.929776 0.368125 0.888889
v 0.876307 0.481754 0.888889
v 0.809017 0.587785 0.888889
v 0.728969 0.684547 0.888889
v 0.637424 0.770513 0.888889
v 0.535827 0.844328 0.888889
v 0.425779 0.904827 0.888889
v 0.309017 0.951057 0.888889
v 0.187381 0.982287 0.888889
v 0.062791 0.998027 0.888889
v -0.062791 0.998027 0.888889
v -0.187381 0.982287 0.888889
v -0.309017 0.951057 0.888889
v -0.425779 0.904827 0.888889
v -0.535827 0.844328 0.888889
v -0.637424 0.770513 0.888889
v -0.728969 0.684547 0.888889
v -0.809017 0.587785 0.888889
v -0.876307 0.481754 0.888889
v -0.929776 0.368125 0.888889
v -0.968583 0.248690 0.888889
v -0.992115 0.125333 0.888889
v -1.000000 0.000000 0.888889
v 1.000000 0.000000 1.111111
v 0.992115 0.125333 1.111111
v 0.968583 0.248690 1.111111
v 0.929776 0.368125 1.111111
v 0.876307 0.481754 1.111111
v 0.809017 0.587785 1.111111
v 0.728969 0.684547 1.111111
v 0.637424 0.770513 1.111111
v 0.535827 0.844328 1.111111
v 0.425779 0.904827 1.111111
v 0.309017 0.951057 1.111111
v 0.187381 0.982287 1.111111
v 0.062791 0.998027 1.111111
v -0.062791 0.998027 1.111111
v -0.187381 0.982287 1.111111
v -0.309017 0.951057 1.111111
v -0.425779 0.904827 1.111111
v -0.535827 0.844328 1.111111
v -0.637424 0.770513 1.111111
v -0.728969 0.684547 1.111111
v -0.809017 0.587785 1.111111
v -0.876307 0.481754 1.111111
v -0.929776 0.368125 1.111111
v -0.968583 0.248690 1.111111
v -0.992115 0.125333 1.111111
v -1.000000 0.000000 1.111111
v 1.000000 0.000000 1.333333
v 0.992115 0.125333 1.333333
v 0.968583 0.248690 1.333333
v 0.929776 0.368125 1.333333
v 0.876307 0.481754 1.333333
v 0.809017 0.587785 1.333333
v 0.728969 0.684547 1.333333
v 0.637424 0.770513 1.333333
v 0.535827 0.844328 1.333333
v 0.425779 0.904827 1.333333
v 0.309017 0.951057 1.333333
v 0.187381 0.982287 1.333333
v 0.062791 0.998027 1.333333
v -0.062791 0.998027 1.333333
v -0.187381 0.982287 1.333333
v -0.309017 0.951057 1.333333
v -0.425779 0.904827 1.333333
v -0.535827 0.844328 1.333333
v -0.637424 0.770513 1.333333
v -0.728969 0.684547 1.333333
v -0.809017 0.587785 1.333333
v -0.876307 0.481754 1.333333
v -0.929776 0.368125 1.333333
v -0.968583 0.248690 1.333333
v -0.992115 0.125333 1.333333
v -1.000000 0.000000 1.333333
v 1.000000 0.000000 1.555556
v 0.992115 0.125333 1.555556
v 0.968583 0.248690 1.555556
v 0.929776 0.368125 1.555556
v 0.876307 0.481754 1.555556
v 0.809017 0.587785 1.555556
v 0.728969 0.684547 1.555556
v 0.637424 0.770513 1.555556
v 0.535827 0.844328 1.555556
v 0.425779 0.904827 1.555556
v 0.309017 0.951057 1.555556
v 0.187381 0.982287 1.555556
v 0.062791 0.998027 1.555556
v -0.062791 0.998027 1.555556
v -0.187381 0.982287 1.555556
v -0.309017 0.951057 1.555556
v -0.425779 0.904827 1.555556
v -0.535827 0.844328 1.555556
v -0.637424 0.770513 1.555556
v -0.728969 0.684547 1.555556
v -0.809017 0.587785 1.555556
v -0.876307 0.481754 1.555556
v -0.929776 0.368125 1.555556
v -0.968583 0.248690 1.555556
v -0.992115 0.125333 1.555556
v -1.000000 0.000000 1.555556
v 1.000000 0.000000 1.777778
v 0.992115 0.125333 1.777778
v 0.968583 0.248690 1.777778
v 0.929776 0.368125 1.777778
v 0.876307 0.481754 1.777778
v 0.809017 0.587785 1.777778
v 0.728969 0.684547 1.777778
v 0.637424 0.770513 1.777778
v 0.535827 0.844328 1.777778
v 0.425779 0.904827 1.777778
v 0.309017 0.951057 1.777778
v 0.187381 0.982287 1.777778
v 0.062791 0.998027 1.777778
v -0.062791 0.998027 1.777778
v -0.187381 0.982287 1.777778
v -0.309017 0.951057 1.777778
v -0.425779 0.904827 1.777778
v -0.535827 0.844328 1.777778
v -0.637424 0.770513 1.777778
v -0.728969 0.684547 1.777778
v -0.809017 0.587785 1.777778
v -0.876307 0.481754 1.777778
v -0.929776 0.368125 1.777778
v -0.968583 0.248690 1.777778
v -0.992115 0.125333 1.777778
v -1.000000 0.000000 1.777778
v 1.000000 0.000000 2.000000
v 0.992115 0.125333 2.000000
v 0.968583 0.248690 2.000000
v 0.929776 0.368125 2.000000
v 0.876307 0.481754 2.000000
v 0.809017 0.587785 2.000000
v 0.728969 0.684547 2.000000
v 0.637424 0.770513 2.000000
v 0.535827 0.844328 2.000000
v 0.425779 0.904827 2.000000
v 0.309017 0.951057 2.000000
v 0.187381 0.982287 2.000000
v 0.062791 0.998027 2.000000
v -0.062791 0.998027 2.000000
v -0.187381 0.982287 2.000000
v -0.309017 0.951057 2.000000
v -0.425779 0.904827 2.000000
v -0.535827 0.844328 2.000000
v -0.637424 0.770513 2.000000
v -0.728969 0.684547 2.000000
v -0.809017 0.587785 2.000000
v -0.876307 0.481754 2.000000
v -0.929776 0.368125 2.000000
v -0.968583 0.248690 2.000000
v -0.992115 0.125333 2.000000
v -1.000000 0.000000 2.000000
f 1 2 28 27
f 2 3 29 28
f 3 4 30 29
f 4 5 31 30
f 5 6 32 31
f 6 7 33 32
f 7 8 34 33
f 8 9 35 34
f 9 10 36 35
f 10 11 37 36
f 11 12 38 37
f 12 13 39 38
f 13 14 40 39
f 14 15 41 40
f 15 16 42 41
f 16 17 43 42
f 17 18 44 43
f 18 19 45 44
f 19 20 46 45
f 20 21 47 46
f 21 22 48 47
f 22 23 49 48
f 23 24 50 49
f 24 25 51 50
f 25 26 52 51
f 27 28 54 53
f 28 29 55 54
f 29 30 56 55
f 30 31 57 56
f 31 32 58 57
f 32 33 59 58
f 33 34 60 59
f 34 35 61 60
f 35 36 62 61
f 36 37 63 62
f 37 38 64 63
f 38 39 65 64
f 39 40 66 65
f 40 41 67 66
f 41 42 68 67
f 42 43 69 68
f 43 44 70 69
f 44 45 71 70
f 45 46 72 71
f 46 47 73 72
f 47 48 74 73
f 48 49 75 74
f 49 50 76 75
f 50 51 77 76
f 51 52 78 77
f 53 54 80 79
f 54 55 81 80
f 55 56 82 81
f 56 57 83 82
f 57 58 84 83
f 58 59 85 84
f 59 60 86 85
f 60 61 87 86
f 61 62 88 87
f 62 63 89 88
f 63 64 90 89
f 64 65 91 90
f 65 66 92 91
f 66 67 93 92
f 67 68 94 93
f 68 69 95 94
f 69 70 96 95
f 70 71 97 96
f 71 72 98 97
f 72 73 99 98
f 73 74 100 99
f 74 75 101 100
f 75 76 102 101
f 76 77 103 102
f 77 78 104 103
f 79 80 106 105
f 80 81 107 106
f 81 82 108 107
f 82 83 109 108
f 83 84 110 109
f 84 85 111 110
f 85 86 112 111
f 86 87 113 112
f 87 88 114 113
f 88 89 115 114
f 89 90 116 115
f 90 91 117 116
f 91 92 118 117
f 92 93 119 118
f 93 94 120 119
f 94 95 121 120
f 95 96 122 121
f 96 97 123 122
f 97 98 124 123
f 98 99 125 124
f 99 100 126 125
f 100 101 127 126
f 101 102 128 127
f 102 103 129 128
f 103 104 130 129
f 105 106 132 131
f 106 107 133 132
f 107 108 134 133
f 108 109 135 134
f 109 110 136 135
f 110 111 137 136
f 111 112 138 137
f 112 113 139 138
f 113 114 140 139
f 114 115 141 140
f 115 116 142 141
f 116 117 143 142
f 117 118 144 143
f 118 119 145 144
f 119 120 146 145
f 120 121 147 146
f 121 122 148 147
f 122 123 149 148
f 123 124 150 149
f 124 125 151 150
f 125 126 152 151
f 126 127 153 152
f 127 128 154 153
f 128 129 155 154
f 129 130 156 155
f 131 132 158 157
f 132 133 159 158
f 133 134 160 159
f 134 135 161 160
f 135 136 162 161
f 136 137 163 162
f 137 138 164 163
f 138 139 165 164
f 139 140 166 165
f 140 141 167 166
f 141 142 168 167
f 142 143 169 168
f 143 144 170 169
f 144 145 171 170
f 145 146 172 171
f 146 147 173 172
f 147 148 174 173
f 148 149 175 174
f 149 150 176 175
f 150 151 177 176
f 151 152 178 177
f 152 153 179 178
f 153 154 180 179
f 154 155 181 180
f 155 156 182 181
f 157 158 184 183
f 158 159 185 184
f 159 160 186 185
f 160 161 187 186
f 161 162 188 187
f 162 163 189 188
f 163 164 190 189
f 164 165 191 190
f 165 166 192 191
f 166 167 193 192
f 167 168 194 193
f 168 169 195 194
f 169 170 196 195
f 170 171 197 196
f 171 172 198 197
f 172 173 199 198
f 173 174 200 199
f 174 175 201 200
f 175 176 202 201
f 176 177 203 202
f 177 178 204 203
f 178 179 205 204
f 179 180 206 205
f 180 181 207 206
f 181 182 208 207
f 183 184 210 209
f 184 185 211 210
f 185 186 212 211
f 186 187 213 212
f 187 188 214 213
f 188 189 215 214
f 189 190 216 215
f 190 191 217 216
f 191 192 218 217
f 192 193 219 218
f 193 194 220 219
f 194 195 221 220
f 195 196 222 221
f 196 197 223 222
f 197 198 224 223
f 198 199 225 224
f 199 200 226 225
f 200 201 227 226
f 201 202 228 227
f 202 203 229 228
f 203 204 230 229
f 204 205 231 230
f 205 206 232 231
f 206 207 233 232
f 207 208 234 233
f 209 210 236 235
f 210 211 237 236
f 211 212 238 237
f 212 213 239 238
f 213 214 240 239
f 214 215 241 240
f 215 216 242 241
f 216 217 243 242
f 217 218 244 243
f 218 219 245 244
f 219 220 246 245
f 220 221 247 246
f 221 222 248 247
f 222 223 249 248
f 223 224 250 249
f 224 225 251 250
f 225 226 252 251
f 226 227 253 252
f 227 228 254 253
f 228 229 255 254
f 229 230 256 255
f 230 231 257 256
f 231 232 258 257
f 232 233 259 258
f 233 234 260 259
