# vtk DataFile Version 3.0
AIGen: tetrahedral volume mesh of a twisted tapered rod (80 pts / 216 tets)
ASCII
DATASET UNSTRUCTURED_GRID
POINTS 80 float
-0.500000 -0.500000 0.000000
-0.166667 -0.500000 0.000000
0.166667 -0.500000 0.000000
0.500000 -0.500000 0.000000
-0.500000 -0.166667 0.000000
-0.166667 -0.166667 0.000000
0.166667 -0.166667 0.000000
0.500000 -0.166667 0.000000
-0.500000 0.166667 0.000000
-0.166667 0.166667 0.000000
0.166667 0.166667 0.000000
0.500000 0.166667 0.000000
-0.500000 0.500000 0.000000
-0.166667 0.500000 0.000000
0.166667 0.500000 0.000000
0.500000 0.500000 0.000000
-0.422824 -0.673819 1.000000
-0.057277 -0.590154 1.000000
0.308271 -0.506489 1.000000
0.673819 -0.422824 1.000000
-0.506489 -0.308271 1.000000
-0.140941 -0.224606 1.000000
0.224606 -0.140941 1.000000
0.590154 -0.057277 1.000000
-0.590154 0.057277 1.000000
-0.224606 0.140941 1.000000
0.140941 0.224606 1.000000
0.506489 0.308271 1.000000
-0.673819 0.422824 1.000000
-0.308271 0.506489 1.000000
0.057277 0.590154 1.000000
0.422824 0.673819 1.000000
-0.290926 -0.834633 2.000000
0.084260 -0.653397 2.000000
0.459447 -0.472162 2.000000
0.834633 -0.290926 2.000000
-0.472162 -0.459447 2.000000
-0.096975 -0.278211 2.000000
0.278211 -0.096975 2.000000
0.653397 0.084260 2.000000
-0.653397 -0.084260 2.000000
-0.278211 0.096975 2.000000
0.096975 0.278211 2.000000
0.472162 0.459447 2.000000
-0.834633 0.290926 2.000000
-0.459447 0.472162 2.000000
-0.084260 0.653397 2.000000
0.290926 0.834633 2.000000
-0.107119 -0.966353 3.000000
0.250705 -0.679942 3.000000
0.608529 -0.393530 3.000000
0.966353 -0.107119 3.000000
-0.393530 -0.608529 3.000000
-0.035706 -0.322118 3.000000
0.322118 -0.035706 3.000000
0.679942 0.250705 3.000000
-0.679942 -0.250705 3.000000
-0.322118 0.035706 3.000000
0.035706 0.322118 3.000000
0.393530 0.608529 3.000000
-0.966353 0.107119 3.000000
-0.608529 0.393530 3.000000
-0.250705 0.679942 3.000000
0.107119 0.966353 3.000000
0.121288 -1.053703 4.000000
0.432093 -0.662039 4.000000
0.742898 -0.270376 4.000000
1.053703 0.121288 4.000000
-0.270376 -0.742898 4.000000
0.040429 -0.351234 4.000000
0.351234 0.040429 4.000000
0.662039 0.432093 4.000000
-0.662039 -0.432093 4.000000
-0.351234 -0.040429 4.000000
-0.040429 0.351234 4.000000
0.270376 0.742898 4.000000
-1.053703 -0.121288 4.000000
-0.742898 0.270376 4.000000
-0.432093 0.662039 4.000000
-0.121288 1.053703 4.000000
CELLS 216 1080
4 0 1 4 20
4 0 1 17 20
4 0 4 5 20
4 0 5 21 20
4 0 16 17 20
4 0 16 21 20
4 1 2 5 21
4 1 2 18 21
4 1 5 6 21
4 1 6 22 21
4 1 17 18 21
4 1 17 22 21
4 2 3 6 22
4 2 3 19 22
4 2 6 7 22
4 2 7 23 22
4 2 18 19 22
4 2 18 23 22
4 4 5 8 24
4 4 5 21 24
4 4 8 9 24
4 4 9 25 24
4 4 20 21 24
4 4 20 25 24
4 5 6 9 25
4 5 6 22 25
4 5 9 10 25
4 5 10 26 25
4 5 21 22 25
4 5 21 26 25
4 6 7 10 26
4 6 7 23 26
4 6 10 11 26
4 6 11 27 26
4 6 22 23 26
4 6 22 27 26
4 8 9 12 28
4 8 9 25 28
4 8 12 13 28
4 8 13 29 28
4 8 24 25 28
4 8 24 29 28
4 9 10 13 29
4 9 10 26 29
4 9 13 14 29
4 9 14 30 29
4 9 25 26 29
4 9 25 30 29
4 10 11 14 30
4 10 11 27 30
4 10 14 15 30
4 10 15 31 30
4 10 26 27 30
4 10 26 31 30
4 16 17 20 36
4 16 17 33 36
4 16 20 21 36
4 16 21 37 36
4 16 32 33 36
4 16 32 37 36
4 17 18 21 37
4 17 18 34 37
4 17 21 22 37
4 17 22 38 37
4 17 33 34 37
4 17 33 38 37
4 18 19 22 38
4 18 19 35 38
4 18 22 23 38
4 18 23 39 38
4 18 34 35 38
4 18 34 39 38
4 20 21 24 40
4 20 21 37 40
4 20 24 25 40
4 20 25 41 40
4 20 36 37 40
4 20 36 41 40
4 21 22 25 41
4 21 22 38 41
4 21 25 26 41
4 21 26 42 41
4 21 37 38 41
4 21 37 42 41
4 22 23 26 42
4 22 23 39 42
4 22 26 27 42
4 22 27 43 42
4 22 38 39 42
4 22 38 43 42
4 24 25 28 44
4 24 25 41 44
4 24 28 29 44
4 24 29 45 44
4 24 40 41 44
4 24 40 45 44
4 25 26 29 45
4 25 26 42 45
4 25 29 30 45
4 25 30 46 45
4 25 41 42 45
4 25 41 46 45
4 26 27 30 46
4 26 27 43 46
4 26 30 31 46
4 26 31 47 46
4 26 42 43 46
4 26 42 47 46
4 32 33 36 52
4 32 33 49 52
4 32 36 37 52
4 32 37 53 52
4 32 48 49 52
4 32 48 53 52
4 33 34 37 53
4 33 34 50 53
4 33 37 38 53
4 33 38 54 53
4 33 49 50 53
4 33 49 54 53
4 34 35 38 54
4 34 35 51 54
4 34 38 39 54
4 34 39 55 54
4 34 50 51 54
4 34 50 55 54
4 36 37 40 56
4 36 37 53 56
4 36 40 41 56
4 36 41 57 56
4 36 52 53 56
4 36 52 57 56
4 37 38 41 57
4 37 38 54 57
4 37 41 42 57
4 37 42 58 57
4 37 53 54 57
4 37 53 58 57
4 38 39 42 58
4 38 39 55 58
4 38 42 43 58
4 38 43 59 58
4 38 54 55 58
4 38 54 59 58
4 40 41 44 60
4 40 41 57 60
4 40 44 45 60
4 40 45 61 60
4 40 56 57 60
4 40 56 61 60
4 41 42 45 61
4 41 42 58 61
4 41 45 46 61
4 41 46 62 61
4 41 57 58 61
4 41 57 62 61
4 42 43 46 62
4 42 43 59 62
4 42 46 47 62
4 42 47 63 62
4 42 58 59 62
4 42 58 63 62
4 48 49 52 68
4 48 49 65 68
4 48 52 53 68
4 48 53 69 68
4 48 64 65 68
4 48 64 69 68
4 49 50 53 69
4 49 50 66 69
4 49 53 54 69
4 49 54 70 69
4 49 65 66 69
4 49 65 70 69
4 50 51 54 70
4 50 51 67 70
4 50 54 55 70
4 50 55 71 70
4 50 66 67 70
4 50 66 71 70
4 52 53 56 72
4 52 53 69 72
4 52 56 57 72
4 52 57 73 72
4 52 68 69 72
4 52 68 73 72
4 53 54 57 73
4 53 54 70 73
4 53 57 58 73
4 53 58 74 73
4 53 69 70 73
4 53 69 74 73
4 54 55 58 74
4 54 55 71 74
4 54 58 59 74
4 54 59 75 74
4 54 70 71 74
4 54 70 75 74
4 56 57 60 76
4 56 57 73 76
4 56 60 61 76
4 56 61 77 76
4 56 72 73 76
4 56 72 77 76
4 57 58 61 77
4 57 58 74 77
4 57 61 62 77
4 57 62 78 77
4 57 73 74 77
4 57 73 78 77
4 58 59 62 78
4 58 59 75 78
4 58 62 63 78
4 58 63 79 78
4 58 74 75 78
4 58 74 79 78
CELL_TYPES 216
10
10
10
10
10
10
10
10
10
10
10
10
10
10
10
10
10
10
10
10
10
10
10
10
10
10
10
10
10
10
10
10
10
10
10
10
10
10
10
10
10
10
10
10
10
10
10
10
10
10
10
10
10
10
10
10
10
10
10
10
10
10
10
10
10
10
10
10
10
10
10
10
10
10
10
10
10
10
10
10
10
10
10
10
10
10
10
10
10
10
10
10
10
10
10
10
10
10
10
10
10
10
10
10
10
10
10
10
10
10
10
10
10
10
10
10
10
10
10
10
10
10
10
10
10
10
10
10
10
10
10
10
10
10
10
10
10
10
10
10
10
10
10
10
10
10
10
10
10
10
10
10
10
10
10
10
10
10
10
10
10
10
10
10
10
10
10
10
10
10
10
10
10
10
10
10
10
10
10
10
10
10
10
10
10
10
10
10
10
10
10
10
10
10
10
10
10
10
10
10
10
10
10
10
10
10
10
10
10
10
10
10
10
10
10
10
POINT_DATA 80
SCALARS Temperature float 1
LOOKUP_TABLE default
9.393398
12.094306
12.094306
9.393398
12.094306
16.464466
16.464466
12.094306
12.094306
16.464466
16.464466
12.094306
9.393398
12.094306
12.094306
9.393398
29.393398
32.094306
32.094306
29.393398
32.094306
36.464466
36.464466
32.094306
32.094306
36.464466
36.464466
32.094306
29.393398
32.094306
32.094306
29.393398
49.393398
52.094306
52.094306
49.393398
52.094306
56.464466
56.464466
52.094306
52.094306
56.464466
56.464466
52.094306
49.393398
52.094306
52.094306
49.393398
69.393398
72.094306
72.094306
69.393398
72.094306
76.464466
76.464466
72.094306
72.094306
76.464466
76.464466
72.094306
69.393398
72.094306
72.094306
69.393398
89.393398
92.094306
92.094306
89.393398
92.094306
96.464466
96.464466
92.094306
92.094306
96.464466
96.464466
92.094306
89.393398
92.094306
92.094306
89.393398
SCALARS Pressure float 1
LOOKUP_TABLE default
125.000000
122.777778
122.777778
125.000000
122.777778
120.555556
120.555556
122.777778
122.777778
120.555556
120.555556
122.777778
125.000000
122.777778
122.777778
125.000000
115.000000
112.777778
112.777778
115.000000
112.777778
110.555556
110.555556
112.777778
112.777778
110.555556
110.555556
112.777778
115.000000
112.777778
112.777778
115.000000
105.000000
102.777778
102.777778
105.000000
102.777778
100.555556
100.555556
102.777778
102.777778
100.555556
100.555556
102.777778
105.000000
102.777778
102.777778
105.000000
95.000000
92.777778
92.777778
95.000000
92.777778
90.555556
90.555556
92.777778
92.777778
90.555556
90.555556
92.777778
95.000000
92.777778
92.777778
95.000000
85.000000
82.777778
82.777778
85.000000
82.777778
80.555556
80.555556
82.777778
82.777778
80.555556
80.555556
82.777778
85.000000
82.777778
82.777778
85.000000
VECTORS Displacement float
-0.025000 -0.025000 0.000000
-0.008333 -0.025000 0.000000
0.008333 -0.025000 0.000000
0.025000 -0.025000 0.000000
-0.025000 -0.008333 0.000000
-0.008333 -0.008333 0.000000
0.008333 -0.008333 0.000000
0.025000 -0.008333 0.000000
-0.025000 0.008333 0.000000
-0.008333 0.008333 0.000000
0.008333 0.008333 0.000000
0.025000 0.008333 0.000000
-0.025000 0.025000 0.000000
-0.008333 0.025000 0.000000
0.008333 0.025000 0.000000
0.025000 0.025000 0.000000
-0.021141 -0.033691 0.030000
-0.002864 -0.029508 0.030000
0.015414 -0.025324 0.030000
0.033691 -0.021141 0.030000
-0.025324 -0.015414 0.030000
-0.007047 -0.011230 0.030000
0.011230 -0.007047 0.030000
0.029508 -0.002864 0.030000
-0.029508 0.002864 0.030000
-0.011230 0.007047 0.030000
0.007047 0.011230 0.030000
0.025324 0.015414 0.030000
-0.033691 0.021141 0.030000
-0.015414 0.025324 0.030000
0.002864 0.029508 0.030000
0.021141 0.033691 0.030000
-0.014546 -0.041732 0.060000
0.004213 -0.032670 0.060000
0.022972 -0.023608 0.060000
0.041732 -0.014546 0.060000
-0.023608 -0.022972 0.060000
-0.004849 -0.013911 0.060000
0.013911 -0.004849 0.060000
0.032670 0.004213 0.060000
-0.032670 -0.004213 0.060000
-0.013911 0.004849 0.060000
0.004849 0.013911 0.060000
0.023608 0.022972 0.060000
-0.041732 0.014546 0.060000
-0.022972 0.023608 0.060000
-0.004213 0.032670 0.060000
0.014546 0.041732 0.060000
-0.005356 -0.048318 0.090000
0.012535 -0.033997 0.090000
0.030426 -0.019677 0.090000
0.048318 -0.005356 0.090000
-0.019677 -0.030426 0.090000
-0.001785 -0.016106 0.090000
0.016106 -0.001785 0.090000
0.033997 0.012535 0.090000
-0.033997 -0.012535 0.090000
-0.016106 0.001785 0.090000
0.001785 0.016106 0.090000
0.019677 0.030426 0.090000
-0.048318 0.005356 0.090000
-0.030426 0.019677 0.090000
-0.012535 0.033997 0.090000
0.005356 0.048318 0.090000
0.006064 -0.052685 0.120000
0.021605 -0.033102 0.120000
0.037145 -0.013519 0.120000
0.052685 0.006064 0.120000
-0.013519 -0.037145 0.120000
0.002021 -0.017562 0.120000
0.017562 0.002021 0.120000
0.033102 0.021605 0.120000
-0.033102 -0.021605 0.120000
-0.017562 -0.002021 0.120000
-0.002021 0.017562 0.120000
0.013519 0.037145 0.120000
-0.052685 -0.006064 0.120000
-0.037145 0.013519 0.120000
-0.021605 0.033102 0.120000
-0.006064 0.052685 0.120000
CELL_DATA 216
SCALARS MaterialID int 1
LOOKUP_TABLE default
1
1
1
1
1
1
1
1
1
1
1
1
1
1
1
1
1
1
1
1
1
1
1
1
1
1
1
1
1
1
1
1
1
1
1
1
1
1
1
1
1
1
1
1
1
1
1
1
1
1
1
1
1
1
2
2
2
2
2
2
2
2
2
2
2
2
2
2
2
2
2
2
2
2
2
2
2
2
2
2
2
2
2
2
2
2
2
2
2
2
2
2
2
2
2
2
2
2
2
2
2
2
2
2
2
2
2
2
3
3
3
3
3
3
3
3
3
3
3
3
3
3
3
3
3
3
3
3
3
3
3
3
3
3
3
3
3
3
3
3
3
3
3
3
3
3
3
3
3
3
3
3
3
3
3
3
3
3
3
3
3
3
4
4
4
4
4
4
4
4
4
4
4
4
4
4
4
4
4
4
4
4
4
4
4
4
4
4
4
4
4
4
4
4
4
4
4
4
4
4
4
4
4
4
4
4
4
4
4
4
4
4
4
4
4
4
SCALARS CellEnergy float 1
LOOKUP_TABLE default
1.450154
1.350872
1.867180
2.208876
1.037066
1.404173
2.701989
2.785549
3.217557
3.862310
2.569130
3.084875
4.187477
4.533929
4.755441
5.710485
4.551183
5.146665
3.307912
3.217555
3.851599
4.332417
2.802449
3.332546
4.852931
5.016816
5.427868
6.198148
4.823817
5.423864
6.439084
6.883270
6.993811
8.000557
6.993964
7.583801
5.525761
5.504290
6.098444
6.681488
5.098907
5.702197
7.086428
7.354199
7.617455
8.433982
7.267160
7.849864
8.488319
9.013067
8.930162
9.876141
9.257781
9.742054
1.216647
1.298544
1.632310
2.147106
0.874868
1.192153
3.317631
3.714992
3.915731
4.910208
3.308082
3.840151
6.022569
6.812383
6.691784
8.096699
6.699004
7.314506
3.075749
3.161852
3.660379
4.307115
2.485482
2.967975
5.742300
6.174486
6.409998
7.463387
5.682173
6.289186
8.561511
9.338072
9.188002
10.492869
9.250482
9.832162
5.463543
5.542639
6.128493
6.824994
4.696064
5.282199
8.291335
8.731607
8.927389
9.934566
8.248340
8.852843
10.797346
11.520498
11.286118
12.384839
11.538728
12.012365
1.054597
1.412436
1.414874
2.142694
0.871629
1.105066
4.213804
5.148383
4.820470
6.269618
4.508621
4.955833
8.497219
9.914670
9.160755
11.038773
9.644306
10.134702
2.607837
2.997990
3.125575
3.960447
2.101204
2.440826
6.547526
7.429633
7.211967
8.604183
6.582660
7.071329
10.882386
12.101974
11.485961
13.082052
11.771655
12.222965
4.676728
5.009948
5.300632
6.124558
3.765612
4.188112
9.006577
9.768716
9.662961
10.898894
8.783989
9.280579
12.963404
13.958521
13.447219
14.713062
13.670196
14.051448
1.076930
1.856509
1.343532
2.338555
1.152933
1.259068
5.575791
7.307241
6.075192
8.060285
6.411747
6.619333
11.640657
13.752425
12.148558
14.414304
13.353197
13.555603
2.085695
2.867530
2.438950
3.439907
1.802480
1.932133
7.304572
8.822097
7.831953
9.587597
7.593308
7.808335
13.312996
15.042573
13.777638
15.633042
14.459846
14.649796
3.371802
4.051867
3.797667
4.699330
2.579128
2.730208
9.103233
10.351678
9.637630
11.109246
8.808625
9.027629
14.816370
16.181773
15.219281
16.685107
15.489569
15.664001
