# AIGen_Surface_WaveSheet.obj
# AI-generated undulating sheet z=0.8*sin(2x)*cos(2y) over [0,2pi]^2.
# Its normal z-component varies strongly -> visualize ReverseNormals by coloring with Normals.
v 0.000000 0.000000 0.000000
v 0.209440 0.000000 0.325389
v 0.418879 0.000000 0.594516
v 0.628319 0.000000 0.760845
v 0.837758 0.000000 0.795618
v 1.047198 0.000000 0.692820
v 1.256637 0.000000 0.470228
v 1.466077 0.000000 0.166329
v 1.675516 0.000000 -0.166329
v 1.884956 0.000000 -0.470228
v 2.094395 0.000000 -0.692820
v 2.303835 0.000000 -0.795618
v 2.513274 0.000000 -0.760845
v 2.722714 0.000000 -0.594516
v 2.932153 0.000000 -0.325389
v 3.141593 0.000000 0.000000
v 3.351032 0.000000 0.325389
v 3.560472 0.000000 0.594516
v 3.769911 0.000000 0.760845
v 3.979351 0.000000 0.795618
v 4.188790 0.000000 0.692820
v 4.398230 0.000000 0.470228
v 4.607669 0.000000 0.166329
v 4.817109 0.000000 -0.166329
v 5.026548 0.000000 -0.470228
v 5.235988 0.000000 -0.692820
v 5.445427 0.000000 -0.795618
v 5.654867 0.000000 -0.760845
v 5.864306 0.000000 -0.594516
v 6.073746 0.000000 -0.325389
v 6.283185 0.000000 0.000000
v 0.000000 0.209440 0.000000
v 0.209440 0.209440 0.297258
v 0.418879 0.209440 0.543117
v 0.628319 0.209440 0.695067
v 0.837758 0.209440 0.726833
v 1.047198 0.209440 0.632923
v 1.256637 0.209440 0.429575
v 1.466077 0.209440 0.151949
v 1.675516 0.209440 -0.151949
v 1.884956 0.209440 -0.429575
v 2.094395 0.209440 -0.632923
v 2.303835 0.209440 -0.726833
v 2.513274 0.209440 -0.695067
v 2.722714 0.209440 -0.543117
v 2.932153 0.209440 -0.297258
v 3.141593 0.209440 0.000000
v 3.351032 0.209440 0.297258
v 3.560472 0.209440 0.543117
v 3.769911 0.209440 0.695067
v 3.979351 0.209440 0.726833
v 4.188790 0.209440 0.632923
v 4.398230 0.209440 0.429575
v 4.607669 0.209440 0.151949
v 4.817109 0.209440 -0.151949
v 5.026548 0.209440 -0.429575
v 5.235988 0.209440 -0.632923
v 5.445427 0.209440 -0.726833
v 5.654867 0.209440 -0.695067
v 5.864306 0.209440 -0.543117
v 6.073746 0.209440 -0.297258
v 6.283185 0.209440 0.000000
v 0.000000 0.418879 0.000000
v 0.209440 0.418879 0.217728
v 0.418879 0.418879 0.397809
v 0.628319 0.418879 0.509105
v 0.837758 0.418879 0.532372
v 1.047198 0.418879 0.463587
v 1.256637 0.418879 0.314644
v 1.466077 0.418879 0.111296
v 1.675516 0.418879 -0.111296
v 1.884956 0.418879 -0.314644
v 2.094395 0.418879 -0.463587
v 2.303835 0.418879 -0.532372
v 2.513274 0.418879 -0.509105
v 2.722714 0.418879 -0.397809
v 2.932153 0.418879 -0.217728
v 3.141593 0.418879 0.000000
v 3.351032 0.418879 0.217728
v 3.560472 0.418879 0.397809
v 3.769911 0.418879 0.509105
v 3.979351 0.418879 0.532372
v 4.188790 0.418879 0.463587
v 4.398230 0.418879 0.314644
v 4.607669 0.418879 0.111296
v 4.817109 0.418879 -0.111296
v 5.026548 0.418879 -0.314644
v 5.235988 0.418879 -0.463587
v 5.445427 0.418879 -0.532372
v 5.654867 0.418879 -0.509105
v 5.864306 0.418879 -0.397809
v 6.073746 0.418879 -0.217728
v 6.283185 0.418879 0.000000
v 0.000000 0.628319 0.000000
v 0.209440 0.628319 0.100551
v 0.418879 0.628319 0.183716
v 0.628319 0.628319 0.235114
v 0.837758 0.628319 0.245859
v 1.047198 0.628319 0.214093
v 1.256637 0.628319 0.145309
v 1.466077 0.628319 0.051399
v 1.675516 0.628319 -0.051399
v 1.884956 0.628319 -0.145309
v 2.094395 0.628319 -0.214093
v 2.303835 0.628319 -0.245859
v 2.513274 0.628319 -0.235114
v 2.722714 0.628319 -0.183716
v 2.932153 0.628319 -0.100551
v 3.141593 0.628319 0.000000
v 3.351032 0.628319 0.100551
v 3.560472 0.628319 0.183716
v 3.769911 0.628319 0.235114
v 3.979351 0.628319 0.245859
v 4.188790 0.628319 0.214093
v 4.398230 0.628319 0.145309
v 4.607669 0.628319 0.051399
v 4.817109 0.628319 -0.051399
v 5.026548 0.628319 -0.145309
v 5.235988 0.628319 -0.214093
v 5.445427 0.628319 -0.245859
v 5.654867 0.628319 -0.235114
v 5.864306 0.628319 -0.183716
v 6.073746 0.628319 -0.100551
v 6.283185 0.628319 0.000000
v 0.000000 0.837758 0.000000
v 0.209440 0.837758 -0.034012
v 0.418879 0.837758 -0.062144
v 0.628319 0.837758 -0.079530
v 0.837758 0.837758 -0.083165
v 1.047198 0.837758 -0.072419
v 1.256637 0.837758 -0.049152
v 1.466077 0.837758 -0.017386
v 1.675516 0.837758 0.017386
v 1.884956 0.837758 0.049152
v 2.094395 0.837758 0.072419
v 2.303835 0.837758 0.083165
v 2.513274 0.837758 0.079530
v 2.722714 0.837758 0.062144
v 2.932153 0.837758 0.034012
v 3.141593 0.837758 0.000000
v 3.351032 0.837758 -0.034012
v 3.560472 0.837758 -0.062144
v 3.769911 0.837758 -0.079530
v 3.979351 0.837758 -0.083165
v 4.188790 0.837758 -0.072419
v 4.398230 0.837758 -0.049152
v 4.607669 0.837758 -0.017386
v 4.817109 0.837758 0.017386
v 5.026548 0.837758 0.049152
v 5.235988 0.837758 0.072419
v 5.445427 0.837758 0.083165
v 5.654867 0.837758 0.079530
v 5.864306 0.837758 0.062144
v 6.073746 0.837758 0.034012
v 6.283185 0.837758 0.000000
v 0.000000 1.047198 0.000000
v 0.209440 1.047198 -0.162695
v 0.418879 1.047198 -0.297258
v 0.628319 1.047198 -0.380423
v 0.837758 1.047198 -0.397809
v 1.047198 1.047198 -0.346410
v 1.256637 1.047198 -0.235114
v 1.466077 1.047198 -0.083165
v 1.675516 1.047198 0.083165
v 1.884956 1.047198 0.235114
v 2.094395 1.047198 0.346410
v 2.303835 1.047198 0.397809
v 2.513274 1.047198 0.380423
v 2.722714 1.047198 0.297258
v 2.932153 1.047198 0.162695
v 3.141593 1.047198 0.000000
v 3.351032 1.047198 -0.162695
v 3.560472 1.047198 -0.297258
v 3.769911 1.047198 -0.380423
v 3.979351 1.047198 -0.397809
v 4.188790 1.047198 -0.346410
v 4.398230 1.047198 -0.235114
v 4.607669 1.047198 -0.083165
v 4.817109 1.047198 0.083165
v 5.026548 1.047198 0.235114
v 5.235988 1.047198 0.346410
v 5.445427 1.047198 0.397809
v 5.654867 1.047198 0.380423
v 5.864306 1.047198 0.297258
v 6.073746 1.047198 0.162695
v 6.283185 1.047198 0.000000
v 0.000000 1.256637 0.000000
v 0.209440 1.256637 -0.263245
v 0.418879 1.256637 -0.480973
v 0.628319 1.256637 -0.615537
v 0.837758 1.256637 -0.643668
v 1.047198 1.256637 -0.560503
v 1.256637 1.256637 -0.380423
v 1.466077 1.256637 -0.134563
v 1.675516 1.256637 0.134563
v 1.884956 1.256637 0.380423
v 2.094395 1.256637 0.560503
v 2.303835 1.256637 0.643668
v 2.513274 1.256637 0.615537
v 2.722714 1.256637 0.480973
v 2.932153 1.256637 0.263245
v 3.141593 1.256637 0.000000
v 3.351032 1.256637 -0.263245
v 3.560472 1.256637 -0.480973
v 3.769911 1.256637 -0.615537
v 3.979351 1.256637 -0.643668
v 4.188790 1.256637 -0.560503
v 4.398230 1.256637 -0.380423
v 4.607669 1.256637 -0.134563
v 4.817109 1.256637 0.134563
v 5.026548 1.256637 0.380423
v 5.235988 1.256637 0.560503
v 5.445427 1.256637 0.643668
v 5.654867 1.256637 0.615537
v 5.864306 1.256637 0.480973
v 6.073746 1.256637 0.263245
v 6.283185 1.256637 0.000000
v 0.000000 1.466077 0.000000
v 0.209440 1.466077 -0.318279
v 0.418879 1.466077 -0.581524
v 0.628319 1.466077 -0.744219
v 0.837758 1.466077 -0.778231
v 1.047198 1.466077 -0.677681
v 1.256637 1.466077 -0.459953
v 1.466077 1.466077 -0.162695
v 1.675516 1.466077 0.162695
v 1.884956 1.466077 0.459953
v 2.094395 1.466077 0.677681
v 2.303835 1.466077 0.778231
v 2.513274 1.466077 0.744219
v 2.722714 1.466077 0.581524
v 2.932153 1.466077 0.318279
v 3.141593 1.466077 0.000000
v 3.351032 1.466077 -0.318279
v 3.560472 1.466077 -0.581524
v 3.769911 1.466077 -0.744219
v 3.979351 1.466077 -0.778231
v 4.188790 1.466077 -0.677681
v 4.398230 1.466077 -0.459953
v 4.607669 1.466077 -0.162695
v 4.817109 1.466077 0.162695
v 5.026548 1.466077 0.459953
v 5.235988 1.466077 0.677681
v 5.445427 1.466077 0.778231
v 5.654867 1.466077 0.744219
v 5.864306 1.466077 0.581524
v 6.073746 1.466077 0.318279
v 6.283185 1.466077 0.000000
v 0.000000 1.675516 0.000000
v 0.209440 1.675516 -0.318279
v 0.418879 1.675516 -0.581524
v 0.628319 1.675516 -0.744219
v 0.837758 1.675516 -0.778231
v 1.047198 1.675516 -0.677681
v 1.256637 1.675516 -0.459953
v 1.466077 1.675516 -0.162695
v 1.675516 1.675516 0.162695
v 1.884956 1.675516 0.459953
v 2.094395 1.675516 0.677681
v 2.303835 1.675516 0.778231
v 2.513274 1.675516 0.744219
v 2.722714 1.675516 0.581524
v 2.932153 1.675516 0.318279
v 3.141593 1.675516 0.000000
v 3.351032 1.675516 -0.318279
v 3.560472 1.675516 -0.581524
v 3.769911 1.675516 -0.744219
v 3.979351 1.675516 -0.778231
v 4.188790 1.675516 -0.677681
v 4.398230 1.675516 -0.459953
v 4.607669 1.675516 -0.162695
v 4.817109 1.675516 0.162695
v 5.026548 1.675516 0.459953
v 5.235988 1.675516 0.677681
v 5.445427 1.675516 0.778231
v 5.654867 1.675516 0.744219
v 5.864306 1.675516 0.581524
v 6.073746 1.675516 0.318279
v 6.283185 1.675516 0.000000
v 0.000000 1.884956 0.000000
v 0.209440 1.884956 -0.263245
v 0.418879 1.884956 -0.480973
v 0.628319 1.884956 -0.615537
v 0.837758 1.884956 -0.643668
v 1.047198 1.884956 -0.560503
v 1.256637 1.884956 -0.380423
v 1.466077 1.884956 -0.134563
v 1.675516 1.884956 0.134563
v 1.884956 1.884956 0.380423
v 2.094395 1.884956 0.560503
v 2.303835 1.884956 0.643668
v 2.513274 1.884956 0.615537
v 2.722714 1.884956 0.480973
v 2.932153 1.884956 0.263245
v 3.141593 1.884956 0.000000
v 3.351032 1.884956 -0.263245
v 3.560472 1.884956 -0.480973
v 3.769911 1.884956 -0.615537
v 3.979351 1.884956 -0.643668
v 4.188790 1.884956 -0.560503
v 4.398230 1.884956 -0.380423
v 4.607669 1.884956 -0.134563
v 4.817109 1.884956 0.134563
v 5.026548 1.884956 0.380423
v 5.235988 1.884956 0.560503
v 5.445427 1.884956 0.643668
v 5.654867 1.884956 0.615537
v 5.864306 1.884956 0.480973
v 6.073746 1.884956 0.263245
v 6.283185 1.884956 0.000000
v 0.000000 2.094395 0.000000
v 0.209440 2.094395 -0.162695
v 0.418879 2.094395 -0.297258
v 0.628319 2.094395 -0.380423
v 0.837758 2.094395 -0.397809
v 1.047198 2.094395 -0.346410
v 1.256637 2.094395 -0.235114
v 1.466077 2.094395 -0.083165
v 1.675516 2.094395 0.083165
v 1.884956 2.094395 0.235114
v 2.094395 2.094395 0.346410
v 2.303835 2.094395 0.397809
v 2.513274 2.094395 0.380423
v 2.722714 2.094395 0.297258
v 2.932153 2.094395 0.162695
v 3.141593 2.094395 0.000000
v 3.351032 2.094395 -0.162695
v 3.560472 2.094395 -0.297258
v 3.769911 2.094395 -0.380423
v 3.979351 2.094395 -0.397809
v 4.188790 2.094395 -0.346410
v 4.398230 2.094395 -0.235114
v 4.607669 2.094395 -0.083165
v 4.817109 2.094395 0.083165
v 5.026548 2.094395 0.235114
v 5.235988 2.094395 0.346410
v 5.445427 2.094395 0.397809
v 5.654867 2.094395 0.380423
v 5.864306 2.094395 0.297258
v 6.073746 2.094395 0.162695
v 6.283185 2.094395 0.000000
v 0.000000 2.303835 0.000000
v 0.209440 2.303835 -0.034012
v 0.418879 2.303835 -0.062144
v 0.628319 2.303835 -0.079530
v 0.837758 2.303835 -0.083165
v 1.047198 2.303835 -0.072419
v 1.256637 2.303835 -0.049152
v 1.466077 2.303835 -0.017386
v 1.675516 2.303835 0.017386
v 1.884956 2.303835 0.049152
v 2.094395 2.303835 0.072419
v 2.303835 2.303835 0.083165
v 2.513274 2.303835 0.079530
v 2.722714 2.303835 0.062144
v 2.932153 2.303835 0.034012
v 3.141593 2.303835 0.000000
v 3.351032 2.303835 -0.034012
v 3.560472 2.303835 -0.062144
v 3.769911 2.303835 -0.079530
v 3.979351 2.303835 -0.083165
v 4.188790 2.303835 -0.072419
v 4.398230 2.303835 -0.049152
v 4.607669 2.303835 -0.017386
v 4.817109 2.303835 0.017386
v 5.026548 2.303835 0.049152
v 5.235988 2.303835 0.072419
v 5.445427 2.303835 0.083165
v 5.654867 2.303835 0.079530
v 5.864306 2.303835 0.062144
v 6.073746 2.303835 0.034012
v 6.283185 2.303835 0.000000
v 0.000000 2.513274 0.000000
v 0.209440 2.513274 0.100551
v 0.418879 2.513274 0.183716
v 0.628319 2.513274 0.235114
v 0.837758 2.513274 0.245859
v 1.047198 2.513274 0.214093
v 1.256637 2.513274 0.145309
v 1.466077 2.513274 0.051399
v 1.675516 2.513274 -0.051399
v 1.884956 2.513274 -0.145309
v 2.094395 2.513274 -0.214093
v 2.303835 2.513274 -0.245859
v 2.513274 2.513274 -0.235114
v 2.722714 2.513274 -0.183716
v 2.932153 2.513274 -0.100551
v 3.141593 2.513274 0.000000
v 3.351032 2.513274 0.100551
v 3.560472 2.513274 0.183716
v 3.769911 2.513274 0.235114
v 3.979351 2.513274 0.245859
v 4.188790 2.513274 0.214093
v 4.398230 2.513274 0.145309
v 4.607669 2.513274 0.051399
v 4.817109 2.513274 -0.051399
v 5.026548 2.513274 -0.145309
v 5.235988 2.513274 -0.214093
v 5.445427 2.513274 -0.245859
v 5.654867 2.513274 -0.235114
v 5.864306 2.513274 -0.183716
v 6.073746 2.513274 -0.100551
v 6.283185 2.513274 0.000000
v 0.000000 2.722714 0.000000
v 0.209440 2.722714 0.217728
v 0.418879 2.722714 0.397809
v 0.628319 2.722714 0.509105
v 0.837758 2.722714 0.532372
v 1.047198 2.722714 0.463587
v 1.256637 2.722714 0.314644
v 1.466077 2.722714 0.111296
v 1.675516 2.722714 -0.111296
v 1.884956 2.722714 -0.314644
v 2.094395 2.722714 -0.463587
v 2.303835 2.722714 -0.532372
v 2.513274 2.722714 -0.509105
v 2.722714 2.722714 -0.397809
v 2.932153 2.722714 -0.217728
v 3.141593 2.722714 0.000000
v 3.351032 2.722714 0.217728
v 3.560472 2.722714 0.397809
v 3.769911 2.722714 0.509105
v 3.979351 2.722714 0.532372
v 4.188790 2.722714 0.463587
v 4.398230 2.722714 0.314644
v 4.607669 2.722714 0.111296
v 4.817109 2.722714 -0.111296
v 5.026548 2.722714 -0.314644
v 5.235988 2.722714 -0.463587
v 5.445427 2.722714 -0.532372
v 5.654867 2.722714 -0.509105
v 5.864306 2.722714 -0.397809
v 6.073746 2.722714 -0.217728
v 6.283185 2.722714 0.000000
v 0.000000 2.932153 0.000000
v 0.209440 2.932153 0.297258
v 0.418879 2.932153 0.543117
v 0.628319 2.932153 0.695067
v 0.837758 2.932153 0.726833
v 1.047198 2.932153 0.632923
v 1.256637 2.932153 0.429575
v 1.466077 2.932153 0.151949
v 1.675516 2.932153 -0.151949
v 1.884956 2.932153 -0.429575
v 2.094395 2.932153 -0.632923
v 2.303835 2.932153 -0.726833
v 2.513274 2.932153 -0.695067
v 2.722714 2.932153 -0.543117
v 2.932153 2.932153 -0.297258
v 3.141593 2.932153 0.000000
v 3.351032 2.932153 0.297258
v 3.560472 2.932153 0.543117
v 3.769911 2.932153 0.695067
v 3.979351 2.932153 0.726833
v 4.188790 2.932153 0.632923
v 4.398230 2.932153 0.429575
v 4.607669 2.932153 0.151949
v 4.817109 2.932153 -0.151949
v 5.026548 2.932153 -0.429575
v 5.235988 2.932153 -0.632923
v 5.445427 2.932153 -0.726833
v 5.654867 2.932153 -0.695067
v 5.864306 2.932153 -0.543117
v 6.073746 2.932153 -0.297258
v 6.283185 2.932153 0.000000
v 0.000000 3.141593 0.000000
v 0.209440 3.141593 0.325389
v 0.418879 3.141593 0.594516
v 0.628319 3.141593 0.760845
v 0.837758 3.141593 0.795618
v 1.047198 3.141593 0.692820
v 1.256637 3.141593 0.470228
v 1.466077 3.141593 0.166329
v 1.675516 3.141593 -0.166329
v 1.884956 3.141593 -0.470228
v 2.094395 3.141593 -0.692820
v 2.303835 3.141593 -0.795618
v 2.513274 3.141593 -0.760845
v 2.722714 3.141593 -0.594516
v 2.932153 3.141593 -0.325389
v 3.141593 3.141593 0.000000
v 3.351032 3.141593 0.325389
v 3.560472 3.141593 0.594516
v 3.769911 3.141593 0.760845
v 3.979351 3.141593 0.795618
v 4.188790 3.141593 0.692820
v 4.398230 3.141593 0.470228
v 4.607669 3.141593 0.166329
v 4.817109 3.141593 -0.166329
v 5.026548 3.141593 -0.470228
v 5.235988 3.141593 -0.692820
v 5.445427 3.141593 -0.795618
v 5.654867 3.141593 -0.760845
v 5.864306 3.141593 -0.594516
v 6.073746 3.141593 -0.325389
v 6.283185 3.141593 0.000000
v 0.000000 3.351032 0.000000
v 0.209440 3.351032 0.297258
v 0.418879 3.351032 0.543117
v 0.628319 3.351032 0.695067
v 0.837758 3.351032 0.726833
v 1.047198 3.351032 0.632923
v 1.256637 3.351032 0.429575
v 1.466077 3.351032 0.151949
v 1.675516 3.351032 -0.151949
v 1.884956 3.351032 -0.429575
v 2.094395 3.351032 -0.632923
v 2.303835 3.351032 -0.726833
v 2.513274 3.351032 -0.695067
v 2.722714 3.351032 -0.543117
v 2.932153 3.351032 -0.297258
v 3.141593 3.351032 0.000000
v 3.351032 3.351032 0.297258
v 3.560472 3.351032 0.543117
v 3.769911 3.351032 0.695067
v 3.979351 3.351032 0.726833
v 4.188790 3.351032 0.632923
v 4.398230 3.351032 0.429575
v 4.607669 3.351032 0.151949
v 4.817109 3.351032 -0.151949
v 5.026548 3.351032 -0.429575
v 5.235988 3.351032 -0.632923
v 5.445427 3.351032 -0.726833
v 5.654867 3.351032 -0.695067
v 5.864306 3.351032 -0.543117
v 6.073746 3.351032 -0.297258
v 6.283185 3.351032 0.000000
v 0.000000 3.560472 0.000000
v 0.209440 3.560472 0.217728
v 0.418879 3.560472 0.397809
v 0.628319 3.560472 0.509105
v 0.837758 3.560472 0.532372
v 1.047198 3.560472 0.463587
v 1.256637 3.560472 0.314644
v 1.466077 3.560472 0.111296
v 1.675516 3.560472 -0.111296
v 1.884956 3.560472 -0.314644
v 2.094395 3.560472 -0.463587
v 2.303835 3.560472 -0.532372
v 2.513274 3.560472 -0.509105
v 2.722714 3.560472 -0.397809
v 2.932153 3.560472 -0.217728
v 3.141593 3.560472 0.000000
v 3.351032 3.560472 0.217728
v 3.560472 3.560472 0.397809
v 3.769911 3.560472 0.509105
v 3.979351 3.560472 0.532372
v 4.188790 3.560472 0.463587
v 4.398230 3.560472 0.314644
v 4.607669 3.560472 0.111296
v 4.817109 3.560472 -0.111296
v 5.026548 3.560472 -0.314644
v 5.235988 3.560472 -0.463587
v 5.445427 3.560472 -0.532372
v 5.654867 3.560472 -0.509105
v 5.864306 3.560472 -0.397809
v 6.073746 3.560472 -0.217728
v 6.283185 3.560472 0.000000
v 0.000000 3.769911 0.000000
v 0.209440 3.769911 0.100551
v 0.418879 3.769911 0.183716
v 0.628319 3.769911 0.235114
v 0.837758 3.769911 0.245859
v 1.047198 3.769911 0.214093
v 1.256637 3.769911 0.145309
v 1.466077 3.769911 0.051399
v 1.675516 3.769911 -0.051399
v 1.884956 3.769911 -0.145309
v 2.094395 3.769911 -0.214093
v 2.303835 3.769911 -0.245859
v 2.513274 3.769911 -0.235114
v 2.722714 3.769911 -0.183716
v 2.932153 3.769911 -0.100551
v 3.141593 3.769911 0.000000
v 3.351032 3.769911 0.100551
v 3.560472 3.769911 0.183716
v 3.769911 3.769911 0.235114
v 3.979351 3.769911 0.245859
v 4.188790 3.769911 0.214093
v 4.398230 3.769911 0.145309
v 4.607669 3.769911 0.051399
v 4.817109 3.769911 -0.051399
v 5.026548 3.769911 -0.145309
v 5.235988 3.769911 -0.214093
v 5.445427 3.769911 -0.245859
v 5.654867 3.769911 -0.235114
v 5.864306 3.769911 -0.183716
v 6.073746 3.769911 -0.100551
v 6.283185 3.769911 0.000000
v 0.000000 3.979351 0.000000
v 0.209440 3.979351 -0.034012
v 0.418879 3.979351 -0.062144
v 0.628319 3.979351 -0.079530
v 0.837758 3.979351 -0.083165
v 1.047198 3.979351 -0.072419
v 1.256637 3.979351 -0.049152
v 1.466077 3.979351 -0.017386
v 1.675516 3.979351 0.017386
v 1.884956 3.979351 0.049152
v 2.094395 3.979351 0.072419
v 2.303835 3.979351 0.083165
v 2.513274 3.979351 0.079530
v 2.722714 3.979351 0.062144
v 2.932153 3.979351 0.034012
v 3.141593 3.979351 0.000000
v 3.351032 3.979351 -0.034012
v 3.560472 3.979351 -0.062144
v 3.769911 3.979351 -0.079530
v 3.979351 3.979351 -0.083165
v 4.188790 3.979351 -0.072419
v 4.398230 3.979351 -0.049152
v 4.607669 3.979351 -0.017386
v 4.817109 3.979351 0.017386
v 5.026548 3.979351 0.049152
v 5.235988 3.979351 0.072419
v 5.445427 3.979351 0.083165
v 5.654867 3.979351 0.079530
v 5.864306 3.979351 0.062144
v 6.073746 3.979351 0.034012
v 6.283185 3.979351 0.000000
v 0.000000 4.188790 0.000000
v 0.209440 4.188790 -0.162695
v 0.418879 4.188790 -0.297258
v 0.628319 4.188790 -0.380423
v 0.837758 4.188790 -0.397809
v 1.047198 4.188790 -0.346410
v 1.256637 4.188790 -0.235114
v 1.466077 4.188790 -0.083165
v 1.675516 4.188790 0.083165
v 1.884956 4.188790 0.235114
v 2.094395 4.188790 0.346410
v 2.303835 4.188790 0.397809
v 2.513274 4.188790 0.380423
v 2.722714 4.188790 0.297258
v 2.932153 4.188790 0.162695
v 3.141593 4.188790 0.000000
v 3.351032 4.188790 -0.162695
v 3.560472 4.188790 -0.297258
v 3.769911 4.188790 -0.380423
v 3.979351 4.188790 -0.397809
v 4.188790 4.188790 -0.346410
v 4.398230 4.188790 -0.235114
v 4.607669 4.188790 -0.083165
v 4.817109 4.188790 0.083165
v 5.026548 4.188790 0.235114
v 5.235988 4.188790 0.346410
v 5.445427 4.188790 0.397809
v 5.654867 4.188790 0.380423
v 5.864306 4.188790 0.297258
v 6.073746 4.188790 0.162695
v 6.283185 4.188790 0.000000
v 0.000000 4.398230 0.000000
v 0.209440 4.398230 -0.263245
v 0.418879 4.398230 -0.480973
v 0.628319 4.398230 -0.615537
v 0.837758 4.398230 -0.643668
v 1.047198 4.398230 -0.560503
v 1.256637 4.398230 -0.380423
v 1.466077 4.398230 -0.134563
v 1.675516 4.398230 0.134563
v 1.884956 4.398230 0.380423
v 2.094395 4.398230 0.560503
v 2.303835 4.398230 0.643668
v 2.513274 4.398230 0.615537
v 2.722714 4.398230 0.480973
v 2.932153 4.398230 0.263245
v 3.141593 4.398230 0.000000
v 3.351032 4.398230 -0.263245
v 3.560472 4.398230 -0.480973
v 3.769911 4.398230 -0.615537
v 3.979351 4.398230 -0.643668
v 4.188790 4.398230 -0.560503
v 4.398230 4.398230 -0.380423
v 4.607669 4.398230 -0.134563
v 4.817109 4.398230 0.134563
v 5.026548 4.398230 0.380423
v 5.235988 4.398230 0.560503
v 5.445427 4.398230 0.643668
v 5.654867 4.398230 0.615537
v 5.864306 4.398230 0.480973
v 6.073746 4.398230 0.263245
v 6.283185 4.398230 0.000000
v 0.000000 4.607669 0.000000
v 0.209440 4.607669 -0.318279
v 0.418879 4.607669 -0.581524
v 0.628319 4.607669 -0.744219
v 0.837758 4.607669 -0.778231
v 1.047198 4.607669 -0.677681
v 1.256637 4.607669 -0.459953
v 1.466077 4.607669 -0.162695
v 1.675516 4.607669 0.162695
v 1.884956 4.607669 0.459953
v 2.094395 4.607669 0.677681
v 2.303835 4.607669 0.778231
v 2.513274 4.607669 0.744219
v 2.722714 4.607669 0.581524
v 2.932153 4.607669 0.318279
v 3.141593 4.607669 0.000000
v 3.351032 4.607669 -0.318279
v 3.560472 4.607669 -0.581524
v 3.769911 4.607669 -0.744219
v 3.979351 4.607669 -0.778231
v 4.188790 4.607669 -0.677681
v 4.398230 4.607669 -0.459953
v 4.607669 4.607669 -0.162695
v 4.817109 4.607669 0.162695
v 5.026548 4.607669 0.459953
v 5.235988 4.607669 0.677681
v 5.445427 4.607669 0.778231
v 5.654867 4.607669 0.744219
v 5.864306 4.607669 0.581524
v 6.073746 4.607669 0.318279
v 6.283185 4.607669 0.000000
v 0.000000 4.817109 0.000000
v 0.209440 4.817109 -0.318279
v 0.418879 4.817109 -0.581524
v 0.628319 4.817109 -0.744219
v 0.837758 4.817109 -0.778231
v 1.047198 4.817109 -0.677681
v 1.256637 4.817109 -0.459953
v 1.466077 4.817109 -0.162695
v 1.675516 4.817109 0.162695
v 1.884956 4.817109 0.459953
v 2.094395 4.817109 0.677681
v 2.303835 4.817109 0.778231
v 2.513274 4.817109 0.744219
v 2.722714 4.817109 0.581524
v 2.932153 4.817109 0.318279
v 3.141593 4.817109 0.000000
v 3.351032 4.817109 -0.318279
v 3.560472 4.817109 -0.581524
v 3.769911 4.817109 -0.744219
v 3.979351 4.817109 -0.778231
v 4.188790 4.817109 -0.677681
v 4.398230 4.817109 -0.459953
v 4.607669 4.817109 -0.162695
v 4.817109 4.817109 0.162695
v 5.026548 4.817109 0.459953
v 5.235988 4.817109 0.677681
v 5.445427 4.817109 0.778231
v 5.654867 4.817109 0.744219
v 5.864306 4.817109 0.581524
v 6.073746 4.817109 0.318279
v 6.283185 4.817109 0.000000
v 0.000000 5.026548 0.000000
v 0.209440 5.026548 -0.263245
v 0.418879 5.026548 -0.480973
v 0.628319 5.026548 -0.615537
v 0.837758 5.026548 -0.643668
v 1.047198 5.026548 -0.560503
v 1.256637 5.026548 -0.380423
v 1.466077 5.026548 -0.134563
v 1.675516 5.026548 0.134563
v 1.884956 5.026548 0.380423
v 2.094395 5.026548 0.560503
v 2.303835 5.026548 0.643668
v 2.513274 5.026548 0.615537
v 2.722714 5.026548 0.480973
v 2.932153 5.026548 0.263245
v 3.141593 5.026548 0.000000
v 3.351032 5.026548 -0.263245
v 3.560472 5.026548 -0.480973
v 3.769911 5.026548 -0.615537
v 3.979351 5.026548 -0.643668
v 4.188790 5.026548 -0.560503
v 4.398230 5.026548 -0.380423
v 4.607669 5.026548 -0.134563
v 4.817109 5.026548 0.134563
v 5.026548 5.026548 0.380423
v 5.235988 5.026548 0.560503
v 5.445427 5.026548 0.643668
v 5.654867 5.026548 0.615537
v 5.864306 5.026548 0.480973
v 6.073746 5.026548 0.263245
v 6.283185 5.026548 0.000000
v 0.000000 5.235988 0.000000
v 0.209440 5.235988 -0.162695
v 0.418879 5.235988 -0.297258
v 0.628319 5.235988 -0.380423
v 0.837758 5.235988 -0.397809
v 1.047198 5.235988 -0.346410
v 1.256637 5.235988 -0.235114
v 1.466077 5.235988 -0.083165
v 1.675516 5.235988 0.083165
v 1.884956 5.235988 0.235114
v 2.094395 5.235988 0.346410
v 2.303835 5.235988 0.397809
v 2.513274 5.235988 0.380423
v 2.722714 5.235988 0.297258
v 2.932153 5.235988 0.162695
v 3.141593 5.235988 0.000000
v 3.351032 5.235988 -0.162695
v 3.560472 5.235988 -0.297258
v 3.769911 5.235988 -0.380423
v 3.979351 5.235988 -0.397809
v 4.188790 5.235988 -0.346410
v 4.398230 5.235988 -0.235114
v 4.607669 5.235988 -0.083165
v 4.817109 5.235988 0.083165
v 5.026548 5.235988 0.235114
v 5.235988 5.235988 0.346410
v 5.445427 5.235988 0.397809
v 5.654867 5.235988 0.380423
v 5.864306 5.235988 0.297258
v 6.073746 5.235988 0.162695
v 6.283185 5.235988 0.000000
v 0.000000 5.445427 0.000000
v 0.209440 5.445427 -0.034012
v 0.418879 5.445427 -0.062144
v 0.628319 5.445427 -0.079530
v 0.837758 5.445427 -0.083165
v 1.047198 5.445427 -0.072419
v 1.256637 5.445427 -0.049152
v 1.466077 5.445427 -0.017386
v 1.675516 5.445427 0.017386
v 1.884956 5.445427 0.049152
v 2.094395 5.445427 0.072419
v 2.303835 5.445427 0.083165
v 2.513274 5.445427 0.079530
v 2.722714 5.445427 0.062144
v 2.932153 5.445427 0.034012
v 3.141593 5.445427 0.000000
v 3.351032 5.445427 -0.034012
v 3.560472 5.445427 -0.062144
v 3.769911 5.445427 -0.079530
v 3.979351 5.445427 -0.083165
v 4.188790 5.445427 -0.072419
v 4.398230 5.445427 -0.049152
v 4.607669 5.445427 -0.017386
v 4.817109 5.445427 0.017386
v 5.026548 5.445427 0.049152
v 5.235988 5.445427 0.072419
v 5.445427 5.445427 0.083165
v 5.654867 5.445427 0.079530
v 5.864306 5.445427 0.062144
v 6.073746 5.445427 0.034012
v 6.283185 5.445427 0.000000
v 0.000000 5.654867 0.000000
v 0.209440 5.654867 0.100551
v 0.418879 5.654867 0.183716
v 0.628319 5.654867 0.235114
v 0.837758 5.654867 0.245859
v 1.047198 5.654867 0.214093
v 1.256637 5.654867 0.145309
v 1.466077 5.654867 0.051399
v 1.675516 5.654867 -0.051399
v 1.884956 5.654867 -0.145309
v 2.094395 5.654867 -0.214093
v 2.303835 5.654867 -0.245859
v 2.513274 5.654867 -0.235114
v 2.722714 5.654867 -0.183716
v 2.932153 5.654867 -0.100551
v 3.141593 5.654867 0.000000
v 3.351032 5.654867 0.100551
v 3.560472 5.654867 0.183716
v 3.769911 5.654867 0.235114
v 3.979351 5.654867 0.245859
v 4.188790 5.654867 0.214093
v 4.398230 5.654867 0.145309
v 4.607669 5.654867 0.051399
v 4.817109 5.654867 -0.051399
v 5.026548 5.654867 -0.145309
v 5.235988 5.654867 -0.214093
v 5.445427 5.654867 -0.245859
v 5.654867 5.654867 -0.235114
v 5.864306 5.654867 -0.183716
v 6.073746 5.654867 -0.100551
v 6.283185 5.654867 0.000000
v 0.000000 5.864306 0.000000
v 0.209440 5.864306 0.217728
v 0.418879 5.864306 0.397809
v 0.628319 5.864306 0.509105
v 0.837758 5.864306 0.532372
v 1.047198 5.864306 0.463587
v 1.256637 5.864306 0.314644
v 1.466077 5.864306 0.111296
v 1.675516 5.864306 -0.111296
v 1.884956 5.864306 -0.314644
v 2.094395 5.864306 -0.463587
v 2.303835 5.864306 -0.532372
v 2.513274 5.864306 -0.509105
v 2.722714 5.864306 -0.397809
v 2.932153 5.864306 -0.217728
v 3.141593 5.864306 0.000000
v 3.351032 5.864306 0.217728
v 3.560472 5.864306 0.397809
v 3.769911 5.864306 0.509105
v 3.979351 5.864306 0.532372
v 4.188790 5.864306 0.463587
v 4.398230 5.864306 0.314644
v 4.607669 5.864306 0.111296
v 4.817109 5.864306 -0.111296
v 5.026548 5.864306 -0.314644
v 5.235988 5.864306 -0.463587
v 5.445427 5.864306 -0.532372
v 5.654867 5.864306 -0.509105
v 5.864306 5.864306 -0.397809
v 6.073746 5.864306 -0.217728
v 6.283185 5.864306 0.000000
v 0.000000 6.073746 0.000000
v 0.209440 6.073746 0.297258
v 0.418879 6.073746 0.543117
v 0.628319 6.073746 0.695067
v 0.837758 6.073746 0.726833
v 1.047198 6.073746 0.632923
v 1.256637 6.073746 0.429575
v 1.466077 6.073746 0.151949
v 1.675516 6.073746 -0.151949
v 1.884956 6.073746 -0.429575
v 2.094395 6.073746 -0.632923
v 2.303835 6.073746 -0.726833
v 2.513274 6.073746 -0.695067
v 2.722714 6.073746 -0.543117
v 2.932153 6.073746 -0.297258
v 3.141593 6.073746 0.000000
v 3.351032 6.073746 0.297258
v 3.560472 6.073746 0.543117
v 3.769911 6.073746 0.695067
v 3.979351 6.073746 0.726833
v 4.188790 6.073746 0.632923
v 4.398230 6.073746 0.429575
v 4.607669 6.073746 0.151949
v 4.817109 6.073746 -0.151949
v 5.026548 6.073746 -0.429575
v 5.235988 6.073746 -0.632923
v 5.445427 6.073746 -0.726833
v 5.654867 6.073746 -0.695067
v 5.864306 6.073746 -0.543117
v 6.073746 6.073746 -0.297258
v 6.283185 6.073746 0.000000
v 0.000000 6.283185 0.000000
v 0.209440 6.283185 0.325389
v 0.418879 6.283185 0.594516
v 0.628319 6.283185 0.760845
v 0.837758 6.283185 0.795618
v 1.047198 6.283185 0.692820
v 1.256637 6.283185 0.470228
v 1.466077 6.283185 0.166329
v 1.675516 6.283185 -0.166329
v 1.884956 6.283185 -0.470228
v 2.094395 6.283185 -0.692820
v 2.303835 6.283185 -0.795618
v 2.513274 6.283185 -0.760845
v 2.722714 6.283185 -0.594516
v 2.932153 6.283185 -0.325389
v 3.141593 6.283185 0.000000
v 3.351032 6.283185 0.325389
v 3.560472 6.283185 0.594516
v 3.769911 6.283185 0.760845
v 3.979351 6.283185 0.795618
v 4.188790 6.283185 0.692820
v 4.398230 6.283185 0.470228
v 4.607669 6.283185 0.166329
v 4.817109 6.283185 -0.166329
v 5.026548 6.283185 -0.470228
v 5.235988 6.283185 -0.692820
v 5.445427 6.283185 -0.795618
v 5.654867 6.283185 -0.760845
v 5.864306 6.283185 -0.594516
v 6.073746 6.283185 -0.325389
v 6.283185 6.283185 0.000000
f 1 2 33 32
f 2 3 34 33
f 3 4 35 34
f 4 5 36 35
f 5 6 37 36
f 6 7 38 37
f 7 8 39 38
f 8 9 40 39
f 9 10 41 40
f 10 11 42 41
f 11 12 43 42
f 12 13 44 43
f 13 14 45 44
f 14 15 46 45
f 15 16 47 46
f 16 17 48 47
f 17 18 49 48
f 18 19 50 49
f 19 20 51 50
f 20 21 52 51
f 21 22 53 52
f 22 23 54 53
f 23 24 55 54
f 24 25 56 55
f 25 26 57 56
f 26 27 58 57
f 27 28 59 58
f 28 29 60 59
f 29 30 61 60
f 30 31 62 61
f 32 33 64 63
f 33 34 65 64
f 34 35 66 65
f 35 36 67 66
f 36 37 68 67
f 37 38 69 68
f 38 39 70 69
f 39 40 71 70
f 40 41 72 71
f 41 42 73 72
f 42 43 74 73
f 43 44 75 74
f 44 45 76 75
f 45 46 77 76
f 46 47 78 77
f 47 48 79 78
f 48 49 80 79
f 49 50 81 80
f 50 51 82 81
f 51 52 83 82
f 52 53 84 83
f 53 54 85 84
f 54 55 86 85
f 55 56 87 86
f 56 57 88 87
f 57 58 89 88
f 58 59 90 89
f 59 60 91 90
f 60 61 92 91
f 61 62 93 92
f 63 64 95 94
f 64 65 96 95
f 65 66 97 96
f 66 67 98 97
f 67 68 99 98
f 68 69 100 99
f 69 70 101 100
f 70 71 102 101
f 71 72 103 102
f 72 73 104 103
f 73 74 105 104
f 74 75 106 105
f 75 76 107 106
f 76 77 108 107
f 77 78 109 108
f 78 79 110 109
f 79 80 111 110
f 80 81 112 111
f 81 82 113 112
f 82 83 114 113
f 83 84 115 114
f 84 85 116 115
f 85 86 117 116
f 86 87 118 117
f 87 88 119 118
f 88 89 120 119
f 89 90 121 120
f 90 91 122 121
f 91 92 123 122
f 92 93 124 123
f 94 95 126 125
f 95 96 127 126
f 96 97 128 127
f 97 98 129 128
f 98 99 130 129
f 99 100 131 130
f 100 101 132 131
f 101 102 133 132
f 102 103 134 133
f 103 104 135 134
f 104 105 136 135
f 105 106 137 136
f 106 107 138 137
f 107 108 139 138
f 108 109 140 139
f 109 110 141 140
f 110 111 142 141
f 111 112 143 142
f 112 113 144 143
f 113 114 145 144
f 114 115 146 145
f 115 116 147 146
f 116 117 148 147
f 117 118 149 148
f 118 119 150 149
f 119 120 151 150
f 120 121 152 151
f 121 122 153 152
f 122 123 154 153
f 123 124 155 154
f 125 126 157 156
f 126 127 158 157
f 127 128 159 158
f 128 129 160 159
f 129 130 161 160
f 130 131 162 161
f 131 132 163 162
f 132 133 164 163
f 133 134 165 164
f 134 135 166 165
f 135 136 167 166
f 136 137 168 167
f 137 138 169 168
f 138 139 170 169
f 139 140 171 170
f 140 141 172 171
f 141 142 173 172
f 142 143 174 173
f 143 144 175 174
f 144 145 176 175
f 145 146 177 176
f 146 147 178 177
f 147 148 179 178
f 148 149 180 179
f 149 150 181 180
f 150 151 182 181
f 151 152 183 182
f 152 153 184 183
f 153 154 185 184
f 154 155 186 185
f 156 157 188 187
f 157 158 189 188
f 158 159 190 189
f 159 160 191 190
f 160 161 192 191
f 161 162 193 192
f 162 163 194 193
f 163 164 195 194
f 164 165 196 195
f 165 166 197 196
f 166 167 198 197
f 167 168 199 198
f 168 169 200 199
f 169 170 201 200
f 170 171 202 201
f 171 172 203 202
f 172 173 204 203
f 173 174 205 204
f 174 175 206 205
f 175 176 207 206
f 176 177 208 207
f 177 178 209 208
f 178 179 210 209
f 179 180 211 210
f 180 181 212 211
f 181 182 213 212
f 182 183 214 213
f 183 184 215 214
f 184 185 216 215
f 185 186 217 216
f 187 188 219 218
f 188 189 220 219
f 189 190 221 220
f 190 191 222 221
f 191 192 223 222
f 192 193 224 223
f 193 194 225 224
f 194 195 226 225
f 195 196 227 226
f 196 197 228 227
f 197 198 229 228
f 198 199 230 229
f 199 200 231 230
f 200 201 232 231
f 201 202 233 232
f 202 203 234 233
f 203 204 235 234
f 204 205 236 235
f 205 206 237 236
f 206 207 238 237
f 207 208 239 238
f 208 209 240 239
f 209 210 241 240
f 210 211 242 241
f 211 212 243 242
f 212 213 244 243
f 213 214 245 244
f 214 215 246 245
f 215 216 247 246
f 216 217 248 247
f 218 219 250 249
f 219 220 251 250
f 220 221 252 251
f 221 222 253 252
f 222 223 254 253
f 223 224 255 254
f 224 225 256 255
f 225 226 257 256
f 226 227 258 257
f 227 228 259 258
f 228 229 260 259
f 229 230 261 260
f 230 231 262 261
f 231 232 263 262
f 232 233 264 263
f 233 234 265 264
f 234 235 266 265
f 235 236 267 266
f 236 237 268 267
f 237 238 269 268
f 238 239 270 269
f 239 240 271 270
f 240 241 272 271
f 241 242 273 272
f 242 243 274 273
f 243 244 275 274
f 244 245 276 275
f 245 246 277 276
f 246 247 278 277
f 247 248 279 278
f 249 250 281 280
f 250 251 282 281
f 251 252 283 282
f 252 253 284 283
f 253 254 285 284
f 254 255 286 285
f 255 256 287 286
f 256 257 288 287
f 257 258 289 288
f 258 259 290 289
f 259 260 291 290
f 260 261 292 291
f 261 262 293 292
f 262 263 294 293
f 263 264 295 294
f 264 265 296 295
f 265 266 297 296
f 266 267 298 297
f 267 268 299 298
f 268 269 300 299
f 269 270 301 300
f 270 271 302 301
f 271 272 303 302
f 272 273 304 303
f 273 274 305 304
f 274 275 306 305
f 275 276 307 306
f 276 277 308 307
f 277 278 309 308
f 278 279 310 309
f 280 281 312 311
f 281 282 313 312
f 282 283 314 313
f 283 284 315 314
f 284 285 316 315
f 285 286 317 316
f 286 287 318 317
f 287 288 319 318
f 288 289 320 319
f 289 290 321 320
f 290 291 322 321
f 291 292 323 322
f 292 293 324 323
f 293 294 325 324
f 294 295 326 325
f 295 296 327 326
f 296 297 328 327
f 297 298 329 328
f 298 299 330 329
f 299 300 331 330
f 300 301 332 331
f 301 302 333 332
f 302 303 334 333
f 303 304 335 334
f 304 305 336 335
f 305 306 337 336
f 306 307 338 337
f 307 308 339 338
f 308 309 340 339
f 309 310 341 340
f 311 312 343 342
f 312 313 344 343
f 313 314 345 344
f 314 315 346 345
f 315 316 347 346
f 316 317 348 347
f 317 318 349 348
f 318 319 350 349
f 319 320 351 350
f 320 321 352 351
f 321 322 353 352
f 322 323 354 353
f 323 324 355 354
f 324 325 356 355
f 325 326 357 356
f 326 327 358 357
f 327 328 359 358
f 328 329 360 359
f 329 330 361 360
f 330 331 362 361
f 331 332 363 362
f 332 333 364 363
f 333 334 365 364
f 334 335 366 365
f 335 336 367 366
f 336 337 368 367
f 337 338 369 368
f 338 339 370 369
f 339 340 371 370
f 340 341 372 371
f 342 343 374 373
f 343 344 375 374
f 344 345 376 375
f 345 346 377 376
f 346 347 378 377
f 347 348 379 378
f 348 349 380 379
f 349 350 381 380
f 350 351 382 381
f 351 352 383 382
f 352 353 384 383
f 353 354 385 384
f 354 355 386 385
f 355 356 387 386
f 356 357 388 387
f 357 358 389 388
f 358 359 390 389
f 359 360 391 390
f 360 361 392 391
f 361 362 393 392
f 362 363 394 393
f 363 364 395 394
f 364 365 396 395
f 365 366 397 396
f 366 367 398 397
f 367 368 399 398
f 368 369 400 399
f 369 370 401 400
f 370 371 402 401
f 371 372 403 402
f 373 374 405 404
f 374 375 406 405
f 375 376 407 406
f 376 377 408 407
f 377 378 409 408
f 378 379 410 409
f 379 380 411 410
f 380 381 412 411
f 381 382 413 412
f 382 383 414 413
f 383 384 415 414
f 384 385 416 415
f 385 386 417 416
f 386 387 418 417
f 387 388 419 418
f 388 389 420 419
f 389 390 421 420
f 390 391 422 421
f 391 392 423 422
f 392 393 424 423
f 393 394 425 424
f 394 395 426 425
f 395 396 427 426
f 396 397 428 427
f 397 398 429 428
f 398 399 430 429
f 399 400 431 430
f 400 401 432 431
f 401 402 433 432
f 402 403 434 433
f 404 405 436 435
f 405 406 437 436
f 406 407 438 437
f 407 408 439 438
f 408 409 440 439
f 409 410 441 440
f 410 411 442 441
f 411 412 443 442
f 412 413 444 443
f 413 414 445 444
f 414 415 446 445
f 415 416 447 446
f 416 417 448 447
f 417 418 449 448
f 418 419 450 449
f 419 420 451 450
f 420 421 452 451
f 421 422 453 452
f 422 423 454 453
f 423 424 455 454
f 424 425 456 455
f 425 426 457 456
f 426 427 458 457
f 427 428 459 458
f 428 429 460 459
f 429 430 461 460
f 430 431 462 461
f 431 432 463 462
f 432 433 464 463
f 433 434 465 464
f 435 436 467 466
f 436 437 468 467
f 437 438 469 468
f 438 439 470 469
f 439 440 471 470
f 440 441 472 471
f 441 442 473 472
f 442 443 474 473
f 443 444 475 474
f 444 445 476 475
f 445 446 477 476
f 446 447 478 477
f 447 448 479 478
f 448 449 480 479
f 449 450 481 480
f 450 451 482 481
f 451 452 483 482
f 452 453 484 483
f 453 454 485 484
f 454 455 486 485
f 455 456 487 486
f 456 457 488 487
f 457 458 489 488
f 458 459 490 489
f 459 460 491 490
f 460 461 492 491
f 461 462 493 492
f 462 463 494 493
f 463 464 495 494
f 464 465 496 495
f 466 467 498 497
f 467 468 499 498
f 468 469 500 499
f 469 470 501 500
f 470 471 502 501
f 471 472 503 502
f 472 473 504 503
f 473 474 505 504
f 474 475 506 505
f 475 476 507 506
f 476 477 508 507
f 477 478 509 508
f 478 479 510 509
f 479 480 511 510
f 480 481 512 511
f 481 482 513 512
f 482 483 514 513
f 483 484 515 514
f 484 485 516 515
f 485 486 517 516
f 486 487 518 517
f 487 488 519 518
f 488 489 520 519
f 489 490 521 520
f 490 491 522 521
f 491 492 523 522
f 492 493 524 523
f 493 494 525 524
f 494 495 526 525
f 495 496 527 526
f 497 498 529 528
f 498 499 530 529
f 499 500 531 530
f 500 501 532 531
f 501 502 533 532
f 502 503 534 533
f 503 504 535 534
f 504 505 536 535
f 505 506 537 536
f 506 507 538 537
f 507 508 539 538
f 508 509 540 539
f 509 510 541 540
f 510 511 542 541
f 511 512 543 542
f 512 513 544 543
f 513 514 545 544
f 514 515 546 545
f 515 516 547 546
f 516 517 548 547
f 517 518 549 548
f 518 519 550 549
f 519 520 551 550
f 520 521 552 551
f 521 522 553 552
f 522 523 554 553
f 523 524 555 554
f 524 525 556 555
f 525 526 557 556
f 526 527 558 557
f 528 529 560 559
f 529 530 561 560
f 530 531 562 561
f 531 532 563 562
f 532 533 564 563
f 533 534 565 564
f 534 535 566 565
f 535 536 567 566
f 536 537 568 567
f 537 538 569 568
f 538 539 570 569
f 539 540 571 570
f 540 541 572 571
f 541 542 573 572
f 542 543 574 573
f 543 544 575 574
f 544 545 576 575
f 545 546 577 576
f 546 547 578 577
f 547 548 579 578
f 548 549 580 579
f 549 550 581 580
f 550 551 582 581
f 551 552 583 582
f 552 553 584 583
f 553 554 585 584
f 554 555 586 585
f 555 556 587 586
f 556 557 588 587
f 557 558 589 588
f 559 560 591 590
f 560 561 592 591
f 561 562 593 592
f 562 563 594 593
f 563 564 595 594
f 564 565 596 595
f 565 566 597 596
f 566 567 598 597
f 567 568 599 598
f 568 569 600 599
f 569 570 601 600
f 570 571 602 601
f 571 572 603 602
f 572 573 604 603
f 573 574 605 604
f 574 575 606 605
f 575 576 607 606
f 576 577 608 607
f 577 578 609 608
f 578 579 610 609
f 579 580 611 610
f 580 581 612 611
f 581 582 613 612
f 582 583 614 613
f 583 584 615 614
f 584 585 616 615
f 585 586 617 616
f 586 587 618 617
f 587 588 619 618
f 588 589 620 619
f 590 591 622 621
f 591 592 623 622
f 592 593 624 623
f 593 594 625 624
f 594 595 626 625
f 595 596 627 626
f 596 597 628 627
f 597 598 629 628
f 598 599 630 629
f 599 600 631 630
f 600 601 632 631
f 601 602 633 632
f 602 603 634 633
f 603 604 635 634
f 604 605 636 635
f 605 606 637 636
f 606 607 638 637
f 607 608 639 638
f 608 609 640 639
f 609 610 641 640
f 610 611 642 641
f 611 612 643 642
f 612 613 644 643
f 613 614 645 644
f 614 615 646 645
f 615 616 647 646
f 616 617 648 647
f 617 618 649 648
f 618 619 650 649
f 619 620 651 650
f 621 622 653 652
f 622 623 654 653
f 623 624 655 654
f 624 625 656 655
f 625 626 657 656
f 626 627 658 657
f 627 628 659 658
f 628 629 660 659
f 629 630 661 660
f 630 631 662 661
f 631 632 663 662
f 632 633 664 663
f 633 634 665 664
f 634 635 666 665
f 635 636 667 666
f 636 637 668 667
f 637 638 669 668
f 638 639 670 669
f 639 640 671 670
f 640 641 672 671
f 641 642 673 672
f 642 643 674 673
f 643 644 675 674
f 644 645 676 675
f 645 646 677 676
f 646 647 678 677
f 647 648 679 678
f 648 649 680 679
f 649 650 681 680
f 650 651 682 681
f 652 653 684 683
f 653 654 685 684
f 654 655 686 685
f 655 656 687 686
f 656 657 688 687
f 657 658 689 688
f 658 659 690 689
f 659 660 691 690
f 660 661 692 691
f 661 662 693 692
f 662 663 694 693
f 663 664 695 694
f 664 665 696 695
f 665 666 697 696
f 666 667 698 697
f 667 668 699 698
f 668 669 700 699
f 669 670 701 700
f 670 671 702 701
f 671 672 703 702
f 672 673 704 703
f 673 674 705 704
f 674 675 706 705
f 675 676 707 706
f 676 677 708 707
f 677 678 709 708
f 678 679 710 709
f 679 680 711 710
f 680 681 712 711
f 681 682 713 712
f 683 684 715 714
f 684 685 716 715
f 685 686 717 716
f 686 687 718 717
f 687 688 719 718
f 688 689 720 719
f 689 690 721 720
f 690 691 722 721
f 691 692 723 722
f 692 693 724 723
f 693 694 725 724
f 694 695 726 725
f 695 696 727 726
f 696 697 728 727
f 697 698 729 728
f 698 699 730 729
f 699 700 731 730
f 700 701 732 731
f 701 702 733 732
f 702 703 734 733
f 703 704 735 734
f 704 705 736 735
f 705 706 737 736
f 706 707 738 737
f 707 708 739 738
f 708 709 740 739
f 709 710 741 740
f 710 711 742 741
f 711 712 743 742
f 712 713 744 743
f 714 715 746 745
f 715 716 747 746
f 716 717 748 747
f 717 718 749 748
f 718 719 750 749
f 719 720 751 750
f 720 721 752 751
f 721 722 753 752
f 722 723 754 753
f 723 724 755 754
f 724 725 756 755
f 725 726 757 756
f 726 727 758 757
f 727 728 759 758
f 728 729 760 759
f 729 730 761 760
f 730 731 762 761
f 731 732 763 762
f 732 733 764 763
f 733 734 765 764
f 734 735 766 765
f 735 736 767 766
f 736 737 768 767
f 737 738 769 768
f 738 739 770 769
f 739 740 771 770
f 740 741 772 771
f 741 742 773 772
f 742 743 774 773
f 743 744 775 774
f 745 746 777 776
f 746 747 778 777
f 747 748 779 778
f 748 749 780 779
f 749 750 781 780
f 750 751 782 781
f 751 752 783 782
f 752 753 784 783
f 753 754 785 784
f 754 755 786 785
f 755 756 787 786
f 756 757 788 787
f 757 758 789 788
f 758 759 790 789
f 759 760 791 790
f 760 761 792 791
f 761 762 793 792
f 762 763 794 793
f 763 764 795 794
f 764 765 796 795
f 765 766 797 796
f 766 767 798 797
f 767 768 799 798
f 768 769 800 799
f 769 770 801 800
f 770 771 802 801
f 771 772 803 802
f 772 773 804 803
f 773 774 805 804
f 774 775 806 805
f 776 777 808 807
f 777 778 809 808
f 778 779 810 809
f 779 780 811 810
f 780 781 812 811
f 781 782 813 812
f 782 783 814 813
f 783 784 815 814
f 784 785 816 815
f 785 786 817 816
f 786 787 818 817
f 787 788 819 818
f 788 789 820 819
f 789 790 821 820
f 790 791 822 821
f 791 792 823 822
f 792 793 824 823
f 793 794 825 824
f 794 795 826 825
f 795 796 827 826
f 796 797 828 827
f 797 798 829 828
f 798 799 830 829
f 799 800 831 830
f 800 801 832 831
f 801 802 833 832
f 802 803 834 833
f 803 804 835 834
f 804 805 836 835
f 805 806 837 836
f 807 808 839 838
f 808 809 840 839
f 809 810 841 840
f 810 811 842 841
f 811 812 843 842
f 812 813 844 843
f 813 814 845 844
f 814 815 846 845
f 815 816 847 846
f 816 817 848 847
f 817 818 849 848
f 818 819 850 849
f 819 820 851 850
f 820 821 852 851
f 821 822 853 852
f 822 823 854 853
f 823 824 855 854
f 824 825 856 855
f 825 826 857 856
f 826 827 858 857
f 827 828 859 858
f 828 829 860 859
f 829 830 861 860
f 830 831 862 861
f 831 832 863 862
f 832 833 864 863
f 833 834 865 864
f 834 835 866 865
f 835 836 867 866
f 836 837 868 867
f 838 839 870 869
f 839 840 871 870
f 840 841 872 871
f 841 842 873 872
f 842 843 874 873
f 843 844 875 874
f 844 845 876 875
f 845 846 877 876
f 846 847 878 877
f 847 848 879 878
f 848 849 880 879
f 849 850 881 880
f 850 851 882 881
f 851 852 883 882
f 852 853 884 883
f 853 854 885 884
f 854 855 886 885
f 855 856 887 886
f 856 857 888 887
f 857 858 889 888
f 858 859 890 889
f 859 860 891 890
f 860 861 892 891
f 861 862 893 892
f 862 863 894 893
f 863 864 895 894
f 864 865 896 895
f 865 866 897 896
f 866 867 898 897
f 867 868 899 898
f 869 870 901 900
f 870 871 902 901
f 871 872 903 902
f 872 873 904 903
f 873 874 905 904
f 874 875 906 905
f 875 876 907 906
f 876 877 908 907
f 877 878 909 908
f 878 879 910 909
f 879 880 911 910
f 880 881 912 911
f 881 882 913 912
f 882 883 914 913
f 883 884 915 914
f 884 885 916 915
f 885 886 917 916
f 886 887 918 917
f 887 888 919 918
f 888 889 920 919
f 889 890 921 920
f 890 891 922 921
f 891 892 923 922
f 892 893 924 923
f 893 894 925 924
f 894 895 926 925
f 895 896 927 926
f 896 897 928 927
f 897 898 929 928
f 898 899 930 929
f 900 901 932 931
f 901 902 933 932
f 902 903 934 933
f 903 904 935 934
f 904 905 936 935
f 905 906 937 936
f 906 907 938 937
f 907 908 939 938
f 908 909 940 939
f 909 910 941 940
f 910 911 942 941
f 911 912 943 942
f 912 913 944 943
f 913 914 945 944
f 914 915 946 945
f 915 916 947 946
f 916 917 948 947
f 917 918 949 948
f 918 919 950 949
f 919 920 951 950
f 920 921 952 951
f 921 922 953 952
f 922 923 954 953
f 923 924 955 954
f 924 925 956 955
f 925 926 957 956
f 926 927 958 957
f 927 928 959 958
f 928 929 960 959
f 929 930 961 960
