# AIGen_Surface_ThreeIslands.obj
# AI-generated: three disconnected quad patches (9 / 4 / 1 faces) for Connectivity filter.
v -6.000000 0.000000 0.000000
v -5.000000 0.000000 0.000000
v -4.000000 0.000000 0.000000
v -3.000000 0.000000 0.000000
v -6.000000 1.000000 0.000000
v -5.000000 1.000000 0.000000
v -4.000000 1.000000 0.000000
v -3.000000 1.000000 0.000000
v -6.000000 2.000000 0.000000
v -5.000000 2.000000 0.000000
v -4.000000 2.000000 0.000000
v -3.000000 2.000000 0.000000
v -6.000000 3.000000 0.000000
v -5.000000 3.000000 0.000000
v -4.000000 3.000000 0.000000
v -3.000000 3.000000 0.000000
f 1 2 6 5
f 2 3 7 6
f 3 4 8 7
f 5 6 10 9
f 6 7 11 10
f 7 8 12 11
f 9 10 14 13
f 10 11 15 14
f 11 12 16 15
v 0.000000 0.000000 0.000000
v 1.000000 0.000000 0.000000
v 2.000000 0.000000 0.000000
v 0.000000 1.000000 0.000000
v 1.000000 1.000000 0.000000
v 2.000000 1.000000 0.000000
v 0.000000 2.000000 0.000000
v 1.000000 2.000000 0.000000
v 2.000000 2.000000 0.000000
f 17 18 21 20
f 18 19 22 21
f 20 21 24 23
f 21 22 25 24
v 4.000000 0.000000 0.000000
v 5.000000 0.000000 0.000000
v 4.000000 1.000000 0.000000
v 5.000000 1.000000 0.000000
f 26 27 29 28
