# AIGen_Surface_MultiRegion.obj
# AI-generated quad surface: A(8x8) + C(4x4 corner-shared with A) + B(4x4) + D(2x5) + E(1x1).
# A and C share exactly one vertex so they merge into one connected region. 107 quads total.
v 0 0 0
v 1 0 0
v 1 1 0
v 0 1 0
v 2 0 0
v 2 1 0
v 3 0 0
v 3 1 0
v 4 0 0
v 4 1 0
v 5 0 0
v 5 1 0
v 6 0 0
v 6 1 0
v 7 0 0
v 7 1 0
v 8 0 0
v 8 1 0
v 1 2 0
v 0 2 0
v 2 2 0
v 3 2 0
v 4 2 0
v 5 2 0
v 6 2 0
v 7 2 0
v 8 2 0
v 1 3 0
v 0 3 0
v 2 3 0
v 3 3 0
v 4 3 0
v 5 3 0
v 6 3 0
v 7 3 0
v 8 3 0
v 1 4 0
v 0 4 0
v 2 4 0
v 3 4 0
v 4 4 0
v 5 4 0
v 6 4 0
v 7 4 0
v 8 4 0
v 1 5 0
v 0 5 0
v 2 5 0
v 3 5 0
v 4 5 0
v 5 5 0
v 6 5 0
v 7 5 0
v 8 5 0
v 1 6 0
v 0 6 0
v 2 6 0
v 3 6 0
v 4 6 0
v 5 6 0
v 6 6 0
v 7 6 0
v 8 6 0
v 1 7 0
v 0 7 0
v 2 7 0
v 3 7 0
v 4 7 0
v 5 7 0
v 6 7 0
v 7 7 0
v 8 7 0
v 1 8 0
v 0 8 0
v 2 8 0
v 3 8 0
v 4 8 0
v 5 8 0
v 6 8 0
v 7 8 0
v 8 8 0
v 9 8 0
v 9 9 0
v 8 9 0
v 10 8 0
v 10 9 0
v 11 8 0
v 11 9 0
v 12 8 0
v 12 9 0
v 9 10 0
v 8 10 0
v 10 10 0
v 11 10 0
v 12 10 0
v 9 11 0
v 8 11 0
v 10 11 0
v 11 11 0
v 12 11 0
v 9 12 0
v 8 12 0
v 10 12 0
v 11 12 0
v 12 12 0
v 16 0 0
v 17 0 0
v 17 1 0
v 16 1 0
v 18 0 0
v 18 1 0
v 19 0 0
v 19 1 0
v 20 0 0
v 20 1 0
v 17 2 0
v 16 2 0
v 18 2 0
v 19 2 0
v 20 2 0
v 17 3 0
v 16 3 0
v 18 3 0
v 19 3 0
v 20 3 0
v 17 4 0
v 16 4 0
v 18 4 0
v 19 4 0
v 20 4 0
v 0 -8 0
v 1 -8 0
v 1 -7 0
v 0 -7 0
v 2 -8 0
v 2 -7 0
v 3 -8 0
v 3 -7 0
v 4 -8 0
v 4 -7 0
v 5 -8 0
v 5 -7 0
v 1 -6 0
v 0 -6 0
v 2 -6 0
v 3 -6 0
v 4 -6 0
v 5 -6 0
v 24 0 0
v 25 0 0
v 25 1 0
v 24 1 0
f 1 2 3 4
f 2 5 6 3
f 5 7 8 6
f 7 9 10 8
f 9 11 12 10
f 11 13 14 12
f 13 15 16 14
f 15 17 18 16
f 4 3 19 20
f 3 6 21 19
f 6 8 22 21
f 8 10 23 22
f 10 12 24 23
f 12 14 25 24
f 14 16 26 25
f 16 18 27 26
f 20 19 28 29
f 19 21 30 28
f 21 22 31 30
f 22 23 32 31
f 23 24 33 32
f 24 25 34 33
f 25 26 35 34
f 26 27 36 35
f 29 28 37 38
f 28 30 39 37
f 30 31 40 39
f 31 32 41 40
f 32 33 42 41
f 33 34 43 42
f 34 35 44 43
f 35 36 45 44
f 38 37 46 47
f 37 39 48 46
f 39 40 49 48
f 40 41 50 49
f 41 42 51 50
f 42 43 52 51
f 43 44 53 52
f 44 45 54 53
f 47 46 55 56
f 46 48 57 55
f 48 49 58 57
f 49 50 59 58
f 50 51 60 59
f 51 52 61 60
f 52 53 62 61
f 53 54 63 62
f 56 55 64 65
f 55 57 66 64
f 57 58 67 66
f 58 59 68 67
f 59 60 69 68
f 60 61 70 69
f 61 62 71 70
f 62 63 72 71
f 65 64 73 74
f 64 66 75 73
f 66 67 76 75
f 67 68 77 76
f 68 69 78 77
f 69 70 79 78
f 70 71 80 79
f 71 72 81 80
f 81 82 83 84
f 82 85 86 83
f 85 87 88 86
f 87 89 90 88
f 84 83 91 92
f 83 86 93 91
f 86 88 94 93
f 88 90 95 94
f 92 91 96 97
f 91 93 98 96
f 93 94 99 98
f 94 95 100 99
f 97 96 101 102
f 96 98 103 101
f 98 99 104 103
f 99 100 105 104
f 106 107 108 109
f 107 110 111 108
f 110 112 113 111
f 112 114 115 113
f 109 108 116 117
f 108 111 118 116
f 111 113 119 118
f 113 115 120 119
f 117 116 121 122
f 116 118 123 121
f 118 119 124 123
f 119 120 125 124
f 122 121 126 127
f 121 123 128 126
f 123 124 129 128
f 124 125 130 129
f 131 132 133 134
f 132 135 136 133
f 135 137 138 136
f 137 139 140 138
f 139 141 142 140
f 134 133 143 144
f 133 136 145 143
f 136 138 146 145
f 138 140 147 146
f 140 142 148 147
f 149 150 151 152
