# vtk DataFile Version 3.0
AIGen: hexahedral volume mesh of a thick-walled pipe segment (108 pts / 48 hex)
ASCII
DATASET UNSTRUCTURED_GRID
POINTS 108 float
1.000000 0.000000 0.000000
1.333333 0.000000 0.000000
1.666667 0.000000 0.000000
2.000000 0.000000 0.000000
0.707107 0.707107 0.000000
0.942809 0.942809 0.000000
1.178511 1.178511 0.000000
1.414214 1.414214 0.000000
0.000000 1.000000 0.000000
0.000000 1.333333 0.000000
0.000000 1.666667 0.000000
0.000000 2.000000 0.000000
-0.707107 0.707107 0.000000
-0.942809 0.942809 0.000000
-1.178511 1.178511 0.000000
-1.414214 1.414214 0.000000
-1.000000 0.000000 0.000000
-1.333333 0.000000 0.000000
-1.666667 0.000000 0.000000
-2.000000 0.000000 0.000000
-0.707107 -0.707107 0.000000
-0.942809 -0.942809 0.000000
-1.178511 -1.178511 0.000000
-1.414214 -1.414214 0.000000
-0.000000 -1.000000 0.000000
-0.000000 -1.333333 0.000000
-0.000000 -1.666667 0.000000
-0.000000 -2.000000 0.000000
0.707107 -0.707107 0.000000
0.942809 -0.942809 0.000000
1.178511 -1.178511 0.000000
1.414214 -1.414214 0.000000
1.000000 -0.000000 0.000000
1.333333 -0.000000 0.000000
1.666667 -0.000000 0.000000
2.000000 -0.000000 0.000000
1.000000 0.000000 1.500000
1.333333 0.000000 1.500000
1.666667 0.000000 1.500000
2.000000 0.000000 1.500000
0.707107 0.707107 1.500000
0.942809 0.942809 1.500000
1.178511 1.178511 1.500000
1.414214 1.414214 1.500000
0.000000 1.000000 1.500000
0.000000 1.333333 1.500000
0.000000 1.666667 1.500000
0.000000 2.000000 1.500000
-0.707107 0.707107 1.500000
-0.942809 0.942809 1.500000
-1.178511 1.178511 1.500000
-1.414214 1.414214 1.500000
-1.000000 0.000000 1.500000
-1.333333 0.000000 1.500000
-1.666667 0.000000 1.500000
-2.000000 0.000000 1.500000
-0.707107 -0.707107 1.500000
-0.942809 -0.942809 1.500000
-1.178511 -1.178511 1.500000
-1.414214 -1.414214 1.500000
-0.000000 -1.000000 1.500000
-0.000000 -1.333333 1.500000
-0.000000 -1.666667 1.500000
-0.000000 -2.000000 1.500000
0.707107 -0.707107 1.500000
0.942809 -0.942809 1.500000
1.178511 -1.178511 1.500000
1.414214 -1.414214 1.500000
1.000000 -0.000000 1.500000
1.333333 -0.000000 1.500000
1.666667 -0.000000 1.500000
2.000000 -0.000000 1.500000
1.000000 0.000000 3.000000
1.333333 0.000000 3.000000
1.666667 0.000000 3.000000
2.000000 0.000000 3.000000
0.707107 0.707107 3.000000
0.942809 0.942809 3.000000
1.178511 1.178511 3.000000
1.414214 1.414214 3.000000
0.000000 1.000000 3.000000
0.000000 1.333333 3.000000
0.000000 1.666667 3.000000
0.000000 2.000000 3.000000
-0.707107 0.707107 3.000000
-0.942809 0.942809 3.000000
-1.178511 1.178511 3.000000
-1.414214 1.414214 3.000000
-1.000000 0.000000 3.000000
-1.333333 0.000000 3.000000
-1.666667 0.000000 3.000000
-2.000000 0.000000 3.000000
-0.707107 -0.707107 3.000000
-0.942809 -0.942809 3.000000
-1.178511 -1.178511 3.000000
-1.414214 -1.414214 3.000000
-0.000000 -1.000000 3.000000
-0.000000 -1.333333 3.000000
-0.000000 -1.666667 3.000000
-0.000000 -2.000000 3.000000
0.707107 -0.707107 3.000000
0.942809 -0.942809 3.000000
1.178511 -1.178511 3.000000
1.414214 -1.414214 3.000000
1.000000 -0.000000 3.000000
1.333333 -0.000000 3.000000
1.666667 -0.000000 3.000000
2.000000 -0.000000 3.000000
CELLS 48 432
8 0 4 5 1 36 40 41 37
8 1 5 6 2 37 41 42 38
8 2 6 7 3 38 42 43 39
8 4 8 9 5 40 44 45 41
8 5 9 10 6 41 45 46 42
8 6 10 11 7 42 46 47 43
8 8 12 13 9 44 48 49 45
8 9 13 14 10 45 49 50 46
8 10 14 15 11 46 50 51 47
8 12 16 17 13 48 52 53 49
8 13 17 18 14 49 53 54 50
8 14 18 19 15 50 54 55 51
8 16 20 21 17 52 56 57 53
8 17 21 22 18 53 57 58 54
8 18 22 23 19 54 58 59 55
8 20 24 25 21 56 60 61 57
8 21 25 26 22 57 61 62 58
8 22 26 27 23 58 62 63 59
8 24 28 29 25 60 64 65 61
8 25 29 30 26 61 65 66 62
8 26 30 31 27 62 66 67 63
8 28 32 33 29 64 68 69 65
8 29 33 34 30 65 69 70 66
8 30 34 35 31 66 70 71 67
8 36 40 41 37 72 76 77 73
8 37 41 42 38 73 77 78 74
8 38 42 43 39 74 78 79 75
8 40 44 45 41 76 80 81 77
8 41 45 46 42 77 81 82 78
8 42 46 47 43 78 82 83 79
8 44 48 49 45 80 84 85 81
8 45 49 50 46 81 85 86 82
8 46 50 51 47 82 86 87 83
8 48 52 53 49 84 88 89 85
8 49 53 54 50 85 89 90 86
8 50 54 55 51 86 90 91 87
8 52 56 57 53 88 92 93 89
8 53 57 58 54 89 93 94 90
8 54 58 59 55 90 94 95 91
8 56 60 61 57 92 96 97 93
8 57 61 62 58 93 97 98 94
8 58 62 63 59 94 98 99 95
8 60 64 65 61 96 100 101 97
8 61 65 66 62 97 101 102 98
8 62 66 67 63 98 102 103 99
8 64 68 69 65 100 104 105 101
8 65 69 70 66 101 105 106 102
8 66 70 71 67 102 106 107 103
CELL_TYPES 48
12
12
12
12
12
12
12
12
12
12
12
12
12
12
12
12
12
12
12
12
12
12
12
12
12
12
12
12
12
12
12
12
12
12
12
12
12
12
12
12
12
12
12
12
12
12
12
12
POINT_DATA 108
SCALARS VonMisesStress float 1
LOOKUP_TABLE default
25.000000
16.250000
12.200000
10.000000
25.000000
16.250000
12.200000
10.000000
25.000000
16.250000
12.200000
10.000000
25.000000
16.250000
12.200000
10.000000
25.000000
16.250000
12.200000
10.000000
25.000000
16.250000
12.200000
10.000000
25.000000
16.250000
12.200000
10.000000
25.000000
16.250000
12.200000
10.000000
25.000000
16.250000
12.200000
10.000000
28.750000
18.687500
14.030000
11.500000
28.750000
18.687500
14.030000
11.500000
28.750000
18.687500
14.030000
11.500000
28.750000
18.687500
14.030000
11.500000
28.750000
18.687500
14.030000
11.500000
28.750000
18.687500
14.030000
11.500000
28.750000
18.687500
14.030000
11.500000
28.750000
18.687500
14.030000
11.500000
28.750000
18.687500
14.030000
11.500000
32.500000
21.125000
15.860000
13.000000
32.500000
21.125000
15.860000
13.000000
32.500000
21.125000
15.860000
13.000000
32.500000
21.125000
15.860000
13.000000
32.500000
21.125000
15.860000
13.000000
32.500000
21.125000
15.860000
13.000000
32.500000
21.125000
15.860000
13.000000
32.500000
21.125000
15.860000
13.000000
32.500000
21.125000
15.860000
13.000000
VECTORS Displacement float
0.000000 0.000000 0.000000
0.013333 0.000000 0.000000
0.026667 0.000000 0.000000
0.040000 0.000000 0.000000
0.000000 0.000000 0.000000
0.009428 0.009428 0.000000
0.018856 0.018856 0.000000
0.028284 0.028284 0.000000
0.000000 0.000000 0.000000
0.000000 0.013333 0.000000
0.000000 0.026667 0.000000
0.000000 0.040000 0.000000
-0.000000 0.000000 0.000000
-0.009428 0.009428 0.000000
-0.018856 0.018856 0.000000
-0.028284 0.028284 0.000000
-0.000000 0.000000 0.000000
-0.013333 0.000000 0.000000
-0.026667 0.000000 0.000000
-0.040000 0.000000 0.000000
-0.000000 -0.000000 0.000000
-0.009428 -0.009428 0.000000
-0.018856 -0.018856 0.000000
-0.028284 -0.028284 0.000000
-0.000000 -0.000000 0.000000
-0.000000 -0.013333 0.000000
-0.000000 -0.026667 0.000000
-0.000000 -0.040000 0.000000
0.000000 -0.000000 0.000000
0.009428 -0.009428 0.000000
0.018856 -0.018856 0.000000
0.028284 -0.028284 0.000000
0.000000 -0.000000 0.000000
0.013333 -0.000000 0.000000
0.026667 -0.000000 0.000000
0.040000 -0.000000 0.000000
0.000000 0.000000 0.015000
0.017333 0.000000 0.015000
0.034667 0.000000 0.015000
0.052000 0.000000 0.015000
0.000000 0.000000 0.015000
0.012257 0.012257 0.015000
0.024513 0.024513 0.015000
0.036770 0.036770 0.015000
0.000000 0.000000 0.015000
0.000000 0.017333 0.015000
0.000000 0.034667 0.015000
0.000000 0.052000 0.015000
-0.000000 0.000000 0.015000
-0.012257 0.012257 0.015000
-0.024513 0.024513 0.015000
-0.036770 0.036770 0.015000
-0.000000 0.000000 0.015000
-0.017333 0.000000 0.015000
-0.034667 0.000000 0.015000
-0.052000 0.000000 0.015000
-0.000000 -0.000000 0.015000
-0.012257 -0.012257 0.015000
-0.024513 -0.024513 0.015000
-0.036770 -0.036770 0.015000
-0.000000 -0.000000 0.015000
-0.000000 -0.017333 0.015000
-0.000000 -0.034667 0.015000
-0.000000 -0.052000 0.015000
0.000000 -0.000000 0.015000
0.012257 -0.012257 0.015000
0.024513 -0.024513 0.015000
0.036770 -0.036770 0.015000
0.000000 -0.000000 0.015000
0.017333 -0.000000 0.015000
0.034667 -0.000000 0.015000
0.052000 -0.000000 0.015000
0.000000 0.000000 0.030000
0.021333 0.000000 0.030000
0.042667 0.000000 0.030000
0.064000 0.000000 0.030000
0.000000 0.000000 0.030000
0.015085 0.015085 0.030000
0.030170 0.030170 0.030000
0.045255 0.045255 0.030000
0.000000 0.000000 0.030000
0.000000 0.021333 0.030000
0.000000 0.042667 0.030000
0.000000 0.064000 0.030000
-0.000000 0.000000 0.030000
-0.015085 0.015085 0.030000
-0.030170 0.030170 0.030000
-0.045255 0.045255 0.030000
-0.000000 0.000000 0.030000
-0.021333 0.000000 0.030000
-0.042667 0.000000 0.030000
-0.064000 0.000000 0.030000
-0.000000 -0.000000 0.030000
-0.015085 -0.015085 0.030000
-0.030170 -0.030170 0.030000
-0.045255 -0.045255 0.030000
-0.000000 -0.000000 0.030000
-0.000000 -0.021333 0.030000
-0.000000 -0.042667 0.030000
-0.000000 -0.064000 0.030000
0.000000 -0.000000 0.030000
0.015085 -0.015085 0.030000
0.030170 -0.030170 0.030000
0.045255 -0.045255 0.030000
0.000000 -0.000000 0.030000
0.021333 -0.000000 0.030000
0.042667 -0.000000 0.030000
0.064000 -0.000000 0.030000
SCALARS Temperature float 1
LOOKUP_TABLE default
80.000000
70.000000
60.000000
50.000000
80.000000
70.000000
60.000000
50.000000
80.000000
70.000000
60.000000
50.000000
80.000000
70.000000
60.000000
50.000000
80.000000
70.000000
60.000000
50.000000
80.000000
70.000000
60.000000
50.000000
80.000000
70.000000
60.000000
50.000000
80.000000
70.000000
60.000000
50.000000
80.000000
70.000000
60.000000
50.000000
95.000000
85.000000
75.000000
65.000000
95.000000
85.000000
75.000000
65.000000
95.000000
85.000000
75.000000
65.000000
95.000000
85.000000
75.000000
65.000000
95.000000
85.000000
75.000000
65.000000
95.000000
85.000000
75.000000
65.000000
95.000000
85.000000
75.000000
65.000000
95.000000
85.000000
75.000000
65.000000
95.000000
85.000000
75.000000
65.000000
110.000000
100.000000
90.000000
80.000000
110.000000
100.000000
90.000000
80.000000
110.000000
100.000000
90.000000
80.000000
110.000000
100.000000
90.000000
80.000000
110.000000
100.000000
90.000000
80.000000
110.000000
100.000000
90.000000
80.000000
110.000000
100.000000
90.000000
80.000000
110.000000
100.000000
90.000000
80.000000
110.000000
100.000000
90.000000
80.000000
CELL_DATA 48
SCALARS ElementID int 1
LOOKUP_TABLE default
0
1
2
3
4
5
6
7
8
9
10
11
12
13
14
15
16
17
18
19
20
21
22
23
24
25
26
27
28
29
30
31
32
33
34
35
36
37
38
39
40
41
42
43
44
45
46
47
SCALARS CellVolume float 1
LOOKUP_TABLE default
0.458149
0.589049
0.719948
0.458149
0.589049
0.719948
0.458149
0.589049
0.719948
0.458149
0.589049
0.719948
0.458149
0.589049
0.719948
0.458149
0.589049
0.719948
0.458149
0.589049
0.719948
0.458149
0.589049
0.719948
0.458149
0.589049
0.719948
0.458149
0.589049
0.719948
0.458149
0.589049
0.719948
0.458149
0.589049
0.719948
0.458149
0.589049
0.719948
0.458149
0.589049
0.719948
0.458149
0.589049
0.719948
0.458149
0.589049
0.719948
