# vtk DataFile Version 3.0
AppendReduce_planeA.vtk - Left plane grid for AppendReduce test (4x4 quads)
ASCII
DATASET POLYDATA
POINTS 16 float
0.000000 0.000000 0.000000
1.000000 0.000000 0.000000
2.000000 0.000000 0.000000
3.000000 0.000000 0.000000
0.000000 1.000000 0.000000
1.000000 1.000000 0.000000
2.000000 1.000000 0.000000
3.000000 1.000000 0.000000
0.000000 2.000000 0.000000
1.000000 2.000000 0.000000
2.000000 2.000000 0.000000
3.000000 2.000000 0.000000
0.000000 3.000000 0.000000
1.000000 3.000000 0.000000
2.000000 3.000000 0.000000
3.000000 3.000000 0.000000
POLYGONS 9 45
4 0 1 5 4
4 1 2 6 5
4 2 3 7 6
4 4 5 9 8
4 5 6 10 9
4 6 7 11 10
4 8 9 13 12
4 9 10 14 13
4 10 11 15 14
POINT_DATA 16
SCALARS Temperature float 1
LOOKUP_TABLE default
100.000000
110.000000
120.000000
130.000000
110.000000
120.000000
130.000000
140.000000
120.000000
130.000000
140.000000
150.000000
130.000000
140.000000
150.000000
160.000000
SCALARS Pressure float 1
LOOKUP_TABLE default
1.000000
1.200000
1.400000
1.600000
1.200000
1.400000
1.600000
1.800000
1.400000
1.600000
1.800000
2.000000
1.600000
1.800000
2.000000
2.200000
CELL_DATA 9
SCALARS Stress float 1
LOOKUP_TABLE default
10.000000
15.000000
20.000000
15.000000
20.000000
25.000000
20.000000
25.000000
30.000000
