# vtk DataFile Version 3.0
AppendReduce_planeB.vtk - Right plane grid for AppendReduce test (4x4 quads, shares edge with planeA at x=3)
ASCII
DATASET POLYDATA
POINTS 16 float
3.000000 0.000000 0.000000
4.000000 0.000000 0.000000
5.000000 0.000000 0.000000
6.000000 0.000000 0.000000
3.000000 1.000000 0.000000
4.000000 1.000000 0.000000
5.000000 1.000000 0.000000
6.000000 1.000000 0.000000
3.000000 2.000000 0.000000
4.000000 2.000000 0.000000
5.000000 2.000000 0.000000
6.000000 2.000000 0.000000
3.000000 3.000000 0.000000
4.000000 3.000000 0.000000
5.000000 3.000000 0.000000
6.000000 3.000000 0.000000
POLYGONS 9 45
4 0 1 5 4
4 1 2 6 5
4 2 3 7 6
4 4 5 9 8
4 5 6 10 9
4 6 7 11 10
4 8 9 13 12
4 9 10 14 13
4 10 11 15 14
POINT_DATA 16
SCALARS Temperature float 1
LOOKUP_TABLE default
200.000000
208.000000
216.000000
224.000000
208.000000
216.000000
224.000000
232.000000
216.000000
224.000000
232.000000
240.000000
224.000000
232.000000
240.000000
248.000000
VECTORS Velocity float
1.000000 0.500000 0.000000
1.100000 0.500000 0.000000
1.200000 0.500000 0.000000
1.300000 0.500000 0.000000
1.000000 0.550000 0.000000
1.100000 0.550000 0.000000
1.200000 0.550000 0.000000
1.300000 0.550000 0.000000
1.000000 0.600000 0.000000
1.100000 0.600000 0.000000
1.200000 0.600000 0.000000
1.300000 0.600000 0.000000
1.000000 0.650000 0.000000
1.100000 0.650000 0.000000
1.200000 0.650000 0.000000
1.300000 0.650000 0.000000
CELL_DATA 9
SCALARS Stress float 1
LOOKUP_TABLE default
50.000000
55.000000
60.000000
55.000000
60.000000
65.000000
60.000000
65.000000
70.000000
