# vtk DataFile Version 3.0
CellCenter hexa grid test model (4 hexahedra, 18 points)
ASCII
DATASET UNSTRUCTURED_GRID
POINTS 18 float
0.0 0.0 0.0
1.0 0.0 0.0
2.0 0.0 0.0
0.0 1.0 0.0
1.0 1.0 0.0
2.0 1.0 0.0
0.0 2.0 0.0
1.0 2.0 0.0
2.0 2.0 0.0
0.0 0.0 1.0
1.0 0.0 1.0
2.0 0.0 1.0
0.0 1.0 1.0
1.0 1.0 1.0
2.0 1.0 1.0
0.0 2.0 1.0
1.0 2.0 1.0
2.0 2.0 1.0
CELLS 4 36
8 0 1 4 3 9 10 13 12
8 1 2 5 4 10 11 14 13
8 3 4 7 6 12 13 16 15
8 4 5 8 7 13 14 17 16
CELL_TYPES 4
12
12
12
12
POINT_DATA 18
SCALARS pid float 1
LOOKUP_TABLE default
0.0
10.0
20.0
30.0
40.0
50.0
60.0
70.0
80.0
90.0
100.0
110.0
120.0
130.0
140.0
150.0
160.0
170.0
SCALARS pid_double double 1
LOOKUP_TABLE default
0.125
10.125
20.125
30.125
40.125
50.125
60.125
70.125
80.125
90.125
100.125
110.125
120.125
130.125
140.125
150.125
160.125
170.125
CELL_DATA 4
SCALARS cid double 1
LOOKUP_TABLE default
100.0
200.0
300.0
400.0
