# vtk DataFile Version 3.0
Two disconnected closed boxes for Connected Surface Properties
ASCII
DATASET POLYDATA
POINTS 16 float
0 0 0
1 0 0
1 1 0
0 1 0
0 0 1
1 0 1
1 1 1
0 1 1
3 0 0
5 0 0
5 1 0
3 1 0
3 0 1
5 0 1
5 1 1
3 1 1
POLYGONS 12 60
4 0 3 2 1
4 4 5 6 7
4 0 1 5 4
4 1 2 6 5
4 2 3 7 6
4 3 0 4 7
4 8 11 10 9
4 12 13 14 15
4 8 9 13 12
4 9 13 14 10
4 10 11 15 14
4 11 8 12 15
POINT_DATA 16
SCALARS PointValue float 1
LOOKUP_TABLE default
0 1 2 3 4 5 6 7 8 9 10 11 12 13 14 15
CELL_DATA 12
SCALARS FaceValue int 1
LOOKUP_TABLE default
100 101 102 103 104 105 200 201 202 203 204 205
