# vtk DataFile Version 3.0
Generated by AI for CountCellVerticesFilter test (mixed cell types)
ASCII
DATASET UNSTRUCTURED_GRID
POINTS 39 float
-3.6 0 0
-2.6 0 0
-2.6 1 0
-3.6 1 0
-3.6 0 1
-2.6 0 1
-2.6 1 1
-3.6 1 1
-1.8 0 0
-0.8 0 0
-1.3 0 0.866025
-1.8 1 0
-0.8 1 0
-1.3 1 0.866025
0 0 0
1 0 0
1 0 1
0 0 1
0.5 1 0.5
1.8 0 0
2.8 0 0
2.3 0 0.9
2.3 0.9 0.45
3.6 0 0
4.8 0 0
4.2 0 1
4.2 0.9 0.5
-2.7 0 2.6
-1.7 0 2.6
-1.7 0 3.6
-2.7 0 3.6
-0.9 0 2.6
0.1 0 2.6
-0.4 0 3.5
0.9 0 2.6
2 0 2.65
1.4 0 3.6
2.7 0.45 2.7
3.8 0.45 2.7
CELLS 9 48
8 0 1 2 3 4 5 6 7
6 8 9 10 11 12 13
5 14 15 16 17 18
4 19 20 21 22
4 23 24 25 26
4 27 28 29 30
3 31 32 33
3 34 35 36
2 37 38
CELL_TYPES 9
12
13
14
10
10
9
5
5
3
