# vtk DataFile Version 3.0
CountCellFaces mixed topology regression
ASCII
DATASET UNSTRUCTURED_GRID
POINTS 31 float
0 0 0
1 0 0
0 1 0
0 0 1
2 0 0
3 0 0
3 1 0
2 1 0
2 0 1
3 0 1
3 1 1
2 1 1
4 0 0
5 0 0
5 1 0
4 1 0
4.5 0.5 1
6 0 0
7 0 0
6 1 0
6 0 1
7 0 1
6 1 1
0 3 0
1 3 0
0 4 0
2 3 0
3 3 0
3 4 0
2 4 0
4 3 0
CELLS 7 39
4 0 1 2 3
8 4 5 6 7 8 9 10 11
5 12 13 14 15 16
6 17 18 19 20 21 22
3 23 24 25
4 26 27 28 29
2 29 30
CELL_TYPES 7
10
12
14
13
5
9
3
CELL_DATA 7
SCALARS material_id int 1
LOOKUP_TABLE default
10 20 30 40 50 60 70
