# vtk DataFile Version 3.0
Sphere surface with Velocity field for DeflectNormalsFilter test
ASCII
DATASET POLYDATA
POINTS 840 float
0.000000 0.000000 1.000000
0.000000 0.000000 1.000000
0.000000 0.000000 1.000000
0.000000 0.000000 1.000000
0.000000 0.000000 1.000000
0.000000 0.000000 1.000000
0.000000 0.000000 1.000000
0.000000 0.000000 1.000000
0.000000 0.000000 1.000000
0.000000 0.000000 1.000000
0.000000 0.000000 1.000000
-0.000000 0.000000 1.000000
-0.000000 0.000000 1.000000
-0.000000 0.000000 1.000000
-0.000000 0.000000 1.000000
-0.000000 0.000000 1.000000
-0.000000 0.000000 1.000000
-0.000000 0.000000 1.000000
-0.000000 0.000000 1.000000
-0.000000 0.000000 1.000000
-0.000000 0.000000 1.000000
-0.000000 -0.000000 1.000000
-0.000000 -0.000000 1.000000
-0.000000 -0.000000 1.000000
-0.000000 -0.000000 1.000000
-0.000000 -0.000000 1.000000
-0.000000 -0.000000 1.000000
-0.000000 -0.000000 1.000000
-0.000000 -0.000000 1.000000
-0.000000 -0.000000 1.000000
-0.000000 -0.000000 1.000000
0.000000 -0.000000 1.000000
0.000000 -0.000000 1.000000
0.000000 -0.000000 1.000000
0.000000 -0.000000 1.000000
0.000000 -0.000000 1.000000
0.000000 -0.000000 1.000000
0.000000 -0.000000 1.000000
0.000000 -0.000000 1.000000
0.000000 -0.000000 1.000000
0.156434 0.000000 0.987688
0.154508 0.024472 0.987688
0.148778 0.048341 0.987688
0.139384 0.071020 0.987688
0.126558 0.091950 0.987688
0.110616 0.110616 0.987688
0.091950 0.126558 0.987688
0.071020 0.139384 0.987688
0.048341 0.148778 0.987688
0.024472 0.154508 0.987688
0.000000 0.156434 0.987688
-0.024472 0.154508 0.987688
-0.048341 0.148778 0.987688
-0.071020 0.139384 0.987688
-0.091950 0.126558 0.987688
-0.110616 0.110616 0.987688
-0.126558 0.091950 0.987688
-0.139384 0.071020 0.987688
-0.148778 0.048341 0.987688
-0.154508 0.024472 0.987688
-0.156434 0.000000 0.987688
-0.154508 -0.024472 0.987688
-0.148778 -0.048341 0.987688
-0.139384 -0.071020 0.987688
-0.126558 -0.091950 0.987688
-0.110616 -0.110616 0.987688
-0.091950 -0.126558 0.987688
-0.071020 -0.139384 0.987688
-0.048341 -0.148778 0.987688
-0.024472 -0.154508 0.987688
-0.000000 -0.156434 0.987688
0.024472 -0.154508 0.987688
0.048341 -0.148778 0.987688
0.071020 -0.139384 0.987688
0.091950 -0.126558 0.987688
0.110616 -0.110616 0.987688
0.126558 -0.091950 0.987688
0.139384 -0.071020 0.987688
0.148778 -0.048341 0.987688
0.154508 -0.024472 0.987688
0.309017 0.000000 0.951057
0.305212 0.048341 0.951057
0.293893 0.095492 0.951057
0.275336 0.140291 0.951057
0.250000 0.181636 0.951057
0.218508 0.218508 0.951057
0.181636 0.250000 0.951057
0.140291 0.275336 0.951057
0.095492 0.293893 0.951057
0.048341 0.305212 0.951057
0.000000 0.309017 0.951057
-0.048341 0.305212 0.951057
-0.095492 0.293893 0.951057
-0.140291 0.275336 0.951057
-0.181636 0.250000 0.951057
-0.218508 0.218508 0.951057
-0.250000 0.181636 0.951057
-0.275336 0.140291 0.951057
-0.293893 0.095492 0.951057
-0.305212 0.048341 0.951057
-0.309017 0.000000 0.951057
-0.305212 -0.048341 0.951057
-0.293893 -0.095492 0.951057
-0.275336 -0.140291 0.951057
-0.250000 -0.181636 0.951057
-0.218508 -0.218508 0.951057
-0.181636 -0.250000 0.951057
-0.140291 -0.275336 0.951057
-0.095492 -0.293893 0.951057
-0.048341 -0.305212 0.951057
-0.000000 -0.309017 0.951057
0.048341 -0.305212 0.951057
0.095492 -0.293893 0.951057
0.140291 -0.275336 0.951057
0.181636 -0.250000 0.951057
0.218508 -0.218508 0.951057
0.250000 -0.181636 0.951057
0.275336 -0.140291 0.951057
0.293893 -0.095492 0.951057
0.305212 -0.048341 0.951057
0.453990 0.000000 0.891007
0.448401 0.071020 0.891007
0.431771 0.140291 0.891007
0.404508 0.206107 0.891007
0.367286 0.266849 0.891007
0.321020 0.321020 0.891007
0.266849 0.367286 0.891007
0.206107 0.404508 0.891007
0.140291 0.431771 0.891007
0.071020 0.448401 0.891007
0.000000 0.453990 0.891007
-0.071020 0.448401 0.891007
-0.140291 0.431771 0.891007
-0.206107 0.404508 0.891007
-0.266849 0.367286 0.891007
-0.321020 0.321020 0.891007
-0.367286 0.266849 0.891007
-0.404508 0.206107 0.891007
-0.431771 0.140291 0.891007
-0.448401 0.071020 0.891007
-0.453990 0.000000 0.891007
-0.448401 -0.071020 0.891007
-0.431771 -0.140291 0.891007
-0.404508 -0.206107 0.891007
-0.367286 -0.266849 0.891007
-0.321020 -0.321020 0.891007
-0.266849 -0.367286 0.891007
-0.206107 -0.404508 0.891007
-0.140291 -0.431771 0.891007
-0.071020 -0.448401 0.891007
-0.000000 -0.453990 0.891007
0.071020 -0.448401 0.891007
0.140291 -0.431771 0.891007
0.206107 -0.404508 0.891007
0.266849 -0.367286 0.891007
0.321020 -0.321020 0.891007
0.367286 -0.266849 0.891007
0.404508 -0.206107 0.891007
0.431771 -0.140291 0.891007
0.448401 -0.071020 0.891007
0.587785 0.000000 0.809017
0.580549 0.091950 0.809017
0.559017 0.181636 0.809017
0.523720 0.266849 0.809017
0.475528 0.345492 0.809017
0.415627 0.415627 0.809017
0.345492 0.475528 0.809017
0.266849 0.523720 0.809017
0.181636 0.559017 0.809017
0.091950 0.580549 0.809017
0.000000 0.587785 0.809017
-0.091950 0.580549 0.809017
-0.181636 0.559017 0.809017
-0.266849 0.523720 0.809017
-0.345492 0.475528 0.809017
-0.415627 0.415627 0.809017
-0.475528 0.345492 0.809017
-0.523720 0.266849 0.809017
-0.559017 0.181636 0.809017
-0.580549 0.091950 0.809017
-0.587785 0.000000 0.809017
-0.580549 -0.091950 0.809017
-0.559017 -0.181636 0.809017
-0.523720 -0.266849 0.809017
-0.475528 -0.345492 0.809017
-0.415627 -0.415627 0.809017
-0.345492 -0.475528 0.809017
-0.266849 -0.523720 0.809017
-0.181636 -0.559017 0.809017
-0.091950 -0.580549 0.809017
-0.000000 -0.587785 0.809017
0.091950 -0.580549 0.809017
0.181636 -0.559017 0.809017
0.266849 -0.523720 0.809017
0.345492 -0.475528 0.809017
0.415627 -0.415627 0.809017
0.475528 -0.345492 0.809017
0.523720 -0.266849 0.809017
0.559017 -0.181636 0.809017
0.580549 -0.091950 0.809017
0.707107 0.000000 0.707107
0.698401 0.110616 0.707107
0.672499 0.218508 0.707107
0.630037 0.321020 0.707107
0.572061 0.415627 0.707107
0.500000 0.500000 0.707107
0.415627 0.572061 0.707107
0.321020 0.630037 0.707107
0.218508 0.672499 0.707107
0.110616 0.698401 0.707107
0.000000 0.707107 0.707107
-0.110616 0.698401 0.707107
-0.218508 0.672499 0.707107
-0.321020 0.630037 0.707107
-0.415627 0.572061 0.707107
-0.500000 0.500000 0.707107
-0.572061 0.415627 0.707107
-0.630037 0.321020 0.707107
-0.672499 0.218508 0.707107
-0.698401 0.110616 0.707107
-0.707107 0.000000 0.707107
-0.698401 -0.110616 0.707107
-0.672499 -0.218508 0.707107
-0.630037 -0.321020 0.707107
-0.572061 -0.415627 0.707107
-0.500000 -0.500000 0.707107
-0.415627 -0.572061 0.707107
-0.321020 -0.630037 0.707107
-0.218508 -0.672499 0.707107
-0.110616 -0.698401 0.707107
-0.000000 -0.707107 0.707107
0.110616 -0.698401 0.707107
0.218508 -0.672499 0.707107
0.321020 -0.630037 0.707107
0.415627 -0.572061 0.707107
0.500000 -0.500000 0.707107
0.572061 -0.415627 0.707107
0.630037 -0.321020 0.707107
0.672499 -0.218508 0.707107
0.698401 -0.110616 0.707107
0.809017 0.000000 0.587785
0.799057 0.126558 0.587785
0.769421 0.250000 0.587785
0.720839 0.367286 0.587785
0.654508 0.475528 0.587785
0.572061 0.572061 0.587785
0.475528 0.654508 0.587785
0.367286 0.720839 0.587785
0.250000 0.769421 0.587785
0.126558 0.799057 0.587785
0.000000 0.809017 0.587785
-0.126558 0.799057 0.587785
-0.250000 0.769421 0.587785
-0.367286 0.720839 0.587785
-0.475528 0.654508 0.587785
-0.572061 0.572061 0.587785
-0.654508 0.475528 0.587785
-0.720839 0.367286 0.587785
-0.769421 0.250000 0.587785
-0.799057 0.126558 0.587785
-0.809017 0.000000 0.587785
-0.799057 -0.126558 0.587785
-0.769421 -0.250000 0.587785
-0.720839 -0.367286 0.587785
-0.654508 -0.475528 0.587785
-0.572061 -0.572061 0.587785
-0.475528 -0.654508 0.587785
-0.367286 -0.720839 0.587785
-0.250000 -0.769421 0.587785
-0.126558 -0.799057 0.587785
-0.000000 -0.809017 0.587785
0.126558 -0.799057 0.587785
0.250000 -0.769421 0.587785
0.367286 -0.720839 0.587785
0.475528 -0.654508 0.587785
0.572061 -0.572061 0.587785
0.654508 -0.475528 0.587785
0.720839 -0.367286 0.587785
0.769421 -0.250000 0.587785
0.799057 -0.126558 0.587785
0.891007 0.000000 0.453990
0.880037 0.139384 0.453990
0.847398 0.275336 0.453990
0.793893 0.404508 0.453990
0.720839 0.523720 0.453990
0.630037 0.630037 0.453990
0.523720 0.720839 0.453990
0.404508 0.793893 0.453990
0.275336 0.847398 0.453990
0.139384 0.880037 0.453990
0.000000 0.891007 0.453990
-0.139384 0.880037 0.453990
-0.275336 0.847398 0.453990
-0.404508 0.793893 0.453990
-0.523720 0.720839 0.453990
-0.630037 0.630037 0.453990
-0.720839 0.523720 0.453990
-0.793893 0.404508 0.453990
-0.847398 0.275336 0.453990
-0.880037 0.139384 0.453990
-0.891007 0.000000 0.453990
-0.880037 -0.139384 0.453990
-0.847398 -0.275336 0.453990
-0.793893 -0.404508 0.453990
-0.720839 -0.523720 0.453990
-0.630037 -0.630037 0.453990
-0.523720 -0.720839 0.453990
-0.404508 -0.793893 0.453990
-0.275336 -0.847398 0.453990
-0.139384 -0.880037 0.453990
-0.000000 -0.891007 0.453990
0.139384 -0.880037 0.453990
0.275336 -0.847398 0.453990
0.404508 -0.793893 0.453990
0.523720 -0.720839 0.453990
0.630037 -0.630037 0.453990
0.720839 -0.523720 0.453990
0.793893 -0.404508 0.453990
0.847398 -0.275336 0.453990
0.880037 -0.139384 0.453990
0.951057 0.000000 0.309017
0.939347 0.148778 0.309017
0.904508 0.293893 0.309017
0.847398 0.431771 0.309017
0.769421 0.559017 0.309017
0.672499 0.672499 0.309017
0.559017 0.769421 0.309017
0.431771 0.847398 0.309017
0.293893 0.904508 0.309017
0.148778 0.939347 0.309017
0.000000 0.951057 0.309017
-0.148778 0.939347 0.309017
-0.293893 0.904508 0.309017
-0.431771 0.847398 0.309017
-0.559017 0.769421 0.309017
-0.672499 0.672499 0.309017
-0.769421 0.559017 0.309017
-0.847398 0.431771 0.309017
-0.904508 0.293893 0.309017
-0.939347 0.148778 0.309017
-0.951057 0.000000 0.309017
-0.939347 -0.148778 0.309017
-0.904508 -0.293893 0.309017
-0.847398 -0.431771 0.309017
-0.769421 -0.559017 0.309017
-0.672499 -0.672499 0.309017
-0.559017 -0.769421 0.309017
-0.431771 -0.847398 0.309017
-0.293893 -0.904508 0.309017
-0.148778 -0.939347 0.309017
-0.000000 -0.951057 0.309017
0.148778 -0.939347 0.309017
0.293893 -0.904508 0.309017
0.431771 -0.847398 0.309017
0.559017 -0.769421 0.309017
0.672499 -0.672499 0.309017
0.769421 -0.559017 0.309017
0.847398 -0.431771 0.309017
0.904508 -0.293893 0.309017
0.939347 -0.148778 0.309017
0.987688 0.000000 0.156434
0.975528 0.154508 0.156434
0.939347 0.305212 0.156434
0.880037 0.448401 0.156434
0.799057 0.580549 0.156434
0.698401 0.698401 0.156434
0.580549 0.799057 0.156434
0.448401 0.880037 0.156434
0.305212 0.939347 0.156434
0.154508 0.975528 0.156434
0.000000 0.987688 0.156434
-0.154508 0.975528 0.156434
-0.305212 0.939347 0.156434
-0.448401 0.880037 0.156434
-0.580549 0.799057 0.156434
-0.698401 0.698401 0.156434
-0.799057 0.580549 0.156434
-0.880037 0.448401 0.156434
-0.939347 0.305212 0.156434
-0.975528 0.154508 0.156434
-0.987688 0.000000 0.156434
-0.975528 -0.154508 0.156434
-0.939347 -0.305212 0.156434
-0.880037 -0.448401 0.156434
-0.799057 -0.580549 0.156434
-0.698401 -0.698401 0.156434
-0.580549 -0.799057 0.156434
-0.448401 -0.880037 0.156434
-0.305212 -0.939347 0.156434
-0.154508 -0.975528 0.156434
-0.000000 -0.987688 0.156434
0.154508 -0.975528 0.156434
0.305212 -0.939347 0.156434
0.448401 -0.880037 0.156434
0.580549 -0.799057 0.156434
0.698401 -0.698401 0.156434
0.799057 -0.580549 0.156434
0.880037 -0.448401 0.156434
0.939347 -0.305212 0.156434
0.975528 -0.154508 0.156434
1.000000 0.000000 0.000000
0.987688 0.156434 0.000000
0.951057 0.309017 0.000000
0.891007 0.453990 0.000000
0.809017 0.587785 0.000000
0.707107 0.707107 0.000000
0.587785 0.809017 0.000000
0.453990 0.891007 0.000000
0.309017 0.951057 0.000000
0.156434 0.987688 0.000000
0.000000 1.000000 0.000000
-0.156434 0.987688 0.000000
-0.309017 0.951057 0.000000
-0.453990 0.891007 0.000000
-0.587785 0.809017 0.000000
-0.707107 0.707107 0.000000
-0.809017 0.587785 0.000000
-0.891007 0.453990 0.000000
-0.951057 0.309017 0.000000
-0.987688 0.156434 0.000000
-1.000000 0.000000 0.000000
-0.987688 -0.156434 0.000000
-0.951057 -0.309017 0.000000
-0.891007 -0.453990 0.000000
-0.809017 -0.587785 0.000000
-0.707107 -0.707107 0.000000
-0.587785 -0.809017 0.000000
-0.453990 -0.891007 0.000000
-0.309017 -0.951057 0.000000
-0.156434 -0.987688 0.000000
-0.000000 -1.000000 0.000000
0.156434 -0.987688 0.000000
0.309017 -0.951057 0.000000
0.453990 -0.891007 0.000000
0.587785 -0.809017 0.000000
0.707107 -0.707107 0.000000
0.809017 -0.587785 0.000000
0.891007 -0.453990 0.000000
0.951057 -0.309017 0.000000
0.987688 -0.156434 0.000000
0.987688 0.000000 -0.156434
0.975528 0.154508 -0.156434
0.939347 0.305212 -0.156434
0.880037 0.448401 -0.156434
0.799057 0.580549 -0.156434
0.698401 0.698401 -0.156434
0.580549 0.799057 -0.156434
0.448401 0.880037 -0.156434
0.305212 0.939347 -0.156434
0.154508 0.975528 -0.156434
0.000000 0.987688 -0.156434
-0.154508 0.975528 -0.156434
-0.305212 0.939347 -0.156434
-0.448401 0.880037 -0.156434
-0.580549 0.799057 -0.156434
-0.698401 0.698401 -0.156434
-0.799057 0.580549 -0.156434
-0.880037 0.448401 -0.156434
-0.939347 0.305212 -0.156434
-0.975528 0.154508 -0.156434
-0.987688 0.000000 -0.156434
-0.975528 -0.154508 -0.156434
-0.939347 -0.305212 -0.156434
-0.880037 -0.448401 -0.156434
-0.799057 -0.580549 -0.156434
-0.698401 -0.698401 -0.156434
-0.580549 -0.799057 -0.156434
-0.448401 -0.880037 -0.156434
-0.305212 -0.939347 -0.156434
-0.154508 -0.975528 -0.156434
-0.000000 -0.987688 -0.156434
0.154508 -0.975528 -0.156434
0.305212 -0.939347 -0.156434
0.448401 -0.880037 -0.156434
0.580549 -0.799057 -0.156434
0.698401 -0.698401 -0.156434
0.799057 -0.580549 -0.156434
0.880037 -0.448401 -0.156434
0.939347 -0.305212 -0.156434
0.975528 -0.154508 -0.156434
0.951057 0.000000 -0.309017
0.939347 0.148778 -0.309017
0.904508 0.293893 -0.309017
0.847398 0.431771 -0.309017
0.769421 0.559017 -0.309017
0.672499 0.672499 -0.309017
0.559017 0.769421 -0.309017
0.431771 0.847398 -0.309017
0.293893 0.904508 -0.309017
0.148778 0.939347 -0.309017
0.000000 0.951057 -0.309017
-0.148778 0.939347 -0.309017
-0.293893 0.904508 -0.309017
-0.431771 0.847398 -0.309017
-0.559017 0.769421 -0.309017
-0.672499 0.672499 -0.309017
-0.769421 0.559017 -0.309017
-0.847398 0.431771 -0.309017
-0.904508 0.293893 -0.309017
-0.939347 0.148778 -0.309017
-0.951057 0.000000 -0.309017
-0.939347 -0.148778 -0.309017
-0.904508 -0.293893 -0.309017
-0.847398 -0.431771 -0.309017
-0.769421 -0.559017 -0.309017
-0.672499 -0.672499 -0.309017
-0.559017 -0.769421 -0.309017
-0.431771 -0.847398 -0.309017
-0.293893 -0.904508 -0.309017
-0.148778 -0.939347 -0.309017
-0.000000 -0.951057 -0.309017
0.148778 -0.939347 -0.309017
0.293893 -0.904508 -0.309017
0.431771 -0.847398 -0.309017
0.559017 -0.769421 -0.309017
0.672499 -0.672499 -0.309017
0.769421 -0.559017 -0.309017
0.847398 -0.431771 -0.309017
0.904508 -0.293893 -0.309017
0.939347 -0.148778 -0.309017
0.891007 0.000000 -0.453990
0.880037 0.139384 -0.453990
0.847398 0.275336 -0.453990
0.793893 0.404508 -0.453990
0.720839 0.523720 -0.453990
0.630037 0.630037 -0.453990
0.523720 0.720839 -0.453990
0.404508 0.793893 -0.453990
0.275336 0.847398 -0.453990
0.139384 0.880037 -0.453990
0.000000 0.891007 -0.453990
-0.139384 0.880037 -0.453990
-0.275336 0.847398 -0.453990
-0.404508 0.793893 -0.453990
-0.523720 0.720839 -0.453990
-0.630037 0.630037 -0.453990
-0.720839 0.523720 -0.453990
-0.793893 0.404508 -0.453990
-0.847398 0.275336 -0.453990
-0.880037 0.139384 -0.453990
-0.891007 0.000000 -0.453990
-0.880037 -0.139384 -0.453990
-0.847398 -0.275336 -0.453990
-0.793893 -0.404508 -0.453990
-0.720839 -0.523720 -0.453990
-0.630037 -0.630037 -0.453990
-0.523720 -0.720839 -0.453990
-0.404508 -0.793893 -0.453990
-0.275336 -0.847398 -0.453990
-0.139384 -0.880037 -0.453990
-0.000000 -0.891007 -0.453990
0.139384 -0.880037 -0.453990
0.275336 -0.847398 -0.453990
0.404508 -0.793893 -0.453990
0.523720 -0.720839 -0.453990
0.630037 -0.630037 -0.453990
0.720839 -0.523720 -0.453990
0.793893 -0.404508 -0.453990
0.847398 -0.275336 -0.453990
0.880037 -0.139384 -0.453990
0.809017 0.000000 -0.587785
0.799057 0.126558 -0.587785
0.769421 0.250000 -0.587785
0.720839 0.367286 -0.587785
0.654508 0.475528 -0.587785
0.572061 0.572061 -0.587785
0.475528 0.654508 -0.587785
0.367286 0.720839 -0.587785
0.250000 0.769421 -0.587785
0.126558 0.799057 -0.587785
0.000000 0.809017 -0.587785
-0.126558 0.799057 -0.587785
-0.250000 0.769421 -0.587785
-0.367286 0.720839 -0.587785
-0.475528 0.654508 -0.587785
-0.572061 0.572061 -0.587785
-0.654508 0.475528 -0.587785
-0.720839 0.367286 -0.587785
-0.769421 0.250000 -0.587785
-0.799057 0.126558 -0.587785
-0.809017 0.000000 -0.587785
-0.799057 -0.126558 -0.587785
-0.769421 -0.250000 -0.587785
-0.720839 -0.367286 -0.587785
-0.654508 -0.475528 -0.587785
-0.572061 -0.572061 -0.587785
-0.475528 -0.654508 -0.587785
-0.367286 -0.720839 -0.587785
-0.250000 -0.769421 -0.587785
-0.126558 -0.799057 -0.587785
-0.000000 -0.809017 -0.587785
0.126558 -0.799057 -0.587785
0.250000 -0.769421 -0.587785
0.367286 -0.720839 -0.587785
0.475528 -0.654508 -0.587785
0.572061 -0.572061 -0.587785
0.654508 -0.475528 -0.587785
0.720839 -0.367286 -0.587785
0.769421 -0.250000 -0.587785
0.799057 -0.126558 -0.587785
0.707107 0.000000 -0.707107
0.698401 0.110616 -0.707107
0.672499 0.218508 -0.707107
0.630037 0.321020 -0.707107
0.572061 0.415627 -0.707107
0.500000 0.500000 -0.707107
0.415627 0.572061 -0.707107
0.321020 0.630037 -0.707107
0.218508 0.672499 -0.707107
0.110616 0.698401 -0.707107
0.000000 0.707107 -0.707107
-0.110616 0.698401 -0.707107
-0.218508 0.672499 -0.707107
-0.321020 0.630037 -0.707107
-0.415627 0.572061 -0.707107
-0.500000 0.500000 -0.707107
-0.572061 0.415627 -0.707107
-0.630037 0.321020 -0.707107
-0.672499 0.218508 -0.707107
-0.698401 0.110616 -0.707107
-0.707107 0.000000 -0.707107
-0.698401 -0.110616 -0.707107
-0.672499 -0.218508 -0.707107
-0.630037 -0.321020 -0.707107
-0.572061 -0.415627 -0.707107
-0.500000 -0.500000 -0.707107
-0.415627 -0.572061 -0.707107
-0.321020 -0.630037 -0.707107
-0.218508 -0.672499 -0.707107
-0.110616 -0.698401 -0.707107
-0.000000 -0.707107 -0.707107
0.110616 -0.698401 -0.707107
0.218508 -0.672499 -0.707107
0.321020 -0.630037 -0.707107
0.415627 -0.572061 -0.707107
0.500000 -0.500000 -0.707107
0.572061 -0.415627 -0.707107
0.630037 -0.321020 -0.707107
0.672499 -0.218508 -0.707107
0.698401 -0.110616 -0.707107
0.587785 0.000000 -0.809017
0.580549 0.091950 -0.809017
0.559017 0.181636 -0.809017
0.523720 0.266849 -0.809017
0.475528 0.345492 -0.809017
0.415627 0.415627 -0.809017
0.345492 0.475528 -0.809017
0.266849 0.523720 -0.809017
0.181636 0.559017 -0.809017
0.091950 0.580549 -0.809017
0.000000 0.587785 -0.809017
-0.091950 0.580549 -0.809017
-0.181636 0.559017 -0.809017
-0.266849 0.523720 -0.809017
-0.345492 0.475528 -0.809017
-0.415627 0.415627 -0.809017
-0.475528 0.345492 -0.809017
-0.523720 0.266849 -0.809017
-0.559017 0.181636 -0.809017
-0.580549 0.091950 -0.809017
-0.587785 0.000000 -0.809017
-0.580549 -0.091950 -0.809017
-0.559017 -0.181636 -0.809017
-0.523720 -0.266849 -0.809017
-0.475528 -0.345492 -0.809017
-0.415627 -0.415627 -0.809017
-0.345492 -0.475528 -0.809017
-0.266849 -0.523720 -0.809017
-0.181636 -0.559017 -0.809017
-0.091950 -0.580549 -0.809017
-0.000000 -0.587785 -0.809017
0.091950 -0.580549 -0.809017
0.181636 -0.559017 -0.809017
0.266849 -0.523720 -0.809017
0.345492 -0.475528 -0.809017
0.415627 -0.415627 -0.809017
0.475528 -0.345492 -0.809017
0.523720 -0.266849 -0.809017
0.559017 -0.181636 -0.809017
0.580549 -0.091950 -0.809017
0.453990 0.000000 -0.891007
0.448401 0.071020 -0.891007
0.431771 0.140291 -0.891007
0.404508 0.206107 -0.891007
0.367286 0.266849 -0.891007
0.321020 0.321020 -0.891007
0.266849 0.367286 -0.891007
0.206107 0.404508 -0.891007
0.140291 0.431771 -0.891007
0.071020 0.448401 -0.891007
0.000000 0.453990 -0.891007
-0.071020 0.448401 -0.891007
-0.140291 0.431771 -0.891007
-0.206107 0.404508 -0.891007
-0.266849 0.367286 -0.891007
-0.321020 0.321020 -0.891007
-0.367286 0.266849 -0.891007
-0.404508 0.206107 -0.891007
-0.431771 0.140291 -0.891007
-0.448401 0.071020 -0.891007
-0.453990 0.000000 -0.891007
-0.448401 -0.071020 -0.891007
-0.431771 -0.140291 -0.891007
-0.404508 -0.206107 -0.891007
-0.367286 -0.266849 -0.891007
-0.321020 -0.321020 -0.891007
-0.266849 -0.367286 -0.891007
-0.206107 -0.404508 -0.891007
-0.140291 -0.431771 -0.891007
-0.071020 -0.448401 -0.891007
-0.000000 -0.453990 -0.891007
0.071020 -0.448401 -0.891007
0.140291 -0.431771 -0.891007
0.206107 -0.404508 -0.891007
0.266849 -0.367286 -0.891007
0.321020 -0.321020 -0.891007
0.367286 -0.266849 -0.891007
0.404508 -0.206107 -0.891007
0.431771 -0.140291 -0.891007
0.448401 -0.071020 -0.891007
0.309017 0.000000 -0.951057
0.305212 0.048341 -0.951057
0.293893 0.095492 -0.951057
0.275336 0.140291 -0.951057
0.250000 0.181636 -0.951057
0.218508 0.218508 -0.951057
0.181636 0.250000 -0.951057
0.140291 0.275336 -0.951057
0.095492 0.293893 -0.951057
0.048341 0.305212 -0.951057
0.000000 0.309017 -0.951057
-0.048341 0.305212 -0.951057
-0.095492 0.293893 -0.951057
-0.140291 0.275336 -0.951057
-0.181636 0.250000 -0.951057
-0.218508 0.218508 -0.951057
-0.250000 0.181636 -0.951057
-0.275336 0.140291 -0.951057
-0.293893 0.095492 -0.951057
-0.305212 0.048341 -0.951057
-0.309017 0.000000 -0.951057
-0.305212 -0.048341 -0.951057
-0.293893 -0.095492 -0.951057
-0.275336 -0.140291 -0.951057
-0.250000 -0.181636 -0.951057
-0.218508 -0.218508 -0.951057
-0.181636 -0.250000 -0.951057
-0.140291 -0.275336 -0.951057
-0.095492 -0.293893 -0.951057
-0.048341 -0.305212 -0.951057
-0.000000 -0.309017 -0.951057
0.048341 -0.305212 -0.951057
0.095492 -0.293893 -0.951057
0.140291 -0.275336 -0.951057
0.181636 -0.250000 -0.951057
0.218508 -0.218508 -0.951057
0.250000 -0.181636 -0.951057
0.275336 -0.140291 -0.951057
0.293893 -0.095492 -0.951057
0.305212 -0.048341 -0.951057
0.156434 0.000000 -0.987688
0.154508 0.024472 -0.987688
0.148778 0.048341 -0.987688
0.139384 0.071020 -0.987688
0.126558 0.091950 -0.987688
0.110616 0.110616 -0.987688
0.091950 0.126558 -0.987688
0.071020 0.139384 -0.987688
0.048341 0.148778 -0.987688
0.024472 0.154508 -0.987688
0.000000 0.156434 -0.987688
-0.024472 0.154508 -0.987688
-0.048341 0.148778 -0.987688
-0.071020 0.139384 -0.987688
-0.091950 0.126558 -0.987688
-0.110616 0.110616 -0.987688
-0.126558 0.091950 -0.987688
-0.139384 0.071020 -0.987688
-0.148778 0.048341 -0.987688
-0.154508 0.024472 -0.987688
-0.156434 0.000000 -0.987688
-0.154508 -0.024472 -0.987688
-0.148778 -0.048341 -0.987688
-0.139384 -0.071020 -0.987688
-0.126558 -0.091950 -0.987688
-0.110616 -0.110616 -0.987688
-0.091950 -0.126558 -0.987688
-0.071020 -0.139384 -0.987688
-0.048341 -0.148778 -0.987688
-0.024472 -0.154508 -0.987688
-0.000000 -0.156434 -0.987688
0.024472 -0.154508 -0.987688
0.048341 -0.148778 -0.987688
0.071020 -0.139384 -0.987688
0.091950 -0.126558 -0.987688
0.110616 -0.110616 -0.987688
0.126558 -0.091950 -0.987688
0.139384 -0.071020 -0.987688
0.148778 -0.048341 -0.987688
0.154508 -0.024472 -0.987688
0.000000 0.000000 -1.000000
0.000000 0.000000 -1.000000
0.000000 0.000000 -1.000000
0.000000 0.000000 -1.000000
0.000000 0.000000 -1.000000
0.000000 0.000000 -1.000000
0.000000 0.000000 -1.000000
0.000000 0.000000 -1.000000
0.000000 0.000000 -1.000000
0.000000 0.000000 -1.000000
0.000000 0.000000 -1.000000
-0.000000 0.000000 -1.000000
-0.000000 0.000000 -1.000000
-0.000000 0.000000 -1.000000
-0.000000 0.000000 -1.000000
-0.000000 0.000000 -1.000000
-0.000000 0.000000 -1.000000
-0.000000 0.000000 -1.000000
-0.000000 0.000000 -1.000000
-0.000000 0.000000 -1.000000
-0.000000 0.000000 -1.000000
-0.000000 -0.000000 -1.000000
-0.000000 -0.000000 -1.000000
-0.000000 -0.000000 -1.000000
-0.000000 -0.000000 -1.000000
-0.000000 -0.000000 -1.000000
-0.000000 -0.000000 -1.000000
-0.000000 -0.000000 -1.000000
-0.000000 -0.000000 -1.000000
-0.000000 -0.000000 -1.000000
-0.000000 -0.000000 -1.000000
0.000000 -0.000000 -1.000000
0.000000 -0.000000 -1.000000
0.000000 -0.000000 -1.000000
0.000000 -0.000000 -1.000000
0.000000 -0.000000 -1.000000
0.000000 -0.000000 -1.000000
0.000000 -0.000000 -1.000000
0.000000 -0.000000 -1.000000
0.000000 -0.000000 -1.000000
POLYGONS 1600 6400
3 0 1 41
3 0 41 40
3 1 2 42
3 1 42 41
3 2 3 43
3 2 43 42
3 3 4 44
3 3 44 43
3 4 5 45
3 4 45 44
3 5 6 46
3 5 46 45
3 6 7 47
3 6 47 46
3 7 8 48
3 7 48 47
3 8 9 49
3 8 49 48
3 9 10 50
3 9 50 49
3 10 11 51
3 10 51 50
3 11 12 52
3 11 52 51
3 12 13 53
3 12 53 52
3 13 14 54
3 13 54 53
3 14 15 55
3 14 55 54
3 15 16 56
3 15 56 55
3 16 17 57
3 16 57 56
3 17 18 58
3 17 58 57
3 18 19 59
3 18 59 58
3 19 20 60
3 19 60 59
3 20 21 61
3 20 61 60
3 21 22 62
3 21 62 61
3 22 23 63
3 22 63 62
3 23 24 64
3 23 64 63
3 24 25 65
3 24 65 64
3 25 26 66
3 25 66 65
3 26 27 67
3 26 67 66
3 27 28 68
3 27 68 67
3 28 29 69
3 28 69 68
3 29 30 70
3 29 70 69
3 30 31 71
3 30 71 70
3 31 32 72
3 31 72 71
3 32 33 73
3 32 73 72
3 33 34 74
3 33 74 73
3 34 35 75
3 34 75 74
3 35 36 76
3 35 76 75
3 36 37 77
3 36 77 76
3 37 38 78
3 37 78 77
3 38 39 79
3 38 79 78
3 39 0 40
3 39 40 79
3 40 41 81
3 40 81 80
3 41 42 82
3 41 82 81
3 42 43 83
3 42 83 82
3 43 44 84
3 43 84 83
3 44 45 85
3 44 85 84
3 45 46 86
3 45 86 85
3 46 47 87
3 46 87 86
3 47 48 88
3 47 88 87
3 48 49 89
3 48 89 88
3 49 50 90
3 49 90 89
3 50 51 91
3 50 91 90
3 51 52 92
3 51 92 91
3 52 53 93
3 52 93 92
3 53 54 94
3 53 94 93
3 54 55 95
3 54 95 94
3 55 56 96
3 55 96 95
3 56 57 97
3 56 97 96
3 57 58 98
3 57 98 97
3 58 59 99
3 58 99 98
3 59 60 100
3 59 100 99
3 60 61 101
3 60 101 100
3 61 62 102
3 61 102 101
3 62 63 103
3 62 103 102
3 63 64 104
3 63 104 103
3 64 65 105
3 64 105 104
3 65 66 106
3 65 106 105
3 66 67 107
3 66 107 106
3 67 68 108
3 67 108 107
3 68 69 109
3 68 109 108
3 69 70 110
3 69 110 109
3 70 71 111
3 70 111 110
3 71 72 112
3 71 112 111
3 72 73 113
3 72 113 112
3 73 74 114
3 73 114 113
3 74 75 115
3 74 115 114
3 75 76 116
3 75 116 115
3 76 77 117
3 76 117 116
3 77 78 118
3 77 118 117
3 78 79 119
3 78 119 118
3 79 40 80
3 79 80 119
3 80 81 121
3 80 121 120
3 81 82 122
3 81 122 121
3 82 83 123
3 82 123 122
3 83 84 124
3 83 124 123
3 84 85 125
3 84 125 124
3 85 86 126
3 85 126 125
3 86 87 127
3 86 127 126
3 87 88 128
3 87 128 127
3 88 89 129
3 88 129 128
3 89 90 130
3 89 130 129
3 90 91 131
3 90 131 130
3 91 92 132
3 91 132 131
3 92 93 133
3 92 133 132
3 93 94 134
3 93 134 133
3 94 95 135
3 94 135 134
3 95 96 136
3 95 136 135
3 96 97 137
3 96 137 136
3 97 98 138
3 97 138 137
3 98 99 139
3 98 139 138
3 99 100 140
3 99 140 139
3 100 101 141
3 100 141 140
3 101 102 142
3 101 142 141
3 102 103 143
3 102 143 142
3 103 104 144
3 103 144 143
3 104 105 145
3 104 145 144
3 105 106 146
3 105 146 145
3 106 107 147
3 106 147 146
3 107 108 148
3 107 148 147
3 108 109 149
3 108 149 148
3 109 110 150
3 109 150 149
3 110 111 151
3 110 151 150
3 111 112 152
3 111 152 151
3 112 113 153
3 112 153 152
3 113 114 154
3 113 154 153
3 114 115 155
3 114 155 154
3 115 116 156
3 115 156 155
3 116 117 157
3 116 157 156
3 117 118 158
3 117 158 157
3 118 119 159
3 118 159 158
3 119 80 120
3 119 120 159
3 120 121 161
3 120 161 160
3 121 122 162
3 121 162 161
3 122 123 163
3 122 163 162
3 123 124 164
3 123 164 163
3 124 125 165
3 124 165 164
3 125 126 166
3 125 166 165
3 126 127 167
3 126 167 166
3 127 128 168
3 127 168 167
3 128 129 169
3 128 169 168
3 129 130 170
3 129 170 169
3 130 131 171
3 130 171 170
3 131 132 172
3 131 172 171
3 132 133 173
3 132 173 172
3 133 134 174
3 133 174 173
3 134 135 175
3 134 175 174
3 135 136 176
3 135 176 175
3 136 137 177
3 136 177 176
3 137 138 178
3 137 178 177
3 138 139 179
3 138 179 178
3 139 140 180
3 139 180 179
3 140 141 181
3 140 181 180
3 141 142 182
3 141 182 181
3 142 143 183
3 142 183 182
3 143 144 184
3 143 184 183
3 144 145 185
3 144 185 184
3 145 146 186
3 145 186 185
3 146 147 187
3 146 187 186
3 147 148 188
3 147 188 187
3 148 149 189
3 148 189 188
3 149 150 190
3 149 190 189
3 150 151 191
3 150 191 190
3 151 152 192
3 151 192 191
3 152 153 193
3 152 193 192
3 153 154 194
3 153 194 193
3 154 155 195
3 154 195 194
3 155 156 196
3 155 196 195
3 156 157 197
3 156 197 196
3 157 158 198
3 157 198 197
3 158 159 199
3 158 199 198
3 159 120 160
3 159 160 199
3 160 161 201
3 160 201 200
3 161 162 202
3 161 202 201
3 162 163 203
3 162 203 202
3 163 164 204
3 163 204 203
3 164 165 205
3 164 205 204
3 165 166 206
3 165 206 205
3 166 167 207
3 166 207 206
3 167 168 208
3 167 208 207
3 168 169 209
3 168 209 208
3 169 170 210
3 169 210 209
3 170 171 211
3 170 211 210
3 171 172 212
3 171 212 211
3 172 173 213
3 172 213 212
3 173 174 214
3 173 214 213
3 174 175 215
3 174 215 214
3 175 176 216
3 175 216 215
3 176 177 217
3 176 217 216
3 177 178 218
3 177 218 217
3 178 179 219
3 178 219 218
3 179 180 220
3 179 220 219
3 180 181 221
3 180 221 220
3 181 182 222
3 181 222 221
3 182 183 223
3 182 223 222
3 183 184 224
3 183 224 223
3 184 185 225
3 184 225 224
3 185 186 226
3 185 226 225
3 186 187 227
3 186 227 226
3 187 188 228
3 187 228 227
3 188 189 229
3 188 229 228
3 189 190 230
3 189 230 229
3 190 191 231
3 190 231 230
3 191 192 232
3 191 232 231
3 192 193 233
3 192 233 232
3 193 194 234
3 193 234 233
3 194 195 235
3 194 235 234
3 195 196 236
3 195 236 235
3 196 197 237
3 196 237 236
3 197 198 238
3 197 238 237
3 198 199 239
3 198 239 238
3 199 160 200
3 199 200 239
3 200 201 241
3 200 241 240
3 201 202 242
3 201 242 241
3 202 203 243
3 202 243 242
3 203 204 244
3 203 244 243
3 204 205 245
3 204 245 244
3 205 206 246
3 205 246 245
3 206 207 247
3 206 247 246
3 207 208 248
3 207 248 247
3 208 209 249
3 208 249 248
3 209 210 250
3 209 250 249
3 210 211 251
3 210 251 250
3 211 212 252
3 211 252 251
3 212 213 253
3 212 253 252
3 213 214 254
3 213 254 253
3 214 215 255
3 214 255 254
3 215 216 256
3 215 256 255
3 216 217 257
3 216 257 256
3 217 218 258
3 217 258 257
3 218 219 259
3 218 259 258
3 219 220 260
3 219 260 259
3 220 221 261
3 220 261 260
3 221 222 262
3 221 262 261
3 222 223 263
3 222 263 262
3 223 224 264
3 223 264 263
3 224 225 265
3 224 265 264
3 225 226 266
3 225 266 265
3 226 227 267
3 226 267 266
3 227 228 268
3 227 268 267
3 228 229 269
3 228 269 268
3 229 230 270
3 229 270 269
3 230 231 271
3 230 271 270
3 231 232 272
3 231 272 271
3 232 233 273
3 232 273 272
3 233 234 274
3 233 274 273
3 234 235 275
3 234 275 274
3 235 236 276
3 235 276 275
3 236 237 277
3 236 277 276
3 237 238 278
3 237 278 277
3 238 239 279
3 238 279 278
3 239 200 240
3 239 240 279
3 240 241 281
3 240 281 280
3 241 242 282
3 241 282 281
3 242 243 283
3 242 283 282
3 243 244 284
3 243 284 283
3 244 245 285
3 244 285 284
3 245 246 286
3 245 286 285
3 246 247 287
3 246 287 286
3 247 248 288
3 247 288 287
3 248 249 289
3 248 289 288
3 249 250 290
3 249 290 289
3 250 251 291
3 250 291 290
3 251 252 292
3 251 292 291
3 252 253 293
3 252 293 292
3 253 254 294
3 253 294 293
3 254 255 295
3 254 295 294
3 255 256 296
3 255 296 295
3 256 257 297
3 256 297 296
3 257 258 298
3 257 298 297
3 258 259 299
3 258 299 298
3 259 260 300
3 259 300 299
3 260 261 301
3 260 301 300
3 261 262 302
3 261 302 301
3 262 263 303
3 262 303 302
3 263 264 304
3 263 304 303
3 264 265 305
3 264 305 304
3 265 266 306
3 265 306 305
3 266 267 307
3 266 307 306
3 267 268 308
3 267 308 307
3 268 269 309
3 268 309 308
3 269 270 310
3 269 310 309
3 270 271 311
3 270 311 310
3 271 272 312
3 271 312 311
3 272 273 313
3 272 313 312
3 273 274 314
3 273 314 313
3 274 275 315
3 274 315 314
3 275 276 316
3 275 316 315
3 276 277 317
3 276 317 316
3 277 278 318
3 277 318 317
3 278 279 319
3 278 319 318
3 279 240 280
3 279 280 319
3 280 281 321
3 280 321 320
3 281 282 322
3 281 322 321
3 282 283 323
3 282 323 322
3 283 284 324
3 283 324 323
3 284 285 325
3 284 325 324
3 285 286 326
3 285 326 325
3 286 287 327
3 286 327 326
3 287 288 328
3 287 328 327
3 288 289 329
3 288 329 328
3 289 290 330
3 289 330 329
3 290 291 331
3 290 331 330
3 291 292 332
3 291 332 331
3 292 293 333
3 292 333 332
3 293 294 334
3 293 334 333
3 294 295 335
3 294 335 334
3 295 296 336
3 295 336 335
3 296 297 337
3 296 337 336
3 297 298 338
3 297 338 337
3 298 299 339
3 298 339 338
3 299 300 340
3 299 340 339
3 300 301 341
3 300 341 340
3 301 302 342
3 301 342 341
3 302 303 343
3 302 343 342
3 303 304 344
3 303 344 343
3 304 305 345
3 304 345 344
3 305 306 346
3 305 346 345
3 306 307 347
3 306 347 346
3 307 308 348
3 307 348 347
3 308 309 349
3 308 349 348
3 309 310 350
3 309 350 349
3 310 311 351
3 310 351 350
3 311 312 352
3 311 352 351
3 312 313 353
3 312 353 352
3 313 314 354
3 313 354 353
3 314 315 355
3 314 355 354
3 315 316 356
3 315 356 355
3 316 317 357
3 316 357 356
3 317 318 358
3 317 358 357
3 318 319 359
3 318 359 358
3 319 280 320
3 319 320 359
3 320 321 361
3 320 361 360
3 321 322 362
3 321 362 361
3 322 323 363
3 322 363 362
3 323 324 364
3 323 364 363
3 324 325 365
3 324 365 364
3 325 326 366
3 325 366 365
3 326 327 367
3 326 367 366
3 327 328 368
3 327 368 367
3 328 329 369
3 328 369 368
3 329 330 370
3 329 370 369
3 330 331 371
3 330 371 370
3 331 332 372
3 331 372 371
3 332 333 373
3 332 373 372
3 333 334 374
3 333 374 373
3 334 335 375
3 334 375 374
3 335 336 376
3 335 376 375
3 336 337 377
3 336 377 376
3 337 338 378
3 337 378 377
3 338 339 379
3 338 379 378
3 339 340 380
3 339 380 379
3 340 341 381
3 340 381 380
3 341 342 382
3 341 382 381
3 342 343 383
3 342 383 382
3 343 344 384
3 343 384 383
3 344 345 385
3 344 385 384
3 345 346 386
3 345 386 385
3 346 347 387
3 346 387 386
3 347 348 388
3 347 388 387
3 348 349 389
3 348 389 388
3 349 350 390
3 349 390 389
3 350 351 391
3 350 391 390
3 351 352 392
3 351 392 391
3 352 353 393
3 352 393 392
3 353 354 394
3 353 394 393
3 354 355 395
3 354 395 394
3 355 356 396
3 355 396 395
3 356 357 397
3 356 397 396
3 357 358 398
3 357 398 397
3 358 359 399
3 358 399 398
3 359 320 360
3 359 360 399
3 360 361 401
3 360 401 400
3 361 362 402
3 361 402 401
3 362 363 403
3 362 403 402
3 363 364 404
3 363 404 403
3 364 365 405
3 364 405 404
3 365 366 406
3 365 406 405
3 366 367 407
3 366 407 406
3 367 368 408
3 367 408 407
3 368 369 409
3 368 409 408
3 369 370 410
3 369 410 409
3 370 371 411
3 370 411 410
3 371 372 412
3 371 412 411
3 372 373 413
3 372 413 412
3 373 374 414
3 373 414 413
3 374 375 415
3 374 415 414
3 375 376 416
3 375 416 415
3 376 377 417
3 376 417 416
3 377 378 418
3 377 418 417
3 378 379 419
3 378 419 418
3 379 380 420
3 379 420 419
3 380 381 421
3 380 421 420
3 381 382 422
3 381 422 421
3 382 383 423
3 382 423 422
3 383 384 424
3 383 424 423
3 384 385 425
3 384 425 424
3 385 386 426
3 385 426 425
3 386 387 427
3 386 427 426
3 387 388 428
3 387 428 427
3 388 389 429
3 388 429 428
3 389 390 430
3 389 430 429
3 390 391 431
3 390 431 430
3 391 392 432
3 391 432 431
3 392 393 433
3 392 433 432
3 393 394 434
3 393 434 433
3 394 395 435
3 394 435 434
3 395 396 436
3 395 436 435
3 396 397 437
3 396 437 436
3 397 398 438
3 397 438 437
3 398 399 439
3 398 439 438
3 399 360 400
3 399 400 439
3 400 401 441
3 400 441 440
3 401 402 442
3 401 442 441
3 402 403 443
3 402 443 442
3 403 404 444
3 403 444 443
3 404 405 445
3 404 445 444
3 405 406 446
3 405 446 445
3 406 407 447
3 406 447 446
3 407 408 448
3 407 448 447
3 408 409 449
3 408 449 448
3 409 410 450
3 409 450 449
3 410 411 451
3 410 451 450
3 411 412 452
3 411 452 451
3 412 413 453
3 412 453 452
3 413 414 454
3 413 454 453
3 414 415 455
3 414 455 454
3 415 416 456
3 415 456 455
3 416 417 457
3 416 457 456
3 417 418 458
3 417 458 457
3 418 419 459
3 418 459 458
3 419 420 460
3 419 460 459
3 420 421 461
3 420 461 460
3 421 422 462
3 421 462 461
3 422 423 463
3 422 463 462
3 423 424 464
3 423 464 463
3 424 425 465
3 424 465 464
3 425 426 466
3 425 466 465
3 426 427 467
3 426 467 466
3 427 428 468
3 427 468 467
3 428 429 469
3 428 469 468
3 429 430 470
3 429 470 469
3 430 431 471
3 430 471 470
3 431 432 472
3 431 472 471
3 432 433 473
3 432 473 472
3 433 434 474
3 433 474 473
3 434 435 475
3 434 475 474
3 435 436 476
3 435 476 475
3 436 437 477
3 436 477 476
3 437 438 478
3 437 478 477
3 438 439 479
3 438 479 478
3 439 400 440
3 439 440 479
3 440 441 481
3 440 481 480
3 441 442 482
3 441 482 481
3 442 443 483
3 442 483 482
3 443 444 484
3 443 484 483
3 444 445 485
3 444 485 484
3 445 446 486
3 445 486 485
3 446 447 487
3 446 487 486
3 447 448 488
3 447 488 487
3 448 449 489
3 448 489 488
3 449 450 490
3 449 490 489
3 450 451 491
3 450 491 490
3 451 452 492
3 451 492 491
3 452 453 493
3 452 493 492
3 453 454 494
3 453 494 493
3 454 455 495
3 454 495 494
3 455 456 496
3 455 496 495
3 456 457 497
3 456 497 496
3 457 458 498
3 457 498 497
3 458 459 499
3 458 499 498
3 459 460 500
3 459 500 499
3 460 461 501
3 460 501 500
3 461 462 502
3 461 502 501
3 462 463 503
3 462 503 502
3 463 464 504
3 463 504 503
3 464 465 505
3 464 505 504
3 465 466 506
3 465 506 505
3 466 467 507
3 466 507 506
3 467 468 508
3 467 508 507
3 468 469 509
3 468 509 508
3 469 470 510
3 469 510 509
3 470 471 511
3 470 511 510
3 471 472 512
3 471 512 511
3 472 473 513
3 472 513 512
3 473 474 514
3 473 514 513
3 474 475 515
3 474 515 514
3 475 476 516
3 475 516 515
3 476 477 517
3 476 517 516
3 477 478 518
3 477 518 517
3 478 479 519
3 478 519 518
3 479 440 480
3 479 480 519
3 480 481 521
3 480 521 520
3 481 482 522
3 481 522 521
3 482 483 523
3 482 523 522
3 483 484 524
3 483 524 523
3 484 485 525
3 484 525 524
3 485 486 526
3 485 526 525
3 486 487 527
3 486 527 526
3 487 488 528
3 487 528 527
3 488 489 529
3 488 529 528
3 489 490 530
3 489 530 529
3 490 491 531
3 490 531 530
3 491 492 532
3 491 532 531
3 492 493 533
3 492 533 532
3 493 494 534
3 493 534 533
3 494 495 535
3 494 535 534
3 495 496 536
3 495 536 535
3 496 497 537
3 496 537 536
3 497 498 538
3 497 538 537
3 498 499 539
3 498 539 538
3 499 500 540
3 499 540 539
3 500 501 541
3 500 541 540
3 501 502 542
3 501 542 541
3 502 503 543
3 502 543 542
3 503 504 544
3 503 544 543
3 504 505 545
3 504 545 544
3 505 506 546
3 505 546 545
3 506 507 547
3 506 547 546
3 507 508 548
3 507 548 547
3 508 509 549
3 508 549 548
3 509 510 550
3 509 550 549
3 510 511 551
3 510 551 550
3 511 512 552
3 511 552 551
3 512 513 553
3 512 553 552
3 513 514 554
3 513 554 553
3 514 515 555
3 514 555 554
3 515 516 556
3 515 556 555
3 516 517 557
3 516 557 556
3 517 518 558
3 517 558 557
3 518 519 559
3 518 559 558
3 519 480 520
3 519 520 559
3 520 521 561
3 520 561 560
3 521 522 562
3 521 562 561
3 522 523 563
3 522 563 562
3 523 524 564
3 523 564 563
3 524 525 565
3 524 565 564
3 525 526 566
3 525 566 565
3 526 527 567
3 526 567 566
3 527 528 568
3 527 568 567
3 528 529 569
3 528 569 568
3 529 530 570
3 529 570 569
3 530 531 571
3 530 571 570
3 531 532 572
3 531 572 571
3 532 533 573
3 532 573 572
3 533 534 574
3 533 574 573
3 534 535 575
3 534 575 574
3 535 536 576
3 535 576 575
3 536 537 577
3 536 577 576
3 537 538 578
3 537 578 577
3 538 539 579
3 538 579 578
3 539 540 580
3 539 580 579
3 540 541 581
3 540 581 580
3 541 542 582
3 541 582 581
3 542 543 583
3 542 583 582
3 543 544 584
3 543 584 583
3 544 545 585
3 544 585 584
3 545 546 586
3 545 586 585
3 546 547 587
3 546 587 586
3 547 548 588
3 547 588 587
3 548 549 589
3 548 589 588
3 549 550 590
3 549 590 589
3 550 551 591
3 550 591 590
3 551 552 592
3 551 592 591
3 552 553 593
3 552 593 592
3 553 554 594
3 553 594 593
3 554 555 595
3 554 595 594
3 555 556 596
3 555 596 595
3 556 557 597
3 556 597 596
3 557 558 598
3 557 598 597
3 558 559 599
3 558 599 598
3 559 520 560
3 559 560 599
3 560 561 601
3 560 601 600
3 561 562 602
3 561 602 601
3 562 563 603
3 562 603 602
3 563 564 604
3 563 604 603
3 564 565 605
3 564 605 604
3 565 566 606
3 565 606 605
3 566 567 607
3 566 607 606
3 567 568 608
3 567 608 607
3 568 569 609
3 568 609 608
3 569 570 610
3 569 610 609
3 570 571 611
3 570 611 610
3 571 572 612
3 571 612 611
3 572 573 613
3 572 613 612
3 573 574 614
3 573 614 613
3 574 575 615
3 574 615 614
3 575 576 616
3 575 616 615
3 576 577 617
3 576 617 616
3 577 578 618
3 577 618 617
3 578 579 619
3 578 619 618
3 579 580 620
3 579 620 619
3 580 581 621
3 580 621 620
3 581 582 622
3 581 622 621
3 582 583 623
3 582 623 622
3 583 584 624
3 583 624 623
3 584 585 625
3 584 625 624
3 585 586 626
3 585 626 625
3 586 587 627
3 586 627 626
3 587 588 628
3 587 628 627
3 588 589 629
3 588 629 628
3 589 590 630
3 589 630 629
3 590 591 631
3 590 631 630
3 591 592 632
3 591 632 631
3 592 593 633
3 592 633 632
3 593 594 634
3 593 634 633
3 594 595 635
3 594 635 634
3 595 596 636
3 595 636 635
3 596 597 637
3 596 637 636
3 597 598 638
3 597 638 637
3 598 599 639
3 598 639 638
3 599 560 600
3 599 600 639
3 600 601 641
3 600 641 640
3 601 602 642
3 601 642 641
3 602 603 643
3 602 643 642
3 603 604 644
3 603 644 643
3 604 605 645
3 604 645 644
3 605 606 646
3 605 646 645
3 606 607 647
3 606 647 646
3 607 608 648
3 607 648 647
3 608 609 649
3 608 649 648
3 609 610 650
3 609 650 649
3 610 611 651
3 610 651 650
3 611 612 652
3 611 652 651
3 612 613 653
3 612 653 652
3 613 614 654
3 613 654 653
3 614 615 655
3 614 655 654
3 615 616 656
3 615 656 655
3 616 617 657
3 616 657 656
3 617 618 658
3 617 658 657
3 618 619 659
3 618 659 658
3 619 620 660
3 619 660 659
3 620 621 661
3 620 661 660
3 621 622 662
3 621 662 661
3 622 623 663
3 622 663 662
3 623 624 664
3 623 664 663
3 624 625 665
3 624 665 664
3 625 626 666
3 625 666 665
3 626 627 667
3 626 667 666
3 627 628 668
3 627 668 667
3 628 629 669
3 628 669 668
3 629 630 670
3 629 670 669
3 630 631 671
3 630 671 670
3 631 632 672
3 631 672 671
3 632 633 673
3 632 673 672
3 633 634 674
3 633 674 673
3 634 635 675
3 634 675 674
3 635 636 676
3 635 676 675
3 636 637 677
3 636 677 676
3 637 638 678
3 637 678 677
3 638 639 679
3 638 679 678
3 639 600 640
3 639 640 679
3 640 641 681
3 640 681 680
3 641 642 682
3 641 682 681
3 642 643 683
3 642 683 682
3 643 644 684
3 643 684 683
3 644 645 685
3 644 685 684
3 645 646 686
3 645 686 685
3 646 647 687
3 646 687 686
3 647 648 688
3 647 688 687
3 648 649 689
3 648 689 688
3 649 650 690
3 649 690 689
3 650 651 691
3 650 691 690
3 651 652 692
3 651 692 691
3 652 653 693
3 652 693 692
3 653 654 694
3 653 694 693
3 654 655 695
3 654 695 694
3 655 656 696
3 655 696 695
3 656 657 697
3 656 697 696
3 657 658 698
3 657 698 697
3 658 659 699
3 658 699 698
3 659 660 700
3 659 700 699
3 660 661 701
3 660 701 700
3 661 662 702
3 661 702 701
3 662 663 703
3 662 703 702
3 663 664 704
3 663 704 703
3 664 665 705
3 664 705 704
3 665 666 706
3 665 706 705
3 666 667 707
3 666 707 706
3 667 668 708
3 667 708 707
3 668 669 709
3 668 709 708
3 669 670 710
3 669 710 709
3 670 671 711
3 670 711 710
3 671 672 712
3 671 712 711
3 672 673 713
3 672 713 712
3 673 674 714
3 673 714 713
3 674 675 715
3 674 715 714
3 675 676 716
3 675 716 715
3 676 677 717
3 676 717 716
3 677 678 718
3 677 718 717
3 678 679 719
3 678 719 718
3 679 640 680
3 679 680 719
3 680 681 721
3 680 721 720
3 681 682 722
3 681 722 721
3 682 683 723
3 682 723 722
3 683 684 724
3 683 724 723
3 684 685 725
3 684 725 724
3 685 686 726
3 685 726 725
3 686 687 727
3 686 727 726
3 687 688 728
3 687 728 727
3 688 689 729
3 688 729 728
3 689 690 730
3 689 730 729
3 690 691 731
3 690 731 730
3 691 692 732
3 691 732 731
3 692 693 733
3 692 733 732
3 693 694 734
3 693 734 733
3 694 695 735
3 694 735 734
3 695 696 736
3 695 736 735
3 696 697 737
3 696 737 736
3 697 698 738
3 697 738 737
3 698 699 739
3 698 739 738
3 699 700 740
3 699 740 739
3 700 701 741
3 700 741 740
3 701 702 742
3 701 742 741
3 702 703 743
3 702 743 742
3 703 704 744
3 703 744 743
3 704 705 745
3 704 745 744
3 705 706 746
3 705 746 745
3 706 707 747
3 706 747 746
3 707 708 748
3 707 748 747
3 708 709 749
3 708 749 748
3 709 710 750
3 709 750 749
3 710 711 751
3 710 751 750
3 711 712 752
3 711 752 751
3 712 713 753
3 712 753 752
3 713 714 754
3 713 754 753
3 714 715 755
3 714 755 754
3 715 716 756
3 715 756 755
3 716 717 757
3 716 757 756
3 717 718 758
3 717 758 757
3 718 719 759
3 718 759 758
3 719 680 720
3 719 720 759
3 720 721 761
3 720 761 760
3 721 722 762
3 721 762 761
3 722 723 763
3 722 763 762
3 723 724 764
3 723 764 763
3 724 725 765
3 724 765 764
3 725 726 766
3 725 766 765
3 726 727 767
3 726 767 766
3 727 728 768
3 727 768 767
3 728 729 769
3 728 769 768
3 729 730 770
3 729 770 769
3 730 731 771
3 730 771 770
3 731 732 772
3 731 772 771
3 732 733 773
3 732 773 772
3 733 734 774
3 733 774 773
3 734 735 775
3 734 775 774
3 735 736 776
3 735 776 775
3 736 737 777
3 736 777 776
3 737 738 778
3 737 778 777
3 738 739 779
3 738 779 778
3 739 740 780
3 739 780 779
3 740 741 781
3 740 781 780
3 741 742 782
3 741 782 781
3 742 743 783
3 742 783 782
3 743 744 784
3 743 784 783
3 744 745 785
3 744 785 784
3 745 746 786
3 745 786 785
3 746 747 787
3 746 787 786
3 747 748 788
3 747 788 787
3 748 749 789
3 748 789 788
3 749 750 790
3 749 790 789
3 750 751 791
3 750 791 790
3 751 752 792
3 751 792 791
3 752 753 793
3 752 793 792
3 753 754 794
3 753 794 793
3 754 755 795
3 754 795 794
3 755 756 796
3 755 796 795
3 756 757 797
3 756 797 796
3 757 758 798
3 757 798 797
3 758 759 799
3 758 799 798
3 759 720 760
3 759 760 799
3 760 761 801
3 760 801 800
3 761 762 802
3 761 802 801
3 762 763 803
3 762 803 802
3 763 764 804
3 763 804 803
3 764 765 805
3 764 805 804
3 765 766 806
3 765 806 805
3 766 767 807
3 766 807 806
3 767 768 808
3 767 808 807
3 768 769 809
3 768 809 808
3 769 770 810
3 769 810 809
3 770 771 811
3 770 811 810
3 771 772 812
3 771 812 811
3 772 773 813
3 772 813 812
3 773 774 814
3 773 814 813
3 774 775 815
3 774 815 814
3 775 776 816
3 775 816 815
3 776 777 817
3 776 817 816
3 777 778 818
3 777 818 817
3 778 779 819
3 778 819 818
3 779 780 820
3 779 820 819
3 780 781 821
3 780 821 820
3 781 782 822
3 781 822 821
3 782 783 823
3 782 823 822
3 783 784 824
3 783 824 823
3 784 785 825
3 784 825 824
3 785 786 826
3 785 826 825
3 786 787 827
3 786 827 826
3 787 788 828
3 787 828 827
3 788 789 829
3 788 829 828
3 789 790 830
3 789 830 829
3 790 791 831
3 790 831 830
3 791 792 832
3 791 832 831
3 792 793 833
3 792 833 832
3 793 794 834
3 793 834 833
3 794 795 835
3 794 835 834
3 795 796 836
3 795 836 835
3 796 797 837
3 796 837 836
3 797 798 838
3 797 838 837
3 798 799 839
3 798 839 838
3 799 760 800
3 799 800 839
POINT_DATA 840
VECTORS Velocity float
-0.000000 0.000000 0.000000
-0.000000 0.000000 0.000000
-0.000000 0.000000 0.000000
-0.000000 0.000000 0.000000
-0.000000 0.000000 0.000000
-0.000000 0.000000 0.000000
-0.000000 0.000000 0.000000
-0.000000 0.000000 0.000000
-0.000000 0.000000 0.000000
-0.000000 0.000000 0.000000
-0.000000 0.000000 0.000000
-0.000000 -0.000000 0.000000
-0.000000 -0.000000 0.000000
-0.000000 -0.000000 0.000000
-0.000000 -0.000000 0.000000
-0.000000 -0.000000 0.000000
-0.000000 -0.000000 0.000000
-0.000000 -0.000000 0.000000
-0.000000 -0.000000 0.000000
-0.000000 -0.000000 0.000000
-0.000000 -0.000000 0.000000
0.000000 -0.000000 0.000000
0.000000 -0.000000 0.000000
0.000000 -0.000000 0.000000
0.000000 -0.000000 0.000000
0.000000 -0.000000 0.000000
0.000000 -0.000000 0.000000
0.000000 -0.000000 0.000000
0.000000 -0.000000 0.000000
0.000000 -0.000000 0.000000
0.000000 -0.000000 0.000000
0.000000 0.000000 0.000000
0.000000 0.000000 0.000000
0.000000 0.000000 0.000000
0.000000 0.000000 0.000000
0.000000 0.000000 0.000000
0.000000 0.000000 0.000000
0.000000 0.000000 0.000000
0.000000 0.000000 0.000000
0.000000 0.000000 0.000000
-0.000000 1.000000 0.000000
-0.156434 0.987688 0.000000
-0.309017 0.951057 0.000000
-0.453990 0.891007 0.000000
-0.587785 0.809017 0.000000
-0.707107 0.707107 0.000000
-0.809017 0.587785 0.000000
-0.891007 0.453990 0.000000
-0.951057 0.309017 0.000000
-0.987688 0.156434 0.000000
-1.000000 0.000000 0.000000
-0.987688 -0.156434 0.000000
-0.951057 -0.309017 0.000000
-0.891007 -0.453990 0.000000
-0.809017 -0.587785 0.000000
-0.707107 -0.707107 0.000000
-0.587785 -0.809017 0.000000
-0.453990 -0.891007 0.000000
-0.309017 -0.951057 0.000000
-0.156434 -0.987688 0.000000
-0.000000 -1.000000 0.000000
0.156434 -0.987688 0.000000
0.309017 -0.951057 0.000000
0.453990 -0.891007 0.000000
0.587785 -0.809017 0.000000
0.707107 -0.707107 0.000000
0.809017 -0.587785 0.000000
0.891007 -0.453990 0.000000
0.951057 -0.309017 0.000000
0.987688 -0.156434 0.000000
1.000000 -0.000000 0.000000
0.987688 0.156434 0.000000
0.951057 0.309017 0.000000
0.891007 0.453990 0.000000
0.809017 0.587785 0.000000
0.707107 0.707107 0.000000
0.587785 0.809017 0.000000
0.453990 0.891007 0.000000
0.309017 0.951057 0.000000
0.156434 0.987688 0.000000
-0.000000 1.000000 0.000000
-0.156434 0.987688 0.000000
-0.309017 0.951057 0.000000
-0.453990 0.891007 0.000000
-0.587785 0.809017 0.000000
-0.707107 0.707107 0.000000
-0.809017 0.587785 0.000000
-0.891007 0.453990 0.000000
-0.951057 0.309017 0.000000
-0.987688 0.156434 0.000000
-1.000000 0.000000 0.000000
-0.987688 -0.156434 0.000000
-0.951057 -0.309017 0.000000
-0.891007 -0.453990 0.000000
-0.809017 -0.587785 0.000000
-0.707107 -0.707107 0.000000
-0.587785 -0.809017 0.000000
-0.453990 -0.891007 0.000000
-0.309017 -0.951057 0.000000
-0.156434 -0.987688 0.000000
-0.000000 -1.000000 0.000000
0.156434 -0.987688 0.000000
0.309017 -0.951057 0.000000
0.453990 -0.891007 0.000000
0.587785 -0.809017 0.000000
0.707107 -0.707107 0.000000
0.809017 -0.587785 0.000000
0.891007 -0.453990 0.000000
0.951057 -0.309017 0.000000
0.987688 -0.156434 0.000000
1.000000 -0.000000 0.000000
0.987688 0.156434 0.000000
0.951057 0.309017 0.000000
0.891007 0.453990 0.000000
0.809017 0.587785 0.000000
0.707107 0.707107 0.000000
0.587785 0.809017 0.000000
0.453990 0.891007 0.000000
0.309017 0.951057 0.000000
0.156434 0.987688 0.000000
-0.000000 1.000000 0.000000
-0.156434 0.987688 0.000000
-0.309017 0.951057 0.000000
-0.453990 0.891007 0.000000
-0.587785 0.809017 0.000000
-0.707107 0.707107 0.000000
-0.809017 0.587785 0.000000
-0.891007 0.453990 0.000000
-0.951057 0.309017 0.000000
-0.987688 0.156434 0.000000
-1.000000 0.000000 0.000000
-0.987688 -0.156434 0.000000
-0.951057 -0.309017 0.000000
-0.891007 -0.453990 0.000000
-0.809017 -0.587785 0.000000
-0.707107 -0.707107 0.000000
-0.587785 -0.809017 0.000000
-0.453990 -0.891007 0.000000
-0.309017 -0.951057 0.000000
-0.156434 -0.987688 0.000000
-0.000000 -1.000000 0.000000
0.156434 -0.987688 0.000000
0.309017 -0.951057 0.000000
0.453990 -0.891007 0.000000
0.587785 -0.809017 0.000000
0.707107 -0.707107 0.000000
0.809017 -0.587785 0.000000
0.891007 -0.453990 0.000000
0.951057 -0.309017 0.000000
0.987688 -0.156434 0.000000
1.000000 -0.000000 0.000000
0.987688 0.156434 0.000000
0.951057 0.309017 0.000000
0.891007 0.453990 0.000000
0.809017 0.587785 0.000000
0.707107 0.707107 0.000000
0.587785 0.809017 0.000000
0.453990 0.891007 0.000000
0.309017 0.951057 0.000000
0.156434 0.987688 0.000000
-0.000000 1.000000 0.000000
-0.156434 0.987688 0.000000
-0.309017 0.951057 0.000000
-0.453990 0.891007 0.000000
-0.587785 0.809017 0.000000
-0.707107 0.707107 0.000000
-0.809017 0.587785 0.000000
-0.891007 0.453990 0.000000
-0.951057 0.309017 0.000000
-0.987688 0.156434 0.000000
-1.000000 0.000000 0.000000
-0.987688 -0.156434 0.000000
-0.951057 -0.309017 0.000000
-0.891007 -0.453990 0.000000
-0.809017 -0.587785 0.000000
-0.707107 -0.707107 0.000000
-0.587785 -0.809017 0.000000
-0.453990 -0.891007 0.000000
-0.309017 -0.951057 0.000000
-0.156434 -0.987688 0.000000
-0.000000 -1.000000 0.000000
0.156434 -0.987688 0.000000
0.309017 -0.951057 0.000000
0.453990 -0.891007 0.000000
0.587785 -0.809017 0.000000
0.707107 -0.707107 0.000000
0.809017 -0.587785 0.000000
0.891007 -0.453990 0.000000
0.951057 -0.309017 0.000000
0.987688 -0.156434 0.000000
1.000000 -0.000000 0.000000
0.987688 0.156434 0.000000
0.951057 0.309017 0.000000
0.891007 0.453990 0.000000
0.809017 0.587785 0.000000
0.707107 0.707107 0.000000
0.587785 0.809017 0.000000
0.453990 0.891007 0.000000
0.309017 0.951057 0.000000
0.156434 0.987688 0.000000
-0.000000 1.000000 0.000000
-0.156434 0.987688 0.000000
-0.309017 0.951057 0.000000
-0.453990 0.891007 0.000000
-0.587785 0.809017 0.000000
-0.707107 0.707107 0.000000
-0.809017 0.587785 0.000000
-0.891007 0.453990 0.000000
-0.951057 0.309017 0.000000
-0.987688 0.156434 0.000000
-1.000000 0.000000 0.000000
-0.987688 -0.156434 0.000000
-0.951057 -0.309017 0.000000
-0.891007 -0.453990 0.000000
-0.809017 -0.587785 0.000000
-0.707107 -0.707107 0.000000
-0.587785 -0.809017 0.000000
-0.453990 -0.891007 0.000000
-0.309017 -0.951057 0.000000
-0.156434 -0.987688 0.000000
-0.000000 -1.000000 0.000000
0.156434 -0.987688 0.000000
0.309017 -0.951057 0.000000
0.453990 -0.891007 0.000000
0.587785 -0.809017 0.000000
0.707107 -0.707107 0.000000
0.809017 -0.587785 0.000000
0.891007 -0.453990 0.000000
0.951057 -0.309017 0.000000
0.987688 -0.156434 0.000000
1.000000 -0.000000 0.000000
0.987688 0.156434 0.000000
0.951057 0.309017 0.000000
0.891007 0.453990 0.000000
0.809017 0.587785 0.000000
0.707107 0.707107 0.000000
0.587785 0.809017 0.000000
0.453990 0.891007 0.000000
0.309017 0.951057 0.000000
0.156434 0.987688 0.000000
-0.000000 1.000000 0.000000
-0.156434 0.987688 0.000000
-0.309017 0.951057 0.000000
-0.453990 0.891007 0.000000
-0.587785 0.809017 0.000000
-0.707107 0.707107 0.000000
-0.809017 0.587785 0.000000
-0.891007 0.453990 0.000000
-0.951057 0.309017 0.000000
-0.987688 0.156434 0.000000
-1.000000 0.000000 0.000000
-0.987688 -0.156434 0.000000
-0.951057 -0.309017 0.000000
-0.891007 -0.453990 0.000000
-0.809017 -0.587785 0.000000
-0.707107 -0.707107 0.000000
-0.587785 -0.809017 0.000000
-0.453990 -0.891007 0.000000
-0.309017 -0.951057 0.000000
-0.156434 -0.987688 0.000000
-0.000000 -1.000000 0.000000
0.156434 -0.987688 0.000000
0.309017 -0.951057 0.000000
0.453990 -0.891007 0.000000
0.587785 -0.809017 0.000000
0.707107 -0.707107 0.000000
0.809017 -0.587785 0.000000
0.891007 -0.453990 0.000000
0.951057 -0.309017 0.000000
0.987688 -0.156434 0.000000
1.000000 -0.000000 0.000000
0.987688 0.156434 0.000000
0.951057 0.309017 0.000000
0.891007 0.453990 0.000000
0.809017 0.587785 0.000000
0.707107 0.707107 0.000000
0.587785 0.809017 0.000000
0.453990 0.891007 0.000000
0.309017 0.951057 0.000000
0.156434 0.987688 0.000000
-0.000000 1.000000 0.000000
-0.156434 0.987688 0.000000
-0.309017 0.951057 0.000000
-0.453990 0.891007 0.000000
-0.587785 0.809017 0.000000
-0.707107 0.707107 0.000000
-0.809017 0.587785 0.000000
-0.891007 0.453990 0.000000
-0.951057 0.309017 0.000000
-0.987688 0.156434 0.000000
-1.000000 0.000000 0.000000
-0.987688 -0.156434 0.000000
-0.951057 -0.309017 0.000000
-0.891007 -0.453990 0.000000
-0.809017 -0.587785 0.000000
-0.707107 -0.707107 0.000000
-0.587785 -0.809017 0.000000
-0.453990 -0.891007 0.000000
-0.309017 -0.951057 0.000000
-0.156434 -0.987688 0.000000
-0.000000 -1.000000 0.000000
0.156434 -0.987688 0.000000
0.309017 -0.951057 0.000000
0.453990 -0.891007 0.000000
0.587785 -0.809017 0.000000
0.707107 -0.707107 0.000000
0.809017 -0.587785 0.000000
0.891007 -0.453990 0.000000
0.951057 -0.309017 0.000000
0.987688 -0.156434 0.000000
1.000000 -0.000000 0.000000
0.987688 0.156434 0.000000
0.951057 0.309017 0.000000
0.891007 0.453990 0.000000
0.809017 0.587785 0.000000
0.707107 0.707107 0.000000
0.587785 0.809017 0.000000
0.453990 0.891007 0.000000
0.309017 0.951057 0.000000
0.156434 0.987688 0.000000
-0.000000 1.000000 0.000000
-0.156434 0.987688 0.000000
-0.309017 0.951057 0.000000
-0.453990 0.891007 0.000000
-0.587785 0.809017 0.000000
-0.707107 0.707107 0.000000
-0.809017 0.587785 0.000000
-0.891007 0.453990 0.000000
-0.951057 0.309017 0.000000
-0.987688 0.156434 0.000000
-1.000000 0.000000 0.000000
-0.987688 -0.156434 0.000000
-0.951057 -0.309017 0.000000
-0.891007 -0.453990 0.000000
-0.809017 -0.587785 0.000000
-0.707107 -0.707107 0.000000
-0.587785 -0.809017 0.000000
-0.453990 -0.891007 0.000000
-0.309017 -0.951057 0.000000
-0.156434 -0.987688 0.000000
-0.000000 -1.000000 0.000000
0.156434 -0.987688 0.000000
0.309017 -0.951057 0.000000
0.453990 -0.891007 0.000000
0.587785 -0.809017 0.000000
0.707107 -0.707107 0.000000
0.809017 -0.587785 0.000000
0.891007 -0.453990 0.000000
0.951057 -0.309017 0.000000
0.987688 -0.156434 0.000000
1.000000 -0.000000 0.000000
0.987688 0.156434 0.000000
0.951057 0.309017 0.000000
0.891007 0.453990 0.000000
0.809017 0.587785 0.000000
0.707107 0.707107 0.000000
0.587785 0.809017 0.000000
0.453990 0.891007 0.000000
0.309017 0.951057 0.000000
0.156434 0.987688 0.000000
-0.000000 1.000000 0.000000
-0.156434 0.987688 0.000000
-0.309017 0.951057 0.000000
-0.453990 0.891007 0.000000
-0.587785 0.809017 0.000000
-0.707107 0.707107 0.000000
-0.809017 0.587785 0.000000
-0.891007 0.453990 0.000000
-0.951057 0.309017 0.000000
-0.987688 0.156434 0.000000
-1.000000 0.000000 0.000000
-0.987688 -0.156434 0.000000
-0.951057 -0.309017 0.000000
-0.891007 -0.453990 0.000000
-0.809017 -0.587785 0.000000
-0.707107 -0.707107 0.000000
-0.587785 -0.809017 0.000000
-0.453990 -0.891007 0.000000
-0.309017 -0.951057 0.000000
-0.156434 -0.987688 0.000000
-0.000000 -1.000000 0.000000
0.156434 -0.987688 0.000000
0.309017 -0.951057 0.000000
0.453990 -0.891007 0.000000
0.587785 -0.809017 0.000000
0.707107 -0.707107 0.000000
0.809017 -0.587785 0.000000
0.891007 -0.453990 0.000000
0.951057 -0.309017 0.000000
0.987688 -0.156434 0.000000
1.000000 -0.000000 0.000000
0.987688 0.156434 0.000000
0.951057 0.309017 0.000000
0.891007 0.453990 0.000000
0.809017 0.587785 0.000000
0.707107 0.707107 0.000000
0.587785 0.809017 0.000000
0.453990 0.891007 0.000000
0.309017 0.951057 0.000000
0.156434 0.987688 0.000000
-0.000000 1.000000 0.000000
-0.156434 0.987688 0.000000
-0.309017 0.951057 0.000000
-0.453990 0.891007 0.000000
-0.587785 0.809017 0.000000
-0.707107 0.707107 0.000000
-0.809017 0.587785 0.000000
-0.891007 0.453990 0.000000
-0.951057 0.309017 0.000000
-0.987688 0.156434 0.000000
-1.000000 0.000000 0.000000
-0.987688 -0.156434 0.000000
-0.951057 -0.309017 0.000000
-0.891007 -0.453990 0.000000
-0.809017 -0.587785 0.000000
-0.707107 -0.707107 0.000000
-0.587785 -0.809017 0.000000
-0.453990 -0.891007 0.000000
-0.309017 -0.951057 0.000000
-0.156434 -0.987688 0.000000
-0.000000 -1.000000 0.000000
0.156434 -0.987688 0.000000
0.309017 -0.951057 0.000000
0.453990 -0.891007 0.000000
0.587785 -0.809017 0.000000
0.707107 -0.707107 0.000000
0.809017 -0.587785 0.000000
0.891007 -0.453990 0.000000
0.951057 -0.309017 0.000000
0.987688 -0.156434 0.000000
1.000000 -0.000000 0.000000
0.987688 0.156434 0.000000
0.951057 0.309017 0.000000
0.891007 0.453990 0.000000
0.809017 0.587785 0.000000
0.707107 0.707107 0.000000
0.587785 0.809017 0.000000
0.453990 0.891007 0.000000
0.309017 0.951057 0.000000
0.156434 0.987688 0.000000
-0.000000 1.000000 0.000000
-0.156434 0.987688 0.000000
-0.309017 0.951057 0.000000
-0.453990 0.891007 0.000000
-0.587785 0.809017 0.000000
-0.707107 0.707107 0.000000
-0.809017 0.587785 0.000000
-0.891007 0.453990 0.000000
-0.951057 0.309017 0.000000
-0.987688 0.156434 0.000000
-1.000000 0.000000 0.000000
-0.987688 -0.156434 0.000000
-0.951057 -0.309017 0.000000
-0.891007 -0.453990 0.000000
-0.809017 -0.587785 0.000000
-0.707107 -0.707107 0.000000
-0.587785 -0.809017 0.000000
-0.453990 -0.891007 0.000000
-0.309017 -0.951057 0.000000
-0.156434 -0.987688 0.000000
-0.000000 -1.000000 0.000000
0.156434 -0.987688 0.000000
0.309017 -0.951057 0.000000
0.453990 -0.891007 0.000000
0.587785 -0.809017 0.000000
0.707107 -0.707107 0.000000
0.809017 -0.587785 0.000000
0.891007 -0.453990 0.000000
0.951057 -0.309017 0.000000
0.987688 -0.156434 0.000000
1.000000 -0.000000 0.000000
0.987688 0.156434 0.000000
0.951057 0.309017 0.000000
0.891007 0.453990 0.000000
0.809017 0.587785 0.000000
0.707107 0.707107 0.000000
0.587785 0.809017 0.000000
0.453990 0.891007 0.000000
0.309017 0.951057 0.000000
0.156434 0.987688 0.000000
-0.000000 1.000000 0.000000
-0.156434 0.987688 0.000000
-0.309017 0.951057 0.000000
-0.453990 0.891007 0.000000
-0.587785 0.809017 0.000000
-0.707107 0.707107 0.000000
-0.809017 0.587785 0.000000
-0.891007 0.453990 0.000000
-0.951057 0.309017 0.000000
-0.987688 0.156434 0.000000
-1.000000 0.000000 0.000000
-0.987688 -0.156434 0.000000
-0.951057 -0.309017 0.000000
-0.891007 -0.453990 0.000000
-0.809017 -0.587785 0.000000
-0.707107 -0.707107 0.000000
-0.587785 -0.809017 0.000000
-0.453990 -0.891007 0.000000
-0.309017 -0.951057 0.000000
-0.156434 -0.987688 0.000000
-0.000000 -1.000000 0.000000
0.156434 -0.987688 0.000000
0.309017 -0.951057 0.000000
0.453990 -0.891007 0.000000
0.587785 -0.809017 0.000000
0.707107 -0.707107 0.000000
0.809017 -0.587785 0.000000
0.891007 -0.453990 0.000000
0.951057 -0.309017 0.000000
0.987688 -0.156434 0.000000
1.000000 -0.000000 0.000000
0.987688 0.156434 0.000000
0.951057 0.309017 0.000000
0.891007 0.453990 0.000000
0.809017 0.587785 0.000000
0.707107 0.707107 0.000000
0.587785 0.809017 0.000000
0.453990 0.891007 0.000000
0.309017 0.951057 0.000000
0.156434 0.987688 0.000000
-0.000000 1.000000 0.000000
-0.156434 0.987688 0.000000
-0.309017 0.951057 0.000000
-0.453990 0.891007 0.000000
-0.587785 0.809017 0.000000
-0.707107 0.707107 0.000000
-0.809017 0.587785 0.000000
-0.891007 0.453990 0.000000
-0.951057 0.309017 0.000000
-0.987688 0.156434 0.000000
-1.000000 0.000000 0.000000
-0.987688 -0.156434 0.000000
-0.951057 -0.309017 0.000000
-0.891007 -0.453990 0.000000
-0.809017 -0.587785 0.000000
-0.707107 -0.707107 0.000000
-0.587785 -0.809017 0.000000
-0.453990 -0.891007 0.000000
-0.309017 -0.951057 0.000000
-0.156434 -0.987688 0.000000
-0.000000 -1.000000 0.000000
0.156434 -0.987688 0.000000
0.309017 -0.951057 0.000000
0.453990 -0.891007 0.000000
0.587785 -0.809017 0.000000
0.707107 -0.707107 0.000000
0.809017 -0.587785 0.000000
0.891007 -0.453990 0.000000
0.951057 -0.309017 0.000000
0.987688 -0.156434 0.000000
1.000000 -0.000000 0.000000
0.987688 0.156434 0.000000
0.951057 0.309017 0.000000
0.891007 0.453990 0.000000
0.809017 0.587785 0.000000
0.707107 0.707107 0.000000
0.587785 0.809017 0.000000
0.453990 0.891007 0.000000
0.309017 0.951057 0.000000
0.156434 0.987688 0.000000
-0.000000 1.000000 0.000000
-0.156434 0.987688 0.000000
-0.309017 0.951057 0.000000
-0.453990 0.891007 0.000000
-0.587785 0.809017 0.000000
-0.707107 0.707107 0.000000
-0.809017 0.587785 0.000000
-0.891007 0.453990 0.000000
-0.951057 0.309017 0.000000
-0.987688 0.156434 0.000000
-1.000000 0.000000 0.000000
-0.987688 -0.156434 0.000000
-0.951057 -0.309017 0.000000
-0.891007 -0.453990 0.000000
-0.809017 -0.587785 0.000000
-0.707107 -0.707107 0.000000
-0.587785 -0.809017 0.000000
-0.453990 -0.891007 0.000000
-0.309017 -0.951057 0.000000
-0.156434 -0.987688 0.000000
-0.000000 -1.000000 0.000000
0.156434 -0.987688 0.000000
0.309017 -0.951057 0.000000
0.453990 -0.891007 0.000000
0.587785 -0.809017 0.000000
0.707107 -0.707107 0.000000
0.809017 -0.587785 0.000000
0.891007 -0.453990 0.000000
0.951057 -0.309017 0.000000
0.987688 -0.156434 0.000000
1.000000 -0.000000 0.000000
0.987688 0.156434 0.000000
0.951057 0.309017 0.000000
0.891007 0.453990 0.000000
0.809017 0.587785 0.000000
0.707107 0.707107 0.000000
0.587785 0.809017 0.000000
0.453990 0.891007 0.000000
0.309017 0.951057 0.000000
0.156434 0.987688 0.000000
-0.000000 1.000000 0.000000
-0.156434 0.987688 0.000000
-0.309017 0.951057 0.000000
-0.453990 0.891007 0.000000
-0.587785 0.809017 0.000000
-0.707107 0.707107 0.000000
-0.809017 0.587785 0.000000
-0.891007 0.453990 0.000000
-0.951057 0.309017 0.000000
-0.987688 0.156434 0.000000
-1.000000 0.000000 0.000000
-0.987688 -0.156434 0.000000
-0.951057 -0.309017 0.000000
-0.891007 -0.453990 0.000000
-0.809017 -0.587785 0.000000
-0.707107 -0.707107 0.000000
-0.587785 -0.809017 0.000000
-0.453990 -0.891007 0.000000
-0.309017 -0.951057 0.000000
-0.156434 -0.987688 0.000000
-0.000000 -1.000000 0.000000
0.156434 -0.987688 0.000000
0.309017 -0.951057 0.000000
0.453990 -0.891007 0.000000
0.587785 -0.809017 0.000000
0.707107 -0.707107 0.000000
0.809017 -0.587785 0.000000
0.891007 -0.453990 0.000000
0.951057 -0.309017 0.000000
0.987688 -0.156434 0.000000
1.000000 -0.000000 0.000000
0.987688 0.156434 0.000000
0.951057 0.309017 0.000000
0.891007 0.453990 0.000000
0.809017 0.587785 0.000000
0.707107 0.707107 0.000000
0.587785 0.809017 0.000000
0.453990 0.891007 0.000000
0.309017 0.951057 0.000000
0.156434 0.987688 0.000000
-0.000000 1.000000 0.000000
-0.156434 0.987688 0.000000
-0.309017 0.951057 0.000000
-0.453990 0.891007 0.000000
-0.587785 0.809017 0.000000
-0.707107 0.707107 0.000000
-0.809017 0.587785 0.000000
-0.891007 0.453990 0.000000
-0.951057 0.309017 0.000000
-0.987688 0.156434 0.000000
-1.000000 0.000000 0.000000
-0.987688 -0.156434 0.000000
-0.951057 -0.309017 0.000000
-0.891007 -0.453990 0.000000
-0.809017 -0.587785 0.000000
-0.707107 -0.707107 0.000000
-0.587785 -0.809017 0.000000
-0.453990 -0.891007 0.000000
-0.309017 -0.951057 0.000000
-0.156434 -0.987688 0.000000
-0.000000 -1.000000 0.000000
0.156434 -0.987688 0.000000
0.309017 -0.951057 0.000000
0.453990 -0.891007 0.000000
0.587785 -0.809017 0.000000
0.707107 -0.707107 0.000000
0.809017 -0.587785 0.000000
0.891007 -0.453990 0.000000
0.951057 -0.309017 0.000000
0.987688 -0.156434 0.000000
1.000000 -0.000000 0.000000
0.987688 0.156434 0.000000
0.951057 0.309017 0.000000
0.891007 0.453990 0.000000
0.809017 0.587785 0.000000
0.707107 0.707107 0.000000
0.587785 0.809017 0.000000
0.453990 0.891007 0.000000
0.309017 0.951057 0.000000
0.156434 0.987688 0.000000
-0.000000 1.000000 0.000000
-0.156434 0.987688 0.000000
-0.309017 0.951057 0.000000
-0.453990 0.891007 0.000000
-0.587785 0.809017 0.000000
-0.707107 0.707107 0.000000
-0.809017 0.587785 0.000000
-0.891007 0.453990 0.000000
-0.951057 0.309017 0.000000
-0.987688 0.156434 0.000000
-1.000000 0.000000 0.000000
-0.987688 -0.156434 0.000000
-0.951057 -0.309017 0.000000
-0.891007 -0.453990 0.000000
-0.809017 -0.587785 0.000000
-0.707107 -0.707107 0.000000
-0.587785 -0.809017 0.000000
-0.453990 -0.891007 0.000000
-0.309017 -0.951057 0.000000
-0.156434 -0.987688 0.000000
-0.000000 -1.000000 0.000000
0.156434 -0.987688 0.000000
0.309017 -0.951057 0.000000
0.453990 -0.891007 0.000000
0.587785 -0.809017 0.000000
0.707107 -0.707107 0.000000
0.809017 -0.587785 0.000000
0.891007 -0.453990 0.000000
0.951057 -0.309017 0.000000
0.987688 -0.156434 0.000000
1.000000 -0.000000 0.000000
0.987688 0.156434 0.000000
0.951057 0.309017 0.000000
0.891007 0.453990 0.000000
0.809017 0.587785 0.000000
0.707107 0.707107 0.000000
0.587785 0.809017 0.000000
0.453990 0.891007 0.000000
0.309017 0.951057 0.000000
0.156434 0.987688 0.000000
-0.000000 1.000000 0.000000
-0.156434 0.987688 0.000000
-0.309017 0.951057 0.000000
-0.453990 0.891007 0.000000
-0.587785 0.809017 0.000000
-0.707107 0.707107 0.000000
-0.809017 0.587785 0.000000
-0.891007 0.453990 0.000000
-0.951057 0.309017 0.000000
-0.987688 0.156434 0.000000
-1.000000 0.000000 0.000000
-0.987688 -0.156434 0.000000
-0.951057 -0.309017 0.000000
-0.891007 -0.453990 0.000000
-0.809017 -0.587785 0.000000
-0.707107 -0.707107 0.000000
-0.587785 -0.809017 0.000000
-0.453990 -0.891007 0.000000
-0.309017 -0.951057 0.000000
-0.156434 -0.987688 0.000000
-0.000000 -1.000000 0.000000
0.156434 -0.987688 0.000000
0.309017 -0.951057 0.000000
0.453990 -0.891007 0.000000
0.587785 -0.809017 0.000000
0.707107 -0.707107 0.000000
0.809017 -0.587785 0.000000
0.891007 -0.453990 0.000000
0.951057 -0.309017 0.000000
0.987688 -0.156434 0.000000
1.000000 -0.000000 0.000000
0.987688 0.156434 0.000000
0.951057 0.309017 0.000000
0.891007 0.453990 0.000000
0.809017 0.587785 0.000000
0.707107 0.707107 0.000000
0.587785 0.809017 0.000000
0.453990 0.891007 0.000000
0.309017 0.951057 0.000000
0.156434 0.987688 0.000000
-0.000000 1.000000 0.000000
-0.156434 0.987688 0.000000
-0.309017 0.951057 0.000000
-0.453990 0.891007 0.000000
-0.587785 0.809017 0.000000
-0.707107 0.707107 0.000000
-0.809017 0.587785 0.000000
-0.891007 0.453990 0.000000
-0.951057 0.309017 0.000000
-0.987688 0.156434 0.000000
-1.000000 0.000000 0.000000
-0.987688 -0.156434 0.000000
-0.951057 -0.309017 0.000000
-0.891007 -0.453990 0.000000
-0.809017 -0.587785 0.000000
-0.707107 -0.707107 0.000000
-0.587785 -0.809017 0.000000
-0.453990 -0.891007 0.000000
-0.309017 -0.951057 0.000000
-0.156434 -0.987688 0.000000
-0.000000 -1.000000 0.000000
0.156434 -0.987688 0.000000
0.309017 -0.951057 0.000000
0.453990 -0.891007 0.000000
0.587785 -0.809017 0.000000
0.707107 -0.707107 0.000000
0.809017 -0.587785 0.000000
0.891007 -0.453990 0.000000
0.951057 -0.309017 0.000000
0.987688 -0.156434 0.000000
1.000000 -0.000000 0.000000
0.987688 0.156434 0.000000
0.951057 0.309017 0.000000
0.891007 0.453990 0.000000
0.809017 0.587785 0.000000
0.707107 0.707107 0.000000
0.587785 0.809017 0.000000
0.453990 0.891007 0.000000
0.309017 0.951057 0.000000
0.156434 0.987688 0.000000
-0.000000 0.000122 0.000000
-0.000019 0.000121 0.000000
-0.000038 0.000116 0.000000
-0.000056 0.000109 0.000000
-0.000072 0.000099 0.000000
-0.000087 0.000087 0.000000
-0.000099 0.000072 0.000000
-0.000109 0.000056 0.000000
-0.000116 0.000038 0.000000
-0.000121 0.000019 0.000000
-0.000122 0.000000 0.000000
-0.000121 -0.000019 0.000000
-0.000116 -0.000038 0.000000
-0.000109 -0.000056 0.000000
-0.000099 -0.000072 0.000000
-0.000087 -0.000087 0.000000
-0.000072 -0.000099 0.000000
-0.000056 -0.000109 0.000000
-0.000038 -0.000116 0.000000
-0.000019 -0.000121 0.000000
-0.000000 -0.000122 0.000000
0.000019 -0.000121 0.000000
0.000038 -0.000116 0.000000
0.000056 -0.000109 0.000000
0.000072 -0.000099 0.000000
0.000087 -0.000087 0.000000
0.000099 -0.000072 0.000000
0.000109 -0.000056 0.000000
0.000116 -0.000038 0.000000
0.000121 -0.000019 0.000000
0.000122 -0.000000 0.000000
0.000121 0.000019 0.000000
0.000116 0.000038 0.000000
0.000109 0.000056 0.000000
0.000099 0.000072 0.000000
0.000087 0.000087 0.000000
0.000072 0.000099 0.000000
0.000056 0.000109 0.000000
0.000038 0.000116 0.000000
0.000019 0.000121 0.000000
