# vtk DataFile Version 3.0
Wave surface with Position field for DeflectNormalsFilter test
ASCII
DATASET POLYDATA
POINTS 625 float
-2.400000 -2.400000 -0.119050
-2.200000 -2.400000 -0.042438
-2.000000 -2.400000 0.037965
-1.800000 -2.400000 0.114977
-1.600000 -2.400000 0.181718
-1.400000 -2.400000 0.232227
-1.200000 -2.400000 0.261992
-1.000000 -2.400000 0.268354
-0.800000 -2.400000 0.250744
-0.600000 -2.400000 0.210736
-0.400000 -2.400000 0.151904
-0.200000 -2.400000 0.079503
0.000000 -2.400000 -0.000000
0.200000 -2.400000 -0.079503
0.400000 -2.400000 -0.151904
0.600000 -2.400000 -0.210736
0.800000 -2.400000 -0.250744
1.000000 -2.400000 -0.268354
1.200000 -2.400000 -0.261992
1.400000 -2.400000 -0.232227
1.600000 -2.400000 -0.181718
1.800000 -2.400000 -0.114977
2.000000 -2.400000 -0.037965
2.200000 -2.400000 0.042438
2.400000 -2.400000 0.119050
-2.400000 -2.200000 -0.131094
-2.200000 -2.200000 -0.046731
-2.000000 -2.200000 0.041806
-1.800000 -2.200000 0.126609
-1.600000 -2.200000 0.200102
-1.400000 -2.200000 0.255721
-1.200000 -2.200000 0.288496
-1.000000 -2.200000 0.295502
-0.800000 -2.200000 0.276111
-0.600000 -2.200000 0.232056
-0.400000 -2.200000 0.167272
-0.200000 -2.200000 0.087546
0.000000 -2.200000 -0.000000
0.200000 -2.200000 -0.087546
0.400000 -2.200000 -0.167272
0.600000 -2.200000 -0.232056
0.800000 -2.200000 -0.276111
1.000000 -2.200000 -0.295502
1.200000 -2.200000 -0.288496
1.400000 -2.200000 -0.255721
1.600000 -2.200000 -0.200102
1.800000 -2.200000 -0.126609
2.000000 -2.200000 -0.041806
2.200000 -2.200000 0.046731
2.400000 -2.200000 0.131094
-2.400000 -2.000000 -0.131428
-2.200000 -2.000000 -0.046850
-2.000000 -2.000000 0.041912
-1.800000 -2.000000 0.126931
-1.600000 -2.000000 0.200611
-1.400000 -2.000000 0.256371
-1.200000 -2.000000 0.289231
-1.000000 -2.000000 0.296254
-0.800000 -2.000000 0.276814
-0.600000 -2.000000 0.232646
-0.400000 -2.000000 0.167698
-0.200000 -2.000000 0.087769
0.000000 -2.000000 -0.000000
0.200000 -2.000000 -0.087769
0.400000 -2.000000 -0.167698
0.600000 -2.000000 -0.232646
0.800000 -2.000000 -0.276814
1.000000 -2.000000 -0.296254
1.200000 -2.000000 -0.289231
1.400000 -2.000000 -0.256371
1.600000 -2.000000 -0.200611
1.800000 -2.000000 -0.126931
2.000000 -2.000000 -0.041912
2.200000 -2.000000 0.046850
2.400000 -2.000000 0.131428
-2.400000 -1.800000 -0.120021
-2.200000 -1.800000 -0.042784
-2.000000 -1.800000 0.038275
-1.800000 -1.800000 0.115915
-1.600000 -1.800000 0.183200
-1.400000 -1.800000 0.234121
-1.200000 -1.800000 0.264129
-1.000000 -1.800000 0.270542
-0.800000 -1.800000 0.252789
-0.600000 -1.800000 0.212455
-0.400000 -1.800000 0.153143
-0.200000 -1.800000 0.080151
0.000000 -1.800000 -0.000000
0.200000 -1.800000 -0.080151
0.400000 -1.800000 -0.153143
0.600000 -1.800000 -0.212455
0.800000 -1.800000 -0.252789
1.000000 -1.800000 -0.270542
1.200000 -1.800000 -0.264129
1.400000 -1.800000 -0.234121
1.600000 -1.800000 -0.183200
1.800000 -1.800000 -0.115915
2.000000 -1.800000 -0.038275
2.200000 -1.800000 0.042784
2.400000 -1.800000 0.120021
-2.400000 -1.600000 -0.097894
-2.200000 -1.600000 -0.034896
-2.000000 -1.600000 0.031218
-1.800000 -1.600000 0.094544
-1.600000 -1.600000 0.149425
-1.400000 -1.600000 0.190958
-1.200000 -1.600000 0.215433
-1.000000 -1.600000 0.220664
-0.800000 -1.600000 0.206184
-0.600000 -1.600000 0.173286
-0.400000 -1.600000 0.124909
-0.200000 -1.600000 0.065374
0.000000 -1.600000 -0.000000
0.200000 -1.600000 -0.065374
0.400000 -1.600000 -0.124909
0.600000 -1.600000 -0.173286
0.800000 -1.600000 -0.206184
1.000000 -1.600000 -0.220664
1.200000 -1.600000 -0.215433
1.400000 -1.600000 -0.190958
1.600000 -1.600000 -0.149425
1.800000 -1.600000 -0.094544
2.000000 -1.600000 -0.031218
2.200000 -1.600000 0.034896
2.400000 -1.600000 0.097894
-2.400000 -1.400000 -0.067021
-2.200000 -1.400000 -0.023891
-2.000000 -1.400000 0.021373
-1.800000 -1.400000 0.064728
-1.600000 -1.400000 0.102301
-1.400000 -1.400000 0.130736
-1.200000 -1.400000 0.147493
-1.000000 -1.400000 0.151074
-0.800000 -1.400000 0.141161
-0.600000 -1.400000 0.118638
-0.400000 -1.400000 0.085517
-0.200000 -1.400000 0.044758
0.000000 -1.400000 -0.000000
0.200000 -1.400000 -0.044758
0.400000 -1.400000 -0.085517
0.600000 -1.400000 -0.118638
0.800000 -1.400000 -0.141161
1.000000 -1.400000 -0.151074
1.200000 -1.400000 -0.147493
1.400000 -1.400000 -0.130736
1.600000 -1.400000 -0.102301
1.800000 -1.400000 -0.064728
2.000000 -1.400000 -0.021373
2.200000 -1.400000 0.023891
2.400000 -1.400000 0.067021
-2.400000 -1.200000 -0.030162
-2.200000 -1.200000 -0.010752
-2.000000 -1.200000 0.009619
-1.800000 -1.200000 0.029130
-1.600000 -1.200000 0.046040
-1.400000 -1.200000 0.058837
-1.200000 -1.200000 0.066378
-1.000000 -1.200000 0.067990
-0.800000 -1.200000 0.063528
-0.600000 -1.200000 0.053392
-0.400000 -1.200000 0.038486
-0.200000 -1.200000 0.020143
0.000000 -1.200000 -0.000000
0.200000 -1.200000 -0.020143
0.400000 -1.200000 -0.038486
0.600000 -1.200000 -0.053392
0.800000 -1.200000 -0.063528
1.000000 -1.200000 -0.067990
1.200000 -1.200000 -0.066378
1.400000 -1.200000 -0.058837
1.600000 -1.200000 -0.046040
1.800000 -1.200000 -0.029130
2.000000 -1.200000 -0.009619
2.200000 -1.200000 0.010752
2.400000 -1.200000 0.030162
-2.400000 -1.000000 0.009391
-2.200000 -1.000000 0.003348
-2.000000 -1.000000 -0.002995
-1.800000 -1.000000 -0.009069
-1.600000 -1.000000 -0.014334
-1.400000 -1.000000 -0.018318
-1.200000 -1.000000 -0.020666
-1.000000 -1.000000 -0.021168
-0.800000 -1.000000 -0.019779
-0.600000 -1.000000 -0.016623
-0.400000 -1.000000 -0.011982
-0.200000 -1.000000 -0.006271
0.000000 -1.000000 0.000000
0.200000 -1.000000 0.006271
0.400000 -1.000000 0.011982
0.600000 -1.000000 0.016623
0.800000 -1.000000 0.019779
1.000000 -1.000000 0.021168
1.200000 -1.000000 0.020666
1.400000 -1.000000 0.018318
1.600000 -1.000000 0.014334
1.800000 -1.000000 0.009069
2.000000 -1.000000 0.002995
2.200000 -1.000000 -0.003348
2.400000 -1.000000 -0.009391
-2.400000 -0.800000 0.048105
-2.200000 -0.800000 0.017148
-2.000000 -0.800000 -0.015341
-1.800000 -0.800000 -0.046459
-1.600000 -0.800000 -0.073428
-1.400000 -0.800000 -0.093837
-1.200000 -0.800000 -0.105864
-1.000000 -0.800000 -0.108435
-0.800000 -0.800000 -0.101319
-0.600000 -0.800000 -0.085153
-0.400000 -0.800000 -0.061381
-0.200000 -0.800000 -0.032125
0.000000 -0.800000 0.000000
0.200000 -0.800000 0.032125
0.400000 -0.800000 0.061381
0.600000 -0.800000 0.085153
0.800000 -0.800000 0.101319
1.000000 -0.800000 0.108435
1.200000 -0.800000 0.105864
1.400000 -0.800000 0.093837
1.600000 -0.800000 0.073428
1.800000 -0.800000 0.046459
2.000000 -0.800000 0.015341
2.200000 -0.800000 -0.017148
2.400000 -0.800000 -0.048105
-2.400000 -0.600000 0.082523
-2.200000 -0.600000 0.029417
-2.000000 -0.600000 -0.026316
-1.800000 -0.600000 -0.079699
-1.600000 -0.600000 -0.125962
-1.400000 -0.600000 -0.160974
-1.200000 -0.600000 -0.181606
-1.000000 -0.600000 -0.186016
-0.800000 -0.600000 -0.173809
-0.600000 -0.600000 -0.146077
-0.400000 -0.600000 -0.105296
-0.200000 -0.600000 -0.055109
0.000000 -0.600000 0.000000
0.200000 -0.600000 0.055109
0.400000 -0.600000 0.105296
0.600000 -0.600000 0.146077
0.800000 -0.600000 0.173809
1.000000 -0.600000 0.186016
1.200000 -0.600000 0.181606
1.400000 -0.600000 0.160974
1.600000 -0.600000 0.125962
1.800000 -0.600000 0.079699
2.000000 -0.600000 0.026316
2.200000 -0.600000 -0.029417
2.400000 -0.600000 -0.082523
-2.400000 -0.400000 0.109568
-2.200000 -0.400000 0.039058
-2.000000 -0.400000 -0.034941
-1.800000 -0.400000 -0.105820
-1.600000 -0.400000 -0.167245
-1.400000 -0.400000 -0.213731
-1.200000 -0.400000 -0.241125
-1.000000 -0.400000 -0.246980
-0.800000 -0.400000 -0.230774
-0.600000 -0.400000 -0.193952
-0.400000 -0.400000 -0.139806
-0.200000 -0.400000 -0.073171
0.000000 -0.400000 0.000000
0.200000 -0.400000 0.073171
0.400000 -0.400000 0.139806
0.600000 -0.400000 0.193952
0.800000 -0.400000 0.230774
1.000000 -0.400000 0.246980
1.200000 -0.400000 0.241125
1.400000 -0.400000 0.213731
1.600000 -0.400000 0.167245
1.800000 -0.400000 0.105820
2.000000 -0.400000 0.034941
2.200000 -0.400000 -0.039058
2.400000 -0.400000 -0.109568
-2.400000 -0.200000 0.126827
-2.200000 -0.200000 0.045210
-2.000000 -0.200000 -0.040445
-1.800000 -0.200000 -0.122487
-1.600000 -0.200000 -0.193588
-1.400000 -0.200000 -0.247397
-1.200000 -0.200000 -0.279106
-1.000000 -0.200000 -0.285883
-0.800000 -0.200000 -0.267123
-0.600000 -0.200000 -0.224502
-0.400000 -0.200000 -0.161827
-0.200000 -0.200000 -0.084696
0.000000 -0.200000 0.000000
0.200000 -0.200000 0.084696
0.400000 -0.200000 0.161827
0.600000 -0.200000 0.224502
0.800000 -0.200000 0.267123
1.000000 -0.200000 0.285883
1.200000 -0.200000 0.279106
1.400000 -0.200000 0.247397
1.600000 -0.200000 0.193588
1.800000 -0.200000 0.122487
2.000000 -0.200000 0.040445
2.200000 -0.200000 -0.045210
2.400000 -0.200000 -0.126827
-2.400000 0.000000 0.132756
-2.200000 0.000000 0.047324
-2.000000 0.000000 -0.042336
-1.800000 0.000000 -0.128214
-1.600000 0.000000 -0.202639
-1.400000 0.000000 -0.258963
-1.200000 0.000000 -0.292154
-1.000000 0.000000 -0.299248
-0.800000 0.000000 -0.279612
-0.600000 0.000000 -0.234998
-0.400000 0.000000 -0.169393
-0.200000 0.000000 -0.088656
0.000000 0.000000 0.000000
0.200000 0.000000 0.088656
0.400000 0.000000 0.169393
0.600000 0.000000 0.234998
0.800000 0.000000 0.279612
1.000000 0.000000 0.299248
1.200000 0.000000 0.292154
1.400000 0.000000 0.258963
1.600000 0.000000 0.202639
1.800000 0.000000 0.128214
2.000000 0.000000 0.042336
2.200000 0.000000 -0.047324
2.400000 0.000000 -0.132756
-2.400000 0.200000 0.126827
-2.200000 0.200000 0.045210
-2.000000 0.200000 -0.040445
-1.800000 0.200000 -0.122487
-1.600000 0.200000 -0.193588
-1.400000 0.200000 -0.247397
-1.200000 0.200000 -0.279106
-1.000000 0.200000 -0.285883
-0.800000 0.200000 -0.267123
-0.600000 0.200000 -0.224502
-0.400000 0.200000 -0.161827
-0.200000 0.200000 -0.084696
0.000000 0.200000 0.000000
0.200000 0.200000 0.084696
0.400000 0.200000 0.161827
0.600000 0.200000 0.224502
0.800000 0.200000 0.267123
1.000000 0.200000 0.285883
1.200000 0.200000 0.279106
1.400000 0.200000 0.247397
1.600000 0.200000 0.193588
1.800000 0.200000 0.122487
2.000000 0.200000 0.040445
2.200000 0.200000 -0.045210
2.400000 0.200000 -0.126827
-2.400000 0.400000 0.109568
-2.200000 0.400000 0.039058
-2.000000 0.400000 -0.034941
-1.800000 0.400000 -0.105820
-1.600000 0.400000 -0.167245
-1.400000 0.400000 -0.213731
-1.200000 0.400000 -0.241125
-1.000000 0.400000 -0.246980
-0.800000 0.400000 -0.230774
-0.600000 0.400000 -0.193952
-0.400000 0.400000 -0.139806
-0.200000 0.400000 -0.073171
0.000000 0.400000 0.000000
0.200000 0.400000 0.073171
0.400000 0.400000 0.139806
0.600000 0.400000 0.193952
0.800000 0.400000 0.230774
1.000000 0.400000 0.246980
1.200000 0.400000 0.241125
1.400000 0.400000 0.213731
1.600000 0.400000 0.167245
1.800000 0.400000 0.105820
2.000000 0.400000 0.034941
2.200000 0.400000 -0.039058
2.400000 0.400000 -0.109568
-2.400000 0.600000 0.082523
-2.200000 0.600000 0.029417
-2.000000 0.600000 -0.026316
-1.800000 0.600000 -0.079699
-1.600000 0.600000 -0.125962
-1.400000 0.600000 -0.160974
-1.200000 0.600000 -0.181606
-1.000000 0.600000 -0.186016
-0.800000 0.600000 -0.173809
-0.600000 0.600000 -0.146077
-0.400000 0.600000 -0.105296
-0.200000 0.600000 -0.055109
0.000000 0.600000 0.000000
0.200000 0.600000 0.055109
0.400000 0.600000 0.105296
0.600000 0.600000 0.146077
0.800000 0.600000 0.173809
1.000000 0.600000 0.186016
1.200000 0.600000 0.181606
1.400000 0.600000 0.160974
1.600000 0.600000 0.125962
1.800000 0.600000 0.079699
2.000000 0.600000 0.026316
2.200000 0.600000 -0.029417
2.400000 0.600000 -0.082523
-2.400000 0.800000 0.048105
-2.200000 0.800000 0.017148
-2.000000 0.800000 -0.015341
-1.800000 0.800000 -0.046459
-1.600000 0.800000 -0.073428
-1.400000 0.800000 -0.093837
-1.200000 0.800000 -0.105864
-1.000000 0.800000 -0.108435
-0.800000 0.800000 -0.101319
-0.600000 0.800000 -0.085153
-0.400000 0.800000 -0.061381
-0.200000 0.800000 -0.032125
0.000000 0.800000 0.000000
0.200000 0.800000 0.032125
0.400000 0.800000 0.061381
0.600000 0.800000 0.085153
0.800000 0.800000 0.101319
1.000000 0.800000 0.108435
1.200000 0.800000 0.105864
1.400000 0.800000 0.093837
1.600000 0.800000 0.073428
1.800000 0.800000 0.046459
2.000000 0.800000 0.015341
2.200000 0.800000 -0.017148
2.400000 0.800000 -0.048105
-2.400000 1.000000 0.009391
-2.200000 1.000000 0.003348
-2.000000 1.000000 -0.002995
-1.800000 1.000000 -0.009069
-1.600000 1.000000 -0.014334
-1.400000 1.000000 -0.018318
-1.200000 1.000000 -0.020666
-1.000000 1.000000 -0.021168
-0.800000 1.000000 -0.019779
-0.600000 1.000000 -0.016623
-0.400000 1.000000 -0.011982
-0.200000 1.000000 -0.006271
0.000000 1.000000 0.000000
0.200000 1.000000 0.006271
0.400000 1.000000 0.011982
0.600000 1.000000 0.016623
0.800000 1.000000 0.019779
1.000000 1.000000 0.021168
1.200000 1.000000 0.020666
1.400000 1.000000 0.018318
1.600000 1.000000 0.014334
1.800000 1.000000 0.009069
2.000000 1.000000 0.002995
2.200000 1.000000 -0.003348
2.400000 1.000000 -0.009391
-2.400000 1.200000 -0.030162
-2.200000 1.200000 -0.010752
-2.000000 1.200000 0.009619
-1.800000 1.200000 0.029130
-1.600000 1.200000 0.046040
-1.400000 1.200000 0.058837
-1.200000 1.200000 0.066378
-1.000000 1.200000 0.067990
-0.800000 1.200000 0.063528
-0.600000 1.200000 0.053392
-0.400000 1.200000 0.038486
-0.200000 1.200000 0.020143
0.000000 1.200000 -0.000000
0.200000 1.200000 -0.020143
0.400000 1.200000 -0.038486
0.600000 1.200000 -0.053392
0.800000 1.200000 -0.063528
1.000000 1.200000 -0.067990
1.200000 1.200000 -0.066378
1.400000 1.200000 -0.058837
1.600000 1.200000 -0.046040
1.800000 1.200000 -0.029130
2.000000 1.200000 -0.009619
2.200000 1.200000 0.010752
2.400000 1.200000 0.030162
-2.400000 1.400000 -0.067021
-2.200000 1.400000 -0.023891
-2.000000 1.400000 0.021373
-1.800000 1.400000 0.064728
-1.600000 1.400000 0.102301
-1.400000 1.400000 0.130736
-1.200000 1.400000 0.147493
-1.000000 1.400000 0.151074
-0.800000 1.400000 0.141161
-0.600000 1.400000 0.118638
-0.400000 1.400000 0.085517
-0.200000 1.400000 0.044758
0.000000 1.400000 -0.000000
0.200000 1.400000 -0.044758
0.400000 1.400000 -0.085517
0.600000 1.400000 -0.118638
0.800000 1.400000 -0.141161
1.000000 1.400000 -0.151074
1.200000 1.400000 -0.147493
1.400000 1.400000 -0.130736
1.600000 1.400000 -0.102301
1.800000 1.400000 -0.064728
2.000000 1.400000 -0.021373
2.200000 1.400000 0.023891
2.400000 1.400000 0.067021
-2.400000 1.600000 -0.097894
-2.200000 1.600000 -0.034896
-2.000000 1.600000 0.031218
-1.800000 1.600000 0.094544
-1.600000 1.600000 0.149425
-1.400000 1.600000 0.190958
-1.200000 1.600000 0.215433
-1.000000 1.600000 0.220664
-0.800000 1.600000 0.206184
-0.600000 1.600000 0.173286
-0.400000 1.600000 0.124909
-0.200000 1.600000 0.065374
0.000000 1.600000 -0.000000
0.200000 1.600000 -0.065374
0.400000 1.600000 -0.124909
0.600000 1.600000 -0.173286
0.800000 1.600000 -0.206184
1.000000 1.600000 -0.220664
1.200000 1.600000 -0.215433
1.400000 1.600000 -0.190958
1.600000 1.600000 -0.149425
1.800000 1.600000 -0.094544
2.000000 1.600000 -0.031218
2.200000 1.600000 0.034896
2.400000 1.600000 0.097894
-2.400000 1.800000 -0.120021
-2.200000 1.800000 -0.042784
-2.000000 1.800000 0.038275
-1.800000 1.800000 0.115915
-1.600000 1.800000 0.183200
-1.400000 1.800000 0.234121
-1.200000 1.800000 0.264129
-1.000000 1.800000 0.270542
-0.800000 1.800000 0.252789
-0.600000 1.800000 0.212455
-0.400000 1.800000 0.153143
-0.200000 1.800000 0.080151
0.000000 1.800000 -0.000000
0.200000 1.800000 -0.080151
0.400000 1.800000 -0.153143
0.600000 1.800000 -0.212455
0.800000 1.800000 -0.252789
1.000000 1.800000 -0.270542
1.200000 1.800000 -0.264129
1.400000 1.800000 -0.234121
1.600000 1.800000 -0.183200
1.800000 1.800000 -0.115915
2.000000 1.800000 -0.038275
2.200000 1.800000 0.042784
2.400000 1.800000 0.120021
-2.400000 2.000000 -0.131428
-2.200000 2.000000 -0.046850
-2.000000 2.000000 0.041912
-1.800000 2.000000 0.126931
-1.600000 2.000000 0.200611
-1.400000 2.000000 0.256371
-1.200000 2.000000 0.289231
-1.000000 2.000000 0.296254
-0.800000 2.000000 0.276814
-0.600000 2.000000 0.232646
-0.400000 2.000000 0.167698
-0.200000 2.000000 0.087769
0.000000 2.000000 -0.000000
0.200000 2.000000 -0.087769
0.400000 2.000000 -0.167698
0.600000 2.000000 -0.232646
0.800000 2.000000 -0.276814
1.000000 2.000000 -0.296254
1.200000 2.000000 -0.289231
1.400000 2.000000 -0.256371
1.600000 2.000000 -0.200611
1.800000 2.000000 -0.126931
2.000000 2.000000 -0.041912
2.200000 2.000000 0.046850
2.400000 2.000000 0.131428
-2.400000 2.200000 -0.131094
-2.200000 2.200000 -0.046731
-2.000000 2.200000 0.041806
-1.800000 2.200000 0.126609
-1.600000 2.200000 0.200102
-1.400000 2.200000 0.255721
-1.200000 2.200000 0.288496
-1.000000 2.200000 0.295502
-0.800000 2.200000 0.276111
-0.600000 2.200000 0.232056
-0.400000 2.200000 0.167272
-0.200000 2.200000 0.087546
0.000000 2.200000 -0.000000
0.200000 2.200000 -0.087546
0.400000 2.200000 -0.167272
0.600000 2.200000 -0.232056
0.800000 2.200000 -0.276111
1.000000 2.200000 -0.295502
1.200000 2.200000 -0.288496
1.400000 2.200000 -0.255721
1.600000 2.200000 -0.200102
1.800000 2.200000 -0.126609
2.000000 2.200000 -0.041806
2.200000 2.200000 0.046731
2.400000 2.200000 0.131094
-2.400000 2.400000 -0.119050
-2.200000 2.400000 -0.042438
-2.000000 2.400000 0.037965
-1.800000 2.400000 0.114977
-1.600000 2.400000 0.181718
-1.400000 2.400000 0.232227
-1.200000 2.400000 0.261992
-1.000000 2.400000 0.268354
-0.800000 2.400000 0.250744
-0.600000 2.400000 0.210736
-0.400000 2.400000 0.151904
-0.200000 2.400000 0.079503
0.000000 2.400000 -0.000000
0.200000 2.400000 -0.079503
0.400000 2.400000 -0.151904
0.600000 2.400000 -0.210736
0.800000 2.400000 -0.250744
1.000000 2.400000 -0.268354
1.200000 2.400000 -0.261992
1.400000 2.400000 -0.232227
1.600000 2.400000 -0.181718
1.800000 2.400000 -0.114977
2.000000 2.400000 -0.037965
2.200000 2.400000 0.042438
2.400000 2.400000 0.119050
POLYGONS 1152 4608
3 0 1 26
3 0 26 25
3 1 2 27
3 1 27 26
3 2 3 28
3 2 28 27
3 3 4 29
3 3 29 28
3 4 5 30
3 4 30 29
3 5 6 31
3 5 31 30
3 6 7 32
3 6 32 31
3 7 8 33
3 7 33 32
3 8 9 34
3 8 34 33
3 9 10 35
3 9 35 34
3 10 11 36
3 10 36 35
3 11 12 37
3 11 37 36
3 12 13 38
3 12 38 37
3 13 14 39
3 13 39 38
3 14 15 40
3 14 40 39
3 15 16 41
3 15 41 40
3 16 17 42
3 16 42 41
3 17 18 43
3 17 43 42
3 18 19 44
3 18 44 43
3 19 20 45
3 19 45 44
3 20 21 46
3 20 46 45
3 21 22 47
3 21 47 46
3 22 23 48
3 22 48 47
3 23 24 49
3 23 49 48
3 25 26 51
3 25 51 50
3 26 27 52
3 26 52 51
3 27 28 53
3 27 53 52
3 28 29 54
3 28 54 53
3 29 30 55
3 29 55 54
3 30 31 56
3 30 56 55
3 31 32 57
3 31 57 56
3 32 33 58
3 32 58 57
3 33 34 59
3 33 59 58
3 34 35 60
3 34 60 59
3 35 36 61
3 35 61 60
3 36 37 62
3 36 62 61
3 37 38 63
3 37 63 62
3 38 39 64
3 38 64 63
3 39 40 65
3 39 65 64
3 40 41 66
3 40 66 65
3 41 42 67
3 41 67 66
3 42 43 68
3 42 68 67
3 43 44 69
3 43 69 68
3 44 45 70
3 44 70 69
3 45 46 71
3 45 71 70
3 46 47 72
3 46 72 71
3 47 48 73
3 47 73 72
3 48 49 74
3 48 74 73
3 50 51 76
3 50 76 75
3 51 52 77
3 51 77 76
3 52 53 78
3 52 78 77
3 53 54 79
3 53 79 78
3 54 55 80
3 54 80 79
3 55 56 81
3 55 81 80
3 56 57 82
3 56 82 81
3 57 58 83
3 57 83 82
3 58 59 84
3 58 84 83
3 59 60 85
3 59 85 84
3 60 61 86
3 60 86 85
3 61 62 87
3 61 87 86
3 62 63 88
3 62 88 87
3 63 64 89
3 63 89 88
3 64 65 90
3 64 90 89
3 65 66 91
3 65 91 90
3 66 67 92
3 66 92 91
3 67 68 93
3 67 93 92
3 68 69 94
3 68 94 93
3 69 70 95
3 69 95 94
3 70 71 96
3 70 96 95
3 71 72 97
3 71 97 96
3 72 73 98
3 72 98 97
3 73 74 99
3 73 99 98
3 75 76 101
3 75 101 100
3 76 77 102
3 76 102 101
3 77 78 103
3 77 103 102
3 78 79 104
3 78 104 103
3 79 80 105
3 79 105 104
3 80 81 106
3 80 106 105
3 81 82 107
3 81 107 106
3 82 83 108
3 82 108 107
3 83 84 109
3 83 109 108
3 84 85 110
3 84 110 109
3 85 86 111
3 85 111 110
3 86 87 112
3 86 112 111
3 87 88 113
3 87 113 112
3 88 89 114
3 88 114 113
3 89 90 115
3 89 115 114
3 90 91 116
3 90 116 115
3 91 92 117
3 91 117 116
3 92 93 118
3 92 118 117
3 93 94 119
3 93 119 118
3 94 95 120
3 94 120 119
3 95 96 121
3 95 121 120
3 96 97 122
3 96 122 121
3 97 98 123
3 97 123 122
3 98 99 124
3 98 124 123
3 100 101 126
3 100 126 125
3 101 102 127
3 101 127 126
3 102 103 128
3 102 128 127
3 103 104 129
3 103 129 128
3 104 105 130
3 104 130 129
3 105 106 131
3 105 131 130
3 106 107 132
3 106 132 131
3 107 108 133
3 107 133 132
3 108 109 134
3 108 134 133
3 109 110 135
3 109 135 134
3 110 111 136
3 110 136 135
3 111 112 137
3 111 137 136
3 112 113 138
3 112 138 137
3 113 114 139
3 113 139 138
3 114 115 140
3 114 140 139
3 115 116 141
3 115 141 140
3 116 117 142
3 116 142 141
3 117 118 143
3 117 143 142
3 118 119 144
3 118 144 143
3 119 120 145
3 119 145 144
3 120 121 146
3 120 146 145
3 121 122 147
3 121 147 146
3 122 123 148
3 122 148 147
3 123 124 149
3 123 149 148
3 125 126 151
3 125 151 150
3 126 127 152
3 126 152 151
3 127 128 153
3 127 153 152
3 128 129 154
3 128 154 153
3 129 130 155
3 129 155 154
3 130 131 156
3 130 156 155
3 131 132 157
3 131 157 156
3 132 133 158
3 132 158 157
3 133 134 159
3 133 159 158
3 134 135 160
3 134 160 159
3 135 136 161
3 135 161 160
3 136 137 162
3 136 162 161
3 137 138 163
3 137 163 162
3 138 139 164
3 138 164 163
3 139 140 165
3 139 165 164
3 140 141 166
3 140 166 165
3 141 142 167
3 141 167 166
3 142 143 168
3 142 168 167
3 143 144 169
3 143 169 168
3 144 145 170
3 144 170 169
3 145 146 171
3 145 171 170
3 146 147 172
3 146 172 171
3 147 148 173
3 147 173 172
3 148 149 174
3 148 174 173
3 150 151 176
3 150 176 175
3 151 152 177
3 151 177 176
3 152 153 178
3 152 178 177
3 153 154 179
3 153 179 178
3 154 155 180
3 154 180 179
3 155 156 181
3 155 181 180
3 156 157 182
3 156 182 181
3 157 158 183
3 157 183 182
3 158 159 184
3 158 184 183
3 159 160 185
3 159 185 184
3 160 161 186
3 160 186 185
3 161 162 187
3 161 187 186
3 162 163 188
3 162 188 187
3 163 164 189
3 163 189 188
3 164 165 190
3 164 190 189
3 165 166 191
3 165 191 190
3 166 167 192
3 166 192 191
3 167 168 193
3 167 193 192
3 168 169 194
3 168 194 193
3 169 170 195
3 169 195 194
3 170 171 196
3 170 196 195
3 171 172 197
3 171 197 196
3 172 173 198
3 172 198 197
3 173 174 199
3 173 199 198
3 175 176 201
3 175 201 200
3 176 177 202
3 176 202 201
3 177 178 203
3 177 203 202
3 178 179 204
3 178 204 203
3 179 180 205
3 179 205 204
3 180 181 206
3 180 206 205
3 181 182 207
3 181 207 206
3 182 183 208
3 182 208 207
3 183 184 209
3 183 209 208
3 184 185 210
3 184 210 209
3 185 186 211
3 185 211 210
3 186 187 212
3 186 212 211
3 187 188 213
3 187 213 212
3 188 189 214
3 188 214 213
3 189 190 215
3 189 215 214
3 190 191 216
3 190 216 215
3 191 192 217
3 191 217 216
3 192 193 218
3 192 218 217
3 193 194 219
3 193 219 218
3 194 195 220
3 194 220 219
3 195 196 221
3 195 221 220
3 196 197 222
3 196 222 221
3 197 198 223
3 197 223 222
3 198 199 224
3 198 224 223
3 200 201 226
3 200 226 225
3 201 202 227
3 201 227 226
3 202 203 228
3 202 228 227
3 203 204 229
3 203 229 228
3 204 205 230
3 204 230 229
3 205 206 231
3 205 231 230
3 206 207 232
3 206 232 231
3 207 208 233
3 207 233 232
3 208 209 234
3 208 234 233
3 209 210 235
3 209 235 234
3 210 211 236
3 210 236 235
3 211 212 237
3 211 237 236
3 212 213 238
3 212 238 237
3 213 214 239
3 213 239 238
3 214 215 240
3 214 240 239
3 215 216 241
3 215 241 240
3 216 217 242
3 216 242 241
3 217 218 243
3 217 243 242
3 218 219 244
3 218 244 243
3 219 220 245
3 219 245 244
3 220 221 246
3 220 246 245
3 221 222 247
3 221 247 246
3 222 223 248
3 222 248 247
3 223 224 249
3 223 249 248
3 225 226 251
3 225 251 250
3 226 227 252
3 226 252 251
3 227 228 253
3 227 253 252
3 228 229 254
3 228 254 253
3 229 230 255
3 229 255 254
3 230 231 256
3 230 256 255
3 231 232 257
3 231 257 256
3 232 233 258
3 232 258 257
3 233 234 259
3 233 259 258
3 234 235 260
3 234 260 259
3 235 236 261
3 235 261 260
3 236 237 262
3 236 262 261
3 237 238 263
3 237 263 262
3 238 239 264
3 238 264 263
3 239 240 265
3 239 265 264
3 240 241 266
3 240 266 265
3 241 242 267
3 241 267 266
3 242 243 268
3 242 268 267
3 243 244 269
3 243 269 268
3 244 245 270
3 244 270 269
3 245 246 271
3 245 271 270
3 246 247 272
3 246 272 271
3 247 248 273
3 247 273 272
3 248 249 274
3 248 274 273
3 250 251 276
3 250 276 275
3 251 252 277
3 251 277 276
3 252 253 278
3 252 278 277
3 253 254 279
3 253 279 278
3 254 255 280
3 254 280 279
3 255 256 281
3 255 281 280
3 256 257 282
3 256 282 281
3 257 258 283
3 257 283 282
3 258 259 284
3 258 284 283
3 259 260 285
3 259 285 284
3 260 261 286
3 260 286 285
3 261 262 287
3 261 287 286
3 262 263 288
3 262 288 287
3 263 264 289
3 263 289 288
3 264 265 290
3 264 290 289
3 265 266 291
3 265 291 290
3 266 267 292
3 266 292 291
3 267 268 293
3 267 293 292
3 268 269 294
3 268 294 293
3 269 270 295
3 269 295 294
3 270 271 296
3 270 296 295
3 271 272 297
3 271 297 296
3 272 273 298
3 272 298 297
3 273 274 299
3 273 299 298
3 275 276 301
3 275 301 300
3 276 277 302
3 276 302 301
3 277 278 303
3 277 303 302
3 278 279 304
3 278 304 303
3 279 280 305
3 279 305 304
3 280 281 306
3 280 306 305
3 281 282 307
3 281 307 306
3 282 283 308
3 282 308 307
3 283 284 309
3 283 309 308
3 284 285 310
3 284 310 309
3 285 286 311
3 285 311 310
3 286 287 312
3 286 312 311
3 287 288 313
3 287 313 312
3 288 289 314
3 288 314 313
3 289 290 315
3 289 315 314
3 290 291 316
3 290 316 315
3 291 292 317
3 291 317 316
3 292 293 318
3 292 318 317
3 293 294 319
3 293 319 318
3 294 295 320
3 294 320 319
3 295 296 321
3 295 321 320
3 296 297 322
3 296 322 321
3 297 298 323
3 297 323 322
3 298 299 324
3 298 324 323
3 300 301 326
3 300 326 325
3 301 302 327
3 301 327 326
3 302 303 328
3 302 328 327
3 303 304 329
3 303 329 328
3 304 305 330
3 304 330 329
3 305 306 331
3 305 331 330
3 306 307 332
3 306 332 331
3 307 308 333
3 307 333 332
3 308 309 334
3 308 334 333
3 309 310 335
3 309 335 334
3 310 311 336
3 310 336 335
3 311 312 337
3 311 337 336
3 312 313 338
3 312 338 337
3 313 314 339
3 313 339 338
3 314 315 340
3 314 340 339
3 315 316 341
3 315 341 340
3 316 317 342
3 316 342 341
3 317 318 343
3 317 343 342
3 318 319 344
3 318 344 343
3 319 320 345
3 319 345 344
3 320 321 346
3 320 346 345
3 321 322 347
3 321 347 346
3 322 323 348
3 322 348 347
3 323 324 349
3 323 349 348
3 325 326 351
3 325 351 350
3 326 327 352
3 326 352 351
3 327 328 353
3 327 353 352
3 328 329 354
3 328 354 353
3 329 330 355
3 329 355 354
3 330 331 356
3 330 356 355
3 331 332 357
3 331 357 356
3 332 333 358
3 332 358 357
3 333 334 359
3 333 359 358
3 334 335 360
3 334 360 359
3 335 336 361
3 335 361 360
3 336 337 362
3 336 362 361
3 337 338 363
3 337 363 362
3 338 339 364
3 338 364 363
3 339 340 365
3 339 365 364
3 340 341 366
3 340 366 365
3 341 342 367
3 341 367 366
3 342 343 368
3 342 368 367
3 343 344 369
3 343 369 368
3 344 345 370
3 344 370 369
3 345 346 371
3 345 371 370
3 346 347 372
3 346 372 371
3 347 348 373
3 347 373 372
3 348 349 374
3 348 374 373
3 350 351 376
3 350 376 375
3 351 352 377
3 351 377 376
3 352 353 378
3 352 378 377
3 353 354 379
3 353 379 378
3 354 355 380
3 354 380 379
3 355 356 381
3 355 381 380
3 356 357 382
3 356 382 381
3 357 358 383
3 357 383 382
3 358 359 384
3 358 384 383
3 359 360 385
3 359 385 384
3 360 361 386
3 360 386 385
3 361 362 387
3 361 387 386
3 362 363 388
3 362 388 387
3 363 364 389
3 363 389 388
3 364 365 390
3 364 390 389
3 365 366 391
3 365 391 390
3 366 367 392
3 366 392 391
3 367 368 393
3 367 393 392
3 368 369 394
3 368 394 393
3 369 370 395
3 369 395 394
3 370 371 396
3 370 396 395
3 371 372 397
3 371 397 396
3 372 373 398
3 372 398 397
3 373 374 399
3 373 399 398
3 375 376 401
3 375 401 400
3 376 377 402
3 376 402 401
3 377 378 403
3 377 403 402
3 378 379 404
3 378 404 403
3 379 380 405
3 379 405 404
3 380 381 406
3 380 406 405
3 381 382 407
3 381 407 406
3 382 383 408
3 382 408 407
3 383 384 409
3 383 409 408
3 384 385 410
3 384 410 409
3 385 386 411
3 385 411 410
3 386 387 412
3 386 412 411
3 387 388 413
3 387 413 412
3 388 389 414
3 388 414 413
3 389 390 415
3 389 415 414
3 390 391 416
3 390 416 415
3 391 392 417
3 391 417 416
3 392 393 418
3 392 418 417
3 393 394 419
3 393 419 418
3 394 395 420
3 394 420 419
3 395 396 421
3 395 421 420
3 396 397 422
3 396 422 421
3 397 398 423
3 397 423 422
3 398 399 424
3 398 424 423
3 400 401 426
3 400 426 425
3 401 402 427
3 401 427 426
3 402 403 428
3 402 428 427
3 403 404 429
3 403 429 428
3 404 405 430
3 404 430 429
3 405 406 431
3 405 431 430
3 406 407 432
3 406 432 431
3 407 408 433
3 407 433 432
3 408 409 434
3 408 434 433
3 409 410 435
3 409 435 434
3 410 411 436
3 410 436 435
3 411 412 437
3 411 437 436
3 412 413 438
3 412 438 437
3 413 414 439
3 413 439 438
3 414 415 440
3 414 440 439
3 415 416 441
3 415 441 440
3 416 417 442
3 416 442 441
3 417 418 443
3 417 443 442
3 418 419 444
3 418 444 443
3 419 420 445
3 419 445 444
3 420 421 446
3 420 446 445
3 421 422 447
3 421 447 446
3 422 423 448
3 422 448 447
3 423 424 449
3 423 449 448
3 425 426 451
3 425 451 450
3 426 427 452
3 426 452 451
3 427 428 453
3 427 453 452
3 428 429 454
3 428 454 453
3 429 430 455
3 429 455 454
3 430 431 456
3 430 456 455
3 431 432 457
3 431 457 456
3 432 433 458
3 432 458 457
3 433 434 459
3 433 459 458
3 434 435 460
3 434 460 459
3 435 436 461
3 435 461 460
3 436 437 462
3 436 462 461
3 437 438 463
3 437 463 462
3 438 439 464
3 438 464 463
3 439 440 465
3 439 465 464
3 440 441 466
3 440 466 465
3 441 442 467
3 441 467 466
3 442 443 468
3 442 468 467
3 443 444 469
3 443 469 468
3 444 445 470
3 444 470 469
3 445 446 471
3 445 471 470
3 446 447 472
3 446 472 471
3 447 448 473
3 447 473 472
3 448 449 474
3 448 474 473
3 450 451 476
3 450 476 475
3 451 452 477
3 451 477 476
3 452 453 478
3 452 478 477
3 453 454 479
3 453 479 478
3 454 455 480
3 454 480 479
3 455 456 481
3 455 481 480
3 456 457 482
3 456 482 481
3 457 458 483
3 457 483 482
3 458 459 484
3 458 484 483
3 459 460 485
3 459 485 484
3 460 461 486
3 460 486 485
3 461 462 487
3 461 487 486
3 462 463 488
3 462 488 487
3 463 464 489
3 463 489 488
3 464 465 490
3 464 490 489
3 465 466 491
3 465 491 490
3 466 467 492
3 466 492 491
3 467 468 493
3 467 493 492
3 468 469 494
3 468 494 493
3 469 470 495
3 469 495 494
3 470 471 496
3 470 496 495
3 471 472 497
3 471 497 496
3 472 473 498
3 472 498 497
3 473 474 499
3 473 499 498
3 475 476 501
3 475 501 500
3 476 477 502
3 476 502 501
3 477 478 503
3 477 503 502
3 478 479 504
3 478 504 503
3 479 480 505
3 479 505 504
3 480 481 506
3 480 506 505
3 481 482 507
3 481 507 506
3 482 483 508
3 482 508 507
3 483 484 509
3 483 509 508
3 484 485 510
3 484 510 509
3 485 486 511
3 485 511 510
3 486 487 512
3 486 512 511
3 487 488 513
3 487 513 512
3 488 489 514
3 488 514 513
3 489 490 515
3 489 515 514
3 490 491 516
3 490 516 515
3 491 492 517
3 491 517 516
3 492 493 518
3 492 518 517
3 493 494 519
3 493 519 518
3 494 495 520
3 494 520 519
3 495 496 521
3 495 521 520
3 496 497 522
3 496 522 521
3 497 498 523
3 497 523 522
3 498 499 524
3 498 524 523
3 500 501 526
3 500 526 525
3 501 502 527
3 501 527 526
3 502 503 528
3 502 528 527
3 503 504 529
3 503 529 528
3 504 505 530
3 504 530 529
3 505 506 531
3 505 531 530
3 506 507 532
3 506 532 531
3 507 508 533
3 507 533 532
3 508 509 534
3 508 534 533
3 509 510 535
3 509 535 534
3 510 511 536
3 510 536 535
3 511 512 537
3 511 537 536
3 512 513 538
3 512 538 537
3 513 514 539
3 513 539 538
3 514 515 540
3 514 540 539
3 515 516 541
3 515 541 540
3 516 517 542
3 516 542 541
3 517 518 543
3 517 543 542
3 518 519 544
3 518 544 543
3 519 520 545
3 519 545 544
3 520 521 546
3 520 546 545
3 521 522 547
3 521 547 546
3 522 523 548
3 522 548 547
3 523 524 549
3 523 549 548
3 525 526 551
3 525 551 550
3 526 527 552
3 526 552 551
3 527 528 553
3 527 553 552
3 528 529 554
3 528 554 553
3 529 530 555
3 529 555 554
3 530 531 556
3 530 556 555
3 531 532 557
3 531 557 556
3 532 533 558
3 532 558 557
3 533 534 559
3 533 559 558
3 534 535 560
3 534 560 559
3 535 536 561
3 535 561 560
3 536 537 562
3 536 562 561
3 537 538 563
3 537 563 562
3 538 539 564
3 538 564 563
3 539 540 565
3 539 565 564
3 540 541 566
3 540 566 565
3 541 542 567
3 541 567 566
3 542 543 568
3 542 568 567
3 543 544 569
3 543 569 568
3 544 545 570
3 544 570 569
3 545 546 571
3 545 571 570
3 546 547 572
3 546 572 571
3 547 548 573
3 547 573 572
3 548 549 574
3 548 574 573
3 550 551 576
3 550 576 575
3 551 552 577
3 551 577 576
3 552 553 578
3 552 578 577
3 553 554 579
3 553 579 578
3 554 555 580
3 554 580 579
3 555 556 581
3 555 581 580
3 556 557 582
3 556 582 581
3 557 558 583
3 557 583 582
3 558 559 584
3 558 584 583
3 559 560 585
3 559 585 584
3 560 561 586
3 560 586 585
3 561 562 587
3 561 587 586
3 562 563 588
3 562 588 587
3 563 564 589
3 563 589 588
3 564 565 590
3 564 590 589
3 565 566 591
3 565 591 590
3 566 567 592
3 566 592 591
3 567 568 593
3 567 593 592
3 568 569 594
3 568 594 593
3 569 570 595
3 569 595 594
3 570 571 596
3 570 596 595
3 571 572 597
3 571 597 596
3 572 573 598
3 572 598 597
3 573 574 599
3 573 599 598
3 575 576 601
3 575 601 600
3 576 577 602
3 576 602 601
3 577 578 603
3 577 603 602
3 578 579 604
3 578 604 603
3 579 580 605
3 579 605 604
3 580 581 606
3 580 606 605
3 581 582 607
3 581 607 606
3 582 583 608
3 582 608 607
3 583 584 609
3 583 609 608
3 584 585 610
3 584 610 609
3 585 586 611
3 585 611 610
3 586 587 612
3 586 612 611
3 587 588 613
3 587 613 612
3 588 589 614
3 588 614 613
3 589 590 615
3 589 615 614
3 590 591 616
3 590 616 615
3 591 592 617
3 591 617 616
3 592 593 618
3 592 618 617
3 593 594 619
3 593 619 618
3 594 595 620
3 594 620 619
3 595 596 621
3 595 621 620
3 596 597 622
3 596 622 621
3 597 598 623
3 597 623 622
3 598 599 624
3 598 624 623
POINT_DATA 625
VECTORS Position float
-2.400000 -2.400000 -0.119050
-2.200000 -2.400000 -0.042438
-2.000000 -2.400000 0.037965
-1.800000 -2.400000 0.114977
-1.600000 -2.400000 0.181718
-1.400000 -2.400000 0.232227
-1.200000 -2.400000 0.261992
-1.000000 -2.400000 0.268354
-0.800000 -2.400000 0.250744
-0.600000 -2.400000 0.210736
-0.400000 -2.400000 0.151904
-0.200000 -2.400000 0.079503
0.000000 -2.400000 -0.000000
0.200000 -2.400000 -0.079503
0.400000 -2.400000 -0.151904
0.600000 -2.400000 -0.210736
0.800000 -2.400000 -0.250744
1.000000 -2.400000 -0.268354
1.200000 -2.400000 -0.261992
1.400000 -2.400000 -0.232227
1.600000 -2.400000 -0.181718
1.800000 -2.400000 -0.114977
2.000000 -2.400000 -0.037965
2.200000 -2.400000 0.042438
2.400000 -2.400000 0.119050
-2.400000 -2.200000 -0.131094
-2.200000 -2.200000 -0.046731
-2.000000 -2.200000 0.041806
-1.800000 -2.200000 0.126609
-1.600000 -2.200000 0.200102
-1.400000 -2.200000 0.255721
-1.200000 -2.200000 0.288496
-1.000000 -2.200000 0.295502
-0.800000 -2.200000 0.276111
-0.600000 -2.200000 0.232056
-0.400000 -2.200000 0.167272
-0.200000 -2.200000 0.087546
0.000000 -2.200000 -0.000000
0.200000 -2.200000 -0.087546
0.400000 -2.200000 -0.167272
0.600000 -2.200000 -0.232056
0.800000 -2.200000 -0.276111
1.000000 -2.200000 -0.295502
1.200000 -2.200000 -0.288496
1.400000 -2.200000 -0.255721
1.600000 -2.200000 -0.200102
1.800000 -2.200000 -0.126609
2.000000 -2.200000 -0.041806
2.200000 -2.200000 0.046731
2.400000 -2.200000 0.131094
-2.400000 -2.000000 -0.131428
-2.200000 -2.000000 -0.046850
-2.000000 -2.000000 0.041912
-1.800000 -2.000000 0.126931
-1.600000 -2.000000 0.200611
-1.400000 -2.000000 0.256371
-1.200000 -2.000000 0.289231
-1.000000 -2.000000 0.296254
-0.800000 -2.000000 0.276814
-0.600000 -2.000000 0.232646
-0.400000 -2.000000 0.167698
-0.200000 -2.000000 0.087769
0.000000 -2.000000 -0.000000
0.200000 -2.000000 -0.087769
0.400000 -2.000000 -0.167698
0.600000 -2.000000 -0.232646
0.800000 -2.000000 -0.276814
1.000000 -2.000000 -0.296254
1.200000 -2.000000 -0.289231
1.400000 -2.000000 -0.256371
1.600000 -2.000000 -0.200611
1.800000 -2.000000 -0.126931
2.000000 -2.000000 -0.041912
2.200000 -2.000000 0.046850
2.400000 -2.000000 0.131428
-2.400000 -1.800000 -0.120021
-2.200000 -1.800000 -0.042784
-2.000000 -1.800000 0.038275
-1.800000 -1.800000 0.115915
-1.600000 -1.800000 0.183200
-1.400000 -1.800000 0.234121
-1.200000 -1.800000 0.264129
-1.000000 -1.800000 0.270542
-0.800000 -1.800000 0.252789
-0.600000 -1.800000 0.212455
-0.400000 -1.800000 0.153143
-0.200000 -1.800000 0.080151
0.000000 -1.800000 -0.000000
0.200000 -1.800000 -0.080151
0.400000 -1.800000 -0.153143
0.600000 -1.800000 -0.212455
0.800000 -1.800000 -0.252789
1.000000 -1.800000 -0.270542
1.200000 -1.800000 -0.264129
1.400000 -1.800000 -0.234121
1.600000 -1.800000 -0.183200
1.800000 -1.800000 -0.115915
2.000000 -1.800000 -0.038275
2.200000 -1.800000 0.042784
2.400000 -1.800000 0.120021
-2.400000 -1.600000 -0.097894
-2.200000 -1.600000 -0.034896
-2.000000 -1.600000 0.031218
-1.800000 -1.600000 0.094544
-1.600000 -1.600000 0.149425
-1.400000 -1.600000 0.190958
-1.200000 -1.600000 0.215433
-1.000000 -1.600000 0.220664
-0.800000 -1.600000 0.206184
-0.600000 -1.600000 0.173286
-0.400000 -1.600000 0.124909
-0.200000 -1.600000 0.065374
0.000000 -1.600000 -0.000000
0.200000 -1.600000 -0.065374
0.400000 -1.600000 -0.124909
0.600000 -1.600000 -0.173286
0.800000 -1.600000 -0.206184
1.000000 -1.600000 -0.220664
1.200000 -1.600000 -0.215433
1.400000 -1.600000 -0.190958
1.600000 -1.600000 -0.149425
1.800000 -1.600000 -0.094544
2.000000 -1.600000 -0.031218
2.200000 -1.600000 0.034896
2.400000 -1.600000 0.097894
-2.400000 -1.400000 -0.067021
-2.200000 -1.400000 -0.023891
-2.000000 -1.400000 0.021373
-1.800000 -1.400000 0.064728
-1.600000 -1.400000 0.102301
-1.400000 -1.400000 0.130736
-1.200000 -1.400000 0.147493
-1.000000 -1.400000 0.151074
-0.800000 -1.400000 0.141161
-0.600000 -1.400000 0.118638
-0.400000 -1.400000 0.085517
-0.200000 -1.400000 0.044758
0.000000 -1.400000 -0.000000
0.200000 -1.400000 -0.044758
0.400000 -1.400000 -0.085517
0.600000 -1.400000 -0.118638
0.800000 -1.400000 -0.141161
1.000000 -1.400000 -0.151074
1.200000 -1.400000 -0.147493
1.400000 -1.400000 -0.130736
1.600000 -1.400000 -0.102301
1.800000 -1.400000 -0.064728
2.000000 -1.400000 -0.021373
2.200000 -1.400000 0.023891
2.400000 -1.400000 0.067021
-2.400000 -1.200000 -0.030162
-2.200000 -1.200000 -0.010752
-2.000000 -1.200000 0.009619
-1.800000 -1.200000 0.029130
-1.600000 -1.200000 0.046040
-1.400000 -1.200000 0.058837
-1.200000 -1.200000 0.066378
-1.000000 -1.200000 0.067990
-0.800000 -1.200000 0.063528
-0.600000 -1.200000 0.053392
-0.400000 -1.200000 0.038486
-0.200000 -1.200000 0.020143
0.000000 -1.200000 -0.000000
0.200000 -1.200000 -0.020143
0.400000 -1.200000 -0.038486
0.600000 -1.200000 -0.053392
0.800000 -1.200000 -0.063528
1.000000 -1.200000 -0.067990
1.200000 -1.200000 -0.066378
1.400000 -1.200000 -0.058837
1.600000 -1.200000 -0.046040
1.800000 -1.200000 -0.029130
2.000000 -1.200000 -0.009619
2.200000 -1.200000 0.010752
2.400000 -1.200000 0.030162
-2.400000 -1.000000 0.009391
-2.200000 -1.000000 0.003348
-2.000000 -1.000000 -0.002995
-1.800000 -1.000000 -0.009069
-1.600000 -1.000000 -0.014334
-1.400000 -1.000000 -0.018318
-1.200000 -1.000000 -0.020666
-1.000000 -1.000000 -0.021168
-0.800000 -1.000000 -0.019779
-0.600000 -1.000000 -0.016623
-0.400000 -1.000000 -0.011982
-0.200000 -1.000000 -0.006271
0.000000 -1.000000 0.000000
0.200000 -1.000000 0.006271
0.400000 -1.000000 0.011982
0.600000 -1.000000 0.016623
0.800000 -1.000000 0.019779
1.000000 -1.000000 0.021168
1.200000 -1.000000 0.020666
1.400000 -1.000000 0.018318
1.600000 -1.000000 0.014334
1.800000 -1.000000 0.009069
2.000000 -1.000000 0.002995
2.200000 -1.000000 -0.003348
2.400000 -1.000000 -0.009391
-2.400000 -0.800000 0.048105
-2.200000 -0.800000 0.017148
-2.000000 -0.800000 -0.015341
-1.800000 -0.800000 -0.046459
-1.600000 -0.800000 -0.073428
-1.400000 -0.800000 -0.093837
-1.200000 -0.800000 -0.105864
-1.000000 -0.800000 -0.108435
-0.800000 -0.800000 -0.101319
-0.600000 -0.800000 -0.085153
-0.400000 -0.800000 -0.061381
-0.200000 -0.800000 -0.032125
0.000000 -0.800000 0.000000
0.200000 -0.800000 0.032125
0.400000 -0.800000 0.061381
0.600000 -0.800000 0.085153
0.800000 -0.800000 0.101319
1.000000 -0.800000 0.108435
1.200000 -0.800000 0.105864
1.400000 -0.800000 0.093837
1.600000 -0.800000 0.073428
1.800000 -0.800000 0.046459
2.000000 -0.800000 0.015341
2.200000 -0.800000 -0.017148
2.400000 -0.800000 -0.048105
-2.400000 -0.600000 0.082523
-2.200000 -0.600000 0.029417
-2.000000 -0.600000 -0.026316
-1.800000 -0.600000 -0.079699
-1.600000 -0.600000 -0.125962
-1.400000 -0.600000 -0.160974
-1.200000 -0.600000 -0.181606
-1.000000 -0.600000 -0.186016
-0.800000 -0.600000 -0.173809
-0.600000 -0.600000 -0.146077
-0.400000 -0.600000 -0.105296
-0.200000 -0.600000 -0.055109
0.000000 -0.600000 0.000000
0.200000 -0.600000 0.055109
0.400000 -0.600000 0.105296
0.600000 -0.600000 0.146077
0.800000 -0.600000 0.173809
1.000000 -0.600000 0.186016
1.200000 -0.600000 0.181606
1.400000 -0.600000 0.160974
1.600000 -0.600000 0.125962
1.800000 -0.600000 0.079699
2.000000 -0.600000 0.026316
2.200000 -0.600000 -0.029417
2.400000 -0.600000 -0.082523
-2.400000 -0.400000 0.109568
-2.200000 -0.400000 0.039058
-2.000000 -0.400000 -0.034941
-1.800000 -0.400000 -0.105820
-1.600000 -0.400000 -0.167245
-1.400000 -0.400000 -0.213731
-1.200000 -0.400000 -0.241125
-1.000000 -0.400000 -0.246980
-0.800000 -0.400000 -0.230774
-0.600000 -0.400000 -0.193952
-0.400000 -0.400000 -0.139806
-0.200000 -0.400000 -0.073171
0.000000 -0.400000 0.000000
0.200000 -0.400000 0.073171
0.400000 -0.400000 0.139806
0.600000 -0.400000 0.193952
0.800000 -0.400000 0.230774
1.000000 -0.400000 0.246980
1.200000 -0.400000 0.241125
1.400000 -0.400000 0.213731
1.600000 -0.400000 0.167245
1.800000 -0.400000 0.105820
2.000000 -0.400000 0.034941
2.200000 -0.400000 -0.039058
2.400000 -0.400000 -0.109568
-2.400000 -0.200000 0.126827
-2.200000 -0.200000 0.045210
-2.000000 -0.200000 -0.040445
-1.800000 -0.200000 -0.122487
-1.600000 -0.200000 -0.193588
-1.400000 -0.200000 -0.247397
-1.200000 -0.200000 -0.279106
-1.000000 -0.200000 -0.285883
-0.800000 -0.200000 -0.267123
-0.600000 -0.200000 -0.224502
-0.400000 -0.200000 -0.161827
-0.200000 -0.200000 -0.084696
0.000000 -0.200000 0.000000
0.200000 -0.200000 0.084696
0.400000 -0.200000 0.161827
0.600000 -0.200000 0.224502
0.800000 -0.200000 0.267123
1.000000 -0.200000 0.285883
1.200000 -0.200000 0.279106
1.400000 -0.200000 0.247397
1.600000 -0.200000 0.193588
1.800000 -0.200000 0.122487
2.000000 -0.200000 0.040445
2.200000 -0.200000 -0.045210
2.400000 -0.200000 -0.126827
-2.400000 0.000000 0.132756
-2.200000 0.000000 0.047324
-2.000000 0.000000 -0.042336
-1.800000 0.000000 -0.128214
-1.600000 0.000000 -0.202639
-1.400000 0.000000 -0.258963
-1.200000 0.000000 -0.292154
-1.000000 0.000000 -0.299248
-0.800000 0.000000 -0.279612
-0.600000 0.000000 -0.234998
-0.400000 0.000000 -0.169393
-0.200000 0.000000 -0.088656
0.000000 0.000000 0.000000
0.200000 0.000000 0.088656
0.400000 0.000000 0.169393
0.600000 0.000000 0.234998
0.800000 0.000000 0.279612
1.000000 0.000000 0.299248
1.200000 0.000000 0.292154
1.400000 0.000000 0.258963
1.600000 0.000000 0.202639
1.800000 0.000000 0.128214
2.000000 0.000000 0.042336
2.200000 0.000000 -0.047324
2.400000 0.000000 -0.132756
-2.400000 0.200000 0.126827
-2.200000 0.200000 0.045210
-2.000000 0.200000 -0.040445
-1.800000 0.200000 -0.122487
-1.600000 0.200000 -0.193588
-1.400000 0.200000 -0.247397
-1.200000 0.200000 -0.279106
-1.000000 0.200000 -0.285883
-0.800000 0.200000 -0.267123
-0.600000 0.200000 -0.224502
-0.400000 0.200000 -0.161827
-0.200000 0.200000 -0.084696
0.000000 0.200000 0.000000
0.200000 0.200000 0.084696
0.400000 0.200000 0.161827
0.600000 0.200000 0.224502
0.800000 0.200000 0.267123
1.000000 0.200000 0.285883
1.200000 0.200000 0.279106
1.400000 0.200000 0.247397
1.600000 0.200000 0.193588
1.800000 0.200000 0.122487
2.000000 0.200000 0.040445
2.200000 0.200000 -0.045210
2.400000 0.200000 -0.126827
-2.400000 0.400000 0.109568
-2.200000 0.400000 0.039058
-2.000000 0.400000 -0.034941
-1.800000 0.400000 -0.105820
-1.600000 0.400000 -0.167245
-1.400000 0.400000 -0.213731
-1.200000 0.400000 -0.241125
-1.000000 0.400000 -0.246980
-0.800000 0.400000 -0.230774
-0.600000 0.400000 -0.193952
-0.400000 0.400000 -0.139806
-0.200000 0.400000 -0.073171
0.000000 0.400000 0.000000
0.200000 0.400000 0.073171
0.400000 0.400000 0.139806
0.600000 0.400000 0.193952
0.800000 0.400000 0.230774
1.000000 0.400000 0.246980
1.200000 0.400000 0.241125
1.400000 0.400000 0.213731
1.600000 0.400000 0.167245
1.800000 0.400000 0.105820
2.000000 0.400000 0.034941
2.200000 0.400000 -0.039058
2.400000 0.400000 -0.109568
-2.400000 0.600000 0.082523
-2.200000 0.600000 0.029417
-2.000000 0.600000 -0.026316
-1.800000 0.600000 -0.079699
-1.600000 0.600000 -0.125962
-1.400000 0.600000 -0.160974
-1.200000 0.600000 -0.181606
-1.000000 0.600000 -0.186016
-0.800000 0.600000 -0.173809
-0.600000 0.600000 -0.146077
-0.400000 0.600000 -0.105296
-0.200000 0.600000 -0.055109
0.000000 0.600000 0.000000
0.200000 0.600000 0.055109
0.400000 0.600000 0.105296
0.600000 0.600000 0.146077
0.800000 0.600000 0.173809
1.000000 0.600000 0.186016
1.200000 0.600000 0.181606
1.400000 0.600000 0.160974
1.600000 0.600000 0.125962
1.800000 0.600000 0.079699
2.000000 0.600000 0.026316
2.200000 0.600000 -0.029417
2.400000 0.600000 -0.082523
-2.400000 0.800000 0.048105
-2.200000 0.800000 0.017148
-2.000000 0.800000 -0.015341
-1.800000 0.800000 -0.046459
-1.600000 0.800000 -0.073428
-1.400000 0.800000 -0.093837
-1.200000 0.800000 -0.105864
-1.000000 0.800000 -0.108435
-0.800000 0.800000 -0.101319
-0.600000 0.800000 -0.085153
-0.400000 0.800000 -0.061381
-0.200000 0.800000 -0.032125
0.000000 0.800000 0.000000
0.200000 0.800000 0.032125
0.400000 0.800000 0.061381
0.600000 0.800000 0.085153
0.800000 0.800000 0.101319
1.000000 0.800000 0.108435
1.200000 0.800000 0.105864
1.400000 0.800000 0.093837
1.600000 0.800000 0.073428
1.800000 0.800000 0.046459
2.000000 0.800000 0.015341
2.200000 0.800000 -0.017148
2.400000 0.800000 -0.048105
-2.400000 1.000000 0.009391
-2.200000 1.000000 0.003348
-2.000000 1.000000 -0.002995
-1.800000 1.000000 -0.009069
-1.600000 1.000000 -0.014334
-1.400000 1.000000 -0.018318
-1.200000 1.000000 -0.020666
-1.000000 1.000000 -0.021168
-0.800000 1.000000 -0.019779
-0.600000 1.000000 -0.016623
-0.400000 1.000000 -0.011982
-0.200000 1.000000 -0.006271
0.000000 1.000000 0.000000
0.200000 1.000000 0.006271
0.400000 1.000000 0.011982
0.600000 1.000000 0.016623
0.800000 1.000000 0.019779
1.000000 1.000000 0.021168
1.200000 1.000000 0.020666
1.400000 1.000000 0.018318
1.600000 1.000000 0.014334
1.800000 1.000000 0.009069
2.000000 1.000000 0.002995
2.200000 1.000000 -0.003348
2.400000 1.000000 -0.009391
-2.400000 1.200000 -0.030162
-2.200000 1.200000 -0.010752
-2.000000 1.200000 0.009619
-1.800000 1.200000 0.029130
-1.600000 1.200000 0.046040
-1.400000 1.200000 0.058837
-1.200000 1.200000 0.066378
-1.000000 1.200000 0.067990
-0.800000 1.200000 0.063528
-0.600000 1.200000 0.053392
-0.400000 1.200000 0.038486
-0.200000 1.200000 0.020143
0.000000 1.200000 -0.000000
0.200000 1.200000 -0.020143
0.400000 1.200000 -0.038486
0.600000 1.200000 -0.053392
0.800000 1.200000 -0.063528
1.000000 1.200000 -0.067990
1.200000 1.200000 -0.066378
1.400000 1.200000 -0.058837
1.600000 1.200000 -0.046040
1.800000 1.200000 -0.029130
2.000000 1.200000 -0.009619
2.200000 1.200000 0.010752
2.400000 1.200000 0.030162
-2.400000 1.400000 -0.067021
-2.200000 1.400000 -0.023891
-2.000000 1.400000 0.021373
-1.800000 1.400000 0.064728
-1.600000 1.400000 0.102301
-1.400000 1.400000 0.130736
-1.200000 1.400000 0.147493
-1.000000 1.400000 0.151074
-0.800000 1.400000 0.141161
-0.600000 1.400000 0.118638
-0.400000 1.400000 0.085517
-0.200000 1.400000 0.044758
0.000000 1.400000 -0.000000
0.200000 1.400000 -0.044758
0.400000 1.400000 -0.085517
0.600000 1.400000 -0.118638
0.800000 1.400000 -0.141161
1.000000 1.400000 -0.151074
1.200000 1.400000 -0.147493
1.400000 1.400000 -0.130736
1.600000 1.400000 -0.102301
1.800000 1.400000 -0.064728
2.000000 1.400000 -0.021373
2.200000 1.400000 0.023891
2.400000 1.400000 0.067021
-2.400000 1.600000 -0.097894
-2.200000 1.600000 -0.034896
-2.000000 1.600000 0.031218
-1.800000 1.600000 0.094544
-1.600000 1.600000 0.149425
-1.400000 1.600000 0.190958
-1.200000 1.600000 0.215433
-1.000000 1.600000 0.220664
-0.800000 1.600000 0.206184
-0.600000 1.600000 0.173286
-0.400000 1.600000 0.124909
-0.200000 1.600000 0.065374
0.000000 1.600000 -0.000000
0.200000 1.600000 -0.065374
0.400000 1.600000 -0.124909
0.600000 1.600000 -0.173286
0.800000 1.600000 -0.206184
1.000000 1.600000 -0.220664
1.200000 1.600000 -0.215433
1.400000 1.600000 -0.190958
1.600000 1.600000 -0.149425
1.800000 1.600000 -0.094544
2.000000 1.600000 -0.031218
2.200000 1.600000 0.034896
2.400000 1.600000 0.097894
-2.400000 1.800000 -0.120021
-2.200000 1.800000 -0.042784
-2.000000 1.800000 0.038275
-1.800000 1.800000 0.115915
-1.600000 1.800000 0.183200
-1.400000 1.800000 0.234121
-1.200000 1.800000 0.264129
-1.000000 1.800000 0.270542
-0.800000 1.800000 0.252789
-0.600000 1.800000 0.212455
-0.400000 1.800000 0.153143
-0.200000 1.800000 0.080151
0.000000 1.800000 -0.000000
0.200000 1.800000 -0.080151
0.400000 1.800000 -0.153143
0.600000 1.800000 -0.212455
0.800000 1.800000 -0.252789
1.000000 1.800000 -0.270542
1.200000 1.800000 -0.264129
1.400000 1.800000 -0.234121
1.600000 1.800000 -0.183200
1.800000 1.800000 -0.115915
2.000000 1.800000 -0.038275
2.200000 1.800000 0.042784
2.400000 1.800000 0.120021
-2.400000 2.000000 -0.131428
-2.200000 2.000000 -0.046850
-2.000000 2.000000 0.041912
-1.800000 2.000000 0.126931
-1.600000 2.000000 0.200611
-1.400000 2.000000 0.256371
-1.200000 2.000000 0.289231
-1.000000 2.000000 0.296254
-0.800000 2.000000 0.276814
-0.600000 2.000000 0.232646
-0.400000 2.000000 0.167698
-0.200000 2.000000 0.087769
0.000000 2.000000 -0.000000
0.200000 2.000000 -0.087769
0.400000 2.000000 -0.167698
0.600000 2.000000 -0.232646
0.800000 2.000000 -0.276814
1.000000 2.000000 -0.296254
1.200000 2.000000 -0.289231
1.400000 2.000000 -0.256371
1.600000 2.000000 -0.200611
1.800000 2.000000 -0.126931
2.000000 2.000000 -0.041912
2.200000 2.000000 0.046850
2.400000 2.000000 0.131428
-2.400000 2.200000 -0.131094
-2.200000 2.200000 -0.046731
-2.000000 2.200000 0.041806
-1.800000 2.200000 0.126609
-1.600000 2.200000 0.200102
-1.400000 2.200000 0.255721
-1.200000 2.200000 0.288496
-1.000000 2.200000 0.295502
-0.800000 2.200000 0.276111
-0.600000 2.200000 0.232056
-0.400000 2.200000 0.167272
-0.200000 2.200000 0.087546
0.000000 2.200000 -0.000000
0.200000 2.200000 -0.087546
0.400000 2.200000 -0.167272
0.600000 2.200000 -0.232056
0.800000 2.200000 -0.276111
1.000000 2.200000 -0.295502
1.200000 2.200000 -0.288496
1.400000 2.200000 -0.255721
1.600000 2.200000 -0.200102
1.800000 2.200000 -0.126609
2.000000 2.200000 -0.041806
2.200000 2.200000 0.046731
2.400000 2.200000 0.131094
-2.400000 2.400000 -0.119050
-2.200000 2.400000 -0.042438
-2.000000 2.400000 0.037965
-1.800000 2.400000 0.114977
-1.600000 2.400000 0.181718
-1.400000 2.400000 0.232227
-1.200000 2.400000 0.261992
-1.000000 2.400000 0.268354
-0.800000 2.400000 0.250744
-0.600000 2.400000 0.210736
-0.400000 2.400000 0.151904
-0.200000 2.400000 0.079503
0.000000 2.400000 -0.000000
0.200000 2.400000 -0.079503
0.400000 2.400000 -0.151904
0.600000 2.400000 -0.210736
0.800000 2.400000 -0.250744
1.000000 2.400000 -0.268354
1.200000 2.400000 -0.261992
1.400000 2.400000 -0.232227
1.600000 2.400000 -0.181718
1.800000 2.400000 -0.114977
2.000000 2.400000 -0.037965
2.200000 2.400000 0.042438
2.400000 2.400000 0.119050
