# vtk DataFile Version 3.0
ExtractCellsByType mixed test model (triangle+quad+tetra+hexahedron)
ASCII
DATASET UNSTRUCTURED_GRID
POINTS 18 float
0.0 0.0 0.0
1.0 0.0 0.0
2.0 0.0 0.0
0.0 1.0 0.0
1.0 1.0 0.0
2.0 1.0 0.0
0.0 2.0 0.0
1.0 2.0 0.0
2.0 2.0 0.0
0.0 0.0 1.0
1.0 0.0 1.0
2.0 0.0 1.0
0.0 1.0 1.0
1.0 1.0 1.0
2.0 1.0 1.0
0.0 2.0 1.0
1.0 2.0 1.0
2.0 2.0 1.0
CELLS 4 23
3 0 1 3
4 0 1 4 3
4 0 1 3 9
8 0 1 3 4 9 10 12 13
CELL_TYPES 4
5
9
10
12
POINT_DATA 18
SCALARS pid float 1
LOOKUP_TABLE default
0.0
10.0
20.0
30.0
40.0
50.0
60.0
70.0
80.0
90.0
100.0
110.0
120.0
130.0
140.0
150.0
160.0
170.0
SCALARS pid_double double 1
LOOKUP_TABLE default
0.5
10.5
20.5
30.5
40.5
50.5
60.5
70.5
80.5
90.5
100.5
110.5
120.5
130.5
140.5
150.5
160.5
170.5
CELL_DATA 4
SCALARS cid double 1
LOOKUP_TABLE default
100.0
200.0
300.0
400.0
