# vtk DataFile Version 3.0
AI-generated test model (ExtractComponent) - straight annular pipe with helical flow V
ASCII
DATASET UNSTRUCTURED_GRID
POINTS 576 float
0.4 0 0
0.369552 0.153073 0
0.282843 0.282843 0
0.153073 0.369552 0
0 0.4 0
-0.153073 0.369552 0
-0.282843 0.282843 0
-0.369552 0.153073 0
-0.4 0 0
-0.369552 -0.153073 0
-0.282843 -0.282843 0
-0.153073 -0.369552 0
0 -0.4 0
0.153073 -0.369552 0
0.282843 -0.282843 0
0.369552 -0.153073 0
0.4 0 0.8
0.369552 0.153073 0.8
0.282843 0.282843 0.8
0.153073 0.369552 0.8
0 0.4 0.8
-0.153073 0.369552 0.8
-0.282843 0.282843 0.8
-0.369552 0.153073 0.8
-0.4 0 0.8
-0.369552 -0.153073 0.8
-0.282843 -0.282843 0.8
-0.153073 -0.369552 0.8
0 -0.4 0.8
0.153073 -0.369552 0.8
0.282843 -0.282843 0.8
0.369552 -0.153073 0.8
0.4 0 1.6
0.369552 0.153073 1.6
0.282843 0.282843 1.6
0.153073 0.369552 1.6
0 0.4 1.6
-0.153073 0.369552 1.6
-0.282843 0.282843 1.6
-0.369552 0.153073 1.6
-0.4 0 1.6
-0.369552 -0.153073 1.6
-0.282843 -0.282843 1.6
-0.153073 -0.369552 1.6
0 -0.4 1.6
0.153073 -0.369552 1.6
0.282843 -0.282843 1.6
0.369552 -0.153073 1.6
0.4 0 2.4
0.369552 0.153073 2.4
0.282843 0.282843 2.4
0.153073 0.369552 2.4
0 0.4 2.4
-0.153073 0.369552 2.4
-0.282843 0.282843 2.4
-0.369552 0.153073 2.4
-0.4 0 2.4
-0.369552 -0.153073 2.4
-0.282843 -0.282843 2.4
-0.153073 -0.369552 2.4
0 -0.4 2.4
0.153073 -0.369552 2.4
0.282843 -0.282843 2.4
0.369552 -0.153073 2.4
0.4 0 3.2
0.369552 0.153073 3.2
0.282843 0.282843 3.2
0.153073 0.369552 3.2
0 0.4 3.2
-0.153073 0.369552 3.2
-0.282843 0.282843 3.2
-0.369552 0.153073 3.2
-0.4 0 3.2
-0.369552 -0.153073 3.2
-0.282843 -0.282843 3.2
-0.153073 -0.369552 3.2
0 -0.4 3.2
0.153073 -0.369552 3.2
0.282843 -0.282843 3.2
0.369552 -0.153073 3.2
0.4 0 4
0.369552 0.153073 4
0.282843 0.282843 4
0.153073 0.369552 4
0 0.4 4
-0.153073 0.369552 4
-0.282843 0.282843 4
-0.369552 0.153073 4
-0.4 0 4
-0.369552 -0.153073 4
-0.282843 -0.282843 4
-0.153073 -0.369552 4
0 -0.4 4
0.153073 -0.369552 4
0.282843 -0.282843 4
0.369552 -0.153073 4
0.4 0 4.8
0.369552 0.153073 4.8
0.282843 0.282843 4.8
0.153073 0.369552 4.8
0 0.4 4.8
-0.153073 0.369552 4.8
-0.282843 0.282843 4.8
-0.369552 0.153073 4.8
-0.4 0 4.8
-0.369552 -0.153073 4.8
-0.282843 -0.282843 4.8
-0.153073 -0.369552 4.8
0 -0.4 4.8
0.153073 -0.369552 4.8
0.282843 -0.282843 4.8
0.369552 -0.153073 4.8
0.4 0 5.6
0.369552 0.153073 5.6
0.282843 0.282843 5.6
0.153073 0.369552 5.6
0 0.4 5.6
-0.153073 0.369552 5.6
-0.282843 0.282843 5.6
-0.369552 0.153073 5.6
-0.4 0 5.6
-0.369552 -0.153073 5.6
-0.282843 -0.282843 5.6
-0.153073 -0.369552 5.6
0 -0.4 5.6
0.153073 -0.369552 5.6
0.282843 -0.282843 5.6
0.369552 -0.153073 5.6
0.4 0 6.4
0.369552 0.153073 6.4
0.282843 0.282843 6.4
0.153073 0.369552 6.4
0 0.4 6.4
-0.153073 0.369552 6.4
-0.282843 0.282843 6.4
-0.369552 0.153073 6.4
-0.4 0 6.4
-0.369552 -0.153073 6.4
-0.282843 -0.282843 6.4
-0.153073 -0.369552 6.4
0 -0.4 6.4
0.153073 -0.369552 6.4
0.282843 -0.282843 6.4
0.369552 -0.153073 6.4
0.933333 0 0
0.862288 0.357171 0
0.659966 0.659966 0
0.357171 0.862288 0
0 0.933333 0
-0.357171 0.862288 0
-0.659966 0.659966 0
-0.862288 0.357171 0
-0.933333 0 0
-0.862288 -0.357171 0
-0.659966 -0.659966 0
-0.357171 -0.862288 0
0 -0.933333 0
0.357171 -0.862288 0
0.659966 -0.659966 0
0.862288 -0.357171 0
0.933333 0 0.8
0.862288 0.357171 0.8
0.659966 0.659966 0.8
0.357171 0.862288 0.8
0 0.933333 0.8
-0.357171 0.862288 0.8
-0.659966 0.659966 0.8
-0.862288 0.357171 0.8
-0.933333 0 0.8
-0.862288 -0.357171 0.8
-0.659966 -0.659966 0.8
-0.357171 -0.862288 0.8
0 -0.933333 0.8
0.357171 -0.862288 0.8
0.659966 -0.659966 0.8
0.862288 -0.357171 0.8
0.933333 0 1.6
0.862288 0.357171 1.6
0.659966 0.659966 1.6
0.357171 0.862288 1.6
0 0.933333 1.6
-0.357171 0.862288 1.6
-0.659966 0.659966 1.6
-0.862288 0.357171 1.6
-0.933333 0 1.6
-0.862288 -0.357171 1.6
-0.659966 -0.659966 1.6
-0.357171 -0.862288 1.6
0 -0.933333 1.6
0.357171 -0.862288 1.6
0.659966 -0.659966 1.6
0.862288 -0.357171 1.6
0.933333 0 2.4
0.862288 0.357171 2.4
0.659966 0.659966 2.4
0.357171 0.862288 2.4
0 0.933333 2.4
-0.357171 0.862288 2.4
-0.659966 0.659966 2.4
-0.862288 0.357171 2.4
-0.933333 0 2.4
-0.862288 -0.357171 2.4
-0.659966 -0.659966 2.4
-0.357171 -0.862288 2.4
0 -0.933333 2.4
0.357171 -0.862288 2.4
0.659966 -0.659966 2.4
0.862288 -0.357171 2.4
0.933333 0 3.2
0.862288 0.357171 3.2
0.659966 0.659966 3.2
0.357171 0.862288 3.2
0 0.933333 3.2
-0.357171 0.862288 3.2
-0.659966 0.659966 3.2
-0.862288 0.357171 3.2
-0.933333 0 3.2
-0.862288 -0.357171 3.2
-0.659966 -0.659966 3.2
-0.357171 -0.862288 3.2
0 -0.933333 3.2
0.357171 -0.862288 3.2
0.659966 -0.659966 3.2
0.862288 -0.357171 3.2
0.933333 0 4
0.862288 0.357171 4
0.659966 0.659966 4
0.357171 0.862288 4
0 0.933333 4
-0.357171 0.862288 4
-0.659966 0.659966 4
-0.862288 0.357171 4
-0.933333 0 4
-0.862288 -0.357171 4
-0.659966 -0.659966 4
-0.357171 -0.862288 4
0 -0.933333 4
0.357171 -0.862288 4
0.659966 -0.659966 4
0.862288 -0.357171 4
0.933333 0 4.8
0.862288 0.357171 4.8
0.659966 0.659966 4.8
0.357171 0.862288 4.8
0 0.933333 4.8
-0.357171 0.862288 4.8
-0.659966 0.659966 4.8
-0.862288 0.357171 4.8
-0.933333 0 4.8
-0.862288 -0.357171 4.8
-0.659966 -0.659966 4.8
-0.357171 -0.862288 4.8
0 -0.933333 4.8
0.357171 -0.862288 4.8
0.659966 -0.659966 4.8
0.862288 -0.357171 4.8
0.933333 0 5.6
0.862288 0.357171 5.6
0.659966 0.659966 5.6
0.357171 0.862288 5.6
0 0.933333 5.6
-0.357171 0.862288 5.6
-0.659966 0.659966 5.6
-0.862288 0.357171 5.6
-0.933333 0 5.6
-0.862288 -0.357171 5.6
-0.659966 -0.659966 5.6
-0.357171 -0.862288 5.6
0 -0.933333 5.6
0.357171 -0.862288 5.6
0.659966 -0.659966 5.6
0.862288 -0.357171 5.6
0.933333 0 6.4
0.862288 0.357171 6.4
0.659966 0.659966 6.4
0.357171 0.862288 6.4
0 0.933333 6.4
-0.357171 0.862288 6.4
-0.659966 0.659966 6.4
-0.862288 0.357171 6.4
-0.933333 0 6.4
-0.862288 -0.357171 6.4
-0.659966 -0.659966 6.4
-0.357171 -0.862288 6.4
0 -0.933333 6.4
0.357171 -0.862288 6.4
0.659966 -0.659966 6.4
0.862288 -0.357171 6.4
1.466667 0 0
1.355023 0.561269 0
1.03709 1.03709 0
0.561269 1.355023 0
0 1.466667 0
-0.561269 1.355023 0
-1.03709 1.03709 0
-1.355023 0.561269 0
-1.466667 0 0
-1.355023 -0.561269 0
-1.03709 -1.03709 0
-0.561269 -1.355023 0
0 -1.466667 0
0.561269 -1.355023 0
1.03709 -1.03709 0
1.355023 -0.561269 0
1.466667 0 0.8
1.355023 0.561269 0.8
1.03709 1.03709 0.8
0.561269 1.355023 0.8
0 1.466667 0.8
-0.561269 1.355023 0.8
-1.03709 1.03709 0.8
-1.355023 0.561269 0.8
-1.466667 0 0.8
-1.355023 -0.561269 0.8
-1.03709 -1.03709 0.8
-0.561269 -1.355023 0.8
0 -1.466667 0.8
0.561269 -1.355023 0.8
1.03709 -1.03709 0.8
1.355023 -0.561269 0.8
1.466667 0 1.6
1.355023 0.561269 1.6
1.03709 1.03709 1.6
0.561269 1.355023 1.6
0 1.466667 1.6
-0.561269 1.355023 1.6
-1.03709 1.03709 1.6
-1.355023 0.561269 1.6
-1.466667 0 1.6
-1.355023 -0.561269 1.6
-1.03709 -1.03709 1.6
-0.561269 -1.355023 1.6
0 -1.466667 1.6
0.561269 -1.355023 1.6
1.03709 -1.03709 1.6
1.355023 -0.561269 1.6
1.466667 0 2.4
1.355023 0.561269 2.4
1.03709 1.03709 2.4
0.561269 1.355023 2.4
0 1.466667 2.4
-0.561269 1.355023 2.4
-1.03709 1.03709 2.4
-1.355023 0.561269 2.4
-1.466667 0 2.4
-1.355023 -0.561269 2.4
-1.03709 -1.03709 2.4
-0.561269 -1.355023 2.4
0 -1.466667 2.4
0.561269 -1.355023 2.4
1.03709 -1.03709 2.4
1.355023 -0.561269 2.4
1.466667 0 3.2
1.355023 0.561269 3.2
1.03709 1.03709 3.2
0.561269 1.355023 3.2
0 1.466667 3.2
-0.561269 1.355023 3.2
-1.03709 1.03709 3.2
-1.355023 0.561269 3.2
-1.466667 0 3.2
-1.355023 -0.561269 3.2
-1.03709 -1.03709 3.2
-0.561269 -1.355023 3.2
0 -1.466667 3.2
0.561269 -1.355023 3.2
1.03709 -1.03709 3.2
1.355023 -0.561269 3.2
1.466667 0 4
1.355023 0.561269 4
1.03709 1.03709 4
0.561269 1.355023 4
0 1.466667 4
-0.561269 1.355023 4
-1.03709 1.03709 4
-1.355023 0.561269 4
-1.466667 0 4
-1.355023 -0.561269 4
-1.03709 -1.03709 4
-0.561269 -1.355023 4
0 -1.466667 4
0.561269 -1.355023 4
1.03709 -1.03709 4
1.355023 -0.561269 4
1.466667 0 4.8
1.355023 0.561269 4.8
1.03709 1.03709 4.8
0.561269 1.355023 4.8
0 1.466667 4.8
-0.561269 1.355023 4.8
-1.03709 1.03709 4.8
-1.355023 0.561269 4.8
-1.466667 0 4.8
-1.355023 -0.561269 4.8
-1.03709 -1.03709 4.8
-0.561269 -1.355023 4.8
0 -1.466667 4.8
0.561269 -1.355023 4.8
1.03709 -1.03709 4.8
1.355023 -0.561269 4.8
1.466667 0 5.6
1.355023 0.561269 5.6
1.03709 1.03709 5.6
0.561269 1.355023 5.6
0 1.466667 5.6
-0.561269 1.355023 5.6
-1.03709 1.03709 5.6
-1.355023 0.561269 5.6
-1.466667 0 5.6
-1.355023 -0.561269 5.6
-1.03709 -1.03709 5.6
-0.561269 -1.355023 5.6
0 -1.466667 5.6
0.561269 -1.355023 5.6
1.03709 -1.03709 5.6
1.355023 -0.561269 5.6
1.466667 0 6.4
1.355023 0.561269 6.4
1.03709 1.03709 6.4
0.561269 1.355023 6.4
0 1.466667 6.4
-0.561269 1.355023 6.4
-1.03709 1.03709 6.4
-1.355023 0.561269 6.4
-1.466667 0 6.4
-1.355023 -0.561269 6.4
-1.03709 -1.03709 6.4
-0.561269 -1.355023 6.4
0 -1.466667 6.4
0.561269 -1.355023 6.4
1.03709 -1.03709 6.4
1.355023 -0.561269 6.4
2 0 0
1.847759 0.765367 0
1.414214 1.414214 0
0.765367 1.847759 0
0 2 0
-0.765367 1.847759 0
-1.414214 1.414214 0
-1.847759 0.765367 0
-2 0 0
-1.847759 -0.765367 0
-1.414214 -1.414214 0
-0.765367 -1.847759 0
0 -2 0
0.765367 -1.847759 0
1.414214 -1.414214 0
1.847759 -0.765367 0
2 0 0.8
1.847759 0.765367 0.8
1.414214 1.414214 0.8
0.765367 1.847759 0.8
0 2 0.8
-0.765367 1.847759 0.8
-1.414214 1.414214 0.8
-1.847759 0.765367 0.8
-2 0 0.8
-1.847759 -0.765367 0.8
-1.414214 -1.414214 0.8
-0.765367 -1.847759 0.8
0 -2 0.8
0.765367 -1.847759 0.8
1.414214 -1.414214 0.8
1.847759 -0.765367 0.8
2 0 1.6
1.847759 0.765367 1.6
1.414214 1.414214 1.6
0.765367 1.847759 1.6
0 2 1.6
-0.765367 1.847759 1.6
-1.414214 1.414214 1.6
-1.847759 0.765367 1.6
-2 0 1.6
-1.847759 -0.765367 1.6
-1.414214 -1.414214 1.6
-0.765367 -1.847759 1.6
0 -2 1.6
0.765367 -1.847759 1.6
1.414214 -1.414214 1.6
1.847759 -0.765367 1.6
2 0 2.4
1.847759 0.765367 2.4
1.414214 1.414214 2.4
0.765367 1.847759 2.4
0 2 2.4
-0.765367 1.847759 2.4
-1.414214 1.414214 2.4
-1.847759 0.765367 2.4
-2 0 2.4
-1.847759 -0.765367 2.4
-1.414214 -1.414214 2.4
-0.765367 -1.847759 2.4
0 -2 2.4
0.765367 -1.847759 2.4
1.414214 -1.414214 2.4
1.847759 -0.765367 2.4
2 0 3.2
1.847759 0.765367 3.2
1.414214 1.414214 3.2
0.765367 1.847759 3.2
0 2 3.2
-0.765367 1.847759 3.2
-1.414214 1.414214 3.2
-1.847759 0.765367 3.2
-2 0 3.2
-1.847759 -0.765367 3.2
-1.414214 -1.414214 3.2
-0.765367 -1.847759 3.2
0 -2 3.2
0.765367 -1.847759 3.2
1.414214 -1.414214 3.2
1.847759 -0.765367 3.2
2 0 4
1.847759 0.765367 4
1.414214 1.414214 4
0.765367 1.847759 4
0 2 4
-0.765367 1.847759 4
-1.414214 1.414214 4
-1.847759 0.765367 4
-2 0 4
-1.847759 -0.765367 4
-1.414214 -1.414214 4
-0.765367 -1.847759 4
0 -2 4
0.765367 -1.847759 4
1.414214 -1.414214 4
1.847759 -0.765367 4
2 0 4.8
1.847759 0.765367 4.8
1.414214 1.414214 4.8
0.765367 1.847759 4.8
0 2 4.8
-0.765367 1.847759 4.8
-1.414214 1.414214 4.8
-1.847759 0.765367 4.8
-2 0 4.8
-1.847759 -0.765367 4.8
-1.414214 -1.414214 4.8
-0.765367 -1.847759 4.8
0 -2 4.8
0.765367 -1.847759 4.8
1.414214 -1.414214 4.8
1.847759 -0.765367 4.8
2 0 5.6
1.847759 0.765367 5.6
1.414214 1.414214 5.6
0.765367 1.847759 5.6
0 2 5.6
-0.765367 1.847759 5.6
-1.414214 1.414214 5.6
-1.847759 0.765367 5.6
-2 0 5.6
-1.847759 -0.765367 5.6
-1.414214 -1.414214 5.6
-0.765367 -1.847759 5.6
0 -2 5.6
0.765367 -1.847759 5.6
1.414214 -1.414214 5.6
1.847759 -0.765367 5.6
2 0 6.4
1.847759 0.765367 6.4
1.414214 1.414214 6.4
0.765367 1.847759 6.4
0 2 6.4
-0.765367 1.847759 6.4
-1.414214 1.414214 6.4
-1.847759 0.765367 6.4
-2 0 6.4
-1.847759 -0.765367 6.4
-1.414214 -1.414214 6.4
-0.765367 -1.847759 6.4
0 -2 6.4
0.765367 -1.847759 6.4
1.414214 -1.414214 6.4
1.847759 -0.765367 6.4
CELLS 384 3456
8 0 1 17 16 144 145 161 160
8 1 2 18 17 145 146 162 161
8 2 3 19 18 146 147 163 162
8 3 4 20 19 147 148 164 163
8 4 5 21 20 148 149 165 164
8 5 6 22 21 149 150 166 165
8 6 7 23 22 150 151 167 166
8 7 8 24 23 151 152 168 167
8 8 9 25 24 152 153 169 168
8 9 10 26 25 153 154 170 169
8 10 11 27 26 154 155 171 170
8 11 12 28 27 155 156 172 171
8 12 13 29 28 156 157 173 172
8 13 14 30 29 157 158 174 173
8 14 15 31 30 158 159 175 174
8 15 0 16 31 159 144 160 175
8 16 17 33 32 160 161 177 176
8 17 18 34 33 161 162 178 177
8 18 19 35 34 162 163 179 178
8 19 20 36 35 163 164 180 179
8 20 21 37 36 164 165 181 180
8 21 22 38 37 165 166 182 181
8 22 23 39 38 166 167 183 182
8 23 24 40 39 167 168 184 183
8 24 25 41 40 168 169 185 184
8 25 26 42 41 169 170 186 185
8 26 27 43 42 170 171 187 186
8 27 28 44 43 171 172 188 187
8 28 29 45 44 172 173 189 188
8 29 30 46 45 173 174 190 189
8 30 31 47 46 174 175 191 190
8 31 16 32 47 175 160 176 191
8 32 33 49 48 176 177 193 192
8 33 34 50 49 177 178 194 193
8 34 35 51 50 178 179 195 194
8 35 36 52 51 179 180 196 195
8 36 37 53 52 180 181 197 196
8 37 38 54 53 181 182 198 197
8 38 39 55 54 182 183 199 198
8 39 40 56 55 183 184 200 199
8 40 41 57 56 184 185 201 200
8 41 42 58 57 185 186 202 201
8 42 43 59 58 186 187 203 202
8 43 44 60 59 187 188 204 203
8 44 45 61 60 188 189 205 204
8 45 46 62 61 189 190 206 205
8 46 47 63 62 190 191 207 206
8 47 32 48 63 191 176 192 207
8 48 49 65 64 192 193 209 208
8 49 50 66 65 193 194 210 209
8 50 51 67 66 194 195 211 210
8 51 52 68 67 195 196 212 211
8 52 53 69 68 196 197 213 212
8 53 54 70 69 197 198 214 213
8 54 55 71 70 198 199 215 214
8 55 56 72 71 199 200 216 215
8 56 57 73 72 200 201 217 216
8 57 58 74 73 201 202 218 217
8 58 59 75 74 202 203 219 218
8 59 60 76 75 203 204 220 219
8 60 61 77 76 204 205 221 220
8 61 62 78 77 205 206 222 221
8 62 63 79 78 206 207 223 222
8 63 48 64 79 207 192 208 223
8 64 65 81 80 208 209 225 224
8 65 66 82 81 209 210 226 225
8 66 67 83 82 210 211 227 226
8 67 68 84 83 211 212 228 227
8 68 69 85 84 212 213 229 228
8 69 70 86 85 213 214 230 229
8 70 71 87 86 214 215 231 230
8 71 72 88 87 215 216 232 231
8 72 73 89 88 216 217 233 232
8 73 74 90 89 217 218 234 233
8 74 75 91 90 218 219 235 234
8 75 76 92 91 219 220 236 235
8 76 77 93 92 220 221 237 236
8 77 78 94 93 221 222 238 237
8 78 79 95 94 222 223 239 238
8 79 64 80 95 223 208 224 239
8 80 81 97 96 224 225 241 240
8 81 82 98 97 225 226 242 241
8 82 83 99 98 226 227 243 242
8 83 84 100 99 227 228 244 243
8 84 85 101 100 228 229 245 244
8 85 86 102 101 229 230 246 245
8 86 87 103 102 230 231 247 246
8 87 88 104 103 231 232 248 247
8 88 89 105 104 232 233 249 248
8 89 90 106 105 233 234 250 249
8 90 91 107 106 234 235 251 250
8 91 92 108 107 235 236 252 251
8 92 93 109 108 236 237 253 252
8 93 94 110 109 237 238 254 253
8 94 95 111 110 238 239 255 254
8 95 80 96 111 239 224 240 255
8 96 97 113 112 240 241 257 256
8 97 98 114 113 241 242 258 257
8 98 99 115 114 242 243 259 258
8 99 100 116 115 243 244 260 259
8 100 101 117 116 244 245 261 260
8 101 102 118 117 245 246 262 261
8 102 103 119 118 246 247 263 262
8 103 104 120 119 247 248 264 263
8 104 105 121 120 248 249 265 264
8 105 106 122 121 249 250 266 265
8 106 107 123 122 250 251 267 266
8 107 108 124 123 251 252 268 267
8 108 109 125 124 252 253 269 268
8 109 110 126 125 253 254 270 269
8 110 111 127 126 254 255 271 270
8 111 96 112 127 255 240 256 271
8 112 113 129 128 256 257 273 272
8 113 114 130 129 257 258 274 273
8 114 115 131 130 258 259 275 274
8 115 116 132 131 259 260 276 275
8 116 117 133 132 260 261 277 276
8 117 118 134 133 261 262 278 277
8 118 119 135 134 262 263 279 278
8 119 120 136 135 263 264 280 279
8 120 121 137 136 264 265 281 280
8 121 122 138 137 265 266 282 281
8 122 123 139 138 266 267 283 282
8 123 124 140 139 267 268 284 283
8 124 125 141 140 268 269 285 284
8 125 126 142 141 269 270 286 285
8 126 127 143 142 270 271 287 286
8 127 112 128 143 271 256 272 287
8 144 145 161 160 288 289 305 304
8 145 146 162 161 289 290 306 305
8 146 147 163 162 290 291 307 306
8 147 148 164 163 291 292 308 307
8 148 149 165 164 292 293 309 308
8 149 150 166 165 293 294 310 309
8 150 151 167 166 294 295 311 310
8 151 152 168 167 295 296 312 311
8 152 153 169 168 296 297 313 312
8 153 154 170 169 297 298 314 313
8 154 155 171 170 298 299 315 314
8 155 156 172 171 299 300 316 315
8 156 157 173 172 300 301 317 316
8 157 158 174 173 301 302 318 317
8 158 159 175 174 302 303 319 318
8 159 144 160 175 303 288 304 319
8 160 161 177 176 304 305 321 320
8 161 162 178 177 305 306 322 321
8 162 163 179 178 306 307 323 322
8 163 164 180 179 307 308 324 323
8 164 165 181 180 308 309 325 324
8 165 166 182 181 309 310 326 325
8 166 167 183 182 310 311 327 326
8 167 168 184 183 311 312 328 327
8 168 169 185 184 312 313 329 328
8 169 170 186 185 313 314 330 329
8 170 171 187 186 314 315 331 330
8 171 172 188 187 315 316 332 331
8 172 173 189 188 316 317 333 332
8 173 174 190 189 317 318 334 333
8 174 175 191 190 318 319 335 334
8 175 160 176 191 319 304 320 335
8 176 177 193 192 320 321 337 336
8 177 178 194 193 321 322 338 337
8 178 179 195 194 322 323 339 338
8 179 180 196 195 323 324 340 339
8 180 181 197 196 324 325 341 340
8 181 182 198 197 325 326 342 341
8 182 183 199 198 326 327 343 342
8 183 184 200 199 327 328 344 343
8 184 185 201 200 328 329 345 344
8 185 186 202 201 329 330 346 345
8 186 187 203 202 330 331 347 346
8 187 188 204 203 331 332 348 347
8 188 189 205 204 332 333 349 348
8 189 190 206 205 333 334 350 349
8 190 191 207 206 334 335 351 350
8 191 176 192 207 335 320 336 351
8 192 193 209 208 336 337 353 352
8 193 194 210 209 337 338 354 353
8 194 195 211 210 338 339 355 354
8 195 196 212 211 339 340 356 355
8 196 197 213 212 340 341 357 356
8 197 198 214 213 341 342 358 357
8 198 199 215 214 342 343 359 358
8 199 200 216 215 343 344 360 359
8 200 201 217 216 344 345 361 360
8 201 202 218 217 345 346 362 361
8 202 203 219 218 346 347 363 362
8 203 204 220 219 347 348 364 363
8 204 205 221 220 348 349 365 364
8 205 206 222 221 349 350 366 365
8 206 207 223 222 350 351 367 366
8 207 192 208 223 351 336 352 367
8 208 209 225 224 352 353 369 368
8 209 210 226 225 353 354 370 369
8 210 211 227 226 354 355 371 370
8 211 212 228 227 355 356 372 371
8 212 213 229 228 356 357 373 372
8 213 214 230 229 357 358 374 373
8 214 215 231 230 358 359 375 374
8 215 216 232 231 359 360 376 375
8 216 217 233 232 360 361 377 376
8 217 218 234 233 361 362 378 377
8 218 219 235 234 362 363 379 378
8 219 220 236 235 363 364 380 379
8 220 221 237 236 364 365 381 380
8 221 222 238 237 365 366 382 381
8 222 223 239 238 366 367 383 382
8 223 208 224 239 367 352 368 383
8 224 225 241 240 368 369 385 384
8 225 226 242 241 369 370 386 385
8 226 227 243 242 370 371 387 386
8 227 228 244 243 371 372 388 387
8 228 229 245 244 372 373 389 388
8 229 230 246 245 373 374 390 389
8 230 231 247 246 374 375 391 390
8 231 232 248 247 375 376 392 391
8 232 233 249 248 376 377 393 392
8 233 234 250 249 377 378 394 393
8 234 235 251 250 378 379 395 394
8 235 236 252 251 379 380 396 395
8 236 237 253 252 380 381 397 396
8 237 238 254 253 381 382 398 397
8 238 239 255 254 382 383 399 398
8 239 224 240 255 383 368 384 399
8 240 241 257 256 384 385 401 400
8 241 242 258 257 385 386 402 401
8 242 243 259 258 386 387 403 402
8 243 244 260 259 387 388 404 403
8 244 245 261 260 388 389 405 404
8 245 246 262 261 389 390 406 405
8 246 247 263 262 390 391 407 406
8 247 248 264 263 391 392 408 407
8 248 249 265 264 392 393 409 408
8 249 250 266 265 393 394 410 409
8 250 251 267 266 394 395 411 410
8 251 252 268 267 395 396 412 411
8 252 253 269 268 396 397 413 412
8 253 254 270 269 397 398 414 413
8 254 255 271 270 398 399 415 414
8 255 240 256 271 399 384 400 415
8 256 257 273 272 400 401 417 416
8 257 258 274 273 401 402 418 417
8 258 259 275 274 402 403 419 418
8 259 260 276 275 403 404 420 419
8 260 261 277 276 404 405 421 420
8 261 262 278 277 405 406 422 421
8 262 263 279 278 406 407 423 422
8 263 264 280 279 407 408 424 423
8 264 265 281 280 408 409 425 424
8 265 266 282 281 409 410 426 425
8 266 267 283 282 410 411 427 426
8 267 268 284 283 411 412 428 427
8 268 269 285 284 412 413 429 428
8 269 270 286 285 413 414 430 429
8 270 271 287 286 414 415 431 430
8 271 256 272 287 415 400 416 431
8 288 289 305 304 432 433 449 448
8 289 290 306 305 433 434 450 449
8 290 291 307 306 434 435 451 450
8 291 292 308 307 435 436 452 451
8 292 293 309 308 436 437 453 452
8 293 294 310 309 437 438 454 453
8 294 295 311 310 438 439 455 454
8 295 296 312 311 439 440 456 455
8 296 297 313 312 440 441 457 456
8 297 298 314 313 441 442 458 457
8 298 299 315 314 442 443 459 458
8 299 300 316 315 443 444 460 459
8 300 301 317 316 444 445 461 460
8 301 302 318 317 445 446 462 461
8 302 303 319 318 446 447 463 462
8 303 288 304 319 447 432 448 463
8 304 305 321 320 448 449 465 464
8 305 306 322 321 449 450 466 465
8 306 307 323 322 450 451 467 466
8 307 308 324 323 451 452 468 467
8 308 309 325 324 452 453 469 468
8 309 310 326 325 453 454 470 469
8 310 311 327 326 454 455 471 470
8 311 312 328 327 455 456 472 471
8 312 313 329 328 456 457 473 472
8 313 314 330 329 457 458 474 473
8 314 315 331 330 458 459 475 474
8 315 316 332 331 459 460 476 475
8 316 317 333 332 460 461 477 476
8 317 318 334 333 461 462 478 477
8 318 319 335 334 462 463 479 478
8 319 304 320 335 463 448 464 479
8 320 321 337 336 464 465 481 480
8 321 322 338 337 465 466 482 481
8 322 323 339 338 466 467 483 482
8 323 324 340 339 467 468 484 483
8 324 325 341 340 468 469 485 484
8 325 326 342 341 469 470 486 485
8 326 327 343 342 470 471 487 486
8 327 328 344 343 471 472 488 487
8 328 329 345 344 472 473 489 488
8 329 330 346 345 473 474 490 489
8 330 331 347 346 474 475 491 490
8 331 332 348 347 475 476 492 491
8 332 333 349 348 476 477 493 492
8 333 334 350 349 477 478 494 493
8 334 335 351 350 478 479 495 494
8 335 320 336 351 479 464 480 495
8 336 337 353 352 480 481 497 496
8 337 338 354 353 481 482 498 497
8 338 339 355 354 482 483 499 498
8 339 340 356 355 483 484 500 499
8 340 341 357 356 484 485 501 500
8 341 342 358 357 485 486 502 501
8 342 343 359 358 486 487 503 502
8 343 344 360 359 487 488 504 503
8 344 345 361 360 488 489 505 504
8 345 346 362 361 489 490 506 505
8 346 347 363 362 490 491 507 506
8 347 348 364 363 491 492 508 507
8 348 349 365 364 492 493 509 508
8 349 350 366 365 493 494 510 509
8 350 351 367 366 494 495 511 510
8 351 336 352 367 495 480 496 511
8 352 353 369 368 496 497 513 512
8 353 354 370 369 497 498 514 513
8 354 355 371 370 498 499 515 514
8 355 356 372 371 499 500 516 515
8 356 357 373 372 500 501 517 516
8 357 358 374 373 501 502 518 517
8 358 359 375 374 502 503 519 518
8 359 360 376 375 503 504 520 519
8 360 361 377 376 504 505 521 520
8 361 362 378 377 505 506 522 521
8 362 363 379 378 506 507 523 522
8 363 364 380 379 507 508 524 523
8 364 365 381 380 508 509 525 524
8 365 366 382 381 509 510 526 525
8 366 367 383 382 510 511 527 526
8 367 352 368 383 511 496 512 527
8 368 369 385 384 512 513 529 528
8 369 370 386 385 513 514 530 529
8 370 371 387 386 514 515 531 530
8 371 372 388 387 515 516 532 531
8 372 373 389 388 516 517 533 532
8 373 374 390 389 517 518 534 533
8 374 375 391 390 518 519 535 534
8 375 376 392 391 519 520 536 535
8 376 377 393 392 520 521 537 536
8 377 378 394 393 521 522 538 537
8 378 379 395 394 522 523 539 538
8 379 380 396 395 523 524 540 539
8 380 381 397 396 524 525 541 540
8 381 382 398 397 525 526 542 541
8 382 383 399 398 526 527 543 542
8 383 368 384 399 527 512 528 543
8 384 385 401 400 528 529 545 544
8 385 386 402 401 529 530 546 545
8 386 387 403 402 530 531 547 546
8 387 388 404 403 531 532 548 547
8 388 389 405 404 532 533 549 548
8 389 390 406 405 533 534 550 549
8 390 391 407 406 534 535 551 550
8 391 392 408 407 535 536 552 551
8 392 393 409 408 536 537 553 552
8 393 394 410 409 537 538 554 553
8 394 395 411 410 538 539 555 554
8 395 396 412 411 539 540 556 555
8 396 397 413 412 540 541 557 556
8 397 398 414 413 541 542 558 557
8 398 399 415 414 542 543 559 558
8 399 384 400 415 543 528 544 559
8 400 401 417 416 544 545 561 560
8 401 402 418 417 545 546 562 561
8 402 403 419 418 546 547 563 562
8 403 404 420 419 547 548 564 563
8 404 405 421 420 548 549 565 564
8 405 406 422 421 549 550 566 565
8 406 407 423 422 550 551 567 566
8 407 408 424 423 551 552 568 567
8 408 409 425 424 552 553 569 568
8 409 410 426 425 553 554 570 569
8 410 411 427 426 554 555 571 570
8 411 412 428 427 555 556 572 571
8 412 413 429 428 556 557 573 572
8 413 414 430 429 557 558 574 573
8 414 415 431 430 558 559 575 574
8 415 400 416 431 559 544 560 575
CELL_TYPES 384
12
12
12
12
12
12
12
12
12
12
12
12
12
12
12
12
12
12
12
12
12
12
12
12
12
12
12
12
12
12
12
12
12
12
12
12
12
12
12
12
12
12
12
12
12
12
12
12
12
12
12
12
12
12
12
12
12
12
12
12
12
12
12
12
12
12
12
12
12
12
12
12
12
12
12
12
12
12
12
12
12
12
12
12
12
12
12
12
12
12
12
12
12
12
12
12
12
12
12
12
12
12
12
12
12
12
12
12
12
12
12
12
12
12
12
12
12
12
12
12
12
12
12
12
12
12
12
12
12
12
12
12
12
12
12
12
12
12
12
12
12
12
12
12
12
12
12
12
12
12
12
12
12
12
12
12
12
12
12
12
12
12
12
12
12
12
12
12
12
12
12
12
12
12
12
12
12
12
12
12
12
12
12
12
12
12
12
12
12
12
12
12
12
12
12
12
12
12
12
12
12
12
12
12
12
12
12
12
12
12
12
12
12
12
12
12
12
12
12
12
12
12
12
12
12
12
12
12
12
12
12
12
12
12
12
12
12
12
12
12
12
12
12
12
12
12
12
12
12
12
12
12
12
12
12
12
12
12
12
12
12
12
12
12
12
12
12
12
12
12
12
12
12
12
12
12
12
12
12
12
12
12
12
12
12
12
12
12
12
12
12
12
12
12
12
12
12
12
12
12
12
12
12
12
12
12
12
12
12
12
12
12
12
12
12
12
12
12
12
12
12
12
12
12
12
12
12
12
12
12
12
12
12
12
12
12
12
12
12
12
12
12
12
12
12
12
12
12
12
12
12
12
12
12
12
12
12
12
12
12
12
12
12
12
12
12
12
12
12
12
12
12
12
12
12
12
12
12
12
12
12
12
12
12
POINT_DATA 576
VECTORS V float
0 0.48 2
-0.183688 0.443462 2
-0.339411 0.339411 2
-0.443462 0.183688 2
-0.48 0 2
-0.443462 -0.183688 2
-0.339411 -0.339411 2
-0.183688 -0.443462 2
0 -0.48 2
0.183688 -0.443462 2
0.339411 -0.339411 2
0.443462 -0.183688 2
0.48 0 2
0.443462 0.183688 2
0.339411 0.339411 2
0.183688 0.443462 2
0 0.48 2
-0.183688 0.443462 2
-0.339411 0.339411 2
-0.443462 0.183688 2
-0.48 0 2
-0.443462 -0.183688 2
-0.339411 -0.339411 2
-0.183688 -0.443462 2
0 -0.48 2
0.183688 -0.443462 2
0.339411 -0.339411 2
0.443462 -0.183688 2
0.48 0 2
0.443462 0.183688 2
0.339411 0.339411 2
0.183688 0.443462 2
0 0.48 2
-0.183688 0.443462 2
-0.339411 0.339411 2
-0.443462 0.183688 2
-0.48 0 2
-0.443462 -0.183688 2
-0.339411 -0.339411 2
-0.183688 -0.443462 2
0 -0.48 2
0.183688 -0.443462 2
0.339411 -0.339411 2
0.443462 -0.183688 2
0.48 0 2
0.443462 0.183688 2
0.339411 0.339411 2
0.183688 0.443462 2
0 0.48 2
-0.183688 0.443462 2
-0.339411 0.339411 2
-0.443462 0.183688 2
-0.48 0 2
-0.443462 -0.183688 2
-0.339411 -0.339411 2
-0.183688 -0.443462 2
0 -0.48 2
0.183688 -0.443462 2
0.339411 -0.339411 2
0.443462 -0.183688 2
0.48 0 2
0.443462 0.183688 2
0.339411 0.339411 2
0.183688 0.443462 2
0 0.48 2
-0.183688 0.443462 2
-0.339411 0.339411 2
-0.443462 0.183688 2
-0.48 0 2
-0.443462 -0.183688 2
-0.339411 -0.339411 2
-0.183688 -0.443462 2
0 -0.48 2
0.183688 -0.443462 2
0.339411 -0.339411 2
0.443462 -0.183688 2
0.48 0 2
0.443462 0.183688 2
0.339411 0.339411 2
0.183688 0.443462 2
0 0.48 2
-0.183688 0.443462 2
-0.339411 0.339411 2
-0.443462 0.183688 2
-0.48 0 2
-0.443462 -0.183688 2
-0.339411 -0.339411 2
-0.183688 -0.443462 2
0 -0.48 2
0.183688 -0.443462 2
0.339411 -0.339411 2
0.443462 -0.183688 2
0.48 0 2
0.443462 0.183688 2
0.339411 0.339411 2
0.183688 0.443462 2
0 0.48 2
-0.183688 0.443462 2
-0.339411 0.339411 2
-0.443462 0.183688 2
-0.48 0 2
-0.443462 -0.183688 2
-0.339411 -0.339411 2
-0.183688 -0.443462 2
0 -0.48 2
0.183688 -0.443462 2
0.339411 -0.339411 2
0.443462 -0.183688 2
0.48 0 2
0.443462 0.183688 2
0.339411 0.339411 2
0.183688 0.443462 2
0 0.48 2
-0.183688 0.443462 2
-0.339411 0.339411 2
-0.443462 0.183688 2
-0.48 0 2
-0.443462 -0.183688 2
-0.339411 -0.339411 2
-0.183688 -0.443462 2
0 -0.48 2
0.183688 -0.443462 2
0.339411 -0.339411 2
0.443462 -0.183688 2
0.48 0 2
0.443462 0.183688 2
0.339411 0.339411 2
0.183688 0.443462 2
0 0.48 2
-0.183688 0.443462 2
-0.339411 0.339411 2
-0.443462 0.183688 2
-0.48 0 2
-0.443462 -0.183688 2
-0.339411 -0.339411 2
-0.183688 -0.443462 2
0 -0.48 2
0.183688 -0.443462 2
0.339411 -0.339411 2
0.443462 -0.183688 2
0.48 0 2
0.443462 0.183688 2
0.339411 0.339411 2
0.183688 0.443462 2
0 1.12 2
-0.428605 1.034745 2
-0.79196 0.79196 2
-1.034745 0.428605 2
-1.12 0 2
-1.034745 -0.428605 2
-0.79196 -0.79196 2
-0.428605 -1.034745 2
0 -1.12 2
0.428605 -1.034745 2
0.79196 -0.79196 2
1.034745 -0.428605 2
1.12 0 2
1.034745 0.428605 2
0.79196 0.79196 2
0.428605 1.034745 2
0 1.12 2
-0.428605 1.034745 2
-0.79196 0.79196 2
-1.034745 0.428605 2
-1.12 0 2
-1.034745 -0.428605 2
-0.79196 -0.79196 2
-0.428605 -1.034745 2
0 -1.12 2
0.428605 -1.034745 2
0.79196 -0.79196 2
1.034745 -0.428605 2
1.12 0 2
1.034745 0.428605 2
0.79196 0.79196 2
0.428605 1.034745 2
0 1.12 2
-0.428605 1.034745 2
-0.79196 0.79196 2
-1.034745 0.428605 2
-1.12 0 2
-1.034745 -0.428605 2
-0.79196 -0.79196 2
-0.428605 -1.034745 2
0 -1.12 2
0.428605 -1.034745 2
0.79196 -0.79196 2
1.034745 -0.428605 2
1.12 0 2
1.034745 0.428605 2
0.79196 0.79196 2
0.428605 1.034745 2
0 1.12 2
-0.428605 1.034745 2
-0.79196 0.79196 2
-1.034745 0.428605 2
-1.12 0 2
-1.034745 -0.428605 2
-0.79196 -0.79196 2
-0.428605 -1.034745 2
0 -1.12 2
0.428605 -1.034745 2
0.79196 -0.79196 2
1.034745 -0.428605 2
1.12 0 2
1.034745 0.428605 2
0.79196 0.79196 2
0.428605 1.034745 2
0 1.12 2
-0.428605 1.034745 2
-0.79196 0.79196 2
-1.034745 0.428605 2
-1.12 0 2
-1.034745 -0.428605 2
-0.79196 -0.79196 2
-0.428605 -1.034745 2
0 -1.12 2
0.428605 -1.034745 2
0.79196 -0.79196 2
1.034745 -0.428605 2
1.12 0 2
1.034745 0.428605 2
0.79196 0.79196 2
0.428605 1.034745 2
0 1.12 2
-0.428605 1.034745 2
-0.79196 0.79196 2
-1.034745 0.428605 2
-1.12 0 2
-1.034745 -0.428605 2
-0.79196 -0.79196 2
-0.428605 -1.034745 2
0 -1.12 2
0.428605 -1.034745 2
0.79196 -0.79196 2
1.034745 -0.428605 2
1.12 0 2
1.034745 0.428605 2
0.79196 0.79196 2
0.428605 1.034745 2
0 1.12 2
-0.428605 1.034745 2
-0.79196 0.79196 2
-1.034745 0.428605 2
-1.12 0 2
-1.034745 -0.428605 2
-0.79196 -0.79196 2
-0.428605 -1.034745 2
0 -1.12 2
0.428605 -1.034745 2
0.79196 -0.79196 2
1.034745 -0.428605 2
1.12 0 2
1.034745 0.428605 2
0.79196 0.79196 2
0.428605 1.034745 2
0 1.12 2
-0.428605 1.034745 2
-0.79196 0.79196 2
-1.034745 0.428605 2
-1.12 0 2
-1.034745 -0.428605 2
-0.79196 -0.79196 2
-0.428605 -1.034745 2
0 -1.12 2
0.428605 -1.034745 2
0.79196 -0.79196 2
1.034745 -0.428605 2
1.12 0 2
1.034745 0.428605 2
0.79196 0.79196 2
0.428605 1.034745 2
0 1.12 2
-0.428605 1.034745 2
-0.79196 0.79196 2
-1.034745 0.428605 2
-1.12 0 2
-1.034745 -0.428605 2
-0.79196 -0.79196 2
-0.428605 -1.034745 2
0 -1.12 2
0.428605 -1.034745 2
0.79196 -0.79196 2
1.034745 -0.428605 2
1.12 0 2
1.034745 0.428605 2
0.79196 0.79196 2
0.428605 1.034745 2
0 1.76 2
-0.673523 1.626028 2
-1.244508 1.244508 2
-1.626028 0.673523 2
-1.76 0 2
-1.626028 -0.673523 2
-1.244508 -1.244508 2
-0.673523 -1.626028 2
0 -1.76 2
0.673523 -1.626028 2
1.244508 -1.244508 2
1.626028 -0.673523 2
1.76 0 2
1.626028 0.673523 2
1.244508 1.244508 2
0.673523 1.626028 2
0 1.76 2
-0.673523 1.626028 2
-1.244508 1.244508 2
-1.626028 0.673523 2
-1.76 0 2
-1.626028 -0.673523 2
-1.244508 -1.244508 2
-0.673523 -1.626028 2
0 -1.76 2
0.673523 -1.626028 2
1.244508 -1.244508 2
1.626028 -0.673523 2
1.76 0 2
1.626028 0.673523 2
1.244508 1.244508 2
0.673523 1.626028 2
0 1.76 2
-0.673523 1.626028 2
-1.244508 1.244508 2
-1.626028 0.673523 2
-1.76 0 2
-1.626028 -0.673523 2
-1.244508 -1.244508 2
-0.673523 -1.626028 2
0 -1.76 2
0.673523 -1.626028 2
1.244508 -1.244508 2
1.626028 -0.673523 2
1.76 0 2
1.626028 0.673523 2
1.244508 1.244508 2
0.673523 1.626028 2
0 1.76 2
-0.673523 1.626028 2
-1.244508 1.244508 2
-1.626028 0.673523 2
-1.76 0 2
-1.626028 -0.673523 2
-1.244508 -1.244508 2
-0.673523 -1.626028 2
0 -1.76 2
0.673523 -1.626028 2
1.244508 -1.244508 2
1.626028 -0.673523 2
1.76 0 2
1.626028 0.673523 2
1.244508 1.244508 2
0.673523 1.626028 2
0 1.76 2
-0.673523 1.626028 2
-1.244508 1.244508 2
-1.626028 0.673523 2
-1.76 0 2
-1.626028 -0.673523 2
-1.244508 -1.244508 2
-0.673523 -1.626028 2
0 -1.76 2
0.673523 -1.626028 2
1.244508 -1.244508 2
1.626028 -0.673523 2
1.76 0 2
1.626028 0.673523 2
1.244508 1.244508 2
0.673523 1.626028 2
0 1.76 2
-0.673523 1.626028 2
-1.244508 1.244508 2
-1.626028 0.673523 2
-1.76 0 2
-1.626028 -0.673523 2
-1.244508 -1.244508 2
-0.673523 -1.626028 2
0 -1.76 2
0.673523 -1.626028 2
1.244508 -1.244508 2
1.626028 -0.673523 2
1.76 0 2
1.626028 0.673523 2
1.244508 1.244508 2
0.673523 1.626028 2
0 1.76 2
-0.673523 1.626028 2
-1.244508 1.244508 2
-1.626028 0.673523 2
-1.76 0 2
-1.626028 -0.673523 2
-1.244508 -1.244508 2
-0.673523 -1.626028 2
0 -1.76 2
0.673523 -1.626028 2
1.244508 -1.244508 2
1.626028 -0.673523 2
1.76 0 2
1.626028 0.673523 2
1.244508 1.244508 2
0.673523 1.626028 2
0 1.76 2
-0.673523 1.626028 2
-1.244508 1.244508 2
-1.626028 0.673523 2
-1.76 0 2
-1.626028 -0.673523 2
-1.244508 -1.244508 2
-0.673523 -1.626028 2
0 -1.76 2
0.673523 -1.626028 2
1.244508 -1.244508 2
1.626028 -0.673523 2
1.76 0 2
1.626028 0.673523 2
1.244508 1.244508 2
0.673523 1.626028 2
0 1.76 2
-0.673523 1.626028 2
-1.244508 1.244508 2
-1.626028 0.673523 2
-1.76 0 2
-1.626028 -0.673523 2
-1.244508 -1.244508 2
-0.673523 -1.626028 2
0 -1.76 2
0.673523 -1.626028 2
1.244508 -1.244508 2
1.626028 -0.673523 2
1.76 0 2
1.626028 0.673523 2
1.244508 1.244508 2
0.673523 1.626028 2
0 2.4 2
-0.91844 2.217311 2
-1.697056 1.697056 2
-2.217311 0.91844 2
-2.4 0 2
-2.217311 -0.91844 2
-1.697056 -1.697056 2
-0.91844 -2.217311 2
0 -2.4 2
0.91844 -2.217311 2
1.697056 -1.697056 2
2.217311 -0.91844 2
2.4 0 2
2.217311 0.91844 2
1.697056 1.697056 2
0.91844 2.217311 2
0 2.4 2
-0.91844 2.217311 2
-1.697056 1.697056 2
-2.217311 0.91844 2
-2.4 0 2
-2.217311 -0.91844 2
-1.697056 -1.697056 2
-0.91844 -2.217311 2
0 -2.4 2
0.91844 -2.217311 2
1.697056 -1.697056 2
2.217311 -0.91844 2
2.4 0 2
2.217311 0.91844 2
1.697056 1.697056 2
0.91844 2.217311 2
0 2.4 2
-0.91844 2.217311 2
-1.697056 1.697056 2
-2.217311 0.91844 2
-2.4 0 2
-2.217311 -0.91844 2
-1.697056 -1.697056 2
-0.91844 -2.217311 2
0 -2.4 2
0.91844 -2.217311 2
1.697056 -1.697056 2
2.217311 -0.91844 2
2.4 0 2
2.217311 0.91844 2
1.697056 1.697056 2
0.91844 2.217311 2
0 2.4 2
-0.91844 2.217311 2
-1.697056 1.697056 2
-2.217311 0.91844 2
-2.4 0 2
-2.217311 -0.91844 2
-1.697056 -1.697056 2
-0.91844 -2.217311 2
0 -2.4 2
0.91844 -2.217311 2
1.697056 -1.697056 2
2.217311 -0.91844 2
2.4 0 2
2.217311 0.91844 2
1.697056 1.697056 2
0.91844 2.217311 2
0 2.4 2
-0.91844 2.217311 2
-1.697056 1.697056 2
-2.217311 0.91844 2
-2.4 0 2
-2.217311 -0.91844 2
-1.697056 -1.697056 2
-0.91844 -2.217311 2
0 -2.4 2
0.91844 -2.217311 2
1.697056 -1.697056 2
2.217311 -0.91844 2
2.4 0 2
2.217311 0.91844 2
1.697056 1.697056 2
0.91844 2.217311 2
0 2.4 2
-0.91844 2.217311 2
-1.697056 1.697056 2
-2.217311 0.91844 2
-2.4 0 2
-2.217311 -0.91844 2
-1.697056 -1.697056 2
-0.91844 -2.217311 2
0 -2.4 2
0.91844 -2.217311 2
1.697056 -1.697056 2
2.217311 -0.91844 2
2.4 0 2
2.217311 0.91844 2
1.697056 1.697056 2
0.91844 2.217311 2
0 2.4 2
-0.91844 2.217311 2
-1.697056 1.697056 2
-2.217311 0.91844 2
-2.4 0 2
-2.217311 -0.91844 2
-1.697056 -1.697056 2
-0.91844 -2.217311 2
0 -2.4 2
0.91844 -2.217311 2
1.697056 -1.697056 2
2.217311 -0.91844 2
2.4 0 2
2.217311 0.91844 2
1.697056 1.697056 2
0.91844 2.217311 2
0 2.4 2
-0.91844 2.217311 2
-1.697056 1.697056 2
-2.217311 0.91844 2
-2.4 0 2
-2.217311 -0.91844 2
-1.697056 -1.697056 2
-0.91844 -2.217311 2
0 -2.4 2
0.91844 -2.217311 2
1.697056 -1.697056 2
2.217311 -0.91844 2
2.4 0 2
2.217311 0.91844 2
1.697056 1.697056 2
0.91844 2.217311 2
0 2.4 2
-0.91844 2.217311 2
-1.697056 1.697056 2
-2.217311 0.91844 2
-2.4 0 2
-2.217311 -0.91844 2
-1.697056 -1.697056 2
-0.91844 -2.217311 2
0 -2.4 2
0.91844 -2.217311 2
1.697056 -1.697056 2
2.217311 -0.91844 2
2.4 0 2
2.217311 0.91844 2
1.697056 1.697056 2
0.91844 2.217311 2
SCALARS Pressure float
LOOKUP_TABLE default
120
120
120
120
120
120
120
120
120
120
120
120
120
120
120
120
117.6
117.6
117.6
117.6
117.6
117.6
117.6
117.6
117.6
117.6
117.6
117.6
117.6
117.6
117.6
117.6
115.2
115.2
115.2
115.2
115.2
115.2
115.2
115.2
115.2
115.2
115.2
115.2
115.2
115.2
115.2
115.2
112.8
112.8
112.8
112.8
112.8
112.8
112.8
112.8
112.8
112.8
112.8
112.8
112.8
112.8
112.8
112.8
110.4
110.4
110.4
110.4
110.4
110.4
110.4
110.4
110.4
110.4
110.4
110.4
110.4
110.4
110.4
110.4
108
108
108
108
108
108
108
108
108
108
108
108
108
108
108
108
105.6
105.6
105.6
105.6
105.6
105.6
105.6
105.6
105.6
105.6
105.6
105.6
105.6
105.6
105.6
105.6
103.2
103.2
103.2
103.2
103.2
103.2
103.2
103.2
103.2
103.2
103.2
103.2
103.2
103.2
103.2
103.2
100.8
100.8
100.8
100.8
100.8
100.8
100.8
100.8
100.8
100.8
100.8
100.8
100.8
100.8
100.8
100.8
120
120
120
120
120
120
120
120
120
120
120
120
120
120
120
120
117.6
117.6
117.6
117.6
117.6
117.6
117.6
117.6
117.6
117.6
117.6
117.6
117.6
117.6
117.6
117.6
115.2
115.2
115.2
115.2
115.2
115.2
115.2
115.2
115.2
115.2
115.2
115.2
115.2
115.2
115.2
115.2
112.8
112.8
112.8
112.8
112.8
112.8
112.8
112.8
112.8
112.8
112.8
112.8
112.8
112.8
112.8
112.8
110.4
110.4
110.4
110.4
110.4
110.4
110.4
110.4
110.4
110.4
110.4
110.4
110.4
110.4
110.4
110.4
108
108
108
108
108
108
108
108
108
108
108
108
108
108
108
108
105.6
105.6
105.6
105.6
105.6
105.6
105.6
105.6
105.6
105.6
105.6
105.6
105.6
105.6
105.6
105.6
103.2
103.2
103.2
103.2
103.2
103.2
103.2
103.2
103.2
103.2
103.2
103.2
103.2
103.2
103.2
103.2
100.8
100.8
100.8
100.8
100.8
100.8
100.8
100.8
100.8
100.8
100.8
100.8
100.8
100.8
100.8
100.8
120
120
120
120
120
120
120
120
120
120
120
120
120
120
120
120
117.6
117.6
117.6
117.6
117.6
117.6
117.6
117.6
117.6
117.6
117.6
117.6
117.6
117.6
117.6
117.6
115.2
115.2
115.2
115.2
115.2
115.2
115.2
115.2
115.2
115.2
115.2
115.2
115.2
115.2
115.2
115.2
112.8
112.8
112.8
112.8
112.8
112.8
112.8
112.8
112.8
112.8
112.8
112.8
112.8
112.8
112.8
112.8
110.4
110.4
110.4
110.4
110.4
110.4
110.4
110.4
110.4
110.4
110.4
110.4
110.4
110.4
110.4
110.4
108
108
108
108
108
108
108
108
108
108
108
108
108
108
108
108
105.6
105.6
105.6
105.6
105.6
105.6
105.6
105.6
105.6
105.6
105.6
105.6
105.6
105.6
105.6
105.6
103.2
103.2
103.2
103.2
103.2
103.2
103.2
103.2
103.2
103.2
103.2
103.2
103.2
103.2
103.2
103.2
100.8
100.8
100.8
100.8
100.8
100.8
100.8
100.8
100.8
100.8
100.8
100.8
100.8
100.8
100.8
100.8
120
120
120
120
120
120
120
120
120
120
120
120
120
120
120
120
117.6
117.6
117.6
117.6
117.6
117.6
117.6
117.6
117.6
117.6
117.6
117.6
117.6
117.6
117.6
117.6
115.2
115.2
115.2
115.2
115.2
115.2
115.2
115.2
115.2
115.2
115.2
115.2
115.2
115.2
115.2
115.2
112.8
112.8
112.8
112.8
112.8
112.8
112.8
112.8
112.8
112.8
112.8
112.8
112.8
112.8
112.8
112.8
110.4
110.4
110.4
110.4
110.4
110.4
110.4
110.4
110.4
110.4
110.4
110.4
110.4
110.4
110.4
110.4
108
108
108
108
108
108
108
108
108
108
108
108
108
108
108
108
105.6
105.6
105.6
105.6
105.6
105.6
105.6
105.6
105.6
105.6
105.6
105.6
105.6
105.6
105.6
105.6
103.2
103.2
103.2
103.2
103.2
103.2
103.2
103.2
103.2
103.2
103.2
103.2
103.2
103.2
103.2
103.2
100.8
100.8
100.8
100.8
100.8
100.8
100.8
100.8
100.8
100.8
100.8
100.8
100.8
100.8
100.8
100.8
CELL_DATA 384
VECTORS cellV float
-0.153073 0.769552 2
-0.435916 0.652395 2
-0.652395 0.435916 2
-0.769552 0.153073 2
-0.769552 -0.153073 2
-0.652395 -0.435916 2
-0.435916 -0.652395 2
-0.153073 -0.769552 2
0.153073 -0.769552 2
0.435916 -0.652395 2
0.652395 -0.435916 2
0.769552 -0.153073 2
0.769552 0.153073 2
0.652395 0.435916 2
0.435916 0.652395 2
0.153073 0.769552 2
-0.153073 0.769552 2
-0.435916 0.652395 2
-0.652395 0.435916 2
-0.769552 0.153073 2
-0.769552 -0.153073 2
-0.652395 -0.435916 2
-0.435916 -0.652395 2
-0.153073 -0.769552 2
0.153073 -0.769552 2
0.435916 -0.652395 2
0.652395 -0.435916 2
0.769552 -0.153073 2
0.769552 0.153073 2
0.652395 0.435916 2
0.435916 0.652395 2
0.153073 0.769552 2
-0.153073 0.769552 2
-0.435916 0.652395 2
-0.652395 0.435916 2
-0.769552 0.153073 2
-0.769552 -0.153073 2
-0.652395 -0.435916 2
-0.435916 -0.652395 2
-0.153073 -0.769552 2
0.153073 -0.769552 2
0.435916 -0.652395 2
0.652395 -0.435916 2
0.769552 -0.153073 2
0.769552 0.153073 2
0.652395 0.435916 2
0.435916 0.652395 2
0.153073 0.769552 2
-0.153073 0.769552 2
-0.435916 0.652395 2
-0.652395 0.435916 2
-0.769552 0.153073 2
-0.769552 -0.153073 2
-0.652395 -0.435916 2
-0.435916 -0.652395 2
-0.153073 -0.769552 2
0.153073 -0.769552 2
0.435916 -0.652395 2
0.652395 -0.435916 2
0.769552 -0.153073 2
0.769552 0.153073 2
0.652395 0.435916 2
0.435916 0.652395 2
0.153073 0.769552 2
-0.153073 0.769552 2
-0.435916 0.652395 2
-0.652395 0.435916 2
-0.769552 0.153073 2
-0.769552 -0.153073 2
-0.652395 -0.435916 2
-0.435916 -0.652395 2
-0.153073 -0.769552 2
0.153073 -0.769552 2
0.435916 -0.652395 2
0.652395 -0.435916 2
0.769552 -0.153073 2
0.769552 0.153073 2
0.652395 0.435916 2
0.435916 0.652395 2
0.153073 0.769552 2
-0.153073 0.769552 2
-0.435916 0.652395 2
-0.652395 0.435916 2
-0.769552 0.153073 2
-0.769552 -0.153073 2
-0.652395 -0.435916 2
-0.435916 -0.652395 2
-0.153073 -0.769552 2
0.153073 -0.769552 2
0.435916 -0.652395 2
0.652395 -0.435916 2
0.769552 -0.153073 2
0.769552 0.153073 2
0.652395 0.435916 2
0.435916 0.652395 2
0.153073 0.769552 2
-0.153073 0.769552 2
-0.435916 0.652395 2
-0.652395 0.435916 2
-0.769552 0.153073 2
-0.769552 -0.153073 2
-0.652395 -0.435916 2
-0.435916 -0.652395 2
-0.153073 -0.769552 2
0.153073 -0.769552 2
0.435916 -0.652395 2
0.652395 -0.435916 2
0.769552 -0.153073 2
0.769552 0.153073 2
0.652395 0.435916 2
0.435916 0.652395 2
0.153073 0.769552 2
-0.153073 0.769552 2
-0.435916 0.652395 2
-0.652395 0.435916 2
-0.769552 0.153073 2
-0.769552 -0.153073 2
-0.652395 -0.435916 2
-0.435916 -0.652395 2
-0.153073 -0.769552 2
0.153073 -0.769552 2
0.435916 -0.652395 2
0.652395 -0.435916 2
0.769552 -0.153073 2
0.769552 0.153073 2
0.652395 0.435916 2
0.435916 0.652395 2
0.153073 0.769552 2
-0.275532 1.385193 2
-0.784649 1.17431 2
-1.17431 0.784649 2
-1.385193 0.275532 2
-1.385193 -0.275532 2
-1.17431 -0.784649 2
-0.784649 -1.17431 2
-0.275532 -1.385193 2
0.275532 -1.385193 2
0.784649 -1.17431 2
1.17431 -0.784649 2
1.385193 -0.275532 2
1.385193 0.275532 2
1.17431 0.784649 2
0.784649 1.17431 2
0.275532 1.385193 2
-0.275532 1.385193 2
-0.784649 1.17431 2
-1.17431 0.784649 2
-1.385193 0.275532 2
-1.385193 -0.275532 2
-1.17431 -0.784649 2
-0.784649 -1.17431 2
-0.275532 -1.385193 2
0.275532 -1.385193 2
0.784649 -1.17431 2
1.17431 -0.784649 2
1.385193 -0.275532 2
1.385193 0.275532 2
1.17431 0.784649 2
0.784649 1.17431 2
0.275532 1.385193 2
-0.275532 1.385193 2
-0.784649 1.17431 2
-1.17431 0.784649 2
-1.385193 0.275532 2
-1.385193 -0.275532 2
-1.17431 -0.784649 2
-0.784649 -1.17431 2
-0.275532 -1.385193 2
0.275532 -1.385193 2
0.784649 -1.17431 2
1.17431 -0.784649 2
1.385193 -0.275532 2
1.385193 0.275532 2
1.17431 0.784649 2
0.784649 1.17431 2
0.275532 1.385193 2
-0.275532 1.385193 2
-0.784649 1.17431 2
-1.17431 0.784649 2
-1.385193 0.275532 2
-1.385193 -0.275532 2
-1.17431 -0.784649 2
-0.784649 -1.17431 2
-0.275532 -1.385193 2
0.275532 -1.385193 2
0.784649 -1.17431 2
1.17431 -0.784649 2
1.385193 -0.275532 2
1.385193 0.275532 2
1.17431 0.784649 2
0.784649 1.17431 2
0.275532 1.385193 2
-0.275532 1.385193 2
-0.784649 1.17431 2
-1.17431 0.784649 2
-1.385193 0.275532 2
-1.385193 -0.275532 2
-1.17431 -0.784649 2
-0.784649 -1.17431 2
-0.275532 -1.385193 2
0.275532 -1.385193 2
0.784649 -1.17431 2
1.17431 -0.784649 2
1.385193 -0.275532 2
1.385193 0.275532 2
1.17431 0.784649 2
0.784649 1.17431 2
0.275532 1.385193 2
-0.275532 1.385193 2
-0.784649 1.17431 2
-1.17431 0.784649 2
-1.385193 0.275532 2
-1.385193 -0.275532 2
-1.17431 -0.784649 2
-0.784649 -1.17431 2
-0.275532 -1.385193 2
0.275532 -1.385193 2
0.784649 -1.17431 2
1.17431 -0.784649 2
1.385193 -0.275532 2
1.385193 0.275532 2
1.17431 0.784649 2
0.784649 1.17431 2
0.275532 1.385193 2
-0.275532 1.385193 2
-0.784649 1.17431 2
-1.17431 0.784649 2
-1.385193 0.275532 2
-1.385193 -0.275532 2
-1.17431 -0.784649 2
-0.784649 -1.17431 2
-0.275532 -1.385193 2
0.275532 -1.385193 2
0.784649 -1.17431 2
1.17431 -0.784649 2
1.385193 -0.275532 2
1.385193 0.275532 2
1.17431 0.784649 2
0.784649 1.17431 2
0.275532 1.385193 2
-0.275532 1.385193 2
-0.784649 1.17431 2
-1.17431 0.784649 2
-1.385193 0.275532 2
-1.385193 -0.275532 2
-1.17431 -0.784649 2
-0.784649 -1.17431 2
-0.275532 -1.385193 2
0.275532 -1.385193 2
0.784649 -1.17431 2
1.17431 -0.784649 2
1.385193 -0.275532 2
1.385193 0.275532 2
1.17431 0.784649 2
0.784649 1.17431 2
0.275532 1.385193 2
-0.397991 2.000835 2
-1.133382 1.696226 2
-1.696226 1.133382 2
-2.000835 0.397991 2
-2.000835 -0.397991 2
-1.696226 -1.133382 2
-1.133382 -1.696226 2
-0.397991 -2.000835 2
0.397991 -2.000835 2
1.133382 -1.696226 2
1.696226 -1.133382 2
2.000835 -0.397991 2
2.000835 0.397991 2
1.696226 1.133382 2
1.133382 1.696226 2
0.397991 2.000835 2
-0.397991 2.000835 2
-1.133382 1.696226 2
-1.696226 1.133382 2
-2.000835 0.397991 2
-2.000835 -0.397991 2
-1.696226 -1.133382 2
-1.133382 -1.696226 2
-0.397991 -2.000835 2
0.397991 -2.000835 2
1.133382 -1.696226 2
1.696226 -1.133382 2
2.000835 -0.397991 2
2.000835 0.397991 2
1.696226 1.133382 2
1.133382 1.696226 2
0.397991 2.000835 2
-0.397991 2.000835 2
-1.133382 1.696226 2
-1.696226 1.133382 2
-2.000835 0.397991 2
-2.000835 -0.397991 2
-1.696226 -1.133382 2
-1.133382 -1.696226 2
-0.397991 -2.000835 2
0.397991 -2.000835 2
1.133382 -1.696226 2
1.696226 -1.133382 2
2.000835 -0.397991 2
2.000835 0.397991 2
1.696226 1.133382 2
1.133382 1.696226 2
0.397991 2.000835 2
-0.397991 2.000835 2
-1.133382 1.696226 2
-1.696226 1.133382 2
-2.000835 0.397991 2
-2.000835 -0.397991 2
-1.696226 -1.133382 2
-1.133382 -1.696226 2
-0.397991 -2.000835 2
0.397991 -2.000835 2
1.133382 -1.696226 2
1.696226 -1.133382 2
2.000835 -0.397991 2
2.000835 0.397991 2
1.696226 1.133382 2
1.133382 1.696226 2
0.397991 2.000835 2
-0.397991 2.000835 2
-1.133382 1.696226 2
-1.696226 1.133382 2
-2.000835 0.397991 2
-2.000835 -0.397991 2
-1.696226 -1.133382 2
-1.133382 -1.696226 2
-0.397991 -2.000835 2
0.397991 -2.000835 2
1.133382 -1.696226 2
1.696226 -1.133382 2
2.000835 -0.397991 2
2.000835 0.397991 2
1.696226 1.133382 2
1.133382 1.696226 2
0.397991 2.000835 2
-0.397991 2.000835 2
-1.133382 1.696226 2
-1.696226 1.133382 2
-2.000835 0.397991 2
-2.000835 -0.397991 2
-1.696226 -1.133382 2
-1.133382 -1.696226 2
-0.397991 -2.000835 2
0.397991 -2.000835 2
1.133382 -1.696226 2
1.696226 -1.133382 2
2.000835 -0.397991 2
2.000835 0.397991 2
1.696226 1.133382 2
1.133382 1.696226 2
0.397991 2.000835 2
-0.397991 2.000835 2
-1.133382 1.696226 2
-1.696226 1.133382 2
-2.000835 0.397991 2
-2.000835 -0.397991 2
-1.696226 -1.133382 2
-1.133382 -1.696226 2
-0.397991 -2.000835 2
0.397991 -2.000835 2
1.133382 -1.696226 2
1.696226 -1.133382 2
2.000835 -0.397991 2
2.000835 0.397991 2
1.696226 1.133382 2
1.133382 1.696226 2
0.397991 2.000835 2
-0.397991 2.000835 2
-1.133382 1.696226 2
-1.696226 1.133382 2
-2.000835 0.397991 2
-2.000835 -0.397991 2
-1.696226 -1.133382 2
-1.133382 -1.696226 2
-0.397991 -2.000835 2
0.397991 -2.000835 2
1.133382 -1.696226 2
1.696226 -1.133382 2
2.000835 -0.397991 2
2.000835 0.397991 2
1.696226 1.133382 2
1.133382 1.696226 2
0.397991 2.000835 2
SCALARS cellStress float
LOOKUP_TABLE default
0.4
0.4
0.4
0.4
0.4
0.4
0.4
0.4
0.4
0.4
0.4
0.4
0.4
0.4
0.4
0.4
0.4
0.4
0.4
0.4
0.4
0.4
0.4
0.4
0.4
0.4
0.4
0.4
0.4
0.4
0.4
0.4
0.4
0.4
0.4
0.4
0.4
0.4
0.4
0.4
0.4
0.4
0.4
0.4
0.4
0.4
0.4
0.4
0.4
0.4
0.4
0.4
0.4
0.4
0.4
0.4
0.4
0.4
0.4
0.4
0.4
0.4
0.4
0.4
0.4
0.4
0.4
0.4
0.4
0.4
0.4
0.4
0.4
0.4
0.4
0.4
0.4
0.4
0.4
0.4
0.4
0.4
0.4
0.4
0.4
0.4
0.4
0.4
0.4
0.4
0.4
0.4
0.4
0.4
0.4
0.4
0.4
0.4
0.4
0.4
0.4
0.4
0.4
0.4
0.4
0.4
0.4
0.4
0.4
0.4
0.4
0.4
0.4
0.4
0.4
0.4
0.4
0.4
0.4
0.4
0.4
0.4
0.4
0.4
0.4
0.4
0.4
0.4
0.56
0.56
0.56
0.56
0.56
0.56
0.56
0.56
0.56
0.56
0.56
0.56
0.56
0.56
0.56
0.56
0.56
0.56
0.56
0.56
0.56
0.56
0.56
0.56
0.56
0.56
0.56
0.56
0.56
0.56
0.56
0.56
0.56
0.56
0.56
0.56
0.56
0.56
0.56
0.56
0.56
0.56
0.56
0.56
0.56
0.56
0.56
0.56
0.56
0.56
0.56
0.56
0.56
0.56
0.56
0.56
0.56
0.56
0.56
0.56
0.56
0.56
0.56
0.56
0.56
0.56
0.56
0.56
0.56
0.56
0.56
0.56
0.56
0.56
0.56
0.56
0.56
0.56
0.56
0.56
0.56
0.56
0.56
0.56
0.56
0.56
0.56
0.56
0.56
0.56
0.56
0.56
0.56
0.56
0.56
0.56
0.56
0.56
0.56
0.56
0.56
0.56
0.56
0.56
0.56
0.56
0.56
0.56
0.56
0.56
0.56
0.56
0.56
0.56
0.56
0.56
0.56
0.56
0.56
0.56
0.56
0.56
0.56
0.56
0.56
0.56
0.56
0.56
0.72
0.72
0.72
0.72
0.72
0.72
0.72
0.72
0.72
0.72
0.72
0.72
0.72
0.72
0.72
0.72
0.72
0.72
0.72
0.72
0.72
0.72
0.72
0.72
0.72
0.72
0.72
0.72
0.72
0.72
0.72
0.72
0.72
0.72
0.72
0.72
0.72
0.72
0.72
0.72
0.72
0.72
0.72
0.72
0.72
0.72
0.72
0.72
0.72
0.72
0.72
0.72
0.72
0.72
0.72
0.72
0.72
0.72
0.72
0.72
0.72
0.72
0.72
0.72
0.72
0.72
0.72
0.72
0.72
0.72
0.72
0.72
0.72
0.72
0.72
0.72
0.72
0.72
0.72
0.72
0.72
0.72
0.72
0.72
0.72
0.72
0.72
0.72
0.72
0.72
0.72
0.72
0.72
0.72
0.72
0.72
0.72
0.72
0.72
0.72
0.72
0.72
0.72
0.72
0.72
0.72
0.72
0.72
0.72
0.72
0.72
0.72
0.72
0.72
0.72
0.72
0.72
0.72
0.72
0.72
0.72
0.72
0.72
0.72
0.72
0.72
0.72
0.72
