# vtk DataFile Version 3.0
AI-generated test model (ExtractComponent) - 90-degree bend pipe
ASCII
DATASET UNSTRUCTURED_GRID
POINTS 210 float
3 0 0
2.847214 0 0.470228
2.447214 0 0.760845
1.952786 0 0.760845
1.552786 0 0.470228
1.4 0 0
1.552786 0 -0.470228
1.952786 0 -0.760845
2.447214 0 -0.760845
2.847214 0 -0.470228
2.897777 0.776457 0
2.750197 0.736913 0.470228
2.363827 0.633385 0.760845
1.886247 0.505418 0.760845
1.499876 0.401891 0.470228
1.352296 0.362347 0
1.499876 0.401891 -0.470228
1.886247 0.505418 -0.760845
2.363827 0.633385 -0.760845
2.750197 0.736913 -0.470228
2.598076 1.5 0
2.465759 1.423607 0.470228
2.119349 1.223607 0.760845
1.691163 0.976393 0.760845
1.344752 0.776393 0.470228
1.212436 0.7 0
1.344752 0.776393 -0.470228
1.691163 0.976393 -0.760845
2.119349 1.223607 -0.760845
2.465759 1.423607 -0.470228
2.12132 2.12132 0
2.013284 2.013284 0.470228
1.730441 1.730441 0.760845
1.380829 1.380829 0.760845
1.097986 1.097986 0.470228
0.989949 0.989949 0
1.097986 1.097986 -0.470228
1.380829 1.380829 -0.760845
1.730441 1.730441 -0.760845
2.013284 2.013284 -0.470228
1.5 2.598076 0
1.423607 2.465759 0.470228
1.223607 2.119349 0.760845
0.976393 1.691163 0.760845
0.776393 1.344752 0.470228
0.7 1.212436 0
0.776393 1.344752 -0.470228
0.976393 1.691163 -0.760845
1.223607 2.119349 -0.760845
1.423607 2.465759 -0.470228
0.776457 2.897777 0
0.736913 2.750197 0.470228
0.633385 2.363827 0.760845
0.505418 1.886247 0.760845
0.401891 1.499876 0.470228
0.362347 1.352296 0
0.401891 1.499876 -0.470228
0.505418 1.886247 -0.760845
0.633385 2.363827 -0.760845
0.736913 2.750197 -0.470228
0 3 0
0 2.847214 0.470228
0 2.447214 0.760845
0 1.952786 0.760845
0 1.552786 0.470228
0 1.4 0
0 1.552786 -0.470228
0 1.952786 -0.760845
0 2.447214 -0.760845
0 2.847214 -0.470228
3.25 0 0
3.049468 0 0.617175
2.524468 0 0.998609
1.875532 0 0.998609
1.350532 0 0.617175
1.15 0 0
1.350532 0 -0.617175
1.875532 0 -0.998609
2.524468 0 -0.998609
3.049468 0 -0.617175
3.139259 0.841162 0
2.94556 0.78926 0.617175
2.438449 0.65338 0.998609
1.811625 0.485423 0.998609
1.304514 0.349543 0.617175
1.110815 0.297642 0
1.304514 0.349543 -0.617175
1.811625 0.485423 -0.998609
2.438449 0.65338 -0.998609
2.94556 0.78926 -0.617175
2.814583 1.625 0
2.640917 1.524734 0.617175
2.186253 1.262234 0.998609
1.624258 0.937766 0.998609
1.169595 0.675266 0.617175
0.995929 0.575 0
1.169595 0.675266 -0.617175
1.624258 0.937766 -0.998609
2.186253 1.262234 -0.998609
2.640917 1.524734 -0.617175
2.298097 2.298097 0
2.156299 2.156299 0.617175
1.785068 1.785068 0.998609
1.326202 1.326202 0.998609
0.95497 0.95497 0.617175
0.813173 0.813173 0
0.95497 0.95497 -0.617175
1.326202 1.326202 -0.998609
1.785068 1.785068 -0.998609
2.156299 2.156299 -0.617175
1.625 2.814583 0
1.524734 2.640917 0.617175
1.262234 2.186253 0.998609
0.937766 1.624258 0.998609
0.675266 1.169595 0.617175
0.575 0.995929 0
0.675266 1.169595 -0.617175
0.937766 1.624258 -0.998609
1.262234 2.186253 -0.998609
1.524734 2.640917 -0.617175
0.841162 3.139259 0
0.78926 2.94556 0.617175
0.65338 2.438449 0.998609
0.485423 1.811625 0.998609
0.349543 1.304514 0.617175
0.297642 1.110815 0
0.349543 1.304514 -0.617175
0.485423 1.811625 -0.998609
0.65338 2.438449 -0.998609
0.78926 2.94556 -0.617175
0 3.25 0
0 3.049468 0.617175
0 2.524468 0.998609
0 1.875532 0.998609
0 1.350532 0.617175
0 1.15 0
0 1.350532 -0.617175
0 1.875532 -0.998609
0 2.524468 -0.998609
0 3.049468 -0.617175
3.5 0 0
3.251722 0 0.764121
2.601722 0 1.236373
1.798278 0 1.236373
1.148278 0 0.764121
0.9 0 0
1.148278 0 -0.764121
1.798278 0 -1.236373
2.601722 0 -1.236373
3.251722 0 -0.764121
3.38074 0.905867 0
3.140922 0.841608 0.764121
2.513071 0.673375 1.236373
1.737003 0.465429 1.236373
1.109151 0.297196 0.764121
0.869333 0.232937 0
1.109151 0.297196 -0.764121
1.737003 0.465429 -1.236373
2.513071 0.673375 -1.236373
3.140922 0.841608 -0.764121
3.031089 1.75 0
2.816074 1.625861 0.764121
2.253157 1.300861 1.236373
1.557354 0.899139 1.236373
0.994438 0.574139 0.764121
0.779423 0.45 0
0.994438 0.574139 -0.764121
1.557354 0.899139 -1.236373
2.253157 1.300861 -1.236373
2.816074 1.625861 -0.764121
2.474874 2.474874 0
2.299315 2.299315 0.764121
1.839695 1.839695 1.236373
1.271575 1.271575 1.236373
0.811955 0.811955 0.764121
0.636396 0.636396 0
0.811955 0.811955 -0.764121
1.271575 1.271575 -1.236373
1.839695 1.839695 -1.236373
2.299315 2.299315 -0.764121
1.75 3.031089 0
1.625861 2.816074 0.764121
1.300861 2.253157 1.236373
0.899139 1.557354 1.236373
0.574139 0.994438 0.764121
0.45 0.779423 0
0.574139 0.994438 -0.764121
0.899139 1.557354 -1.236373
1.300861 2.253157 -1.236373
1.625861 2.816074 -0.764121
0.905867 3.38074 0
0.841608 3.140922 0.764121
0.673375 2.513071 1.236373
0.465429 1.737003 1.236373
0.297196 1.109151 0.764121
0.232937 0.869333 0
0.297196 1.109151 -0.764121
0.465429 1.737003 -1.236373
0.673375 2.513071 -1.236373
0.841608 3.140922 -0.764121
0 3.5 0
0 3.251722 0.764121
0 2.601722 1.236373
0 1.798278 1.236373
0 1.148278 0.764121
0 0.9 0
0 1.148278 -0.764121
0 1.798278 -1.236373
0 2.601722 -1.236373
0 3.251722 -0.764121
CELLS 720 3600
4 0 1 11 81
4 0 11 10 81
4 0 10 80 81
4 0 70 80 81
4 0 70 71 81
4 0 71 1 81
4 1 2 12 82
4 1 12 11 82
4 1 11 81 82
4 1 71 81 82
4 1 71 72 82
4 1 72 2 82
4 2 3 13 83
4 2 13 12 83
4 2 12 82 83
4 2 72 82 83
4 2 72 73 83
4 2 73 3 83
4 3 4 14 84
4 3 14 13 84
4 3 13 83 84
4 3 73 83 84
4 3 73 74 84
4 3 74 4 84
4 4 5 15 85
4 4 15 14 85
4 4 14 84 85
4 4 74 84 85
4 4 74 75 85
4 4 75 5 85
4 5 6 16 86
4 5 16 15 86
4 5 15 85 86
4 5 75 85 86
4 5 75 76 86
4 5 76 6 86
4 6 7 17 87
4 6 17 16 87
4 6 16 86 87
4 6 76 86 87
4 6 76 77 87
4 6 77 7 87
4 7 8 18 88
4 7 18 17 88
4 7 17 87 88
4 7 77 87 88
4 7 77 78 88
4 7 78 8 88
4 8 9 19 89
4 8 19 18 89
4 8 18 88 89
4 8 78 88 89
4 8 78 79 89
4 8 79 9 89
4 9 0 10 80
4 9 10 19 80
4 9 19 89 80
4 9 79 89 80
4 9 79 70 80
4 9 70 0 80
4 10 11 21 91
4 10 21 20 91
4 10 20 90 91
4 10 80 90 91
4 10 80 81 91
4 10 81 11 91
4 11 12 22 92
4 11 22 21 92
4 11 21 91 92
4 11 81 91 92
4 11 81 82 92
4 11 82 12 92
4 12 13 23 93
4 12 23 22 93
4 12 22 92 93
4 12 82 92 93
4 12 82 83 93
4 12 83 13 93
4 13 14 24 94
4 13 24 23 94
4 13 23 93 94
4 13 83 93 94
4 13 83 84 94
4 13 84 14 94
4 14 15 25 95
4 14 25 24 95
4 14 24 94 95
4 14 84 94 95
4 14 84 85 95
4 14 85 15 95
4 15 16 26 96
4 15 26 25 96
4 15 25 95 96
4 15 85 95 96
4 15 85 86 96
4 15 86 16 96
4 16 17 27 97
4 16 27 26 97
4 16 26 96 97
4 16 86 96 97
4 16 86 87 97
4 16 87 17 97
4 17 18 28 98
4 17 28 27 98
4 17 27 97 98
4 17 87 97 98
4 17 87 88 98
4 17 88 18 98
4 18 19 29 99
4 18 29 28 99
4 18 28 98 99
4 18 88 98 99
4 18 88 89 99
4 18 89 19 99
4 19 10 20 90
4 19 20 29 90
4 19 29 99 90
4 19 89 99 90
4 19 89 80 90
4 19 80 10 90
4 20 21 31 101
4 20 31 30 101
4 20 30 100 101
4 20 90 100 101
4 20 90 91 101
4 20 91 21 101
4 21 22 32 102
4 21 32 31 102
4 21 31 101 102
4 21 91 101 102
4 21 91 92 102
4 21 92 22 102
4 22 23 33 103
4 22 33 32 103
4 22 32 102 103
4 22 92 102 103
4 22 92 93 103
4 22 93 23 103
4 23 24 34 104
4 23 34 33 104
4 23 33 103 104
4 23 93 103 104
4 23 93 94 104
4 23 94 24 104
4 24 25 35 105
4 24 35 34 105
4 24 34 104 105
4 24 94 104 105
4 24 94 95 105
4 24 95 25 105
4 25 26 36 106
4 25 36 35 106
4 25 35 105 106
4 25 95 105 106
4 25 95 96 106
4 25 96 26 106
4 26 27 37 107
4 26 37 36 107
4 26 36 106 107
4 26 96 106 107
4 26 96 97 107
4 26 97 27 107
4 27 28 38 108
4 27 38 37 108
4 27 37 107 108
4 27 97 107 108
4 27 97 98 108
4 27 98 28 108
4 28 29 39 109
4 28 39 38 109
4 28 38 108 109
4 28 98 108 109
4 28 98 99 109
4 28 99 29 109
4 29 20 30 100
4 29 30 39 100
4 29 39 109 100
4 29 99 109 100
4 29 99 90 100
4 29 90 20 100
4 30 31 41 111
4 30 41 40 111
4 30 40 110 111
4 30 100 110 111
4 30 100 101 111
4 30 101 31 111
4 31 32 42 112
4 31 42 41 112
4 31 41 111 112
4 31 101 111 112
4 31 101 102 112
4 31 102 32 112
4 32 33 43 113
4 32 43 42 113
4 32 42 112 113
4 32 102 112 113
4 32 102 103 113
4 32 103 33 113
4 33 34 44 114
4 33 44 43 114
4 33 43 113 114
4 33 103 113 114
4 33 103 104 114
4 33 104 34 114
4 34 35 45 115
4 34 45 44 115
4 34 44 114 115
4 34 104 114 115
4 34 104 105 115
4 34 105 35 115
4 35 36 46 116
4 35 46 45 116
4 35 45 115 116
4 35 105 115 116
4 35 105 106 116
4 35 106 36 116
4 36 37 47 117
4 36 47 46 117
4 36 46 116 117
4 36 106 116 117
4 36 106 107 117
4 36 107 37 117
4 37 38 48 118
4 37 48 47 118
4 37 47 117 118
4 37 107 117 118
4 37 107 108 118
4 37 108 38 118
4 38 39 49 119
4 38 49 48 119
4 38 48 118 119
4 38 108 118 119
4 38 108 109 119
4 38 109 39 119
4 39 30 40 110
4 39 40 49 110
4 39 49 119 110
4 39 109 119 110
4 39 109 100 110
4 39 100 30 110
4 40 41 51 121
4 40 51 50 121
4 40 50 120 121
4 40 110 120 121
4 40 110 111 121
4 40 111 41 121
4 41 42 52 122
4 41 52 51 122
4 41 51 121 122
4 41 111 121 122
4 41 111 112 122
4 41 112 42 122
4 42 43 53 123
4 42 53 52 123
4 42 52 122 123
4 42 112 122 123
4 42 112 113 123
4 42 113 43 123
4 43 44 54 124
4 43 54 53 124
4 43 53 123 124
4 43 113 123 124
4 43 113 114 124
4 43 114 44 124
4 44 45 55 125
4 44 55 54 125
4 44 54 124 125
4 44 114 124 125
4 44 114 115 125
4 44 115 45 125
4 45 46 56 126
4 45 56 55 126
4 45 55 125 126
4 45 115 125 126
4 45 115 116 126
4 45 116 46 126
4 46 47 57 127
4 46 57 56 127
4 46 56 126 127
4 46 116 126 127
4 46 116 117 127
4 46 117 47 127
4 47 48 58 128
4 47 58 57 128
4 47 57 127 128
4 47 117 127 128
4 47 117 118 128
4 47 118 48 128
4 48 49 59 129
4 48 59 58 129
4 48 58 128 129
4 48 118 128 129
4 48 118 119 129
4 48 119 49 129
4 49 40 50 120
4 49 50 59 120
4 49 59 129 120
4 49 119 129 120
4 49 119 110 120
4 49 110 40 120
4 50 51 61 131
4 50 61 60 131
4 50 60 130 131
4 50 120 130 131
4 50 120 121 131
4 50 121 51 131
4 51 52 62 132
4 51 62 61 132
4 51 61 131 132
4 51 121 131 132
4 51 121 122 132
4 51 122 52 132
4 52 53 63 133
4 52 63 62 133
4 52 62 132 133
4 52 122 132 133
4 52 122 123 133
4 52 123 53 133
4 53 54 64 134
4 53 64 63 134
4 53 63 133 134
4 53 123 133 134
4 53 123 124 134
4 53 124 54 134
4 54 55 65 135
4 54 65 64 135
4 54 64 134 135
4 54 124 134 135
4 54 124 125 135
4 54 125 55 135
4 55 56 66 136
4 55 66 65 136
4 55 65 135 136
4 55 125 135 136
4 55 125 126 136
4 55 126 56 136
4 56 57 67 137
4 56 67 66 137
4 56 66 136 137
4 56 126 136 137
4 56 126 127 137
4 56 127 57 137
4 57 58 68 138
4 57 68 67 138
4 57 67 137 138
4 57 127 137 138
4 57 127 128 138
4 57 128 58 138
4 58 59 69 139
4 58 69 68 139
4 58 68 138 139
4 58 128 138 139
4 58 128 129 139
4 58 129 59 139
4 59 50 60 130
4 59 60 69 130
4 59 69 139 130
4 59 129 139 130
4 59 129 120 130
4 59 120 50 130
4 70 71 81 151
4 70 81 80 151
4 70 80 150 151
4 70 140 150 151
4 70 140 141 151
4 70 141 71 151
4 71 72 82 152
4 71 82 81 152
4 71 81 151 152
4 71 141 151 152
4 71 141 142 152
4 71 142 72 152
4 72 73 83 153
4 72 83 82 153
4 72 82 152 153
4 72 142 152 153
4 72 142 143 153
4 72 143 73 153
4 73 74 84 154
4 73 84 83 154
4 73 83 153 154
4 73 143 153 154
4 73 143 144 154
4 73 144 74 154
4 74 75 85 155
4 74 85 84 155
4 74 84 154 155
4 74 144 154 155
4 74 144 145 155
4 74 145 75 155
4 75 76 86 156
4 75 86 85 156
4 75 85 155 156
4 75 145 155 156
4 75 145 146 156
4 75 146 76 156
4 76 77 87 157
4 76 87 86 157
4 76 86 156 157
4 76 146 156 157
4 76 146 147 157
4 76 147 77 157
4 77 78 88 158
4 77 88 87 158
4 77 87 157 158
4 77 147 157 158
4 77 147 148 158
4 77 148 78 158
4 78 79 89 159
4 78 89 88 159
4 78 88 158 159
4 78 148 158 159
4 78 148 149 159
4 78 149 79 159
4 79 70 80 150
4 79 80 89 150
4 79 89 159 150
4 79 149 159 150
4 79 149 140 150
4 79 140 70 150
4 80 81 91 161
4 80 91 90 161
4 80 90 160 161
4 80 150 160 161
4 80 150 151 161
4 80 151 81 161
4 81 82 92 162
4 81 92 91 162
4 81 91 161 162
4 81 151 161 162
4 81 151 152 162
4 81 152 82 162
4 82 83 93 163
4 82 93 92 163
4 82 92 162 163
4 82 152 162 163
4 82 152 153 163
4 82 153 83 163
4 83 84 94 164
4 83 94 93 164
4 83 93 163 164
4 83 153 163 164
4 83 153 154 164
4 83 154 84 164
4 84 85 95 165
4 84 95 94 165
4 84 94 164 165
4 84 154 164 165
4 84 154 155 165
4 84 155 85 165
4 85 86 96 166
4 85 96 95 166
4 85 95 165 166
4 85 155 165 166
4 85 155 156 166
4 85 156 86 166
4 86 87 97 167
4 86 97 96 167
4 86 96 166 167
4 86 156 166 167
4 86 156 157 167
4 86 157 87 167
4 87 88 98 168
4 87 98 97 168
4 87 97 167 168
4 87 157 167 168
4 87 157 158 168
4 87 158 88 168
4 88 89 99 169
4 88 99 98 169
4 88 98 168 169
4 88 158 168 169
4 88 158 159 169
4 88 159 89 169
4 89 80 90 160
4 89 90 99 160
4 89 99 169 160
4 89 159 169 160
4 89 159 150 160
4 89 150 80 160
4 90 91 101 171
4 90 101 100 171
4 90 100 170 171
4 90 160 170 171
4 90 160 161 171
4 90 161 91 171
4 91 92 102 172
4 91 102 101 172
4 91 101 171 172
4 91 161 171 172
4 91 161 162 172
4 91 162 92 172
4 92 93 103 173
4 92 103 102 173
4 92 102 172 173
4 92 162 172 173
4 92 162 163 173
4 92 163 93 173
4 93 94 104 174
4 93 104 103 174
4 93 103 173 174
4 93 163 173 174
4 93 163 164 174
4 93 164 94 174
4 94 95 105 175
4 94 105 104 175
4 94 104 174 175
4 94 164 174 175
4 94 164 165 175
4 94 165 95 175
4 95 96 106 176
4 95 106 105 176
4 95 105 175 176
4 95 165 175 176
4 95 165 166 176
4 95 166 96 176
4 96 97 107 177
4 96 107 106 177
4 96 106 176 177
4 96 166 176 177
4 96 166 167 177
4 96 167 97 177
4 97 98 108 178
4 97 108 107 178
4 97 107 177 178
4 97 167 177 178
4 97 167 168 178
4 97 168 98 178
4 98 99 109 179
4 98 109 108 179
4 98 108 178 179
4 98 168 178 179
4 98 168 169 179
4 98 169 99 179
4 99 90 100 170
4 99 100 109 170
4 99 109 179 170
4 99 169 179 170
4 99 169 160 170
4 99 160 90 170
4 100 101 111 181
4 100 111 110 181
4 100 110 180 181
4 100 170 180 181
4 100 170 171 181
4 100 171 101 181
4 101 102 112 182
4 101 112 111 182
4 101 111 181 182
4 101 171 181 182
4 101 171 172 182
4 101 172 102 182
4 102 103 113 183
4 102 113 112 183
4 102 112 182 183
4 102 172 182 183
4 102 172 173 183
4 102 173 103 183
4 103 104 114 184
4 103 114 113 184
4 103 113 183 184
4 103 173 183 184
4 103 173 174 184
4 103 174 104 184
4 104 105 115 185
4 104 115 114 185
4 104 114 184 185
4 104 174 184 185
4 104 174 175 185
4 104 175 105 185
4 105 106 116 186
4 105 116 115 186
4 105 115 185 186
4 105 175 185 186
4 105 175 176 186
4 105 176 106 186
4 106 107 117 187
4 106 117 116 187
4 106 116 186 187
4 106 176 186 187
4 106 176 177 187
4 106 177 107 187
4 107 108 118 188
4 107 118 117 188
4 107 117 187 188
4 107 177 187 188
4 107 177 178 188
4 107 178 108 188
4 108 109 119 189
4 108 119 118 189
4 108 118 188 189
4 108 178 188 189
4 108 178 179 189
4 108 179 109 189
4 109 100 110 180
4 109 110 119 180
4 109 119 189 180
4 109 179 189 180
4 109 179 170 180
4 109 170 100 180
4 110 111 121 191
4 110 121 120 191
4 110 120 190 191
4 110 180 190 191
4 110 180 181 191
4 110 181 111 191
4 111 112 122 192
4 111 122 121 192
4 111 121 191 192
4 111 181 191 192
4 111 181 182 192
4 111 182 112 192
4 112 113 123 193
4 112 123 122 193
4 112 122 192 193
4 112 182 192 193
4 112 182 183 193
4 112 183 113 193
4 113 114 124 194
4 113 124 123 194
4 113 123 193 194
4 113 183 193 194
4 113 183 184 194
4 113 184 114 194
4 114 115 125 195
4 114 125 124 195
4 114 124 194 195
4 114 184 194 195
4 114 184 185 195
4 114 185 115 195
4 115 116 126 196
4 115 126 125 196
4 115 125 195 196
4 115 185 195 196
4 115 185 186 196
4 115 186 116 196
4 116 117 127 197
4 116 127 126 197
4 116 126 196 197
4 116 186 196 197
4 116 186 187 197
4 116 187 117 197
4 117 118 128 198
4 117 128 127 198
4 117 127 197 198
4 117 187 197 198
4 117 187 188 198
4 117 188 118 198
4 118 119 129 199
4 118 129 128 199
4 118 128 198 199
4 118 188 198 199
4 118 188 189 199
4 118 189 119 199
4 119 110 120 190
4 119 120 129 190
4 119 129 199 190
4 119 189 199 190
4 119 189 180 190
4 119 180 110 190
4 120 121 131 201
4 120 131 130 201
4 120 130 200 201
4 120 190 200 201
4 120 190 191 201
4 120 191 121 201
4 121 122 132 202
4 121 132 131 202
4 121 131 201 202
4 121 191 201 202
4 121 191 192 202
4 121 192 122 202
4 122 123 133 203
4 122 133 132 203
4 122 132 202 203
4 122 192 202 203
4 122 192 193 203
4 122 193 123 203
4 123 124 134 204
4 123 134 133 204
4 123 133 203 204
4 123 193 203 204
4 123 193 194 204
4 123 194 124 204
4 124 125 135 205
4 124 135 134 205
4 124 134 204 205
4 124 194 204 205
4 124 194 195 205
4 124 195 125 205
4 125 126 136 206
4 125 136 135 206
4 125 135 205 206
4 125 195 205 206
4 125 195 196 206
4 125 196 126 206
4 126 127 137 207
4 126 137 136 207
4 126 136 206 207
4 126 196 206 207
4 126 196 197 207
4 126 197 127 207
4 127 128 138 208
4 127 138 137 208
4 127 137 207 208
4 127 197 207 208
4 127 197 198 208
4 127 198 128 208
4 128 129 139 209
4 128 139 138 209
4 128 138 208 209
4 128 198 208 209
4 128 198 199 209
4 128 199 129 209
4 129 120 130 200
4 129 130 139 200
4 129 139 209 200
4 129 199 209 200
4 129 199 190 200
4 129 190 120 200
CELL_TYPES 720
10
10
10
10
10
10
10
10
10
10
10
10
10
10
10
10
10
10
10
10
10
10
10
10
10
10
10
10
10
10
10
10
10
10
10
10
10
10
10
10
10
10
10
10
10
10
10
10
10
10
10
10
10
10
10
10
10
10
10
10
10
10
10
10
10
10
10
10
10
10
10
10
10
10
10
10
10
10
10
10
10
10
10
10
10
10
10
10
10
10
10
10
10
10
10
10
10
10
10
10
10
10
10
10
10
10
10
10
10
10
10
10
10
10
10
10
10
10
10
10
10
10
10
10
10
10
10
10
10
10
10
10
10
10
10
10
10
10
10
10
10
10
10
10
10
10
10
10
10
10
10
10
10
10
10
10
10
10
10
10
10
10
10
10
10
10
10
10
10
10
10
10
10
10
10
10
10
10
10
10
10
10
10
10
10
10
10
10
10
10
10
10
10
10
10
10
10
10
10
10
10
10
10
10
10
10
10
10
10
10
10
10
10
10
10
10
10
10
10
10
10
10
10
10
10
10
10
10
10
10
10
10
10
10
10
10
10
10
10
10
10
10
10
10
10
10
10
10
10
10
10
10
10
10
10
10
10
10
10
10
10
10
10
10
10
10
10
10
10
10
10
10
10
10
10
10
10
10
10
10
10
10
10
10
10
10
10
10
10
10
10
10
10
10
10
10
10
10
10
10
10
10
10
10
10
10
10
10
10
10
10
10
10
10
10
10
10
10
10
10
10
10
10
10
10
10
10
10
10
10
10
10
10
10
10
10
10
10
10
10
10
10
10
10
10
10
10
10
10
10
10
10
10
10
10
10
10
10
10
10
10
10
10
10
10
10
10
10
10
10
10
10
10
10
10
10
10
10
10
10
10
10
10
10
10
10
10
10
10
10
10
10
10
10
10
10
10
10
10
10
10
10
10
10
10
10
10
10
10
10
10
10
10
10
10
10
10
10
10
10
10
10
10
10
10
10
10
10
10
10
10
10
10
10
10
10
10
10
10
10
10
10
10
10
10
10
10
10
10
10
10
10
10
10
10
10
10
10
10
10
10
10
10
10
10
10
10
10
10
10
10
10
10
10
10
10
10
10
10
10
10
10
10
10
10
10
10
10
10
10
10
10
10
10
10
10
10
10
10
10
10
10
10
10
10
10
10
10
10
10
10
10
10
10
10
10
10
10
10
10
10
10
10
10
10
10
10
10
10
10
10
10
10
10
10
10
10
10
10
10
10
10
10
10
10
10
10
10
10
10
10
10
10
10
10
10
10
10
10
10
10
10
10
10
10
10
10
10
10
10
10
10
10
10
10
10
10
10
10
10
10
10
10
10
10
10
10
10
10
10
10
10
10
10
10
10
10
10
10
10
10
10
10
10
10
10
10
10
10
10
10
10
10
10
10
10
10
10
10
10
10
10
10
10
10
10
10
10
10
10
10
10
10
10
10
10
10
10
10
10
10
10
10
10
10
10
10
10
10
10
10
10
10
10
10
10
10
10
10
10
10
10
10
10
10
10
10
10
10
10
10
10
10
10
10
10
10
10
10
10
10
10
10
10
10
10
10
10
10
10
10
10
10
10
10
10
10
10
10
10
10
10
10
10
10
10
10
10
10
10
10
10
10
10
10
10
10
10
10
10
POINT_DATA 210
VECTORS V float
0 2.2 0.4
0 2.2 0.4
0 2.2 0.4
0 2.2 0.4
0 2.2 0.4
0 2.2 0.4
0 2.2 0.4
0 2.2 0.4
0 2.2 0.4
0 2.2 0.4
-0.569402 2.125037 0.4
-0.569402 2.125037 0.4
-0.569402 2.125037 0.4
-0.569402 2.125037 0.4
-0.569402 2.125037 0.4
-0.569402 2.125037 0.4
-0.569402 2.125037 0.4
-0.569402 2.125037 0.4
-0.569402 2.125037 0.4
-0.569402 2.125037 0.4
-1.1 1.905256 0.4
-1.1 1.905256 0.4
-1.1 1.905256 0.4
-1.1 1.905256 0.4
-1.1 1.905256 0.4
-1.1 1.905256 0.4
-1.1 1.905256 0.4
-1.1 1.905256 0.4
-1.1 1.905256 0.4
-1.1 1.905256 0.4
-1.555635 1.555635 0.4
-1.555635 1.555635 0.4
-1.555635 1.555635 0.4
-1.555635 1.555635 0.4
-1.555635 1.555635 0.4
-1.555635 1.555635 0.4
-1.555635 1.555635 0.4
-1.555635 1.555635 0.4
-1.555635 1.555635 0.4
-1.555635 1.555635 0.4
-1.905256 1.1 0.4
-1.905256 1.1 0.4
-1.905256 1.1 0.4
-1.905256 1.1 0.4
-1.905256 1.1 0.4
-1.905256 1.1 0.4
-1.905256 1.1 0.4
-1.905256 1.1 0.4
-1.905256 1.1 0.4
-1.905256 1.1 0.4
-2.125037 0.569402 0.4
-2.125037 0.569402 0.4
-2.125037 0.569402 0.4
-2.125037 0.569402 0.4
-2.125037 0.569402 0.4
-2.125037 0.569402 0.4
-2.125037 0.569402 0.4
-2.125037 0.569402 0.4
-2.125037 0.569402 0.4
-2.125037 0.569402 0.4
-2.2 0 0.4
-2.2 0 0.4
-2.2 0 0.4
-2.2 0 0.4
-2.2 0 0.4
-2.2 0 0.4
-2.2 0 0.4
-2.2 0 0.4
-2.2 0 0.4
-2.2 0 0.4
0 2.2 0.4
0 2.2 0.4
0 2.2 0.4
0 2.2 0.4
0 2.2 0.4
0 2.2 0.4
0 2.2 0.4
0 2.2 0.4
0 2.2 0.4
0 2.2 0.4
-0.569402 2.125037 0.4
-0.569402 2.125037 0.4
-0.569402 2.125037 0.4
-0.569402 2.125037 0.4
-0.569402 2.125037 0.4
-0.569402 2.125037 0.4
-0.569402 2.125037 0.4
-0.569402 2.125037 0.4
-0.569402 2.125037 0.4
-0.569402 2.125037 0.4
-1.1 1.905256 0.4
-1.1 1.905256 0.4
-1.1 1.905256 0.4
-1.1 1.905256 0.4
-1.1 1.905256 0.4
-1.1 1.905256 0.4
-1.1 1.905256 0.4
-1.1 1.905256 0.4
-1.1 1.905256 0.4
-1.1 1.905256 0.4
-1.555635 1.555635 0.4
-1.555635 1.555635 0.4
-1.555635 1.555635 0.4
-1.555635 1.555635 0.4
-1.555635 1.555635 0.4
-1.555635 1.555635 0.4
-1.555635 1.555635 0.4
-1.555635 1.555635 0.4
-1.555635 1.555635 0.4
-1.555635 1.555635 0.4
-1.905256 1.1 0.4
-1.905256 1.1 0.4
-1.905256 1.1 0.4
-1.905256 1.1 0.4
-1.905256 1.1 0.4
-1.905256 1.1 0.4
-1.905256 1.1 0.4
-1.905256 1.1 0.4
-1.905256 1.1 0.4
-1.905256 1.1 0.4
-2.125037 0.569402 0.4
-2.125037 0.569402 0.4
-2.125037 0.569402 0.4
-2.125037 0.569402 0.4
-2.125037 0.569402 0.4
-2.125037 0.569402 0.4
-2.125037 0.569402 0.4
-2.125037 0.569402 0.4
-2.125037 0.569402 0.4
-2.125037 0.569402 0.4
-2.2 0 0.4
-2.2 0 0.4
-2.2 0 0.4
-2.2 0 0.4
-2.2 0 0.4
-2.2 0 0.4
-2.2 0 0.4
-2.2 0 0.4
-2.2 0 0.4
-2.2 0 0.4
0 2.2 0.4
0 2.2 0.4
0 2.2 0.4
0 2.2 0.4
0 2.2 0.4
0 2.2 0.4
0 2.2 0.4
0 2.2 0.4
0 2.2 0.4
0 2.2 0.4
-0.569402 2.125037 0.4
-0.569402 2.125037 0.4
-0.569402 2.125037 0.4
-0.569402 2.125037 0.4
-0.569402 2.125037 0.4
-0.569402 2.125037 0.4
-0.569402 2.125037 0.4
-0.569402 2.125037 0.4
-0.569402 2.125037 0.4
-0.569402 2.125037 0.4
-1.1 1.905256 0.4
-1.1 1.905256 0.4
-1.1 1.905256 0.4
-1.1 1.905256 0.4
-1.1 1.905256 0.4
-1.1 1.905256 0.4
-1.1 1.905256 0.4
-1.1 1.905256 0.4
-1.1 1.905256 0.4
-1.1 1.905256 0.4
-1.555635 1.555635 0.4
-1.555635 1.555635 0.4
-1.555635 1.555635 0.4
-1.555635 1.555635 0.4
-1.555635 1.555635 0.4
-1.555635 1.555635 0.4
-1.555635 1.555635 0.4
-1.555635 1.555635 0.4
-1.555635 1.555635 0.4
-1.555635 1.555635 0.4
-1.905256 1.1 0.4
-1.905256 1.1 0.4
-1.905256 1.1 0.4
-1.905256 1.1 0.4
-1.905256 1.1 0.4
-1.905256 1.1 0.4
-1.905256 1.1 0.4
-1.905256 1.1 0.4
-1.905256 1.1 0.4
-1.905256 1.1 0.4
-2.125037 0.569402 0.4
-2.125037 0.569402 0.4
-2.125037 0.569402 0.4
-2.125037 0.569402 0.4
-2.125037 0.569402 0.4
-2.125037 0.569402 0.4
-2.125037 0.569402 0.4
-2.125037 0.569402 0.4
-2.125037 0.569402 0.4
-2.125037 0.569402 0.4
-2.2 0 0.4
-2.2 0 0.4
-2.2 0 0.4
-2.2 0 0.4
-2.2 0 0.4
-2.2 0 0.4
-2.2 0 0.4
-2.2 0 0.4
-2.2 0 0.4
-2.2 0 0.4
SCALARS Pressure float
LOOKUP_TABLE default
120
120
120
120
120
120
120
120
120
120
112.5
112.5
112.5
112.5
112.5
112.5
112.5
112.5
112.5
112.5
105
105
105
105
105
105
105
105
105
105
97.5
97.5
97.5
97.5
97.5
97.5
97.5
97.5
97.5
97.5
90
90
90
90
90
90
90
90
90
90
82.5
82.5
82.5
82.5
82.5
82.5
82.5
82.5
82.5
82.5
75
75
75
75
75
75
75
75
75
75
120
120
120
120
120
120
120
120
120
120
112.5
112.5
112.5
112.5
112.5
112.5
112.5
112.5
112.5
112.5
105
105
105
105
105
105
105
105
105
105
97.5
97.5
97.5
97.5
97.5
97.5
97.5
97.5
97.5
97.5
90
90
90
90
90
90
90
90
90
90
82.5
82.5
82.5
82.5
82.5
82.5
82.5
82.5
82.5
82.5
75
75
75
75
75
75
75
75
75
75
120
120
120
120
120
120
120
120
120
120
112.5
112.5
112.5
112.5
112.5
112.5
112.5
112.5
112.5
112.5
105
105
105
105
105
105
105
105
105
105
97.5
97.5
97.5
97.5
97.5
97.5
97.5
97.5
97.5
97.5
90
90
90
90
90
90
90
90
90
90
82.5
82.5
82.5
82.5
82.5
82.5
82.5
82.5
82.5
82.5
75
75
75
75
75
75
75
75
75
75
CELL_DATA 720
VECTORS cellV float
-0.287158 2.181179 0.4
-0.429199 2.157728 0.4
-0.429199 2.157728 0.4
-0.287158 2.181179 0.4
-0.143887 2.19529 0.4
-0.143887 2.19529 0.4
-0.287158 2.181179 0.4
-0.429199 2.157728 0.4
-0.429199 2.157728 0.4
-0.287158 2.181179 0.4
-0.143887 2.19529 0.4
-0.143887 2.19529 0.4
-0.287158 2.181179 0.4
-0.429199 2.157728 0.4
-0.429199 2.157728 0.4
-0.287158 2.181179 0.4
-0.143887 2.19529 0.4
-0.143887 2.19529 0.4
-0.287158 2.181179 0.4
-0.429199 2.157728 0.4
-0.429199 2.157728 0.4
-0.287158 2.181179 0.4
-0.143887 2.19529 0.4
-0.143887 2.19529 0.4
-0.287158 2.181179 0.4
-0.429199 2.157728 0.4
-0.429199 2.157728 0.4
-0.287158 2.181179 0.4
-0.143887 2.19529 0.4
-0.143887 2.19529 0.4
-0.287158 2.181179 0.4
-0.429199 2.157728 0.4
-0.429199 2.157728 0.4
-0.287158 2.181179 0.4
-0.143887 2.19529 0.4
-0.143887 2.19529 0.4
-0.287158 2.181179 0.4
-0.429199 2.157728 0.4
-0.429199 2.157728 0.4
-0.287158 2.181179 0.4
-0.143887 2.19529 0.4
-0.143887 2.19529 0.4
-0.287158 2.181179 0.4
-0.429199 2.157728 0.4
-0.429199 2.157728 0.4
-0.287158 2.181179 0.4
-0.143887 2.19529 0.4
-0.143887 2.19529 0.4
-0.287158 2.181179 0.4
-0.429199 2.157728 0.4
-0.429199 2.157728 0.4
-0.287158 2.181179 0.4
-0.143887 2.19529 0.4
-0.143887 2.19529 0.4
-0.287158 2.181179 0.4
-0.429199 2.157728 0.4
-0.429199 2.157728 0.4
-0.287158 2.181179 0.4
-0.143887 2.19529 0.4
-0.143887 2.19529 0.4
-0.841904 2.032535 0.4
-0.973035 1.97312 0.4
-0.973035 1.97312 0.4
-0.841904 2.032535 0.4
-0.707167 2.083246 0.4
-0.707167 2.083246 0.4
-0.841904 2.032535 0.4
-0.973035 1.97312 0.4
-0.973035 1.97312 0.4
-0.841904 2.032535 0.4
-0.707167 2.083246 0.4
-0.707167 2.083246 0.4
-0.841904 2.032535 0.4
-0.973035 1.97312 0.4
-0.973035 1.97312 0.4
-0.841904 2.032535 0.4
-0.707167 2.083246 0.4
-0.707167 2.083246 0.4
-0.841904 2.032535 0.4
-0.973035 1.97312 0.4
-0.973035 1.97312 0.4
-0.841904 2.032535 0.4
-0.707167 2.083246 0.4
-0.707167 2.083246 0.4
-0.841904 2.032535 0.4
-0.973035 1.97312 0.4
-0.973035 1.97312 0.4
-0.841904 2.032535 0.4
-0.707167 2.083246 0.4
-0.707167 2.083246 0.4
-0.841904 2.032535 0.4
-0.973035 1.97312 0.4
-0.973035 1.97312 0.4
-0.841904 2.032535 0.4
-0.707167 2.083246 0.4
-0.707167 2.083246 0.4
-0.841904 2.032535 0.4
-0.973035 1.97312 0.4
-0.973035 1.97312 0.4
-0.841904 2.032535 0.4
-0.707167 2.083246 0.4
-0.707167 2.083246 0.4
-0.841904 2.032535 0.4
-0.973035 1.97312 0.4
-0.973035 1.97312 0.4
-0.841904 2.032535 0.4
-0.707167 2.083246 0.4
-0.707167 2.083246 0.4
-0.841904 2.032535 0.4
-0.973035 1.97312 0.4
-0.973035 1.97312 0.4
-0.841904 2.032535 0.4
-0.707167 2.083246 0.4
-0.707167 2.083246 0.4
-0.841904 2.032535 0.4
-0.973035 1.97312 0.4
-0.973035 1.97312 0.4
-0.841904 2.032535 0.4
-0.707167 2.083246 0.4
-0.707167 2.083246 0.4
-1.339275 1.745377 0.4
-1.450561 1.654048 0.4
-1.450561 1.654048 0.4
-1.339275 1.745377 0.4
-1.222255 1.829233 0.4
-1.222255 1.829233 0.4
-1.339275 1.745377 0.4
-1.450561 1.654048 0.4
-1.450561 1.654048 0.4
-1.339275 1.745377 0.4
-1.222255 1.829233 0.4
-1.222255 1.829233 0.4
-1.339275 1.745377 0.4
-1.450561 1.654048 0.4
-1.450561 1.654048 0.4
-1.339275 1.745377 0.4
-1.222255 1.829233 0.4
-1.222255 1.829233 0.4
-1.339275 1.745377 0.4
-1.450561 1.654048 0.4
-1.450561 1.654048 0.4
-1.339275 1.745377 0.4
-1.222255 1.829233 0.4
-1.222255 1.829233 0.4
-1.339275 1.745377 0.4
-1.450561 1.654048 0.4
-1.450561 1.654048 0.4
-1.339275 1.745377 0.4
-1.222255 1.829233 0.4
-1.222255 1.829233 0.4
-1.339275 1.745377 0.4
-1.450561 1.654048 0.4
-1.450561 1.654048 0.4
-1.339275 1.745377 0.4
-1.222255 1.829233 0.4
-1.222255 1.829233 0.4
-1.339275 1.745377 0.4
-1.450561 1.654048 0.4
-1.450561 1.654048 0.4
-1.339275 1.745377 0.4
-1.222255 1.829233 0.4
-1.222255 1.829233 0.4
-1.339275 1.745377 0.4
-1.450561 1.654048 0.4
-1.450561 1.654048 0.4
-1.339275 1.745377 0.4
-1.222255 1.829233 0.4
-1.222255 1.829233 0.4
-1.339275 1.745377 0.4
-1.450561 1.654048 0.4
-1.450561 1.654048 0.4
-1.339275 1.745377 0.4
-1.222255 1.829233 0.4
-1.222255 1.829233 0.4
-1.339275 1.745377 0.4
-1.450561 1.654048 0.4
-1.450561 1.654048 0.4
-1.339275 1.745377 0.4
-1.222255 1.829233 0.4
-1.222255 1.829233 0.4
-1.745377 1.339275 0.4
-1.829233 1.222255 0.4
-1.829233 1.222255 0.4
-1.745377 1.339275 0.4
-1.654048 1.450561 0.4
-1.654048 1.450561 0.4
-1.745377 1.339275 0.4
-1.829233 1.222255 0.4
-1.829233 1.222255 0.4
-1.745377 1.339275 0.4
-1.654048 1.450561 0.4
-1.654048 1.450561 0.4
-1.745377 1.339275 0.4
-1.829233 1.222255 0.4
-1.829233 1.222255 0.4
-1.745377 1.339275 0.4
-1.654048 1.450561 0.4
-1.654048 1.450561 0.4
-1.745377 1.339275 0.4
-1.829233 1.222255 0.4
-1.829233 1.222255 0.4
-1.745377 1.339275 0.4
-1.654048 1.450561 0.4
-1.654048 1.450561 0.4
-1.745377 1.339275 0.4
-1.829233 1.222255 0.4
-1.829233 1.222255 0.4
-1.745377 1.339275 0.4
-1.654048 1.450561 0.4
-1.654048 1.450561 0.4
-1.745377 1.339275 0.4
-1.829233 1.222255 0.4
-1.829233 1.222255 0.4
-1.745377 1.339275 0.4
-1.654048 1.450561 0.4
-1.654048 1.450561 0.4
-1.745377 1.339275 0.4
-1.829233 1.222255 0.4
-1.829233 1.222255 0.4
-1.745377 1.339275 0.4
-1.654048 1.450561 0.4
-1.654048 1.450561 0.4
-1.745377 1.339275 0.4
-1.829233 1.222255 0.4
-1.829233 1.222255 0.4
-1.745377 1.339275 0.4
-1.654048 1.450561 0.4
-1.654048 1.450561 0.4
-1.745377 1.339275 0.4
-1.829233 1.222255 0.4
-1.829233 1.222255 0.4
-1.745377 1.339275 0.4
-1.654048 1.450561 0.4
-1.654048 1.450561 0.4
-1.745377 1.339275 0.4
-1.829233 1.222255 0.4
-1.829233 1.222255 0.4
-1.745377 1.339275 0.4
-1.654048 1.450561 0.4
-1.654048 1.450561 0.4
-2.032535 0.841904 0.4
-2.083246 0.707167 0.4
-2.083246 0.707167 0.4
-2.032535 0.841904 0.4
-1.97312 0.973035 0.4
-1.97312 0.973035 0.4
-2.032535 0.841904 0.4
-2.083246 0.707167 0.4
-2.083246 0.707167 0.4
-2.032535 0.841904 0.4
-1.97312 0.973035 0.4
-1.97312 0.973035 0.4
-2.032535 0.841904 0.4
-2.083246 0.707167 0.4
-2.083246 0.707167 0.4
-2.032535 0.841904 0.4
-1.97312 0.973035 0.4
-1.97312 0.973035 0.4
-2.032535 0.841904 0.4
-2.083246 0.707167 0.4
-2.083246 0.707167 0.4
-2.032535 0.841904 0.4
-1.97312 0.973035 0.4
-1.97312 0.973035 0.4
-2.032535 0.841904 0.4
-2.083246 0.707167 0.4
-2.083246 0.707167 0.4
-2.032535 0.841904 0.4
-1.97312 0.973035 0.4
-1.97312 0.973035 0.4
-2.032535 0.841904 0.4
-2.083246 0.707167 0.4
-2.083246 0.707167 0.4
-2.032535 0.841904 0.4
-1.97312 0.973035 0.4
-1.97312 0.973035 0.4
-2.032535 0.841904 0.4
-2.083246 0.707167 0.4
-2.083246 0.707167 0.4
-2.032535 0.841904 0.4
-1.97312 0.973035 0.4
-1.97312 0.973035 0.4
-2.032535 0.841904 0.4
-2.083246 0.707167 0.4
-2.083246 0.707167 0.4
-2.032535 0.841904 0.4
-1.97312 0.973035 0.4
-1.97312 0.973035 0.4
-2.032535 0.841904 0.4
-2.083246 0.707167 0.4
-2.083246 0.707167 0.4
-2.032535 0.841904 0.4
-1.97312 0.973035 0.4
-1.97312 0.973035 0.4
-2.032535 0.841904 0.4
-2.083246 0.707167 0.4
-2.083246 0.707167 0.4
-2.032535 0.841904 0.4
-1.97312 0.973035 0.4
-1.97312 0.973035 0.4
-2.181179 0.287158 0.4
-2.19529 0.143887 0.4
-2.19529 0.143887 0.4
-2.181179 0.287158 0.4
-2.157728 0.429199 0.4
-2.157728 0.429199 0.4
-2.181179 0.287158 0.4
-2.19529 0.143887 0.4
-2.19529 0.143887 0.4
-2.181179 0.287158 0.4
-2.157728 0.429199 0.4
-2.157728 0.429199 0.4
-2.181179 0.287158 0.4
-2.19529 0.143887 0.4
-2.19529 0.143887 0.4
-2.181179 0.287158 0.4
-2.157728 0.429199 0.4
-2.157728 0.429199 0.4
-2.181179 0.287158 0.4
-2.19529 0.143887 0.4
-2.19529 0.143887 0.4
-2.181179 0.287158 0.4
-2.157728 0.429199 0.4
-2.157728 0.429199 0.4
-2.181179 0.287158 0.4
-2.19529 0.143887 0.4
-2.19529 0.143887 0.4
-2.181179 0.287158 0.4
-2.157728 0.429199 0.4
-2.157728 0.429199 0.4
-2.181179 0.287158 0.4
-2.19529 0.143887 0.4
-2.19529 0.143887 0.4
-2.181179 0.287158 0.4
-2.157728 0.429199 0.4
-2.157728 0.429199 0.4
-2.181179 0.287158 0.4
-2.19529 0.143887 0.4
-2.19529 0.143887 0.4
-2.181179 0.287158 0.4
-2.157728 0.429199 0.4
-2.157728 0.429199 0.4
-2.181179 0.287158 0.4
-2.19529 0.143887 0.4
-2.19529 0.143887 0.4
-2.181179 0.287158 0.4
-2.157728 0.429199 0.4
-2.157728 0.429199 0.4
-2.181179 0.287158 0.4
-2.19529 0.143887 0.4
-2.19529 0.143887 0.4
-2.181179 0.287158 0.4
-2.157728 0.429199 0.4
-2.157728 0.429199 0.4
-2.181179 0.287158 0.4
-2.19529 0.143887 0.4
-2.19529 0.143887 0.4
-2.181179 0.287158 0.4
-2.157728 0.429199 0.4
-2.157728 0.429199 0.4
-0.287158 2.181179 0.4
-0.429199 2.157728 0.4
-0.429199 2.157728 0.4
-0.287158 2.181179 0.4
-0.143887 2.19529 0.4
-0.143887 2.19529 0.4
-0.287158 2.181179 0.4
-0.429199 2.157728 0.4
-0.429199 2.157728 0.4
-0.287158 2.181179 0.4
-0.143887 2.19529 0.4
-0.143887 2.19529 0.4
-0.287158 2.181179 0.4
-0.429199 2.157728 0.4
-0.429199 2.157728 0.4
-0.287158 2.181179 0.4
-0.143887 2.19529 0.4
-0.143887 2.19529 0.4
-0.287158 2.181179 0.4
-0.429199 2.157728 0.4
-0.429199 2.157728 0.4
-0.287158 2.181179 0.4
-0.143887 2.19529 0.4
-0.143887 2.19529 0.4
-0.287158 2.181179 0.4
-0.429199 2.157728 0.4
-0.429199 2.157728 0.4
-0.287158 2.181179 0.4
-0.143887 2.19529 0.4
-0.143887 2.19529 0.4
-0.287158 2.181179 0.4
-0.429199 2.157728 0.4
-0.429199 2.157728 0.4
-0.287158 2.181179 0.4
-0.143887 2.19529 0.4
-0.143887 2.19529 0.4
-0.287158 2.181179 0.4
-0.429199 2.157728 0.4
-0.429199 2.157728 0.4
-0.287158 2.181179 0.4
-0.143887 2.19529 0.4
-0.143887 2.19529 0.4
-0.287158 2.181179 0.4
-0.429199 2.157728 0.4
-0.429199 2.157728 0.4
-0.287158 2.181179 0.4
-0.143887 2.19529 0.4
-0.143887 2.19529 0.4
-0.287158 2.181179 0.4
-0.429199 2.157728 0.4
-0.429199 2.157728 0.4
-0.287158 2.181179 0.4
-0.143887 2.19529 0.4
-0.143887 2.19529 0.4
-0.287158 2.181179 0.4
-0.429199 2.157728 0.4
-0.429199 2.157728 0.4
-0.287158 2.181179 0.4
-0.143887 2.19529 0.4
-0.143887 2.19529 0.4
-0.841904 2.032535 0.4
-0.973035 1.97312 0.4
-0.973035 1.97312 0.4
-0.841904 2.032535 0.4
-0.707167 2.083246 0.4
-0.707167 2.083246 0.4
-0.841904 2.032535 0.4
-0.973035 1.97312 0.4
-0.973035 1.97312 0.4
-0.841904 2.032535 0.4
-0.707167 2.083246 0.4
-0.707167 2.083246 0.4
-0.841904 2.032535 0.4
-0.973035 1.97312 0.4
-0.973035 1.97312 0.4
-0.841904 2.032535 0.4
-0.707167 2.083246 0.4
-0.707167 2.083246 0.4
-0.841904 2.032535 0.4
-0.973035 1.97312 0.4
-0.973035 1.97312 0.4
-0.841904 2.032535 0.4
-0.707167 2.083246 0.4
-0.707167 2.083246 0.4
-0.841904 2.032535 0.4
-0.973035 1.97312 0.4
-0.973035 1.97312 0.4
-0.841904 2.032535 0.4
-0.707167 2.083246 0.4
-0.707167 2.083246 0.4
-0.841904 2.032535 0.4
-0.973035 1.97312 0.4
-0.973035 1.97312 0.4
-0.841904 2.032535 0.4
-0.707167 2.083246 0.4
-0.707167 2.083246 0.4
-0.841904 2.032535 0.4
-0.973035 1.97312 0.4
-0.973035 1.97312 0.4
-0.841904 2.032535 0.4
-0.707167 2.083246 0.4
-0.707167 2.083246 0.4
-0.841904 2.032535 0.4
-0.973035 1.97312 0.4
-0.973035 1.97312 0.4
-0.841904 2.032535 0.4
-0.707167 2.083246 0.4
-0.707167 2.083246 0.4
-0.841904 2.032535 0.4
-0.973035 1.97312 0.4
-0.973035 1.97312 0.4
-0.841904 2.032535 0.4
-0.707167 2.083246 0.4
-0.707167 2.083246 0.4
-0.841904 2.032535 0.4
-0.973035 1.97312 0.4
-0.973035 1.97312 0.4
-0.841904 2.032535 0.4
-0.707167 2.083246 0.4
-0.707167 2.083246 0.4
-1.339275 1.745377 0.4
-1.450561 1.654048 0.4
-1.450561 1.654048 0.4
-1.339275 1.745377 0.4
-1.222255 1.829233 0.4
-1.222255 1.829233 0.4
-1.339275 1.745377 0.4
-1.450561 1.654048 0.4
-1.450561 1.654048 0.4
-1.339275 1.745377 0.4
-1.222255 1.829233 0.4
-1.222255 1.829233 0.4
-1.339275 1.745377 0.4
-1.450561 1.654048 0.4
-1.450561 1.654048 0.4
-1.339275 1.745377 0.4
-1.222255 1.829233 0.4
-1.222255 1.829233 0.4
-1.339275 1.745377 0.4
-1.450561 1.654048 0.4
-1.450561 1.654048 0.4
-1.339275 1.745377 0.4
-1.222255 1.829233 0.4
-1.222255 1.829233 0.4
-1.339275 1.745377 0.4
-1.450561 1.654048 0.4
-1.450561 1.654048 0.4
-1.339275 1.745377 0.4
-1.222255 1.829233 0.4
-1.222255 1.829233 0.4
-1.339275 1.745377 0.4
-1.450561 1.654048 0.4
-1.450561 1.654048 0.4
-1.339275 1.745377 0.4
-1.222255 1.829233 0.4
-1.222255 1.829233 0.4
-1.339275 1.745377 0.4
-1.450561 1.654048 0.4
-1.450561 1.654048 0.4
-1.339275 1.745377 0.4
-1.222255 1.829233 0.4
-1.222255 1.829233 0.4
-1.339275 1.745377 0.4
-1.450561 1.654048 0.4
-1.450561 1.654048 0.4
-1.339275 1.745377 0.4
-1.222255 1.829233 0.4
-1.222255 1.829233 0.4
-1.339275 1.745377 0.4
-1.450561 1.654048 0.4
-1.450561 1.654048 0.4
-1.339275 1.745377 0.4
-1.222255 1.829233 0.4
-1.222255 1.829233 0.4
-1.339275 1.745377 0.4
-1.450561 1.654048 0.4
-1.450561 1.654048 0.4
-1.339275 1.745377 0.4
-1.222255 1.829233 0.4
-1.222255 1.829233 0.4
-1.745377 1.339275 0.4
-1.829233 1.222255 0.4
-1.829233 1.222255 0.4
-1.745377 1.339275 0.4
-1.654048 1.450561 0.4
-1.654048 1.450561 0.4
-1.745377 1.339275 0.4
-1.829233 1.222255 0.4
-1.829233 1.222255 0.4
-1.745377 1.339275 0.4
-1.654048 1.450561 0.4
-1.654048 1.450561 0.4
-1.745377 1.339275 0.4
-1.829233 1.222255 0.4
-1.829233 1.222255 0.4
-1.745377 1.339275 0.4
-1.654048 1.450561 0.4
-1.654048 1.450561 0.4
-1.745377 1.339275 0.4
-1.829233 1.222255 0.4
-1.829233 1.222255 0.4
-1.745377 1.339275 0.4
-1.654048 1.450561 0.4
-1.654048 1.450561 0.4
-1.745377 1.339275 0.4
-1.829233 1.222255 0.4
-1.829233 1.222255 0.4
-1.745377 1.339275 0.4
-1.654048 1.450561 0.4
-1.654048 1.450561 0.4
-1.745377 1.339275 0.4
-1.829233 1.222255 0.4
-1.829233 1.222255 0.4
-1.745377 1.339275 0.4
-1.654048 1.450561 0.4
-1.654048 1.450561 0.4
-1.745377 1.339275 0.4
-1.829233 1.222255 0.4
-1.829233 1.222255 0.4
-1.745377 1.339275 0.4
-1.654048 1.450561 0.4
-1.654048 1.450561 0.4
-1.745377 1.339275 0.4
-1.829233 1.222255 0.4
-1.829233 1.222255 0.4
-1.745377 1.339275 0.4
-1.654048 1.450561 0.4
-1.654048 1.450561 0.4
-1.745377 1.339275 0.4
-1.829233 1.222255 0.4
-1.829233 1.222255 0.4
-1.745377 1.339275 0.4
-1.654048 1.450561 0.4
-1.654048 1.450561 0.4
-1.745377 1.339275 0.4
-1.829233 1.222255 0.4
-1.829233 1.222255 0.4
-1.745377 1.339275 0.4
-1.654048 1.450561 0.4
-1.654048 1.450561 0.4
-2.032535 0.841904 0.4
-2.083246 0.707167 0.4
-2.083246 0.707167 0.4
-2.032535 0.841904 0.4
-1.97312 0.973035 0.4
-1.97312 0.973035 0.4
-2.032535 0.841904 0.4
-2.083246 0.707167 0.4
-2.083246 0.707167 0.4
-2.032535 0.841904 0.4
-1.97312 0.973035 0.4
-1.97312 0.973035 0.4
-2.032535 0.841904 0.4
-2.083246 0.707167 0.4
-2.083246 0.707167 0.4
-2.032535 0.841904 0.4
-1.97312 0.973035 0.4
-1.97312 0.973035 0.4
-2.032535 0.841904 0.4
-2.083246 0.707167 0.4
-2.083246 0.707167 0.4
-2.032535 0.841904 0.4
-1.97312 0.973035 0.4
-1.97312 0.973035 0.4
-2.032535 0.841904 0.4
-2.083246 0.707167 0.4
-2.083246 0.707167 0.4
-2.032535 0.841904 0.4
-1.97312 0.973035 0.4
-1.97312 0.973035 0.4
-2.032535 0.841904 0.4
-2.083246 0.707167 0.4
-2.083246 0.707167 0.4
-2.032535 0.841904 0.4
-1.97312 0.973035 0.4
-1.97312 0.973035 0.4
-2.032535 0.841904 0.4
-2.083246 0.707167 0.4
-2.083246 0.707167 0.4
-2.032535 0.841904 0.4
-1.97312 0.973035 0.4
-1.97312 0.973035 0.4
-2.032535 0.841904 0.4
-2.083246 0.707167 0.4
-2.083246 0.707167 0.4
-2.032535 0.841904 0.4
-1.97312 0.973035 0.4
-1.97312 0.973035 0.4
-2.032535 0.841904 0.4
-2.083246 0.707167 0.4
-2.083246 0.707167 0.4
-2.032535 0.841904 0.4
-1.97312 0.973035 0.4
-1.97312 0.973035 0.4
-2.032535 0.841904 0.4
-2.083246 0.707167 0.4
-2.083246 0.707167 0.4
-2.032535 0.841904 0.4
-1.97312 0.973035 0.4
-1.97312 0.973035 0.4
-2.181179 0.287158 0.4
-2.19529 0.143887 0.4
-2.19529 0.143887 0.4
-2.181179 0.287158 0.4
-2.157728 0.429199 0.4
-2.157728 0.429199 0.4
-2.181179 0.287158 0.4
-2.19529 0.143887 0.4
-2.19529 0.143887 0.4
-2.181179 0.287158 0.4
-2.157728 0.429199 0.4
-2.157728 0.429199 0.4
-2.181179 0.287158 0.4
-2.19529 0.143887 0.4
-2.19529 0.143887 0.4
-2.181179 0.287158 0.4
-2.157728 0.429199 0.4
-2.157728 0.429199 0.4
-2.181179 0.287158 0.4
-2.19529 0.143887 0.4
-2.19529 0.143887 0.4
-2.181179 0.287158 0.4
-2.157728 0.429199 0.4
-2.157728 0.429199 0.4
-2.181179 0.287158 0.4
-2.19529 0.143887 0.4
-2.19529 0.143887 0.4
-2.181179 0.287158 0.4
-2.157728 0.429199 0.4
-2.157728 0.429199 0.4
-2.181179 0.287158 0.4
-2.19529 0.143887 0.4
-2.19529 0.143887 0.4
-2.181179 0.287158 0.4
-2.157728 0.429199 0.4
-2.157728 0.429199 0.4
-2.181179 0.287158 0.4
-2.19529 0.143887 0.4
-2.19529 0.143887 0.4
-2.181179 0.287158 0.4
-2.157728 0.429199 0.4
-2.157728 0.429199 0.4
-2.181179 0.287158 0.4
-2.19529 0.143887 0.4
-2.19529 0.143887 0.4
-2.181179 0.287158 0.4
-2.157728 0.429199 0.4
-2.157728 0.429199 0.4
-2.181179 0.287158 0.4
-2.19529 0.143887 0.4
-2.19529 0.143887 0.4
-2.181179 0.287158 0.4
-2.157728 0.429199 0.4
-2.157728 0.429199 0.4
-2.181179 0.287158 0.4
-2.19529 0.143887 0.4
-2.19529 0.143887 0.4
-2.181179 0.287158 0.4
-2.157728 0.429199 0.4
-2.157728 0.429199 0.4
SCALARS cellStress float
LOOKUP_TABLE default
0.687195
0.694834
0.714973
0.727473
0.717447
0.697307
0.613305
0.633305
0.663418
0.673531
0.647281
0.617168
0.511416
0.536137
0.564721
0.568584
0.536137
0.507553
0.420445
0.440445
0.456582
0.452719
0.426469
0.410332
0.375139
0.382779
0.380305
0.370193
0.360166
0.362639
0.392805
0.385166
0.365027
0.352527
0.362553
0.382693
0.466695
0.446695
0.416582
0.406469
0.432719
0.462832
0.568584
0.543863
0.515279
0.511416
0.543863
0.572447
0.659555
0.639555
0.623418
0.627281
0.653531
0.669668
0.704861
0.697221
0.699695
0.709807
0.719834
0.717361
0.687195
0.694834
0.714973
0.727473
0.717447
0.697307
0.613305
0.633305
0.663418
0.673531
0.647281
0.617168
0.511416
0.536137
0.564721
0.568584
0.536137
0.507553
0.420445
0.440445
0.456582
0.452719
0.426469
0.410332
0.375139
0.382779
0.380305
0.370193
0.360166
0.362639
0.392805
0.385166
0.365027
0.352527
0.362553
0.382693
0.466695
0.446695
0.416582
0.406469
0.432719
0.462832
0.568584
0.543863
0.515279
0.511416
0.543863
0.572447
0.659555
0.639555
0.623418
0.627281
0.653531
0.669668
0.704861
0.697221
0.699695
0.709807
0.719834
0.717361
0.687195
0.694834
0.714973
0.727473
0.717447
0.697307
0.613305
0.633305
0.663418
0.673531
0.647281
0.617168
0.511416
0.536137
0.564721
0.568584
0.536137
0.507553
0.420445
0.440445
0.456582
0.452719
0.426469
0.410332
0.375139
0.382779
0.380305
0.370193
0.360166
0.362639
0.392805
0.385166
0.365027
0.352527
0.362553
0.382693
0.466695
0.446695
0.416582
0.406469
0.432719
0.462832
0.568584
0.543863
0.515279
0.511416
0.543863
0.572447
0.659555
0.639555
0.623418
0.627281
0.653531
0.669668
0.704861
0.697221
0.699695
0.709807
0.719834
0.717361
0.687195
0.694834
0.714973
0.727473
0.717447
0.697307
0.613305
0.633305
0.663418
0.673531
0.647281
0.617168
0.511416
0.536137
0.564721
0.568584
0.536137
0.507553
0.420445
0.440445
0.456582
0.452719
0.426469
0.410332
0.375139
0.382779
0.380305
0.370193
0.360166
0.362639
0.392805
0.385166
0.365027
0.352527
0.362553
0.382693
0.466695
0.446695
0.416582
0.406469
0.432719
0.462832
0.568584
0.543863
0.515279
0.511416
0.543863
0.572447
0.659555
0.639555
0.623418
0.627281
0.653531
0.669668
0.704861
0.697221
0.699695
0.709807
0.719834
0.717361
0.687195
0.694834
0.714973
0.727473
0.717447
0.697307
0.613305
0.633305
0.663418
0.673531
0.647281
0.617168
0.511416
0.536137
0.564721
0.568584
0.536137
0.507553
0.420445
0.440445
0.456582
0.452719
0.426469
0.410332
0.375139
0.382779
0.380305
0.370193
0.360166
0.362639
0.392805
0.385166
0.365027
0.352527
0.362553
0.382693
0.466695
0.446695
0.416582
0.406469
0.432719
0.462832
0.568584
0.543863
0.515279
0.511416
0.543863
0.572447
0.659555
0.639555
0.623418
0.627281
0.653531
0.669668
0.704861
0.697221
0.699695
0.709807
0.719834
0.717361
0.687195
0.694834
0.714973
0.727473
0.717447
0.697307
0.613305
0.633305
0.663418
0.673531
0.647281
0.617168
0.511416
0.536137
0.564721
0.568584
0.536137
0.507553
0.420445
0.440445
0.456582
0.452719
0.426469
0.410332
0.375139
0.382779
0.380305
0.370193
0.360166
0.362639
0.392805
0.385166
0.365027
0.352527
0.362553
0.382693
0.466695
0.446695
0.416582
0.406469
0.432719
0.462832
0.568584
0.543863
0.515279
0.511416
0.543863
0.572447
0.659555
0.639555
0.623418
0.627281
0.653531
0.669668
0.704861
0.697221
0.699695
0.709807
0.719834
0.717361
0.730033
0.740059
0.762586
0.775086
0.762672
0.740146
0.635006
0.661256
0.697619
0.707732
0.675232
0.638869
0.503691
0.536137
0.572447
0.576309
0.536137
0.499828
0.386244
0.412494
0.434881
0.431018
0.398518
0.376131
0.327527
0.337553
0.337467
0.327354
0.314941
0.315027
0.349967
0.339941
0.317414
0.304914
0.317328
0.339854
0.444994
0.418744
0.382381
0.372268
0.404768
0.441131
0.576309
0.543863
0.507553
0.503691
0.543863
0.580172
0.693756
0.667506
0.645119
0.648982
0.681482
0.703869
0.752473
0.742447
0.742533
0.752646
0.765059
0.764973
0.730033
0.740059
0.762586
0.775086
0.762672
0.740146
0.635006
0.661256
0.697619
0.707732
0.675232
0.638869
0.503691
0.536137
0.572447
0.576309
0.536137
0.499828
0.386244
0.412494
0.434881
0.431018
0.398518
0.376131
0.327527
0.337553
0.337467
0.327354
0.314941
0.315027
0.349967
0.339941
0.317414
0.304914
0.317328
0.339854
0.444994
0.418744
0.382381
0.372268
0.404768
0.441131
0.576309
0.543863
0.507553
0.503691
0.543863
0.580172
0.693756
0.667506
0.645119
0.648982
0.681482
0.703869
0.752473
0.742447
0.742533
0.752646
0.765059
0.764973
0.730033
0.740059
0.762586
0.775086
0.762672
0.740146
0.635006
0.661256
0.697619
0.707732
0.675232
0.638869
0.503691
0.536137
0.572447
0.576309
0.536137
0.499828
0.386244
0.412494
0.434881
0.431018
0.398518
0.376131
0.327527
0.337553
0.337467
0.327354
0.314941
0.315027
0.349967
0.339941
0.317414
0.304914
0.317328
0.339854
0.444994
0.418744
0.382381
0.372268
0.404768
0.441131
0.576309
0.543863
0.507553
0.503691
0.543863
0.580172
0.693756
0.667506
0.645119
0.648982
0.681482
0.703869
0.752473
0.742447
0.742533
0.752646
0.765059
0.764973
0.730033
0.740059
0.762586
0.775086
0.762672
0.740146
0.635006
0.661256
0.697619
0.707732
0.675232
0.638869
0.503691
0.536137
0.572447
0.576309
0.536137
0.499828
0.386244
0.412494
0.434881
0.431018
0.398518
0.376131
0.327527
0.337553
0.337467
0.327354
0.314941
0.315027
0.349967
0.339941
0.317414
0.304914
0.317328
0.339854
0.444994
0.418744
0.382381
0.372268
0.404768
0.441131
0.576309
0.543863
0.507553
0.503691
0.543863
0.580172
0.693756
0.667506
0.645119
0.648982
0.681482
0.703869
0.752473
0.742447
0.742533
0.752646
0.765059
0.764973
0.730033
0.740059
0.762586
0.775086
0.762672
0.740146
0.635006
0.661256
0.697619
0.707732
0.675232
0.638869
0.503691
0.536137
0.572447
0.576309
0.536137
0.499828
0.386244
0.412494
0.434881
0.431018
0.398518
0.376131
0.327527
0.337553
0.337467
0.327354
0.314941
0.315027
0.349967
0.339941
0.317414
0.304914
0.317328
0.339854
0.444994
0.418744
0.382381
0.372268
0.404768
0.441131
0.576309
0.543863
0.507553
0.503691
0.543863
0.580172
0.693756
0.667506
0.645119
0.648982
0.681482
0.703869
0.752473
0.742447
0.742533
0.752646
0.765059
0.764973
0.730033
0.740059
0.762586
0.775086
0.762672
0.740146
0.635006
0.661256
0.697619
0.707732
0.675232
0.638869
0.503691
0.536137
0.572447
0.576309
0.536137
0.499828
0.386244
0.412494
0.434881
0.431018
0.398518
0.376131
0.327527
0.337553
0.337467
0.327354
0.314941
0.315027
0.349967
0.339941
0.317414
0.304914
0.317328
0.339854
0.444994
0.418744
0.382381
0.372268
0.404768
0.441131
0.576309
0.543863
0.507553
0.503691
0.543863
0.580172
0.693756
0.667506
0.645119
0.648982
0.681482
0.703869
0.752473
0.742447
0.742533
0.752646
0.765059
0.764973
