# vtk DataFile Version 5.1
vtk output
ASCII
DATASET POLYDATA
POINTS 2000 float
-0.154198 0.219507 1.37811 -0.0996853 -0.445471 -0.403639 -0.408487 -0.0829077 0.110832 
-0.446668 0.590491 0.797658 0.495179 -0.254881 1.20377 1.35992 0.546006 0.126118 
-0.865855 0.802996 0.577892 0.612567 0.603052 0.307719 0.019241 0.417848 -0.762946 
-0.385661 1.15405 -0.418495 0.591291 -0.390144 0.0746267 -0.360007 0.638745 -0.786532 
-0.925962 0.294426 -0.230888 -0.159913 0.039257 1.36181 0.687752 -1.12449 -0.189884 
-0.351069 1.07381 -0.11649 0.188746 0.316214 -1.25039 -1.18752 -0.516996 0.598408 
-0.713605 -0.769155 -1.05713 -0.164758 0.754582 -0.0642486 -0.527441 -1.04555 -0.778024 
-0.828175 0.52151 -0.00346803 -1.19737 -0.13998 0.688301 0.545673 0.621366 -0.628879 
-0.817493 -0.0652808 0.928322 1.09904 -0.365908 -0.371605 -0.603395 0.938209 0.480236 
-0.496153 1.21094 -0.144955 -0.753841 -0.174748 -1.26882 0.490906 -0.680198 -0.662592 
0.748031 0.963692 0.0724162 -0.165504 -0.876464 1.02291 0.315111 -0.0269337 1.11216 
-0.0427489 -0.603374 -0.932397 0.56112 -0.270909 1.30239 0.689187 -0.473014 -0.765612 
-0.551123 0.142928 1.21177 -0.955814 0.712815 -0.653986 0.617277 0.185129 0.0678904 
-0.878679 -0.071305 0.164037 -0.498102 -0.0967393 0.697717 -1.20458 0.328229 -0.317337 
0.544646 -0.324488 -0.876443 -1.28534 0.219558 -0.729166 0.535931 0.409843 -1.30796 
-0.504074 -0.661313 0.256301 -0.565516 -0.215048 0.713466 -0.882699 0.889507 -0.040595 
0.619697 -0.331255 0.220821 0.862379 -0.100012 -1.05272 -0.347047 0.560316 0.598297 
-0.512052 -0.702893 1.0547 -0.435856 -0.718818 0.871102 0.0708582 -1.10063 0.757538 
-0.608001 0.455972 0.506319 0.719154 1.11385 0.687974 -0.972351 0.626528 0.904813 
0.971266 -0.636294 0.217035 0.132889 -0.186537 -0.0677429 0.333537 -0.253146 1.31033 
0.721242 0.746878 0.23434 -0.846441 1.20681 -0.241286 -0.724576 0.541722 -1.05935 
-1.10907 -0.0702319 0.705467 -0.636124 -0.659219 -0.316837 -0.0686913 -0.65819 1.19793 
0.686477 -0.320219 1.07097 -0.814894 1.17762 0.0079465 -0.527381 -0.171714 -1.07563 
-0.511805 1.25735 0.028237 0.966913 -0.488831 -0.793722 -0.157476 0.390352 -0.616907 
1.2528 -0.00305751 0.131448 1.20267 -0.761374 0.0805251 -0.407968 -1.20569 0.457556 
0.194692 -1.41158 0.0396328 0.585586 0.744268 -1.07998 0.451073 -0.790656 -0.0951588 
-0.231872 -0.502081 1.03579 0.0115244 -0.438527 -1.19931 -0.268023 1.20238 -0.0749086 
1.32444 -0.359529 0.202671 0.467095 0.275027 -1.27789 1.29269 0.285396 0.14818 
-0.250611 -0.469898 0.332281 0.937658 0.127173 -0.321416 -0.922596 0.674218 -0.216877 
0.267261 0.923524 0.218359 -0.0659219 -0.221762 0.145575 -0.648652 -0.835707 0.345969 
0.553854 -0.689809 -0.367751 -0.327541 0.83898 -0.966252 0.11405 1.22337 0.327911 
-0.250831 0.540081 0.80813 -0.00936217 0.806045 -0.535462 -0.735461 -0.649415 -0.806971 
0.826514 -0.138893 0.191007 -0.508797 -1.22852 -0.416946 0.0133545 0.578981 -1.14595 
-0.398898 0.146252 0.768448 0.880241 0.143931 0.0396593 0.908257 0.66848 -0.106479 
-0.191207 -0.660248 0.548645 0.0186232 1.02077 0.678425 0.249407 0.0272796 -0.541394 
-0.366974 0.991206 0.174536 0.223333 0.96336 0.642034 1.26769 -0.496055 0.290306 
-0.0410895 -0.630659 0.299262 0.887285 0.714072 0.785174 -1.12949 -0.636931 -0.431662 
-0.290361 0.0416141 -0.700665 0.253393 0.599383 -0.333271 0.817788 -0.379461 -0.971621 
-0.409174 0.612586 -1.00389 -0.266763 -0.129633 -0.884773 -0.622603 -1.32394 0.0696428 
0.764671 -1.24027 0.25008 -0.0622968 -0.218612 0.276718 -0.662428 0.978979 -0.436672 
-0.00957667 -0.296169 1.22765 -0.399157 1.07127 -0.797833 -0.911188 0.619978 -0.843464 
-1.20046 0.663594 0.403144 0.399671 1.26981 -0.68309 0.347531 -0.181346 0.606419 
1.33844 0.293701 -0.0264636 -0.333986 1.11162 -0.938449 -0.256493 0.123868 0.0127741 
0.28044 0.653606 1.28958 -0.649693 -1.23683 -0.231084 0.00560734 0.995433 0.071519 
-0.213851 -0.925813 -0.371755 0.0723983 -0.164929 0.524842 1.30432 0.0355558 -0.589186 
-0.0490512 -0.633485 -0.847544 0.612577 0.00782548 -0.0511772 0.150676 0.604909 0.549418 
0.338165 0.394648 -0.294367 -1.13514 -0.771688 -0.407817 0.943234 0.515093 -0.128265 
0.334877 -0.193318 1.14112 0.0889532 -0.92738 -0.101566 0.144971 -0.52445 1.23655 
-0.941474 0.713966 -0.367224 -0.556343 -0.186192 -1.22248 0.555972 0.824483 0.252763 
0.420082 0.987512 -0.634327 -0.349872 -0.420714 -0.66769 0.535016 -1.03812 -0.239914 
-0.129704 -0.651886 0.620843 -0.408933 0.1454 -0.546476 1.25411 0.389982 -0.556252 
0.826091 -1.21462 0.167583 0.349297 -0.507048 -0.711045 -0.217896 0.707228 -0.646299 
0.300938 -1.00597 0.770808 0.474584 0.455313 -0.466761 0.813527 0.674709 0.115018 
0.166134 0.745881 1.12105 0.939849 -0.874403 -0.0544505 -0.925604 -0.958701 -0.203771 
-0.445043 0.98958 0.331603 0.673767 -0.725198 0.579955 -0.151528 -0.755543 -0.678385 
0.706497 -0.496982 -0.66387 0.00177486 -0.596041 0.489658 0.973673 0.349808 0.717052 
0.365514 -0.911846 -0.18939 0.114033 0.196643 0.576887 0.281779 -0.263261 0.713288 
0.341923 0.323928 -1.31495 -1.25354 0.1823 -0.267311 1.00888 0.465603 0.840776 
0.74066 1.2386 -0.228721 -0.256547 0.806192 0.872195 -0.379933 -0.904683 -1.01482 
0.978075 0.364673 -0.492862 0.137108 -0.621814 -0.17134 -0.871378 0.494258 -0.642758 
-1.29012 -0.288403 0.442181 0.707519 0.934163 -0.868155 0.272008 1.00017 -0.984178 
-0.742796 -1.08021 0.117757 0.200728 -0.704048 -1.17027 -0.824281 -0.776056 0.981733 
0.31676 -1.17573 -0.874626 1.12132 0.404724 0.903119 1.30194 -0.198247 -0.128834 
-0.708251 -0.0334909 -0.520315 -0.360726 0.643975 -0.945495 0.656871 0.801989 -0.169992 
-0.157561 0.392104 0.631586 -0.384468 0.616433 -0.545658 1.43378 0.0970389 0.144648 
-1.14205 0.0397436 -0.710735 0.785004 0.547038 0.0967277 0.0598514 -0.0655816 -0.921165 
0.0733799 0.0109362 0.373522 -0.423398 -0.251738 -0.275632 -1.25449 0.391243 0.365479 
0.181924 0.949954 -0.875422 0.154165 -1.18694 -0.268137 -1.06272 -0.0328587 -0.595608 
-0.554307 -0.0678572 0.463703 0.139838 -0.754766 0.26468 -0.84439 -0.769425 0.543239 
-0.237808 0.672067 0.508878 -0.926053 0.0844285 0.0384592 0.9622 -0.574519 0.491104 
0.451142 -0.732411 0.815881 0.149055 0.0512016 0.630189 0.0184368 -0.314955 0.511254 
-0.154289 -0.780071 -0.260226 0.734241 0.185438 -1.2112 0.336932 0.904993 -0.510741 
-0.302625 -1.17129 0.253721 -0.514496 0.230578 -0.888207 -1.05571 -0.728598 0.0182997 
-1.33078 -0.370272 0.369698 -0.803548 -1.18001 0.288865 0.780162 -0.174999 1.16446 
0.572901 0.0857923 -0.346048 0.603112 -0.501158 -0.187437 1.19028 -0.586146 0.28532 
-0.0176442 0.0965965 1.15023 0.0251301 0.0877065 0.317931 -0.585109 -0.663217 0.347647 
1.01839 -0.396377 -0.057413 -0.0570547 0.983892 1.10066 1.05318 -0.89352 -0.573051 
-0.374212 0.0237158 1.22038 -0.257633 -0.53097 0.435866 0.32801 0.916883 -1.02568 
0.840394 0.801442 -0.716426 0.649897 1.32356 0.22171 0.0133916 -0.742813 -0.603364 
-0.103734 1.09443 0.0689595 0.0197605 -0.79765 -0.0520136 -0.242697 1.40973 -0.00925475 
1.06002 -0.162614 -0.767611 -0.439198 0.504556 -0.568267 -0.111284 -0.377903 -0.144254 
-0.824918 -0.713356 0.819115 0.790225 -0.886712 -0.576834 0.911328 0.421865 0.234665 
-0.71082 -0.474948 -0.335594 -0.495209 -0.0807295 0.529592 0.285944 0.256098 -0.24004 
0.638611 -1.11782 -0.690586 1.00203 0.640722 -0.424214 0.845244 0.0596713 -0.536568 
0.479985 1.24827 -0.0725508 0.385681 -1.00011 -0.841788 -0.680766 0.732601 -0.70373 
-0.239979 -1.26156 -0.172403 -0.944147 0.316759 0.149456 -0.353952 0.736759 -0.231574 
-0.751873 -0.974099 -0.660918 -0.505675 0.463862 -0.893547 0.733781 -0.291131 -1.16476 
1.3747 -0.209155 -0.499004 0.122642 0.562552 0.671697 0.336158 -1.39319 -0.21371 
0.0606819 1.21017 -0.166805 0.916431 0.158027 -0.4912 -1.18626 0.416824 -0.78233 
-0.0556262 0.722131 -0.222189 1.24499 0.45097 0.285768 0.174899 1.30134 -0.270436 
-0.0456542 -1.15621 0.273945 1.10731 0.790648 -0.534658 0.115334 -0.776311 -0.263828 
-0.672198 -0.969032 -0.744365 -0.272386 -0.0542709 -1.33862 0.889705 0.769368 -0.164652 
-0.790452 -0.860329 0.904831 0.330093 1.24388 -0.0950747 0.668983 0.39049 -0.978589 
-0.175419 0.945818 0.421578 -0.508895 -0.879545 0.477195 0.138121 0.18702 0.190407 
0.8882 0.341086 0.846242 -0.978916 -0.284195 -0.657485 0.275017 -1.27269 0.589436 
-1.43088 -0.165497 -0.0645802 0.480701 -0.492404 -0.0204478 0.342341 0.167074 -0.855434 
-0.966639 -0.745292 0.0201866 -0.803955 -0.966299 0.191076 -0.0410264 0.0298953 -0.777375 
-0.316301 -0.159702 0.700315 -0.829434 0.0180263 0.636881 -0.894168 1.136 0.374724 
0.323626 -0.67148 0.015737 1.24725 0.196314 -0.221824 0.457898 -1.13928 -0.251939 
-0.316656 -0.962639 0.0171494 1.05755 0.306025 0.961122 0.80136 -0.102885 0.0584479 
-0.70797 0.926177 0.136038 0.575868 -0.476995 -0.0665201 -0.608079 -0.902916 -0.19407 
0.363646 -0.821017 -0.868147 -1.30397 0.67308 -0.180237 0.218022 0.730988 -0.921027 
-0.590813 1.32179 0.271446 -0.758733 0.182634 0.912692 -1.22727 -0.591911 -0.403905 
-0.0200204 -0.861717 -0.130154 -0.316632 -0.600584 0.822613 0.612429 -0.238848 0.0717973 
0.861463 -0.620189 0.427293 -0.421661 0.318836 -0.830741 0.570763 0.772069 -0.428205 
0.194141 -0.511582 -0.796591 -0.866649 1.03927 0.142448 -0.302303 -0.284152 1.41839 
-0.927879 -0.577371 -0.247607 0.921938 0.980518 0.256753 0.502276 0.227332 0.384181 
0.271575 0.456748 -0.644213 -0.611499 -0.304727 -0.677869 -0.124072 -0.185769 0.235798 
0.60076 -0.115659 0.625429 -0.372416 -0.90188 0.577481 -0.988347 0.759691 -0.673028 
-0.596207 -1.18466 -0.131345 -0.451699 0.154556 1.22256 0.859878 -0.0600041 -0.24698 
0.88417 -0.607416 -0.314597 0.307325 -0.646704 -0.728624 0.103551 0.6565 -0.968958 
-0.294343 0.444124 0.261143 -0.563425 -1.12252 0.419604 0.81442 -0.163186 -1.1188 
0.302224 0.301244 1.15771 -1.42424 -0.00956728 -0.0854656 0.586933 0.179939 0.0388267 
0.465338 0.00591598 -0.239511 -0.181264 -0.113547 1.47504 -1.15973 0.0169281 0.159099 
0.0838298 1.23846 0.104195 -0.337115 -0.442592 -1.37562 0.221507 0.117683 0.520175 
0.195667 1.31438 0.495437 -0.0779705 0.717216 0.0749525 0.852501 0.774064 0.211199 
0.0204186 -0.320299 -1.2695 -1.03425 1.07208 -0.123531 0.872689 -0.90204 -0.208962 
0.578104 -0.10056 -0.738009 1.10525 -0.832685 0.558376 0.492277 -0.442116 -0.835833 
1.29031 -0.164183 -0.226263 -0.778673 1.02235 0.11761 -0.11939 -0.598023 -0.798569 
0.304353 0.954411 0.956953 0.0460222 0.217424 0.972263 0.996249 -0.594145 -0.803047 
-0.0066909 0.936606 -0.0920306 -0.908768 -0.0196434 -0.935875 -0.62172 1.12924 0.527904 
0.452525 0.121979 -1.30554 -0.646584 0.419016 0.354355 -0.879636 1.13477 0.224745 
1.07578 -0.342659 -0.308948 0.36687 0.692457 0.71363 0.518421 -0.108297 -0.00728259 
0.787154 -0.249528 0.87056 -0.566324 0.769989 -0.957458 -0.0522233 -0.505594 0.948576 
0.270617 -0.650758 -1.20856 0.851574 0.638081 0.173476 -0.824992 0.207954 1.08666 
0.0767206 -0.0747846 -1.47643 0.218423 -1.20117 0.523885 1.07962 -0.517034 0.230949 
-0.0609962 -0.765224 0.327939 0.33609 -1.01146 0.0391086 0.870966 0.750268 0.303781 
0.393929 -0.184754 0.579798 -0.446492 0.00524285 -0.773855 -0.0452228 -0.496267 0.704698 
0.221779 0.889043 0.819189 -0.550769 0.54941 -0.633789 0.147231 -0.33991 -0.630862 
1.22286 -0.140273 -0.318011 -0.522241 -1.01112 0.00393585 0.141494 -0.412584 -0.992915 
-0.258793 0.132488 -1.03764 -0.695471 0.560978 -0.845267 0.432982 0.51754 -0.733036 
0.85755 -0.743577 0.806553 -0.181421 -0.835609 0.601349 0.727619 0.896303 0.316673 
-0.781645 0.105686 -0.426177 -0.165957 0.070163 1.33309 -0.601967 0.965268 -0.152 
1.04604 -0.501781 0.462849 0.805878 -0.130132 -0.137485 -0.0112882 1.23605 -0.728875 
0.674613 -0.219632 0.597495 -0.753507 0.12517 1.15249 -0.905638 -0.651109 0.962647 
-0.285829 0.2628 -0.404372 0.442479 -0.210124 -0.446716 0.668136 0.351445 1.20518 
-0.667057 0.276793 0.325996 -0.471779 -0.599777 0.174994 -1.00234 -0.210204 0.236413 
-1.19565 0.415438 0.116911 -0.00413097 -0.318159 -1.22619 -0.383868 -0.00518817 -0.0160727 
-0.437209 -0.312163 -0.169793 -0.431241 -0.525154 0.964616 0.94143 0.222859 0.730522 
0.516768 0.961559 -0.70765 -1.19331 0.226364 -0.36296 0.303547 0.208249 0.843001 
-0.0193918 -0.779872 0.0947633 0.597493 0.340014 -0.399041 -0.536197 0.520676 -1.04633 
0.165536 0.64332 -0.915995 -0.316776 0.483094 0.981441 0.845199 0.708106 0.664346 
1.06418 -0.77775 0.266402 -0.0335014 -1.10428 -0.775301 0.267782 -0.748779 0.907402 
0.127792 0.152053 -0.427008 1.11991 -0.384979 0.894649 -0.00248371 -1.36284 0.512237 
-0.650141 0.762143 0.258433 -0.622938 0.301199 -1.19298 -0.0316131 0.896172 -0.640612 
0.684092 0.134493 1.16861 0.749715 -0.000299489 0.39593 -0.249975 -0.682867 -1.24163 
0.826069 0.35361 -0.145999 -0.180149 0.519576 -0.756634 1.27785 0.361595 -0.0253205 
0.217914 -1.31976 -0.388222 0.396454 -0.125409 -1.21845 0.489192 -1.36052 0.0162774 
-0.867263 -1.11087 -0.136025 0.436282 -0.604194 0.763894 0.906813 0.268152 1.00274 
0.0743289 -0.659244 1.05818 -0.944873 -0.147451 -0.145116 -0.545637 -1.2327 -0.249655 
-0.917205 0.334631 -0.159489 0.830213 -0.930415 -0.646585 0.286811 0.494292 1.16595 
1.26756 -0.548644 0.394074 -0.695717 0.386584 0.294168 0.305756 -0.791624 -0.761131 
1.15847 0.230292 0.924183 -0.48744 -0.491252 -0.949046 -0.789992 0.787555 -0.812922 
0.293121 -0.395945 -0.296979 -0.240808 0.678941 -0.905399 -1.29283 -0.236902 0.0852355 
0.617279 -0.27389 0.32601 -0.531179 0.178656 -0.986589 0.51523 -1.08047 -0.281704 
0.233322 -0.810464 0.0293554 -0.160514 0.0428019 0.346953 0.37449 0.882926 0.122092 
-0.55068 0.195778 -0.278179 -1.045 -0.52574 -0.825285 -0.456772 1.24793 0.441534 
-0.38511 1.08921 0.444383 0.882811 0.683067 -0.956609 -0.478596 -1.10067 0.0137103 
0.369809 -0.670739 0.968718 -0.501252 -0.474342 1.09907 -0.881057 -0.0281408 -0.199135 
-0.820583 0.219052 -1.19329 0.930826 -0.579729 -0.513906 0.159732 -0.0881051 1.17489 
0.722856 0.709246 -0.421156 1.07224 -0.371842 0.105667 0.584689 0.0888139 0.88504 
-0.310979 1.17272 0.754451 -0.562344 -0.268584 0.719282 0.867515 0.36231 0.215096 
0.77626 0.84295 0.649936 0.0259425 -0.343735 -1.32366 -0.545226 -0.535272 -0.441264 
0.352768 0.147886 -0.204267 0.373379 -0.892467 -0.88615 0.746613 -0.703455 0.963008 
-0.89963 -0.527799 -0.493483 -0.6277 -0.283046 -0.366526 -0.266127 -0.967955 -0.331052 
-1.08751 -0.528858 -0.119884 1.04497 -0.0929189 0.613073 0.455508 0.931913 -0.663677 
-0.294295 -1.07884 -0.303033 0.234988 -0.313434 -0.504323 0.351489 -0.616646 1.05719 
0.254628 0.469205 1.21714 1.06964 -0.58965 -0.777441 1.00014 0.38131 0.330034 
0.23394 -0.462688 0.197726 0.241814 0.596297 0.0651423 0.780888 -0.906941 0.86928 
-0.759314 -0.938821 -0.604142 0.663402 -0.360646 1.08417 0.428724 0.124723 0.897708 
-0.864132 0.478144 0.495103 1.41535 0.212489 -0.35525 -1.09291 0.211406 -0.257219 
-0.269029 0.712919 0.169759 -0.4015 0.193877 -1.22029 0.786819 -0.0623334 0.716914 
-1.11842 -0.105247 -0.0664094 1.04269 -0.332843 0.0445956 0.730591 -0.57624 0.0493716 
0.276621 0.547561 -0.131754 1.35749 -0.0992878 0.131603 1.04365 0.307034 -0.481979 
-1.2621 -0.0891751 0.410751 -0.659509 -0.921644 0.919482 0.131269 0.409987 -0.412435 
-0.318316 0.542083 -0.780233 0.165814 0.387715 1.19815 -1.21329 -0.0781566 -0.651527 
0.947459 0.988044 -0.201584 -0.088775 -0.411355 -0.931191 0.839457 -0.144214 -0.355622 
0.182224 -0.801614 -1.15899 -0.540104 -0.701901 0.835057 0.46843 0.23409 -0.644161 
0.00827743 1.42708 -0.43758 -0.711373 0.358191 0.497853 -1.15308 0.0876427 -0.698585 
1.20538 0.0584233 -0.186588 -0.118368 0.511387 -0.0506127 0.279709 0.945151 0.813444 
-0.413984 0.682405 1.06158 1.28565 -0.0917396 0.329577 -1.29581 0.387842 0.136989 
0.354843 1.24156 -0.217716 0.455796 -0.396232 0.822715 0.21778 0.687285 -0.606697 
-0.184261 0.0124747 -0.285993 -0.89219 -0.115713 -0.348541 -1.01777 -1.05749 0.00254352 
-0.92051 0.819654 -0.152829 1.46959 0.191851 0.0502098 0.766284 0.795559 0.675204 
-0.0638657 -0.0866173 0.611791 0.109932 0.0975045 -0.0884138 0.35621 -1.09739 -0.91807 
0.613908 0.615298 -0.713721 0.543368 0.0592192 -0.734218 -1.09546 -0.762355 0.327505 
-0.977024 0.575917 -0.881041 0.63986 0.12284 -0.376274 -0.523295 1.06188 0.358871 
-0.980943 -1.04015 -0.0600034 0.385853 -0.365962 -0.245108 0.780285 0.0588998 -0.915497 
-1.01709 -0.857758 -0.090646 -0.297984 0.811789 -0.173785 -0.73303 0.0794969 -0.519271 
0.998478 -0.473205 -0.0778877 0.814311 0.62346 0.970388 0.290578 0.747376 -0.870252 
-0.343394 0.397649 -0.542885 -0.528382 0.0104522 0.578919 -0.700806 0.347823 -0.147674 
0.0245239 -0.274785 0.240221 -0.934542 -0.040873 0.295999 1.13779 0.623802 0.222754 
0.665686 -0.0956848 0.0252599 0.102989 -0.740448 0.839576 -0.366344 -0.625877 -1.24431 
0.117242 1.20397 -0.573348 0.532202 0.0706002 0.782446 1.17302 -0.158958 -0.826646 
0.895297 0.215659 -0.425363 1.24329 -0.375973 0.607587 -0.999095 0.505229 0.0290645 
0.353536 -0.93595 1.03876 0.282951 1.24849 0.466227 -0.538966 -0.545537 -0.142153 
-0.354315 0.947048 -0.166934 -0.866018 0.381108 0.233841 1.42713 -0.241194 -0.217612 
0.520999 -0.604129 0.764432 -0.789128 0.0883318 -0.769188 -0.318353 -0.354364 0.181462 
1.08886 -0.989968 0.203215 0.24382 1.16291 0.599376 0.416636 0.124129 -0.701717 
0.346066 -0.591005 -0.0577911 0.527905 1.04837 0.741174 0.194052 0.566045 -1.2576 
0.281086 0.582247 0.25016 -0.741109 -1.07839 -0.489101 -0.485382 1.06904 -0.386234 
0.662645 -0.238448 -0.577883 -0.297206 -0.326035 1.05511 0.344567 -0.0848756 1.20074 
-0.159048 -0.51027 -1.28977 0.264231 -0.27098 1.26109 1.02505 -0.00765499 0.215669 
-0.173874 -0.299174 1.07042 0.0394138 0.00433341 -0.386031 0.70722 -0.230672 -1.1619 
-0.382708 0.930706 -0.275348 -0.507798 0.795646 0.403636 -0.549459 0.342659 0.401886 
0.404587 -0.0169987 -0.677288 -0.480334 -0.0782369 -0.186884 1.319 -0.525715 0.294854 
1.0672 -0.222968 0.0570475 0.513783 -0.361704 1.12832 0.726718 0.692726 0.797505 
0.660285 -0.681927 -0.829593 0.0802276 0.0295556 -1.05132 0.395605 0.487053 0.570895 
-0.0995668 -0.0772986 0.394854 0.253657 -0.993856 0.315574 0.825466 0.853339 -0.475457 
-1.06506 -0.527512 0.576377 -0.37932 -0.685431 -0.184319 1.11011 -0.392389 0.858927 
-0.190907 -0.648836 0.600284 0.0135012 -0.900145 -0.706474 -0.559641 -0.696055 0.244667 
0.0727709 -0.840508 -0.756187 -0.667224 1.01122 0.636148 -0.0514273 0.437595 -0.544494 
1.0768 0.74891 -0.498846 -1.20273 -0.674157 -0.114304 -0.715586 0.0300274 1.11626 
-0.870555 -0.771758 0.446308 -1.19152 0.566661 -0.426232 0.00440941 -0.632195 1.27575 
-0.543825 -0.496922 -1.0295 -0.407588 0.512199 -0.925516 -0.240306 -1.31121 -0.571734 
-0.422856 -0.877675 0.205595 0.4312 -0.178165 0.228904 0.267413 -0.707197 -1.11346 
0.857973 -0.697903 0.582287 1.03318 -0.563719 0.347558 -0.439364 -0.34096 -1.31904 
-0.980232 0.440451 -0.902486 -0.486772 -0.267332 -0.662896 -0.193886 -0.342101 -0.544475 
0.0935926 -0.517525 1.39396 0.494245 -0.703763 -0.744893 0.163562 -0.0103781 -1.18304 
1.34843 0.321359 -0.00714086 0.532019 0.266019 -0.479891 -0.0356287 0.994749 0.557431 
0.463681 -1.41877 -0.0480684 -0.508392 0.172649 0.415543 -0.310761 -0.521942 -0.432044 
0.684894 0.965386 -0.683062 -0.560954 0.810639 0.672969 0.360721 -0.479225 -1.35198 
0.601877 -0.280406 0.473825 0.550293 -0.0374082 -0.358602 0.571507 1.01628 0.136059 
-0.603516 0.948982 0.0973991 -0.365281 0.554211 -1.20052 1.21656 -0.500157 -0.124551 
-0.496725 0.246241 -0.141963 -0.705344 -1.2312 0.184685 -0.0195757 0.584997 -0.159049 
-0.914291 -0.251528 0.61776 0.636584 -0.84833 -0.273295 0.257766 -0.64766 0.420718 
0.22578 -1.34215 0.139811 -0.124366 0.522475 1.02786 0.536712 -0.88711 -0.92113 
-1.25992 -0.508822 -0.465089 0.800712 -0.0201181 0.608239 0.604367 0.605375 -0.662563 
0.791571 0.0826386 1.03131 -1.20293 -0.117785 0.703596 -1.2094 0.691872 -0.233914 
-1.38817 0.026745 -0.0425302 -0.110299 -0.331006 -0.970318 0.134 -0.775082 -0.80758 
0.319046 1.09387 0.961817 0.342239 0.690762 -0.194282 -0.817918 0.153708 0.401613 
1.39853 -0.211674 -0.312955 -0.132097 -1.13957 0.906646 0.68125 0.782139 -0.11686 
-0.018772 -0.0635529 -1.41882 0.20105 -0.0341909 -0.923379 0.193351 -0.804671 0.152647 
0.318707 -0.07567 0.81502 -0.776655 -0.815785 0.122839 0.364909 -0.186028 0.58616 
0.12661 -0.18023 -0.318323 0.0765959 1.03943 0.30555 -0.102464 -0.0568886 -0.560409 
-0.90696 -0.528716 0.654722 -0.772211 0.165015 0.344985 -0.115232 -0.852321 0.24685 
-0.990611 -0.336538 -0.735535 -0.200156 1.16457 -0.0450276 0.183497 0.526824 1.2577 
-0.466268 0.501999 0.489062 0.229538 -0.378483 -1.02931 -0.129809 -0.657337 -0.0187117 
0.168686 -0.675843 -0.354517 0.0236486 0.849237 -0.0390323 -0.574359 -0.502315 0.371461 
-0.41449 -0.93847 -0.332358 -0.0195104 -0.5285 -0.303773 0.0620361 0.512552 -0.0479762 
0.271443 -1.26671 -0.161118 0.637596 0.304676 -1.08887 1.02463 -1.03607 0.290598 
-0.2167 -1.21997 0.616356 -0.255653 -0.233263 1.33529 0.324811 -0.329313 -1.07208 
0.361542 -0.886459 -0.459435 -0.630244 -0.637056 1.02695 -0.634116 0.693885 -0.550866 
-0.997581 0.713589 0.479151 -0.446548 -1.10414 -0.126277 -0.293743 -1.10121 0.753554 
0.3475 0.317276 -1.16841 0.909869 -0.330124 0.322064 0.163266 -0.180228 -0.866227 
0.289294 -0.896527 0.956353 -0.655387 0.819174 0.851469 0.965961 -0.308992 -0.504188 
0.107058 -0.793858 -0.834358 0.872352 -0.331093 -0.778844 -0.142981 0.419755 -0.177214 
0.219155 -0.716426 -1.2549 -0.502932 0.680261 0.303934 0.0466122 0.721099 -0.293099 
-0.41506 0.495281 0.982502 -0.304087 -1.00911 -0.0334839 -0.788036 0.377782 0.294701 
0.851989 -0.234244 -0.463069 0.358881 -0.405967 0.240186 -1.12468 -0.140554 -0.37885 
0.409489 -0.125522 0.740881 0.0102345 -0.583135 0.149408 -0.389113 1.10678 0.916256 
0.286035 0.501689 0.956561 0.521609 0.250398 -0.205667 -0.164585 -0.988368 0.818116 
0.77407 -0.354174 -0.9291 0.519948 0.748217 0.84737 1.07172 -0.743188 0.723951 
-0.741267 0.166319 0.747312 0.594249 -0.623231 1.11044 -1.48299 -0.106094 0.114189 
0.182701 1.43259 -0.11749 0.794263 0.566957 0.107389 -0.908072 -0.733527 0.559636 
0.276147 0.166876 0.945543 -0.0629126 0.271574 0.864857 1.05757 0.909314 -0.530086 
0.377455 -0.956998 -0.280124 0.538379 -0.45555 0.619366 0.479295 1.31739 -0.073555 
-0.709377 -0.439947 0.209244 -0.193327 -0.269226 0.0462551 -1.10568 -0.210841 0.180151 
0.579501 -0.572381 -0.0421865 -0.10338 -0.00518155 -0.035199 0.0597017 -0.619114 0.0517989 
-0.420139 -0.745759 0.17533 -0.111801 0.909707 -1.08613 0.0123883 0.883168 -0.873202 
1.11696 0.123788 0.716966 0.928208 -0.0942696 0.557777 -0.17639 -1.28731 0.704966 
0.231283 0.00116411 -1.42121 -1.09087 0.907237 0.104054 0.537462 -1.06028 -0.759455 
0.355373 -0.631429 0.524774 0.298951 -0.825557 0.0445981 0.362533 0.765545 -0.174939 
1.11397 -0.609657 -0.564456 -1.06545 -0.0660286 -0.052254 -0.356777 0.589642 1.27649 
0.688876 -0.0747427 0.32833 -0.292887 -0.344907 -0.619119 -0.194918 -0.589118 1.11112 
0.856716 -1.16351 -0.120848 0.24914 -0.121034 -1.14519 0.670117 -0.730765 0.362298 
-1.03595 -0.762635 0.27812 -0.0494028 -0.18533 -0.665254 0.609949 0.728527 0.171921 
-0.314255 -0.279288 0.263145 0.188675 -0.365245 -1.12499 -0.464995 -1.24067 -0.550309 
0.283578 -0.00920495 0.573226 0.372543 -1.09955 0.859323 -0.346046 -0.606304 1.07453 
-0.160525 0.590182 -1.30705 0.435082 -0.315212 0.616053 -0.140787 -0.862285 -1.1416 
0.954754 0.991719 0.490309 -1.14229 -0.441546 -0.436462 -0.0760945 0.856156 0.832637 
-0.3208 -0.672076 -0.826761 0.0081501 0.298712 -1.31383 -0.231544 0.046431 -0.164157 
0.590921 0.312106 0.749744 0.486664 -0.505863 -0.579636 1.16496 0.806495 0.318784 
0.208092 0.982317 -0.62155 -0.608755 -1.24724 0.417465 -0.80665 -0.067971 -0.26795 
-0.929107 0.134131 0.260771 -0.287863 0.0862869 -1.18596 0.843365 0.684743 0.0185042 
0.269343 -0.796116 0.628394 0.400788 -0.28894 -0.648549 -0.0979613 -1.06608 1.04451 
-0.362905 -0.0722722 0.381149 0.176182 -0.207763 0.100414 0.33303 0.811764 -0.172238 
1.23306 -0.425928 0.366304 -0.399144 -0.250238 0.155987 -0.906929 0.107649 0.131124 
-0.776666 0.688539 0.0470032 -0.132529 -0.460376 0.186562 -0.01849 0.390327 0.00630078 
1.10539 -0.315838 0.316566 0.55534 -0.989423 -0.0914236 0.446244 -1.11046 0.344389 
0.742026 0.185977 0.248082 -0.377423 0.0188289 -0.487469 -0.166872 -1.07661 0.989386 
0.325765 0.754236 -1.24649 0.533978 0.211519 0.554233 -0.0724398 0.995961 -1.04965 
-0.150819 0.41798 -1.11043 0.113575 0.256138 0.609981 0.481918 0.929125 0.367371 
0.0339209 0.523217 -0.541951 0.00169213 -0.547274 -0.0817529 -1.34456 -0.461217 -0.0586361 
-0.42216 -1.12625 0.204855 -0.152474 -0.572889 -1.23796 0.814813 0.626518 0.10241 
-1.4141 0.353553 0.318246 0.545878 -0.403286 0.653174 -0.152333 0.0401667 -1.0137 
-0.824858 0.277024 -1.03924 0.153532 1.15104 -0.889303 -0.221777 -0.303917 0.805727 
-0.0506162 0.227267 -0.89489 0.467267 0.468532 -1.14144 -0.648936 -0.915403 0.0221805 
-1.02692 -0.40601 -0.434348 -0.674346 -1.05109 -0.308136 0.900813 -0.625264 0.198664 
0.374699 0.321387 -1.18792 1.40434 0.301387 0.274879 1.42552 -0.355741 0.03455 
-0.423305 0.982148 -0.930921 -0.788427 1.0995 0.644389 -0.747373 0.435167 -0.680578 
0.313832 0.0145529 0.466767 -0.538863 0.0729225 -1.14677 -0.553338 -0.115747 -0.244036 
0.415981 -0.671454 1.1962 0.596057 -0.384089 -0.909734 0.560554 -0.0748103 -0.506845 
-0.450227 -0.672756 1.01977 -0.472185 -0.48727 -0.218008 0.0868137 1.12926 0.165222 
-0.872538 0.259871 -0.0288023 -0.0772223 -0.202141 0.165515 0.318918 -0.157005 0.366903 
0.830789 1.03022 0.583392 -0.391793 -1.05325 0.139751 -1.24146 0.330614 -0.4023 
-1.18929 -0.3831 0.541142 -0.19968 -0.716174 1.14541 -0.439644 -0.11733 -0.667517 
-0.0706333 0.0815991 0.136851 0.199635 0.556058 0.299475 -0.372406 0.362376 -0.286503 
-0.622957 0.302345 0.733881 -0.919916 0.166672 -0.870082 0.0507404 0.528277 1.02728 
-0.352922 -1.2878 -0.311177 -0.568531 -0.826315 -0.589673 -0.245248 -0.951631 0.681114 
1.37243 -0.0859424 -0.18985 0.129541 -0.576977 -0.279266 0.125354 -0.246127 1.01415 
0.183204 -0.453945 0.197739 -1.14274 0.766507 0.515782 -0.238223 0.644676 1.12538 
-0.62628 0.489357 -0.103742 -1.14797 -0.160389 0.543181 -0.163151 -1.05872 -0.904453 
0.670834 -1.02311 0.67872 -1.05248 -0.514378 -0.402562 -0.313663 -0.915282 0.00612894 
0.930132 0.0533365 1.09146 -0.90187 0.568155 0.721798 0.076068 -0.172643 -0.107025 
-0.302961 1.40636 0.331608 -0.293911 0.802603 0.34409 -0.522829 -1.03341 -0.594601 
0.358243 0.587102 0.174567 0.211306 1.00168 0.676071 0.294444 1.29526 -0.351937 
0.118882 -0.791707 -0.72477 -0.135177 -0.383431 -0.722523 -0.0680791 -1.08657 -0.254927 
-0.273607 -0.224241 -0.394089 -0.0854122 -0.1555 -1.08265 -0.387033 -0.71802 -0.312178 
-0.333327 -0.765481 -0.709306 0.842806 -0.269828 -0.380275 0.194433 0.663051 0.532111 
0.496003 1.03847 -0.653635 0.788498 -0.237224 -0.744242 -0.570562 -0.721952 0.455674 
-0.599178 -0.700104 0.493956 -0.964204 0.762415 -0.676179 0.798024 -0.461225 -0.809422 
0.312043 0.304273 0.335336 -0.328132 0.140967 0.342932 0.278323 0.585545 0.779595 
-0.294283 0.881001 -0.941489 -0.120665 0.751404 1.09317 -0.444916 0.555627 -0.252821 
0.73886 0.632623 -0.91151 0.54558 -0.537112 1.1371 -0.443175 -0.16156 1.00562 
0.465857 1.24351 -0.254574 0.0789727 -0.534001 -0.919451 -0.103935 0.187606 -1.28681 
0.0033479 0.452101 1.30691 -0.625519 -0.109633 -1.20127 -0.66517 1.07536 -0.291235 
-0.43698 1.20687 -0.0575074 -0.116711 0.030322 -1.0331 -0.045304 0.40414 -0.0635531 
-0.379719 -1.2946 0.389818 -0.216213 0.396263 0.740098 -0.601556 -0.693823 -0.769408 
-0.411027 0.581557 -0.118169 -0.140331 -0.681337 -0.0083282 -0.125901 -0.369375 -0.555081 
-0.806996 0.17071 -0.0705033 -0.162307 -0.871707 -1.00819 0.271628 0.791745 -0.757302 
-1.09123 0.272633 -0.522082 0.519177 -1.25624 -0.290503 1.11278 0.955708 -0.147796 
0.648464 -0.334947 0.729124 0.894667 1.09533 -0.45633 0.710418 -0.725631 -0.422475 
0.202784 0.164367 -0.18502 -0.137002 0.0502002 -1.03257 0.107463 0.0856326 -1.31785 
-0.804929 -0.681109 -0.585591 -0.148599 0.107173 0.915925 0.606016 0.47543 0.809826 
0.459018 -1.39264 0.197286 -0.200412 0.487871 -0.799558 1.02264 -0.459974 0.330534 
-0.235755 0.543326 0.161632 -0.635773 0.684803 -0.886902 0.861286 1.03462 0.402029 
0.23946 0.96892 -0.590674 -0.452941 -0.76891 -0.292297 0.0145906 1.15798 0.580132 
-0.237913 -0.220216 0.689762 0.377625 0.497825 0.830164 -0.501361 0.23137 -0.582872 
-0.43389 -0.329603 -1.35338 0.55374 0.803792 0.563592 -0.114435 -0.892395 1.03292 
-0.660972 -0.510983 1.13307 0.247249 0.859134 -1.08741 -0.555573 0.0733281 0.436422 
1.29182 -0.0338991 0.0614044 0.169362 -1.05151 -0.899536 0.429148 -0.741922 0.142189 
-0.165586 0.00177506 -1.05503 -1.06566 -0.322498 -0.959349 0.944375 -0.246617 -0.133976 
0.619845 0.0454787 -0.308326 -0.653859 -0.534278 -1.21541 0.503664 0.218652 1.04235 
-1.1057 -0.0351903 -0.162176 1.35621 -0.0477182 -0.287777 0.254405 0.468 -0.835872 
0.608452 -0.256897 -0.697207 0.286342 -0.416164 0.163063 0.46159 -0.641414 0.300895 
-0.562425 0.636656 -0.769074 -1.11446 -0.0377564 0.670383 -0.360087 0.454317 0.84335 
0.426903 1.14197 0.00536256 -0.0531575 -0.965837 -0.777583 -0.607186 -0.694386 0.780948 
-0.734068 0.246201 0.304923 0.10796 -0.635806 -0.801995 0.234892 -0.865893 0.83822 
-0.897919 -0.389297 -0.836531 -0.996382 0.0835663 -0.720548 -0.458157 -0.526435 -0.267696 
-1.13336 0.609037 -0.195303 -0.832333 -1.0544 -0.013943 -0.596717 1.05024 -0.793131 
0.353155 0.309855 -0.45566 -1.00273 0.849409 0.189084 -0.179418 0.147392 -0.0245481 
-0.26732 -0.386409 -0.70334 0.753463 0.484707 0.228201 0.557922 -0.660905 0.961559 
1.10584 0.42176 -0.359609 -1.09319 -0.0870008 -0.336622 -0.363831 -0.352251 -0.884515 
0.392168 -0.897954 1.1298 -0.68337 -0.994743 -0.51185 0.173524 0.914148 1.06704 
-0.152812 -0.129955 -0.522168 0.637535 0.447087 -0.203484 -0.2076 0.594307 -1.05424 
0.697811 0.624101 -0.3906 0.31845 0.345089 -0.533214 -0.214006 0.208496 0.215007 
-0.760965 -1.00183 -0.0269671 -1.14139 0.301625 -0.296356 -1.01253 -0.542671 0.189685 
-0.131712 -1.21305 -0.12775 0.360776 0.424411 -1.04644 -0.0908045 -0.469586 0.381888 
1.36266 -0.187022 0.587621 0.421835 -0.88444 0.942267 0.402648 -1.30844 -0.571938 
-1.10757 -0.0884167 -0.855649 -0.377654 1.31058 -0.234728 0.0941688 -0.589165 0.405092 
0.613005 0.0738698 0.444717 0.679806 0.00915744 -0.490485 0.10918 -0.318866 0.916629 
-0.628936 1.24031 -0.511813 0.606076 -0.23103 1.04394 0.172131 -0.557586 -0.517991 
-1.02349 0.106548 0.809515 -0.114006 -0.0764911 0.362764 0.408156 -0.989172 0.608293 
-0.417844 0.361292 1.0726 0.241807 0.652403 0.0874015 -1.27408 -0.0792721 0.531045 
-0.291869 0.518048 -0.285232 -0.138616 0.967244 0.804625 -0.257788 1.22584 -0.00165197 
-0.157385 -0.922672 0.726587 -1.24978 -0.0171891 0.470002 -0.296015 0.199698 0.167366 
0.0614622 0.544189 -1.36152 0.260908 -0.409938 -0.710589 0.0788513 -0.403712 0.100018 
-1.1012 -0.501602 0.869985 0.165044 -1.07493 -0.885591 -0.771515 -0.632396 -0.654126 
0.274051 0.770778 0.717021 0.333593 -0.349765 -1.30218 -0.356417 0.634575 -0.645663 
-1.17874 -0.756115 -0.429573 -0.285754 0.41261 0.526283 -0.0462161 0.185011 -0.595827 
0.0851824 0.832555 -0.079094 -0.103509 0.200776 0.85591 -0.317904 -0.253943 1.38249 
0.208472 1.13909 0.172911 0.338826 -0.77031 -0.0951025 0.0936865 -0.311582 -0.142006 
-0.189247 -1.35842 -0.110569 -0.346762 -0.0420459 -1.20665 -0.301309 -0.869582 0.486787 
-0.114947 -0.328764 1.03177 0.54979 0.997864 -0.111421 -0.442578 -0.951417 -0.461298 
-1.19575 0.474332 -0.211949 -0.745215 1.19019 0.475754 0.404218 0.716946 0.888831 
0.90136 0.256058 0.00147813 1.14581 -0.681914 0.319421 -0.15342 0.124051 0.956464 
0.507899 -1.00589 -0.49505 0.301676 0.18519 -1.34127 0.926395 0.295666 -0.400591 
-0.0169456 0.872045 0.205513 -0.958047 0.261398 -0.493689 -0.157435 -0.0429078 1.22516 
0.0452586 0.832847 0.503232 0.405444 1.28234 -0.0874432 -1.20262 0.025187 -0.278121 
-0.797233 -0.616755 0.0282215 -0.623127 0.567436 -0.60392 0.770569 0.216459 -0.269284 
1.0608 0.935341 -0.0779282 0.389372 0.0171771 -1.0805 0.685505 -0.359699 -1.26999 
-0.423098 -0.990582 0.207298 0.973375 -0.283371 0.0434927 0.605779 -0.36419 0.484365 
-0.254665 0.0590044 0.415625 -1.1536 0.111867 0.0376773 0.186666 0.101951 -0.32194 
0.366273 1.08168 0.956101 -0.512771 -0.341534 0.129488 -0.737893 0.943297 0.792054 
0.935836 -0.381955 0.161539 0.724805 -1.1511 0.133492 0.0357754 0.537055 0.0964641 
-1.02318 0.0479606 -0.88057 -1.053 0.499618 0.84058 0.173619 -1.18018 0.0709575 
0.316575 0.339551 -1.13502 0.189722 1.443 -0.0187779 -0.188962 0.55242 1.0485 
1.08903 0.90007 0.396674 -0.728779 -0.956628 -0.0498465 -0.342669 0.976758 -0.844477 
0.226839 0.0681367 0.110825 -0.322784 -1.08282 -0.097293 -0.0884341 -0.240669 0.108992 
-0.86571 1.07339 0.542719 -0.642904 -0.806296 0.668043 -0.0497809 1.33807 -0.557772 
0.183157 -0.158002 0.163426 -0.0507603 0.00609884 1.08139 0.652356 -0.1948 -0.202209 
0.420839 -0.524482 -0.482439 0.12036 0.292238 1.13213 0.459352 0.99197 -0.469286 
1.07571 -0.463669 -0.567546 -1.02283 -0.738169 0.309387 -1.15466 0.114401 -0.483986 
-1.34324 -0.118255 0.461596 -0.150798 -1.45035 0.337231 -0.415716 -0.860249 1.08335 
-0.232395 -0.504037 0.684231 0.140965 0.845497 -0.237482 0.710497 0.534966 -0.832305 
0.169341 -1.32868 0.428707 -0.719317 -0.539916 0.296526 0.0306629 1.08457 -0.962415 
-0.547802 0.807149 0.983928 -0.603599 -0.619387 -0.486772 0.489356 -0.668927 -1.15094 
-1.10628 0.795652 -0.598328 -0.556708 1.00747 -0.429208 -0.720879 0.167477 0.955216 
0.777384 0.530574 -1.13487 0.0851484 -0.205238 -1.01701 -0.430082 0.689073 0.611873 
-0.996442 0.501542 0.452706 -0.91907 0.57584 1.01248 0.105239 1.32383 0.512125 
-0.871418 -0.237127 -0.0922247 -0.0992452 -0.453672 0.385741 -1.01745 -0.162379 0.950065 
-0.242209 -0.700247 -0.661974 0.883382 -0.356796 0.0453138 -1.05642 -0.129034 0.798378 
0.0103182 0.471319 -0.106547 0.381549 0.995211 0.80179 0.507462 0.49298 0.0592573 
-0.799815 0.554243 0.911162 -0.00967744 0.504278 -0.0337785 0.733913 -0.220734 1.21438 
-0.936431 -1.06391 -0.0111898 -0.28581 -0.975967 -0.236676 -0.947069 0.0517813 0.663518 
-0.521269 -1.0393 0.253628 0.0626195 -1.17514 -0.514099 -0.485375 -0.2158 -0.170446 
-0.0413883 -0.512464 -0.0771175 1.13224 0.339492 -0.46356 0.68857 -0.365885 0.486644 
0.327286 1.34696 0.00275644 0.360401 0.978394 1.02513 0.928438 0.471887 -0.38607 
0.890373 -0.356433 -0.857209 -0.211666 -0.460737 0.0597484 -0.569593 0.874981 0.463706 
-1.04907 -0.375557 0.365009 -0.5704 0.163244 0.969121 0.815251 -0.184969 -1.05659 
0.21076 -0.688924 0.5314 1.05521 -0.884619 0.297149 0.82191 0.35051 -0.548589 
1.08666 -0.24281 0.568237 -0.527705 0.201208 -1.34414 0.00308413 -0.417355 0.546235 
-0.340802 0.00564895 1.29517 -0.492278 -0.0661871 0.445568 -0.00730563 0.00637009 1.05902 
1.23312 0.632546 0.511274 0.156649 0.996426 -0.812123 -0.596258 0.106278 -0.174827 
-0.047089 -0.983098 -0.364554 -0.0370921 0.658803 0.438663 0.966643 -0.233591 0.765024 
0.822787 -0.891704 -0.745507 -1.40228 -0.124174 -0.474177 0.788337 -0.520846 -0.554596 
0.154209 -0.403932 0.260147 -0.534826 0.861396 -0.662789 -0.308753 -0.0709802 1.04819 
-0.519071 -0.310175 -1.14658 0.616495 1.04626 0.632879 0.0434327 1.35699 0.159047 
0.237194 -0.29674 0.344202 0.228111 -0.0677405 0.58673 0.885482 -0.0261017 -0.801753 
0.901531 -0.0139413 0.778516 0.622768 -0.457873 -0.222614 -0.138396 0.669992 0.61446 
-0.780454 1.08829 -0.34726 -0.218796 0.691677 -1.0099 -0.241347 1.10636 0.63127 
0.408736 -1.04183 0.579654 0.369299 -0.399898 0.200961 -1.00337 -0.605312 -0.758961 
0.479697 1.38815 -0.0686626 -0.749206 -0.706002 -0.602738 -0.0632496 -0.045389 -0.274435 
1.11199 -0.219954 -0.0152345 -1.13299 -0.576991 -0.361497 1.09508 0.765383 0.088237 
-0.738591 -0.377346 -0.38825 0.677131 -0.0513693 -1.27214 0.800232 1.09322 0.107671 
0.426623 1.08228 -0.06697 -0.432029 0.499996 0.19982 0.133291 0.748653 -1.05227 
-1.45283 -0.0328081 0.162623 -0.296644 -0.42877 -0.672061 0.760509 0.139149 0.343655 
0.196924 -0.247175 0.533008 0.511013 -1.07578 -0.620984 0.668592 -0.873536 0.0593987 
-0.726991 0.657499 -0.445007 -1.04976 0.355736 -0.727282 -0.540029 -0.714369 -0.0428576 
-0.346442 0.339426 -0.322651 -0.269706 0.172172 -1.42168 0.86196 -0.124971 -0.45466 
-0.726726 -0.148169 -0.784058 -0.536361 -1.39847 -0.0113175 -0.950915 1.00246 -0.325399 
0.385007 0.0367893 0.714536 0.326516 0.788586 -0.741175 0.703283 0.853529 -0.425253 
-0.619765 -0.996756 0.748794 0.0810928 0.17562 0.116097 -0.862316 0.705092 -0.284843 
0.199755 0.390492 0.938561 0.509924 0.517036 -1.28239 0.853553 1.00803 0.274986 
-0.897783 -0.338913 0.320379 0.46911 -0.166857 1.17739 -0.453555 0.0978436 -0.586298 
0.944908 -0.517375 0.995587 0.104434 -0.16694 -1.13096 -1.2611 -0.217467 -0.188899 
1.05088 0.248439 0.544391 -0.183522 -0.287408 -1.12636 -0.487391 -0.387032 0.605163 
-0.319929 -1.11092 -0.521613 0.270685 -0.466629 0.386875 0.301139 0.840453 0.355155 
0.780364 -0.29254 0.116185 0.366924 -0.269016 -0.102128 -0.794547 -0.755321 -0.59432 
0.22093 -0.647548 -0.278953 0.516402 -0.383788 -0.372396 -1.36071 -0.199142 0.364976 
-0.01495 -0.806778 0.548169 0.0811315 -1.33568 -0.542921 1.10832 -0.127034 -0.065948 
-0.963092 0.325554 -0.542266 -0.904931 -1.07198 -0.149472 0.911073 -0.269449 -1.03779 
-0.449208 0.0710062 -0.382925 -0.592669 0.521692 0.790344 0.99929 0.317582 -0.672139 
-0.858737 -0.170353 1.1235 0.319082 1.02629 0.363903 1.18858 -0.741563 0.168017 
0.58398 0.408045 -0.963497 -1.38816 -0.131384 0.395587 -0.239047 0.0194855 -0.371054 
-0.489701 -0.0458335 -0.911113 -0.0565459 -0.579619 0.634558 0.56638 0.725445 1.10271 
-1.32294 0.139231 -0.252518 0.117154 0.313241 1.45 0.0848533 -1.34123 0.27331 
-0.755797 -0.343747 0.467688 -1.26976 0.417679 0.619061 0.584284 -0.493369 0.112619 
0.270408 1.04651 0.59796 -0.970375 0.561578 0.295987 -0.182196 0.271174 0.293255 
-0.0701549 -0.856569 0.530035 -1.00415 0.355474 -0.349961 -0.291969 -0.0539386 0.0639906 
-0.433192 -0.219834 0.456151 0.248251 -0.688401 -0.260755 0.00832824 0.404248 0.829151 
1.11118 0.140348 -0.351296 0.300983 0.697853 1.21932 0.654774 -1.23506 -0.118079 
-0.185232 0.213872 0.18816 0.00244218 0.19462 -1.3901 -0.564452 0.864859 0.834823 
-0.401839 1.03253 0.0312726 0.159615 -1.41919 -0.0851864 0.767308 -0.313455 -0.753297 
0.980915 0.994328 -0.300295 -0.202328 -0.304151 0.866319 0.166529 0.243694 0.507827 
0.815919 -0.43142 0.585961 -0.0840146 0.241956 -0.614979 1.14544 -0.647154 -0.656993 
1.17658 -0.768377 0.417744 -0.844956 0.187796 0.00157674 0.0289778 1.00458 0.0137782 
-1.30631 0.544227 -0.323078 0.431212 -0.87575 -0.163693 -0.217543 0.961149 1.04132 
-0.735597 -0.588023 0.920441 1.13963 0.777267 0.379422 0.67478 -0.255 0.874647 
-0.952774 0.909084 -0.0547663 -0.662341 1.07392 0.308331 0.315028 0.180327 1.04606 
-0.686121 -0.0835179 -0.233406 -0.494497 -0.655916 -0.0156098 0.89502 0.787971 0.621462 
0.244404 -0.394422 -1.12638 0.69179 0.70706 0.995723 0.0074323 0.702546 1.14105 
-0.0524407 1.11223 0.105421 0.689263 1.01729 -0.815916 -0.481151 0.948263 -0.979472 
-0.157368 1.07304 -0.672185 0.43294 0.445277 0.32384 -1.20899 -0.685422 0.146455 
-0.110635 -0.586338 0.78919 -0.0868988 0.852881 0.196922 0.14425 0.968148 0.294639 
-0.129407 0.0999164 0.205767 -0.69939 0.996739 -0.660371 1.19525 0.551324 0.264206 
-0.17091 0.228829 0.625545 -0.498073 -0.979009 -0.56504 -0.102996 -0.946038 0.259675 
-1.06203 0.0587834 0.923588 0.292366 0.76366 -0.157221 1.02132 0.319335 -0.499931 
1.25446 0.500026 -0.278321 -0.823337 -0.181646 -0.149974 1.06652 -0.524648 0.400422 
-0.449557 0.575101 0.902574 -1.38646 -0.413092 -0.0295129 -0.210809 -0.192205 0.443038 
-0.0663203 0.262882 -1.0131 -0.580484 -0.912578 -0.76677 0.355304 0.411863 -0.436239 
0.35597 -1.1768 -0.616797 0.0556055 -0.382504 -1.40237 -0.585284 -0.35335 0.133748 
-0.354515 -0.942666 0.224733 0.485612 -0.195737 1.15419 -0.0913277 0.833971 1.11948 
0.226922 -1.24964 -0.0412986 0.482049 1.15788 -0.725881 -0.391164 -0.480036 -0.00704274 
0.000506898 -1.04113 0.439168 0.877502 0.378018 -0.10058 0.32967 -0.461874 1.04567 
-1.1193 0.828476 0.146747 0.564228 0.418335 1.02401 -1.13651 -0.143678 -0.187298 
0.0804456 -0.865421 -1.00536 0.895923 -0.657761 0.899231 0.0567745 -0.166521 -0.942332 
-0.423963 -0.544132 0.545448 -0.291137 -0.817857 -0.42883 -1.27308 0.650708 0.114119 
-0.413989 0.0408647 -0.0592801 -0.444808 -0.238673 0.203909 0.950227 0.210771 -0.903511 
-0.969574 -0.220261 -1.116 -0.024346 -0.121612 0.368037 0.840726 0.808483 -0.617156 
0.456069 -1.29132 -0.236031 0.216372 -0.619361 0.135224 -0.448357 0.171727 0.248802 
0.244429 0.566177 1.02408 0.528151 -1.18417 -0.255908 -1.07193 0.183105 0.0868631 
0.259091 -0.484864 -1.08988 0.0327903 0.29892 -0.973018 0.320394 1.34528 0.0238185 
1.07753 -0.129975 0.365512 0.54631 -0.0610742 -0.703507 0.765735 0.0300739 0.584112 
0.0855225 0.0995878 1.37953 -0.70302 0.911104 -0.614274 0.390991 -0.538049 -0.260101 
0.271051 0.518673 0.444437 -1.1239 0.593035 -0.362491 -1.07208 0.105718 -0.631564 
1.34351 0.452774 -0.21769 -0.482396 1.05211 0.0180507 0.227333 0.6695 -0.311343 
-0.893876 -0.452967 1.03899 -0.10305 -0.47366 0.593921 -0.603162 -0.806996 0.66618 
-0.725441 0.973873 0.335349 -1.19761 0.48742 0.512924 -1.24267 0.76018 -0.25799 
-0.19569 -0.266931 -0.880164 0.242965 0.643384 1.00175 -0.541204 0.536293 -0.97018 
0.773331 -0.786443 -0.903828 -0.864589 0.0893395 -0.251265 -0.32396 -0.398956 0.83824 
-0.452193 0.453489 -0.768511 -0.460586 -0.470289 -0.485595 -0.925963 -0.715165 0.65725 
0.941922 0.0895254 -0.322053 -0.0963361 1.02158 0.047082 0.747159 -0.121497 0.429673 
0.769291 -0.598415 -0.733912 0.823672 0.677027 -0.208111 -1.14127 0.392194 0.481252 
-0.719453 -0.207974 1.06771 0.19201 1.07115 0.705821 0.685219 0.521594 0.385596 
-0.667318 1.09742 0.267563 -0.71628 0.17952 0.663642 -0.296343 -0.996783 -0.256958 
1.07353 -0.168764 0.59388 -0.24225 -0.694724 -0.995913 0.341376 0.652459 -0.476991 
-1.24191 0.437173 0.519945 0.796758 0.293853 0.98074 -0.147197 1.00706 1.06653 
-0.198109 -0.0427238 -0.700687 0.360066 -1.14413 -0.421678 -0.308725 0.230434 -0.315309 
0.902424 0.774794 0.363796 -1.02434 0.240816 -0.498872 1.03978 -0.0715057 -1.06772 
-0.156839 -0.595331 0.213937 0.2445 -0.829865 0.640272 -0.692452 -0.124799 -0.249009 
0.0758047 -1.30989 0.0722167 -0.0374796 0.646052 -0.746521 1.03029 -0.0459123 -0.6181 
0.031756 -0.254389 -0.297011 1.17299 -0.676327 0.139094 0.473277 -0.00959067 -1.11954 
1.08105 0.0477965 -0.819451 -0.571949 -0.0961002 0.459326 -1.21864 -0.13942 -0.858191 
0.219391 -1.02059 0.775628 -1.30314 0.094622 -0.385705 -0.848783 -0.15812 -0.198144 
0.456279 -0.964174 0.974053 0.63218 0.316586 -0.113992 0.193278 -0.841634 -1.13337 
0.00559969 -0.675105 1.18376 1.24746 -0.79586 0.188786 -0.148219 0.247464 -0.760791 
-0.126282 -0.754222 0.406491 -1.29325 0.229918 0.00825762 0.849901 -0.50227 -1.03055 
1.0885 0.689088 0.762795 0.215002 -1.35374 -0.473226 0.67119 1.09261 -0.165104 
-0.630435 -0.217799 0.430132 0.439547 -0.583172 0.363216 -0.430867 -0.0755596 -0.648482 
-0.467946 0.485303 -0.738088 0.281602 0.538338 -0.968098 1.01968 0.947251 -0.183816 
-0.0197195 -0.803502 0.139729 1.35399 -0.375046 -0.333423 0.74911 0.389697 0.66767 
-0.403955 -0.0925105 0.473467 -0.930239 0.375658 -0.447117 0.494615 0.403793 -0.65239 
0.316929 0.76262 0.210687 -0.460769 0.925634 0.791459 -0.402394 1.07894 0.737398 
1.29104 -0.541029 -0.361162 -0.996764 -0.337993 -0.020525 -0.279369 0.052894 -1.45971 
0.183822 -0.407918 -1.30658 -1.06305 0.129781 -0.652839 0.922546 -0.840776 -0.107351 
0.104024 0.427757 0.682317 -0.684166 -0.253179 -0.213328 -0.763038 1.172 -0.184536 
-0.436898 0.604494 0.0196551 -0.724739 -0.581554 -0.694085 -1.02799 -0.374187 0.371176 
0.180889 -1.28229 0.608458 0.316731 0.485671 0.683756 0.134686 0.519634 -1.15797 
-0.31928 1.04537 0.332114 0.856334 0.210778 -0.294126 1.37645 -0.244577 -0.200384 
-0.682693 -1.28224 -0.331285 -1.42691 0.19832 -0.164855 0.597919 -0.494912 1.09977 
0.942914 -0.589806 -0.0268623 -1.11984 -0.388467 -0.908037 -0.922026 1.01227 -0.499198 
0.263479 -0.441342 -0.796834 -0.0640596 0.213552 -0.315041 -0.560995 -0.689438 0.383515 
0.493619 -0.281294 0.471457 0.602448 0.369909 0.0108867 0.347975 0.00497451 -0.84909 
-0.690056 -0.996322 0.749887 -0.384225 0.331926 -0.890305 0.737695 -1.10376 -0.337808 
-0.712127 -0.828789 0.752397 0.943953 -0.345358 -0.0103829 -0.441882 -0.685383 -0.640929 
0.56452 1.32924 0.17178 1.27958 -0.68949 0.0707553 -0.477672 0.147084 -1.18925 
0.0836122 0.666217 0.0188168 0.887871 -0.0368328 -0.620083 0.24971 0.827594 1.18275 
0.153318 -0.691841 -0.852333 0.0565874 -0.427556 -0.0947687 0.950411 0.167608 0.611549 
0.332969 0.471488 -0.967587 -0.00483665 -0.140423 -0.943074 0.31589 0.45947 0.536994 
-0.618165 -0.620878 -0.305612 0.126287 0.908256 0.583085 0.51399 -0.584824 0.615642 
0.0669898 0.139934 -0.254778 -0.345309 0.991363 0.118315 0.721761 -0.945531 0.468388 
-0.262405 0.158546 0.175368 1.01822 -0.600492 -0.437548 0.00881966 1.01897 -0.388385 
0.591483 0.0716226 -0.119124 0.0717074 -0.545957 0.191507 -0.817851 -0.701019 -0.176908 
-0.255233 0.357941 1.36093 -0.881858 -0.00617851 -0.362083 -0.65198 0.125321 0.402475 
-0.837755 0.412081 -0.0643388 -0.25119 0.596136 -0.277668 0.496807 0.609741 0.0474778 
0.141961 0.520476 -0.954543 -0.826107 1.03377 0.0357294 -0.939639 -0.0952976 0.74651 
0.135139 0.568162 -0.620137 0.498101 0.0200678 0.58201 -0.798028 -0.0679808 -0.371586 
-0.997979 0.264825 -0.844467 0.555971 -1.12208 -0.458131 -0.704981 0.671805 -0.673688 
0.594962 -0.363642 1.18824 -0.416197 1.03547 0.000277311 0.479716 -0.0730979 1.08226 
1.3316 0.432674 -0.0397222 1.19541 0.706409 0.376576 -0.552867 -0.866546 -0.397635 
0.779319 0.666975 0.948328 -0.780143 -0.10762 -0.0193715 0.978255 -0.0521446 0.780367 
-0.0808289 1.10011 -0.11507 -0.390228 0.618318 -1.27397 -1.23894 -0.0868637 -0.485805 
-0.368237 -0.78261 -0.462366 0.168984 0.742744 -0.742773 1.27235 -0.473868 0.40988 
-0.0566105 -0.862327 0.298702 -0.274608 -0.818938 -1.12997 -0.272081 -0.22224 -0.27738 
-0.669462 1.15901 -0.214412 -0.951539 0.215365 -1.06608 0.507313 0.344602 0.776044 
0.531538 -0.0804245 1.00383 0.896262 0.479627 0.397604 0.56665 0.759855 0.281221 
0.619191 0.376008 -0.430715 0.0177107 -0.459881 -0.354001 -0.499259 0.343396 0.422504 
0.0440299 -0.781267 -0.845344 0.105191 -0.968502 -0.908166 0.455983 1.10529 -0.356973 
-0.497146 -0.647155 0.929142 -0.309746 0.244037 0.822871 -0.347189 0.681034 -0.0645995 
-0.0605497 1.01427 -1.01308 1.143 0.0604602 0.672666 -0.526571 -0.301841 0.175269 
0.730026 0.0789818 -0.499366 -0.0708371 0.425133 0.212308 -0.81136 0.062204 0.172153 
-0.712782 -0.68474 -0.84217 0.918313 0.100338 -0.423465 -0.59971 0.432005 0.890055 
-1.15614 -0.115935 -0.4006 -0.443417 0.964579 -0.985862 1.3288 0.253264 0.429979 
0.879191 -0.281713 -0.649628 -0.775037 1.12082 -0.116898 -0.329997 -0.474006 1.12144 
0.754475 0.986679 0.0839864 1.07763 0.999587 -0.0441743 -1.02986 -0.122909 0.14966 
0.906662 -0.845377 0.775675 -0.968679 -0.36871 -0.334346 1.28059 0.493836 0.385914 
-0.182147 -1.15847 -0.0662492 0.520174 -0.600787 1.16737 -0.224542 0.611756 0.932449 
-1.20572 -0.25029 -0.635592 0.00567316 0.0820418 -0.831235 0.000897193 0.468374 0.759324 
0.748624 -0.71321 -0.269411 -0.0249748 0.611969 -0.908901 0.503054 -0.451277 -0.679367 
0.880843 -0.216484 1.13054 -0.501614 0.486463 0.196449 0.068086 1.30658 -0.370251 
-0.711415 0.76325 0.0294582 0.242844 -1.31453 -0.390309 -0.079652 0.740788 -1.00852 
-0.0650486 -1.28085 0.683113 0.675624 -1.26241 -0.0559926 0.668822 0.245439 -0.305912 
0.519669 -0.939495 -0.827042 -0.647765 -0.415108 -0.44011 -0.47193 -0.154881 -0.955269 
-0.405901 0.745066 -0.484442 -0.565506 -0.160654 0.908458 -0.187591 0.827665 -1.17349 
-0.0898707 -0.305421 -0.646791 0.0560566 0.834999 -0.498694 -1.4752 -0.131822 0.173101 
-0.49909 0.745833 -1.14973 0.592649 0.13141 0.366618 0.660005 0.464377 -0.30181 
0.0558922 0.55541 0.814654 1.15212 -0.158065 0.0697366 0.775356 0.969805 0.569953 
1.14537 0.356054 -0.506689 -0.70548 -0.0368833 0.525289 -0.956974 -0.745118 0.817417 
-0.292632 0.831608 0.924263 -0.067689 -0.904353 -0.764173 -0.232675 1.22502 0.226967 
-0.875054 0.653531 -0.978463 -0.666332 -1.13834 -0.25519 1.09748 -0.497875 -0.425899 
0.603476 -0.900916 -0.764728 -0.00496324 0.272581 -1.35876 -1.04945 -0.604381 0.120927 
0.495412 0.95488 0.926682 -0.458249 -0.7122 -0.0995115 -0.77074 -0.424891 -1.09554 
0.40052 -0.961406 0.846375 0.337799 -0.135582 0.40708 -0.202889 -0.101963 0.71024 
1.10111 0.225026 0.931206 0.735052 -0.23664 0.50216 -0.219777 0.543633 -0.663946 
-1.27056 0.0857901 0.218461 -0.44307 -0.680738 0.752967 -0.217084 0.923128 -1.0121 
0.0839947 -1.1777 -0.146965 1.20369 -0.0983125 -0.541511 0.0116517 0.210691 1.22194 
0.00565382 0.355265 -0.999256 -0.178852 -1.07486 0.888801 -0.0937472 0.739956 0.575809 
0.909768 -0.0782028 -0.881076 -0.748867 -1.09133 -0.358192 -0.175931 -1.36562 -0.125084 
-1.03613 1.07384 -0.0906373 0.947819 -0.171796 -0.808126 -0.55245 0.921458 0.29586 
-0.31405 0.806962 0.140756 1.13839 -0.60171 -0.0493955 0.010353 1.15915 0.324135 
-0.0590088 -0.124285 -0.142448 0.725791 -1.03419 -0.0769861 -0.125652 -0.547204 0.701328 
-1.48729 0.0790653 0.0350171 -0.920421 -0.758473 0.160385 0.451438 0.909897 1.01623 
-0.331218 1.12688 -0.887308 -0.712204 0.955586 0.146749 -0.159418 -0.152756 1.1878 
-0.469119 -0.993646 0.488536 0.992761 -0.207786 0.301733 0.423389 -0.199921 0.611781 
0.199998 -0.62004 -1.28097 -0.0555086 0.123755 -0.156677 -0.366931 0.561891 -0.125991 
0.683815 -0.642426 0.725171 0.36836 0.292847 -0.0735998 1.02383 0.116804 -0.458781 
0.779219 -0.287928 -0.837696 -0.28781 0.743545 0.539299 1.04078 -0.814338 -0.394762 
-0.103561 0.201122 0.598317 -0.486564 1.05077 -0.503708 -0.856548 0.759767 -0.661551 
-1.24478 -0.539189 -0.279922 -0.199997 0.638797 -0.93459 -0.0818803 -1.37225 0.388912 
-0.0390252 0.792955 -0.698034 -0.448226 -0.00443424 0.207733 -0.0922726 0.537245 -1.31201 
0.127991 -0.436307 -0.237803 0.0599326 0.801823 -0.0456806 0.939784 -0.400451 0.836966 
-1.06087 -0.850115 -0.0442272 0.524566 -0.905733 -0.124024 0.694524 0.648077 0.0665447 
0.497012 -0.548933 0.192217 0.706681 -0.248628 0.0746604 -0.235482 -0.417594 0.764057 
-0.347743 -0.812697 -0.679809 0.521897 0.277806 -0.329778 -1.2667 -0.0693954 0.138938 
-0.146925 0.733981 -0.977143 -0.28832 -0.296925 0.28014 -0.621333 1.12898 -0.570799 
-1.1062 -0.917818 -0.0929663 -0.197129 0.184427 0.293847 -0.453018 -0.969724 -0.316782 
-0.479011 -0.0531544 0.322999 0.459985 0.00036419 0.544082 0.369437 -0.75283 0.993934 
0.168068 1.4518 -0.17755 -0.539043 1.06445 0.0925655 0.501576 0.671959 -0.23779 
0.959961 -0.434968 -0.0984815 0.134449 0.211803 -1.31312 -0.765149 0.768694 -0.851495 
0.588491 -0.964142 0.129486 0.315096 0.141792 0.347901 0.375502 -0.0483503 0.555336 
0.678176 -1.23548 0.118768 -0.752146 0.0258716 1.1006 -0.561977 -1.20753 -0.0720934 
0.799999 0.192864 1.0557 -0.554758 -0.114531 -0.414129 -0.194416 0.802664 1.17732 
-1.22075 -0.421151 0.242155 0.688671 -0.565261 1.00085 -1.13955 -0.36957 -0.0972598 
0.97462 -0.321476 0.249763 -0.607184 -1.11322 -0.714302 0.903933 0.403794 -0.181184 
0.325298 -1.06702 -0.709107 -0.691625 0.490489 -0.618779 0.111471 -1.28957 0.147247 
0.795599 -0.397047 -1.16943 -0.418761 -0.793529 -0.69217 0.0721837 -1.37894 0.365375 
-0.31487 1.00173 1.04771 0.329768 0.921477 0.224043 0.992678 1.05948 0.0963725 
0.734641 -0.027283 -1.1105 -0.350882 0.627575 -0.322892 -0.475798 1.16761 0.140686 
0.0390715 0.66632 -0.545983 -0.466728 0.064482 0.738802 -1.10833 0.414129 0.630658 
0.22134 0.222476 -1.23115 -0.107948 -0.884537 -0.430821 0.685438 0.815661 0.192896 
-0.353143 -1.18809 0.39248 1.37757 0.183779 0.242011 0.664786 0.998454 -0.733344 
-0.340354 -0.838894 0.0566991 0.294107 0.00385145 0.153677 0.470348 0.0619052 1.38091 
0.000677211 -0.348357 0.728002 -0.887177 0.600283 0.1075 1.3186 -0.0212763 0.601568 
0.813092 -0.0454855 -0.766071 -0.801036 0.315762 -0.0295967 0.00279593 -0.551249 0.749699 
-0.627877 -0.910782 -0.907077 -0.750875 1.01144 -0.787216 -0.325739 0.134727 -1.00039 
-1.39883 0.365021 0.129122 0.602718 0.741457 -0.448993 -0.196334 -0.103113 -1.21104 
-0.249577 0.42317 0.731208 0.732534 -0.128744 0.792089 -0.564738 -0.691732 -0.243734 
0.317526 0.158643 -0.294746 1.41971 -0.122848 0.251686 -0.301638 -0.681026 0.898652 
-0.102946 0.486685 -0.994636 -0.958344 -0.936501 0.451371 1.11013 -0.0627638 -0.0938672 
-0.622852 0.0378899 -1.03301 -0.208099 -0.075377 -0.709898 0.059404 -0.690438 1.08694 
0.115962 0.637771 -0.568277 -0.391488 -0.810122 -0.265066 -0.163712 0.658578 0.777237 
-0.442566 -1.15699 0.0474907 0.297577 -0.131765 -1.30622 0.075553 0.39588 -1.21806 
-0.50337 1.18823 0.521126 -0.202693 -1.20594 -0.288419 0.360102 -0.811245 -0.730208 
0.86326 -0.564201 -0.51492 1.16285 -0.220518 -0.0963726 0.603896 -0.596787 -0.357833 
-0.33753 -0.45107 -1.38291 0.175721 -0.20998 -0.309221 -0.109543 -0.967611 0.960033 
0.333207 -1.14512 -0.546955 0.0217079 -1.15115 -0.460897 -0.904629 -0.138116 -0.368197 
-0.0319793 1.09824 -0.702563 0.750993 0.736722 -0.255856 0.8988 -0.357802 0.671535 
1.30095 0.140612 -0.2286 -0.0163412 0.036803 -0.583483 0.227495 1.05625 -0.0242905 
1.04994 0.38101 0.494151 -0.109868 0.685688 0.644638 0.865722 0.62799 -0.582616 
0.828944 -0.917313 -0.50215 -0.621754 0.462012 -0.883892 0.442251 -0.363955 0.901116 
0.737806 -0.170747 1.08589 0.22938 -0.533075 -0.204882 0.989987 -0.0070674 0.752203 
0.717996 0.300928 -1.07089 0.746028 0.208428 -0.2014 -0.600652 0.935959 -0.631222 
0.573739 -0.166848 -1.04258 0.132381 -0.182855 -1.1169 0.412085 0.876684 0.119307 
0.757117 0.869168 0.267695 0.561146 0.641684 -1.03246 -0.43912 -0.919804 -0.475845 
-0.406424 -0.699543 -0.659954 -0.985954 0.575983 0.269749 -0.499184 -0.736484 0.547159 
0.614717 -0.440973 -0.961411 -0.863801 -0.560179 0.110547 -1.2337 -0.206711 0.14398 
-0.301241 0.796083 -0.118284 0.90895 -1.12049 0.274125 -0.00407475 1.22351 0.499239 
-0.114732 1.28673 -0.431662 0.993374 -0.150381 -0.273039 0.217478 0.7543 0.974008 
-0.276183 0.880844 -1.1416 0.984307 0.824703 0.0397298 0.461083 -1.28685 0.0440634 
-0.229128 1.46876 -0.183675 0.690246 -0.0522686 -0.307184 0.704369 -0.425726 -0.717891 
-0.882103 -0.189688 -0.5769 -0.391835 0.661727 1.12922 0.757569 -0.722577 -0.845582 
0.446065 1.22191 0.409917 1.11594 -0.815884 0.0904567 0.00818982 1.10065 0.469648 
-1.05328 0.154882 -1.02431 -0.240199 0.50649 -1.32274 1.03784 0.55859 0.565424 
-0.62531 0.657132 -0.563058 0.632337 -1.02834 0.644708 0.433074 -0.30562 -1.32749 
-0.0784499 0.966052 0.932028 -0.15576 1.40046 0.0123536 0.0162637 -0.45178 1.08776 
-0.195793 -0.768141 -0.00543802 -0.333027 -1.23223 -0.400576 0.232737 -0.104598 0.204312 
0.978433 -0.459222 0.92694 0.323704 -0.664319 0.603458 -0.226054 -0.820256 1.18776 
-0.299255 -0.446415 -0.882284 -0.678237 0.686215 -0.154743 0.0514995 0.117524 -0.513199 
0.114866 -0.057006 0.639373 0.917017 -0.693186 -0.664409 0.913105 0.586176 -0.201306 
-0.364059 0.588316 -0.110262 -0.186368 -0.134863 0.678408 0.371083 -0.587211 0.864266 
-0.823443 0.3966 -0.580217 0.421576 -0.738746 -0.910261 0.215326 -0.308972 0.0914253 
-1.37185 0.136733 0.464777 0.970324 0.229872 -0.630894 1.01134 0.420653 0.728283 
0.00722304 0.674753 0.189802 0.274818 -0.357991 0.538246 -1.13388 -0.627785 -0.131482 
0.3779 0.247011 0.745945 0.635994 1.15814 -0.25098 0.878362 -1.0774 0.186201 
0.708394 0.365759 -0.697392 0.188963 -0.650768 -1.02453 0.513423 -0.854223 0.851538 
0.705133 -0.52732 -0.984989 0.610212 1.2876 0.273588 -0.496362 0.150988 -0.908214 
1.17002 -0.0828187 -0.258561 0.148727 0.189333 -0.710213 0.605698 -0.907605 -0.327082 
0.968001 0.57882 0.255846 -0.903391 1.09133 -0.139992 -0.17131 1.25987 0.437239 
-0.631809 0.108816 0.362758 -0.563212 0.359602 0.331917 -0.371236 0.714278 -0.0164466 
0.953497 -0.217134 -1.07049 -0.723816 0.21236 1.27163 0.314357 0.708571 0.862774 
0.0302551 0.669938 -0.531506 -0.235702 -0.301815 1.05371 -0.917558 0.630675 -0.597973 
-1.25498 0.3513 -0.642171 -0.670735 0.982911 0.211412 -1.26815 0.448451 -0.0752238 
-0.977665 -0.0961166 0.45287 -0.296347 -0.106914 -0.0886184 -0.829769 0.507055 -0.339487 
-0.383476 -0.686369 0.488397 -0.488675 -1.07701 0.294412 -0.930395 -0.162006 -0.98955 
-1.00127 -0.286417 -0.326776 0.0153609 0.712673 -0.458885 0.609713 0.12607 0.807883 
-0.836442 -0.269544 0.168371 0.0760087 -0.806519 0.188271 -0.546454 1.16751 -0.261903 
0.570504 -0.958699 -0.571621 -0.552946 0.662456 0.929886 1.07481 0.454274 0.636425 
-0.300311 -0.280669 -0.135364 -0.317138 -0.263112 -1.342 -0.293556 -0.121846 0.766327 
0.44158 -0.759911 -1.11794 -0.0939399 -1.07235 0.381943 0.486161 1.09011 -0.0422119 
0.824981 1.19999 -0.352009 0.852336 0.829709 -0.511396 0.662989 0.513737 -1.06681 
-0.652503 0.102138 0.133537 -0.854562 -0.417791 0.883762 -0.597768 0.355962 -0.684758 
0.348102 0.346196 -0.408964 -0.894137 -0.0828415 -0.0542444 -0.411009 1.14206 -0.312789 
0.07372 -0.757294 -0.600238 -0.939144 0.594754 -0.957529 0.837878 -0.139546 0.172163 
-0.463289 -0.220351 -0.0539292 0.0961045 -0.554635 1.23414 -0.66393 0.891075 0.879878 
-0.562383 -0.643108 -0.236125 0.354109 0.330557 0.304999 
METADATA
INFORMATION 2
NAME L2_NORM_RANGE LOCATION vtkDataArray
DATA 2 0.109331 1.49973 
NAME L2_NORM_FINITE_RANGE LOCATION vtkDataArray
DATA 2 0.109331 1.49973 

VERTICES 2 2000
OFFSETS vtktypeint64
0 2000 
CONNECTIVITY vtktypeint64
0 1 2 3 4 5 6 7 8 
9 10 11 12 13 14 15 16 17 
18 19 20 21 22 23 24 25 26 
27 28 29 30 31 32 33 34 35 
36 37 38 39 40 41 42 43 44 
45 46 47 48 49 50 51 52 53 
54 55 56 57 58 59 60 61 62 
63 64 65 66 67 68 69 70 71 
72 73 74 75 76 77 78 79 80 
81 82 83 84 85 86 87 88 89 
90 91 92 93 94 95 96 97 98 
99 100 101 102 103 104 105 106 107 
108 109 110 111 112 113 114 115 116 
117 118 119 120 121 122 123 124 125 
126 127 128 129 130 131 132 133 134 
135 136 137 138 139 140 141 142 143 
144 145 146 147 148 149 150 151 152 
153 154 155 156 157 158 159 160 161 
162 163 164 165 166 167 168 169 170 
171 172 173 174 175 176 177 178 179 
180 181 182 183 184 185 186 187 188 
189 190 191 192 193 194 195 196 197 
198 199 200 201 202 203 204 205 206 
207 208 209 210 211 212 213 214 215 
216 217 218 219 220 221 222 223 224 
225 226 227 228 229 230 231 232 233 
234 235 236 237 238 239 240 241 242 
243 244 245 246 247 248 249 250 251 
252 253 254 255 256 257 258 259 260 
261 262 263 264 265 266 267 268 269 
270 271 272 273 274 275 276 277 278 
279 280 281 282 283 284 285 286 287 
288 289 290 291 292 293 294 295 296 
297 298 299 300 301 302 303 304 305 
306 307 308 309 310 311 312 313 314 
315 316 317 318 319 320 321 322 323 
324 325 326 327 328 329 330 331 332 
333 334 335 336 337 338 339 340 341 
342 343 344 345 346 347 348 349 350 
351 352 353 354 355 356 357 358 359 
360 361 362 363 364 365 366 367 368 
369 370 371 372 373 374 375 376 377 
378 379 380 381 382 383 384 385 386 
387 388 389 390 391 392 393 394 395 
396 397 398 399 400 401 402 403 404 
405 406 407 408 409 410 411 412 413 
414 415 416 417 418 419 420 421 422 
423 424 425 426 427 428 429 430 431 
432 433 434 435 436 437 438 439 440 
441 442 443 444 445 446 447 448 449 
450 451 452 453 454 455 456 457 458 
459 460 461 462 463 464 465 466 467 
468 469 470 471 472 473 474 475 476 
477 478 479 480 481 482 483 484 485 
486 487 488 489 490 491 492 493 494 
495 496 497 498 499 500 501 502 503 
504 505 506 507 508 509 510 511 512 
513 514 515 516 517 518 519 520 521 
522 523 524 525 526 527 528 529 530 
531 532 533 534 535 536 537 538 539 
540 541 542 543 544 545 546 547 548 
549 550 551 552 553 554 555 556 557 
558 559 560 561 562 563 564 565 566 
567 568 569 570 571 572 573 574 575 
576 577 578 579 580 581 582 583 584 
585 586 587 588 589 590 591 592 593 
594 595 596 597 598 599 600 601 602 
603 604 605 606 607 608 609 610 611 
612 613 614 615 616 617 618 619 620 
621 622 623 624 625 626 627 628 629 
630 631 632 633 634 635 636 637 638 
639 640 641 642 643 644 645 646 647 
648 649 650 651 652 653 654 655 656 
657 658 659 660 661 662 663 664 665 
666 667 668 669 670 671 672 673 674 
675 676 677 678 679 680 681 682 683 
684 685 686 687 688 689 690 691 692 
693 694 695 696 697 698 699 700 701 
702 703 704 705 706 707 708 709 710 
711 712 713 714 715 716 717 718 719 
720 721 722 723 724 725 726 727 728 
729 730 731 732 733 734 735 736 737 
738 739 740 741 742 743 744 745 746 
747 748 749 750 751 752 753 754 755 
756 757 758 759 760 761 762 763 764 
765 766 767 768 769 770 771 772 773 
774 775 776 777 778 779 780 781 782 
783 784 785 786 787 788 789 790 791 
792 793 794 795 796 797 798 799 800 
801 802 803 804 805 806 807 808 809 
810 811 812 813 814 815 816 817 818 
819 820 821 822 823 824 825 826 827 
828 829 830 831 832 833 834 835 836 
837 838 839 840 841 842 843 844 845 
846 847 848 849 850 851 852 853 854 
855 856 857 858 859 860 861 862 863 
864 865 866 867 868 869 870 871 872 
873 874 875 876 877 878 879 880 881 
882 883 884 885 886 887 888 889 890 
891 892 893 894 895 896 897 898 899 
900 901 902 903 904 905 906 907 908 
909 910 911 912 913 914 915 916 917 
918 919 920 921 922 923 924 925 926 
927 928 929 930 931 932 933 934 935 
936 937 938 939 940 941 942 943 944 
945 946 947 948 949 950 951 952 953 
954 955 956 957 958 959 960 961 962 
963 964 965 966 967 968 969 970 971 
972 973 974 975 976 977 978 979 980 
981 982 983 984 985 986 987 988 989 
990 991 992 993 994 995 996 997 998 
999 1000 1001 1002 1003 1004 1005 1006 1007 
1008 1009 1010 1011 1012 1013 1014 1015 1016 
1017 1018 1019 1020 1021 1022 1023 1024 1025 
1026 1027 1028 1029 1030 1031 1032 1033 1034 
1035 1036 1037 1038 1039 1040 1041 1042 1043 
1044 1045 1046 1047 1048 1049 1050 1051 1052 
1053 1054 1055 1056 1057 1058 1059 1060 1061 
1062 1063 1064 1065 1066 1067 1068 1069 1070 
1071 1072 1073 1074 1075 1076 1077 1078 1079 
1080 1081 1082 1083 1084 1085 1086 1087 1088 
1089 1090 1091 1092 1093 1094 1095 1096 1097 
1098 1099 1100 1101 1102 1103 1104 1105 1106 
1107 1108 1109 1110 1111 1112 1113 1114 1115 
1116 1117 1118 1119 1120 1121 1122 1123 1124 
1125 1126 1127 1128 1129 1130 1131 1132 1133 
1134 1135 1136 1137 1138 1139 1140 1141 1142 
1143 1144 1145 1146 1147 1148 1149 1150 1151 
1152 1153 1154 1155 1156 1157 1158 1159 1160 
1161 1162 1163 1164 1165 1166 1167 1168 1169 
1170 1171 1172 1173 1174 1175 1176 1177 1178 
1179 1180 1181 1182 1183 1184 1185 1186 1187 
1188 1189 1190 1191 1192 1193 1194 1195 1196 
1197 1198 1199 1200 1201 1202 1203 1204 1205 
1206 1207 1208 1209 1210 1211 1212 1213 1214 
1215 1216 1217 1218 1219 1220 1221 1222 1223 
1224 1225 1226 1227 1228 1229 1230 1231 1232 
1233 1234 1235 1236 1237 1238 1239 1240 1241 
1242 1243 1244 1245 1246 1247 1248 1249 1250 
1251 1252 1253 1254 1255 1256 1257 1258 1259 
1260 1261 1262 1263 1264 1265 1266 1267 1268 
1269 1270 1271 1272 1273 1274 1275 1276 1277 
1278 1279 1280 1281 1282 1283 1284 1285 1286 
1287 1288 1289 1290 1291 1292 1293 1294 1295 
1296 1297 1298 1299 1300 1301 1302 1303 1304 
1305 1306 1307 1308 1309 1310 1311 1312 1313 
1314 1315 1316 1317 1318 1319 1320 1321 1322 
1323 1324 1325 1326 1327 1328 1329 1330 1331 
1332 1333 1334 1335 1336 1337 1338 1339 1340 
1341 1342 1343 1344 1345 1346 1347 1348 1349 
1350 1351 1352 1353 1354 1355 1356 1357 1358 
1359 1360 1361 1362 1363 1364 1365 1366 1367 
1368 1369 1370 1371 1372 1373 1374 1375 1376 
1377 1378 1379 1380 1381 1382 1383 1384 1385 
1386 1387 1388 1389 1390 1391 1392 1393 1394 
1395 1396 1397 1398 1399 1400 1401 1402 1403 
1404 1405 1406 1407 1408 1409 1410 1411 1412 
1413 1414 1415 1416 1417 1418 1419 1420 1421 
1422 1423 1424 1425 1426 1427 1428 1429 1430 
1431 1432 1433 1434 1435 1436 1437 1438 1439 
1440 1441 1442 1443 1444 1445 1446 1447 1448 
1449 1450 1451 1452 1453 1454 1455 1456 1457 
1458 1459 1460 1461 1462 1463 1464 1465 1466 
1467 1468 1469 1470 1471 1472 1473 1474 1475 
1476 1477 1478 1479 1480 1481 1482 1483 1484 
1485 1486 1487 1488 1489 1490 1491 1492 1493 
1494 1495 1496 1497 1498 1499 1500 1501 1502 
1503 1504 1505 1506 1507 1508 1509 1510 1511 
1512 1513 1514 1515 1516 1517 1518 1519 1520 
1521 1522 1523 1524 1525 1526 1527 1528 1529 
1530 1531 1532 1533 1534 1535 1536 1537 1538 
1539 1540 1541 1542 1543 1544 1545 1546 1547 
1548 1549 1550 1551 1552 1553 1554 1555 1556 
1557 1558 1559 1560 1561 1562 1563 1564 1565 
1566 1567 1568 1569 1570 1571 1572 1573 1574 
1575 1576 1577 1578 1579 1580 1581 1582 1583 
1584 1585 1586 1587 1588 1589 1590 1591 1592 
1593 1594 1595 1596 1597 1598 1599 1600 1601 
1602 1603 1604 1605 1606 1607 1608 1609 1610 
1611 1612 1613 1614 1615 1616 1617 1618 1619 
1620 1621 1622 1623 1624 1625 1626 1627 1628 
1629 1630 1631 1632 1633 1634 1635 1636 1637 
1638 1639 1640 1641 1642 1643 1644 1645 1646 
1647 1648 1649 1650 1651 1652 1653 1654 1655 
1656 1657 1658 1659 1660 1661 1662 1663 1664 
1665 1666 1667 1668 1669 1670 1671 1672 1673 
1674 1675 1676 1677 1678 1679 1680 1681 1682 
1683 1684 1685 1686 1687 1688 1689 1690 1691 
1692 1693 1694 1695 1696 1697 1698 1699 1700 
1701 1702 1703 1704 1705 1706 1707 1708 1709 
1710 1711 1712 1713 1714 1715 1716 1717 1718 
1719 1720 1721 1722 1723 1724 1725 1726 1727 
1728 1729 1730 1731 1732 1733 1734 1735 1736 
1737 1738 1739 1740 1741 1742 1743 1744 1745 
1746 1747 1748 1749 1750 1751 1752 1753 1754 
1755 1756 1757 1758 1759 1760 1761 1762 1763 
1764 1765 1766 1767 1768 1769 1770 1771 1772 
1773 1774 1775 1776 1777 1778 1779 1780 1781 
1782 1783 1784 1785 1786 1787 1788 1789 1790 
1791 1792 1793 1794 1795 1796 1797 1798 1799 
1800 1801 1802 1803 1804 1805 1806 1807 1808 
1809 1810 1811 1812 1813 1814 1815 1816 1817 
1818 1819 1820 1821 1822 1823 1824 1825 1826 
1827 1828 1829 1830 1831 1832 1833 1834 1835 
1836 1837 1838 1839 1840 1841 1842 1843 1844 
1845 1846 1847 1848 1849 1850 1851 1852 1853 
1854 1855 1856 1857 1858 1859 1860 1861 1862 
1863 1864 1865 1866 1867 1868 1869 1870 1871 
1872 1873 1874 1875 1876 1877 1878 1879 1880 
1881 1882 1883 1884 1885 1886 1887 1888 1889 
1890 1891 1892 1893 1894 1895 1896 1897 1898 
1899 1900 1901 1902 1903 1904 1905 1906 1907 
1908 1909 1910 1911 1912 1913 1914 1915 1916 
1917 1918 1919 1920 1921 1922 1923 1924 1925 
1926 1927 1928 1929 1930 1931 1932 1933 1934 
1935 1936 1937 1938 1939 1940 1941 1942 1943 
1944 1945 1946 1947 1948 1949 1950 1951 1952 
1953 1954 1955 1956 1957 1958 1959 1960 1961 
1962 1963 1964 1965 1966 1967 1968 1969 1970 
1971 1972 1973 1974 1975 1976 1977 1978 1979 
1980 1981 1982 1983 1984 1985 1986 1987 1988 
1989 1990 1991 1992 1993 1994 1995 1996 1997 
1998 1999 
