# vtk DataFile Version 3.0
ExtractCellsByType surface test model (triangle+quad)
ASCII
DATASET UNSTRUCTURED_GRID
POINTS 9 float
0.0 0.0 0.0
1.0 0.0 0.0
2.0 0.0 0.0
0.0 1.0 0.0
1.0 1.0 0.0
2.0 1.0 0.0
0.0 2.0 0.0
1.0 2.0 0.0
2.0 2.0 0.0
CELLS 4 18
3 0 1 3
4 1 2 5 4
4 3 4 7 6
3 6 7 8
CELL_TYPES 4
5
9
9
5
POINT_DATA 9
SCALARS pid float 1
LOOKUP_TABLE default
0.0
1.0
2.0
3.0
4.0
5.0
6.0
7.0
8.0
SCALARS pid_double double 1
LOOKUP_TABLE default
0.25
2.25
4.25
6.25
8.25
10.25
12.25
14.25
16.25
CELL_DATA 4
SCALARS cid double 1
LOOKUP_TABLE default
10.0
20.0
30.0
40.0
