# vtk DataFile Version 3.0
AI-generated test model (GenerateProcessIds) - three-zone stepped pipe
ASCII
DATASET UNSTRUCTURED_GRID
POINTS 432 float
0.3 0 0
0.259808 0.15 0
0.15 0.259808 0
0 0.3 0
-0.15 0.259808 0
-0.259808 0.15 0
-0.3 0 0
-0.259808 -0.15 0
-0.15 -0.259808 0
0 -0.3 0
0.15 -0.259808 0
0.259808 -0.15 0
0.3 0 0.4
0.259808 0.15 0.4
0.15 0.259808 0.4
0 0.3 0.4
-0.15 0.259808 0.4
-0.259808 0.15 0.4
-0.3 0 0.4
-0.259808 -0.15 0.4
-0.15 -0.259808 0.4
0 -0.3 0.4
0.15 -0.259808 0.4
0.259808 -0.15 0.4
0.3 0 0.8
0.259808 0.15 0.8
0.15 0.259808 0.8
0 0.3 0.8
-0.15 0.259808 0.8
-0.259808 0.15 0.8
-0.3 0 0.8
-0.259808 -0.15 0.8
-0.15 -0.259808 0.8
0 -0.3 0.8
0.15 -0.259808 0.8
0.259808 -0.15 0.8
0.3 0 1.2
0.259808 0.15 1.2
0.15 0.259808 1.2
0 0.3 1.2
-0.15 0.259808 1.2
-0.259808 0.15 1.2
-0.3 0 1.2
-0.259808 -0.15 1.2
-0.15 -0.259808 1.2
0 -0.3 1.2
0.15 -0.259808 1.2
0.259808 -0.15 1.2
0.3 0 1.6
0.259808 0.15 1.6
0.15 0.259808 1.6
0 0.3 1.6
-0.15 0.259808 1.6
-0.259808 0.15 1.6
-0.3 0 1.6
-0.259808 -0.15 1.6
-0.15 -0.259808 1.6
0 -0.3 1.6
0.15 -0.259808 1.6
0.259808 -0.15 1.6
0.3 0 2
0.259808 0.15 2
0.15 0.259808 2
0 0.3 2
-0.15 0.259808 2
-0.259808 0.15 2
-0.3 0 2
-0.259808 -0.15 2
-0.15 -0.259808 2
0 -0.3 2
0.15 -0.259808 2
0.259808 -0.15 2
0.3 0 2.4
0.259808 0.15 2.4
0.15 0.259808 2.4
0 0.3 2.4
-0.15 0.259808 2.4
-0.259808 0.15 2.4
-0.3 0 2.4
-0.259808 -0.15 2.4
-0.15 -0.259808 2.4
0 -0.3 2.4
0.15 -0.259808 2.4
0.259808 -0.15 2.4
0.3 0 2.8
0.259808 0.15 2.8
0.15 0.259808 2.8
0 0.3 2.8
-0.15 0.259808 2.8
-0.259808 0.15 2.8
-0.3 0 2.8
-0.259808 -0.15 2.8
-0.15 -0.259808 2.8
0 -0.3 2.8
0.15 -0.259808 2.8
0.259808 -0.15 2.8
0.3 0 3.2
0.259808 0.15 3.2
0.15 0.259808 3.2
0 0.3 3.2
-0.15 0.259808 3.2
-0.259808 0.15 3.2
-0.3 0 3.2
-0.259808 -0.15 3.2
-0.15 -0.259808 3.2
0 -0.3 3.2
0.15 -0.259808 3.2
0.259808 -0.15 3.2
0.3 0 3.6
0.259808 0.15 3.6
0.15 0.259808 3.6
0 0.3 3.6
-0.15 0.259808 3.6
-0.259808 0.15 3.6
-0.3 0 3.6
-0.259808 -0.15 3.6
-0.15 -0.259808 3.6
0 -0.3 3.6
0.15 -0.259808 3.6
0.259808 -0.15 3.6
0.3 0 4
0.259808 0.15 4
0.15 0.259808 4
0 0.3 4
-0.15 0.259808 4
-0.259808 0.15 4
-0.3 0 4
-0.259808 -0.15 4
-0.15 -0.259808 4
0 -0.3 4
0.15 -0.259808 4
0.259808 -0.15 4
0.3 0 4.4
0.259808 0.15 4.4
0.15 0.259808 4.4
0 0.3 4.4
-0.15 0.259808 4.4
-0.259808 0.15 4.4
-0.3 0 4.4
-0.259808 -0.15 4.4
-0.15 -0.259808 4.4
0 -0.3 4.4
0.15 -0.259808 4.4
0.259808 -0.15 4.4
0.75 0 0
0.649519 0.375 0
0.375 0.649519 0
0 0.75 0
-0.375 0.649519 0
-0.649519 0.375 0
-0.75 0 0
-0.649519 -0.375 0
-0.375 -0.649519 0
0 -0.75 0
0.375 -0.649519 0
0.649519 -0.375 0
0.75 0 0.4
0.649519 0.375 0.4
0.375 0.649519 0.4
0 0.75 0.4
-0.375 0.649519 0.4
-0.649519 0.375 0.4
-0.75 0 0.4
-0.649519 -0.375 0.4
-0.375 -0.649519 0.4
0 -0.75 0.4
0.375 -0.649519 0.4
0.649519 -0.375 0.4
0.75 0 0.8
0.649519 0.375 0.8
0.375 0.649519 0.8
0 0.75 0.8
-0.375 0.649519 0.8
-0.649519 0.375 0.8
-0.75 0 0.8
-0.649519 -0.375 0.8
-0.375 -0.649519 0.8
0 -0.75 0.8
0.375 -0.649519 0.8
0.649519 -0.375 0.8
0.75 0 1.2
0.649519 0.375 1.2
0.375 0.649519 1.2
0 0.75 1.2
-0.375 0.649519 1.2
-0.649519 0.375 1.2
-0.75 0 1.2
-0.649519 -0.375 1.2
-0.375 -0.649519 1.2
0 -0.75 1.2
0.375 -0.649519 1.2
0.649519 -0.375 1.2
1.15 0 1.6
0.995929 0.575 1.6
0.575 0.995929 1.6
0 1.15 1.6
-0.575 0.995929 1.6
-0.995929 0.575 1.6
-1.15 0 1.6
-0.995929 -0.575 1.6
-0.575 -0.995929 1.6
0 -1.15 1.6
0.575 -0.995929 1.6
0.995929 -0.575 1.6
1.15 0 2
0.995929 0.575 2
0.575 0.995929 2
0 1.15 2
-0.575 0.995929 2
-0.995929 0.575 2
-1.15 0 2
-0.995929 -0.575 2
-0.575 -0.995929 2
0 -1.15 2
0.575 -0.995929 2
0.995929 -0.575 2
1.15 0 2.4
0.995929 0.575 2.4
0.575 0.995929 2.4
0 1.15 2.4
-0.575 0.995929 2.4
-0.995929 0.575 2.4
-1.15 0 2.4
-0.995929 -0.575 2.4
-0.575 -0.995929 2.4
0 -1.15 2.4
0.575 -0.995929 2.4
0.995929 -0.575 2.4
1.15 0 2.8
0.995929 0.575 2.8
0.575 0.995929 2.8
0 1.15 2.8
-0.575 0.995929 2.8
-0.995929 0.575 2.8
-1.15 0 2.8
-0.995929 -0.575 2.8
-0.575 -0.995929 2.8
0 -1.15 2.8
0.575 -0.995929 2.8
0.995929 -0.575 2.8
1.45 0 3.2
1.255737 0.725 3.2
0.725 1.255737 3.2
0 1.45 3.2
-0.725 1.255737 3.2
-1.255737 0.725 3.2
-1.45 0 3.2
-1.255737 -0.725 3.2
-0.725 -1.255737 3.2
0 -1.45 3.2
0.725 -1.255737 3.2
1.255737 -0.725 3.2
1.45 0 3.6
1.255737 0.725 3.6
0.725 1.255737 3.6
0 1.45 3.6
-0.725 1.255737 3.6
-1.255737 0.725 3.6
-1.45 0 3.6
-1.255737 -0.725 3.6
-0.725 -1.255737 3.6
0 -1.45 3.6
0.725 -1.255737 3.6
1.255737 -0.725 3.6
1.45 0 4
1.255737 0.725 4
0.725 1.255737 4
0 1.45 4
-0.725 1.255737 4
-1.255737 0.725 4
-1.45 0 4
-1.255737 -0.725 4
-0.725 -1.255737 4
0 -1.45 4
0.725 -1.255737 4
1.255737 -0.725 4
1.45 0 4.4
1.255737 0.725 4.4
0.725 1.255737 4.4
0 1.45 4.4
-0.725 1.255737 4.4
-1.255737 0.725 4.4
-1.45 0 4.4
-1.255737 -0.725 4.4
-0.725 -1.255737 4.4
0 -1.45 4.4
0.725 -1.255737 4.4
1.255737 -0.725 4.4
1.2 0 0
1.03923 0.6 0
0.6 1.03923 0
0 1.2 0
-0.6 1.03923 0
-1.03923 0.6 0
-1.2 0 0
-1.03923 -0.6 0
-0.6 -1.03923 0
0 -1.2 0
0.6 -1.03923 0
1.03923 -0.6 0
1.2 0 0.4
1.03923 0.6 0.4
0.6 1.03923 0.4
0 1.2 0.4
-0.6 1.03923 0.4
-1.03923 0.6 0.4
-1.2 0 0.4
-1.03923 -0.6 0.4
-0.6 -1.03923 0.4
0 -1.2 0.4
0.6 -1.03923 0.4
1.03923 -0.6 0.4
1.2 0 0.8
1.03923 0.6 0.8
0.6 1.03923 0.8
0 1.2 0.8
-0.6 1.03923 0.8
-1.03923 0.6 0.8
-1.2 0 0.8
-1.03923 -0.6 0.8
-0.6 -1.03923 0.8
0 -1.2 0.8
0.6 -1.03923 0.8
1.03923 -0.6 0.8
1.2 0 1.2
1.03923 0.6 1.2
0.6 1.03923 1.2
0 1.2 1.2
-0.6 1.03923 1.2
-1.03923 0.6 1.2
-1.2 0 1.2
-1.03923 -0.6 1.2
-0.6 -1.03923 1.2
0 -1.2 1.2
0.6 -1.03923 1.2
1.03923 -0.6 1.2
2 0 1.6
1.732051 1 1.6
1 1.732051 1.6
0 2 1.6
-1 1.732051 1.6
-1.732051 1 1.6
-2 0 1.6
-1.732051 -1 1.6
-1 -1.732051 1.6
0 -2 1.6
1 -1.732051 1.6
1.732051 -1 1.6
2 0 2
1.732051 1 2
1 1.732051 2
0 2 2
-1 1.732051 2
-1.732051 1 2
-2 0 2
-1.732051 -1 2
-1 -1.732051 2
0 -2 2
1 -1.732051 2
1.732051 -1 2
2 0 2.4
1.732051 1 2.4
1 1.732051 2.4
0 2 2.4
-1 1.732051 2.4
-1.732051 1 2.4
-2 0 2.4
-1.732051 -1 2.4
-1 -1.732051 2.4
0 -2 2.4
1 -1.732051 2.4
1.732051 -1 2.4
2 0 2.8
1.732051 1 2.8
1 1.732051 2.8
0 2 2.8
-1 1.732051 2.8
-1.732051 1 2.8
-2 0 2.8
-1.732051 -1 2.8
-1 -1.732051 2.8
0 -2 2.8
1 -1.732051 2.8
1.732051 -1 2.8
2.6 0 3.2
2.251666 1.3 3.2
1.3 2.251666 3.2
0 2.6 3.2
-1.3 2.251666 3.2
-2.251666 1.3 3.2
-2.6 0 3.2
-2.251666 -1.3 3.2
-1.3 -2.251666 3.2
0 -2.6 3.2
1.3 -2.251666 3.2
2.251666 -1.3 3.2
2.6 0 3.6
2.251666 1.3 3.6
1.3 2.251666 3.6
0 2.6 3.6
-1.3 2.251666 3.6
-2.251666 1.3 3.6
-2.6 0 3.6
-2.251666 -1.3 3.6
-1.3 -2.251666 3.6
0 -2.6 3.6
1.3 -2.251666 3.6
2.251666 -1.3 3.6
2.6 0 4
2.251666 1.3 4
1.3 2.251666 4
0 2.6 4
-1.3 2.251666 4
-2.251666 1.3 4
-2.6 0 4
-2.251666 -1.3 4
-1.3 -2.251666 4
0 -2.6 4
1.3 -2.251666 4
2.251666 -1.3 4
2.6 0 4.4
2.251666 1.3 4.4
1.3 2.251666 4.4
0 2.6 4.4
-1.3 2.251666 4.4
-2.251666 1.3 4.4
-2.6 0 4.4
-2.251666 -1.3 4.4
-1.3 -2.251666 4.4
0 -2.6 4.4
1.3 -2.251666 4.4
2.251666 -1.3 4.4
CELLS 264 2376
8 0 1 13 12 144 145 157 156
8 1 2 14 13 145 146 158 157
8 2 3 15 14 146 147 159 158
8 3 4 16 15 147 148 160 159
8 4 5 17 16 148 149 161 160
8 5 6 18 17 149 150 162 161
8 6 7 19 18 150 151 163 162
8 7 8 20 19 151 152 164 163
8 8 9 21 20 152 153 165 164
8 9 10 22 21 153 154 166 165
8 10 11 23 22 154 155 167 166
8 11 0 12 23 155 144 156 167
8 12 13 25 24 156 157 169 168
8 13 14 26 25 157 158 170 169
8 14 15 27 26 158 159 171 170
8 15 16 28 27 159 160 172 171
8 16 17 29 28 160 161 173 172
8 17 18 30 29 161 162 174 173
8 18 19 31 30 162 163 175 174
8 19 20 32 31 163 164 176 175
8 20 21 33 32 164 165 177 176
8 21 22 34 33 165 166 178 177
8 22 23 35 34 166 167 179 178
8 23 12 24 35 167 156 168 179
8 24 25 37 36 168 169 181 180
8 25 26 38 37 169 170 182 181
8 26 27 39 38 170 171 183 182
8 27 28 40 39 171 172 184 183
8 28 29 41 40 172 173 185 184
8 29 30 42 41 173 174 186 185
8 30 31 43 42 174 175 187 186
8 31 32 44 43 175 176 188 187
8 32 33 45 44 176 177 189 188
8 33 34 46 45 177 178 190 189
8 34 35 47 46 178 179 191 190
8 35 24 36 47 179 168 180 191
8 36 37 49 48 180 181 193 192
8 37 38 50 49 181 182 194 193
8 38 39 51 50 182 183 195 194
8 39 40 52 51 183 184 196 195
8 40 41 53 52 184 185 197 196
8 41 42 54 53 185 186 198 197
8 42 43 55 54 186 187 199 198
8 43 44 56 55 187 188 200 199
8 44 45 57 56 188 189 201 200
8 45 46 58 57 189 190 202 201
8 46 47 59 58 190 191 203 202
8 47 36 48 59 191 180 192 203
8 48 49 61 60 192 193 205 204
8 49 50 62 61 193 194 206 205
8 50 51 63 62 194 195 207 206
8 51 52 64 63 195 196 208 207
8 52 53 65 64 196 197 209 208
8 53 54 66 65 197 198 210 209
8 54 55 67 66 198 199 211 210
8 55 56 68 67 199 200 212 211
8 56 57 69 68 200 201 213 212
8 57 58 70 69 201 202 214 213
8 58 59 71 70 202 203 215 214
8 59 48 60 71 203 192 204 215
8 60 61 73 72 204 205 217 216
8 61 62 74 73 205 206 218 217
8 62 63 75 74 206 207 219 218
8 63 64 76 75 207 208 220 219
8 64 65 77 76 208 209 221 220
8 65 66 78 77 209 210 222 221
8 66 67 79 78 210 211 223 222
8 67 68 80 79 211 212 224 223
8 68 69 81 80 212 213 225 224
8 69 70 82 81 213 214 226 225
8 70 71 83 82 214 215 227 226
8 71 60 72 83 215 204 216 227
8 72 73 85 84 216 217 229 228
8 73 74 86 85 217 218 230 229
8 74 75 87 86 218 219 231 230
8 75 76 88 87 219 220 232 231
8 76 77 89 88 220 221 233 232
8 77 78 90 89 221 222 234 233
8 78 79 91 90 222 223 235 234
8 79 80 92 91 223 224 236 235
8 80 81 93 92 224 225 237 236
8 81 82 94 93 225 226 238 237
8 82 83 95 94 226 227 239 238
8 83 72 84 95 227 216 228 239
8 84 85 97 96 228 229 241 240
8 85 86 98 97 229 230 242 241
8 86 87 99 98 230 231 243 242
8 87 88 100 99 231 232 244 243
8 88 89 101 100 232 233 245 244
8 89 90 102 101 233 234 246 245
8 90 91 103 102 234 235 247 246
8 91 92 104 103 235 236 248 247
8 92 93 105 104 236 237 249 248
8 93 94 106 105 237 238 250 249
8 94 95 107 106 238 239 251 250
8 95 84 96 107 239 228 240 251
8 96 97 109 108 240 241 253 252
8 97 98 110 109 241 242 254 253
8 98 99 111 110 242 243 255 254
8 99 100 112 111 243 244 256 255
8 100 101 113 112 244 245 257 256
8 101 102 114 113 245 246 258 257
8 102 103 115 114 246 247 259 258
8 103 104 116 115 247 248 260 259
8 104 105 117 116 248 249 261 260
8 105 106 118 117 249 250 262 261
8 106 107 119 118 250 251 263 262
8 107 96 108 119 251 240 252 263
8 108 109 121 120 252 253 265 264
8 109 110 122 121 253 254 266 265
8 110 111 123 122 254 255 267 266
8 111 112 124 123 255 256 268 267
8 112 113 125 124 256 257 269 268
8 113 114 126 125 257 258 270 269
8 114 115 127 126 258 259 271 270
8 115 116 128 127 259 260 272 271
8 116 117 129 128 260 261 273 272
8 117 118 130 129 261 262 274 273
8 118 119 131 130 262 263 275 274
8 119 108 120 131 263 252 264 275
8 120 121 133 132 264 265 277 276
8 121 122 134 133 265 266 278 277
8 122 123 135 134 266 267 279 278
8 123 124 136 135 267 268 280 279
8 124 125 137 136 268 269 281 280
8 125 126 138 137 269 270 282 281
8 126 127 139 138 270 271 283 282
8 127 128 140 139 271 272 284 283
8 128 129 141 140 272 273 285 284
8 129 130 142 141 273 274 286 285
8 130 131 143 142 274 275 287 286
8 131 120 132 143 275 264 276 287
8 144 145 157 156 288 289 301 300
8 145 146 158 157 289 290 302 301
8 146 147 159 158 290 291 303 302
8 147 148 160 159 291 292 304 303
8 148 149 161 160 292 293 305 304
8 149 150 162 161 293 294 306 305
8 150 151 163 162 294 295 307 306
8 151 152 164 163 295 296 308 307
8 152 153 165 164 296 297 309 308
8 153 154 166 165 297 298 310 309
8 154 155 167 166 298 299 311 310
8 155 144 156 167 299 288 300 311
8 156 157 169 168 300 301 313 312
8 157 158 170 169 301 302 314 313
8 158 159 171 170 302 303 315 314
8 159 160 172 171 303 304 316 315
8 160 161 173 172 304 305 317 316
8 161 162 174 173 305 306 318 317
8 162 163 175 174 306 307 319 318
8 163 164 176 175 307 308 320 319
8 164 165 177 176 308 309 321 320
8 165 166 178 177 309 310 322 321
8 166 167 179 178 310 311 323 322
8 167 156 168 179 311 300 312 323
8 168 169 181 180 312 313 325 324
8 169 170 182 181 313 314 326 325
8 170 171 183 182 314 315 327 326
8 171 172 184 183 315 316 328 327
8 172 173 185 184 316 317 329 328
8 173 174 186 185 317 318 330 329
8 174 175 187 186 318 319 331 330
8 175 176 188 187 319 320 332 331
8 176 177 189 188 320 321 333 332
8 177 178 190 189 321 322 334 333
8 178 179 191 190 322 323 335 334
8 179 168 180 191 323 312 324 335
8 180 181 193 192 324 325 337 336
8 181 182 194 193 325 326 338 337
8 182 183 195 194 326 327 339 338
8 183 184 196 195 327 328 340 339
8 184 185 197 196 328 329 341 340
8 185 186 198 197 329 330 342 341
8 186 187 199 198 330 331 343 342
8 187 188 200 199 331 332 344 343
8 188 189 201 200 332 333 345 344
8 189 190 202 201 333 334 346 345
8 190 191 203 202 334 335 347 346
8 191 180 192 203 335 324 336 347
8 192 193 205 204 336 337 349 348
8 193 194 206 205 337 338 350 349
8 194 195 207 206 338 339 351 350
8 195 196 208 207 339 340 352 351
8 196 197 209 208 340 341 353 352
8 197 198 210 209 341 342 354 353
8 198 199 211 210 342 343 355 354
8 199 200 212 211 343 344 356 355
8 200 201 213 212 344 345 357 356
8 201 202 214 213 345 346 358 357
8 202 203 215 214 346 347 359 358
8 203 192 204 215 347 336 348 359
8 204 205 217 216 348 349 361 360
8 205 206 218 217 349 350 362 361
8 206 207 219 218 350 351 363 362
8 207 208 220 219 351 352 364 363
8 208 209 221 220 352 353 365 364
8 209 210 222 221 353 354 366 365
8 210 211 223 222 354 355 367 366
8 211 212 224 223 355 356 368 367
8 212 213 225 224 356 357 369 368
8 213 214 226 225 357 358 370 369
8 214 215 227 226 358 359 371 370
8 215 204 216 227 359 348 360 371
8 216 217 229 228 360 361 373 372
8 217 218 230 229 361 362 374 373
8 218 219 231 230 362 363 375 374
8 219 220 232 231 363 364 376 375
8 220 221 233 232 364 365 377 376
8 221 222 234 233 365 366 378 377
8 222 223 235 234 366 367 379 378
8 223 224 236 235 367 368 380 379
8 224 225 237 236 368 369 381 380
8 225 226 238 237 369 370 382 381
8 226 227 239 238 370 371 383 382
8 227 216 228 239 371 360 372 383
8 228 229 241 240 372 373 385 384
8 229 230 242 241 373 374 386 385
8 230 231 243 242 374 375 387 386
8 231 232 244 243 375 376 388 387
8 232 233 245 244 376 377 389 388
8 233 234 246 245 377 378 390 389
8 234 235 247 246 378 379 391 390
8 235 236 248 247 379 380 392 391
8 236 237 249 248 380 381 393 392
8 237 238 250 249 381 382 394 393
8 238 239 251 250 382 383 395 394
8 239 228 240 251 383 372 384 395
8 240 241 253 252 384 385 397 396
8 241 242 254 253 385 386 398 397
8 242 243 255 254 386 387 399 398
8 243 244 256 255 387 388 400 399
8 244 245 257 256 388 389 401 400
8 245 246 258 257 389 390 402 401
8 246 247 259 258 390 391 403 402
8 247 248 260 259 391 392 404 403
8 248 249 261 260 392 393 405 404
8 249 250 262 261 393 394 406 405
8 250 251 263 262 394 395 407 406
8 251 240 252 263 395 384 396 407
8 252 253 265 264 396 397 409 408
8 253 254 266 265 397 398 410 409
8 254 255 267 266 398 399 411 410
8 255 256 268 267 399 400 412 411
8 256 257 269 268 400 401 413 412
8 257 258 270 269 401 402 414 413
8 258 259 271 270 402 403 415 414
8 259 260 272 271 403 404 416 415
8 260 261 273 272 404 405 417 416
8 261 262 274 273 405 406 418 417
8 262 263 275 274 406 407 419 418
8 263 252 264 275 407 396 408 419
8 264 265 277 276 408 409 421 420
8 265 266 278 277 409 410 422 421
8 266 267 279 278 410 411 423 422
8 267 268 280 279 411 412 424 423
8 268 269 281 280 412 413 425 424
8 269 270 282 281 413 414 426 425
8 270 271 283 282 414 415 427 426
8 271 272 284 283 415 416 428 427
8 272 273 285 284 416 417 429 428
8 273 274 286 285 417 418 430 429
8 274 275 287 286 418 419 431 430
8 275 264 276 287 419 408 420 431
CELL_TYPES 264
12
12
12
12
12
12
12
12
12
12
12
12
12
12
12
12
12
12
12
12
12
12
12
12
12
12
12
12
12
12
12
12
12
12
12
12
12
12
12
12
12
12
12
12
12
12
12
12
12
12
12
12
12
12
12
12
12
12
12
12
12
12
12
12
12
12
12
12
12
12
12
12
12
12
12
12
12
12
12
12
12
12
12
12
12
12
12
12
12
12
12
12
12
12
12
12
12
12
12
12
12
12
12
12
12
12
12
12
12
12
12
12
12
12
12
12
12
12
12
12
12
12
12
12
12
12
12
12
12
12
12
12
12
12
12
12
12
12
12
12
12
12
12
12
12
12
12
12
12
12
12
12
12
12
12
12
12
12
12
12
12
12
12
12
12
12
12
12
12
12
12
12
12
12
12
12
12
12
12
12
12
12
12
12
12
12
12
12
12
12
12
12
12
12
12
12
12
12
12
12
12
12
12
12
12
12
12
12
12
12
12
12
12
12
12
12
12
12
12
12
12
12
12
12
12
12
12
12
12
12
12
12
12
12
12
12
12
12
12
12
12
12
12
12
12
12
12
12
12
12
12
12
12
12
12
12
12
12
12
12
12
12
12
12
POINT_DATA 432
SCALARS layer float
LOOKUP_TABLE default
0
0
0
0
0
0
0
0
0
0
0
0
0
0
0
0
0
0
0
0
0
0
0
0
0
0
0
0
0
0
0
0
0
0
0
0
0
0
0
0
0
0
0
0
0
0
0
0
1
1
1
1
1
1
1
1
1
1
1
1
1
1
1
1
1
1
1
1
1
1
1
1
1
1
1
1
1
1
1
1
1
1
1
1
1
1
1
1
1
1
1
1
1
1
1
1
2
2
2
2
2
2
2
2
2
2
2
2
2
2
2
2
2
2
2
2
2
2
2
2
2
2
2
2
2
2
2
2
2
2
2
2
2
2
2
2
2
2
2
2
2
2
2
2
0
0
0
0
0
0
0
0
0
0
0
0
0
0
0
0
0
0
0
0
0
0
0
0
0
0
0
0
0
0
0
0
0
0
0
0
0
0
0
0
0
0
0
0
0
0
0
0
1
1
1
1
1
1
1
1
1
1
1
1
1
1
1
1
1
1
1
1
1
1
1
1
1
1
1
1
1
1
1
1
1
1
1
1
1
1
1
1
1
1
1
1
1
1
1
1
2
2
2
2
2
2
2
2
2
2
2
2
2
2
2
2
2
2
2
2
2
2
2
2
2
2
2
2
2
2
2
2
2
2
2
2
2
2
2
2
2
2
2
2
2
2
2
2
0
0
0
0
0
0
0
0
0
0
0
0
0
0
0
0
0
0
0
0
0
0
0
0
0
0
0
0
0
0
0
0
0
0
0
0
0
0
0
0
0
0
0
0
0
0
0
0
1
1
1
1
1
1
1
1
1
1
1
1
1
1
1
1
1
1
1
1
1
1
1
1
1
1
1
1
1
1
1
1
1
1
1
1
1
1
1
1
1
1
1
1
1
1
1
1
2
2
2
2
2
2
2
2
2
2
2
2
2
2
2
2
2
2
2
2
2
2
2
2
2
2
2
2
2
2
2
2
2
2
2
2
2
2
2
2
2
2
2
2
2
2
2
2
CELL_DATA 264
SCALARS zone float
LOOKUP_TABLE default
0
0
0
0
0
0
0
0
0
0
0
0
0
0
0
0
0
0
0
0
0
0
0
0
0
0
0
0
0
0
0
0
0
0
0
0
1
1
1
1
1
1
1
1
1
1
1
1
1
1
1
1
1
1
1
1
1
1
1
1
1
1
1
1
1
1
1
1
1
1
1
1
1
1
1
1
1
1
1
1
1
1
1
1
2
2
2
2
2
2
2
2
2
2
2
2
2
2
2
2
2
2
2
2
2
2
2
2
2
2
2
2
2
2
2
2
2
2
2
2
2
2
2
2
2
2
2
2
2
2
2
2
0
0
0
0
0
0
0
0
0
0
0
0
0
0
0
0
0
0
0
0
0
0
0
0
0
0
0
0
0
0
0
0
0
0
0
0
1
1
1
1
1
1
1
1
1
1
1
1
1
1
1
1
1
1
1
1
1
1
1
1
1
1
1
1
1
1
1
1
1
1
1
1
1
1
1
1
1
1
1
1
1
1
1
1
2
2
2
2
2
2
2
2
2
2
2
2
2
2
2
2
2
2
2
2
2
2
2
2
2
2
2
2
2
2
2
2
2
2
2
2
2
2
2
2
2
2
2
2
2
2
2
2
