# vtk DataFile Version 3.0
AI-generated test model (GenerateProcessIds) - venturi tube with three axial zones
ASCII
DATASET UNSTRUCTURED_GRID
POINTS 270 float
0.3 0 0
0.242705 0.176336 0
0.092705 0.285317 0
-0.092705 0.285317 0
-0.242705 0.176336 0
-0.3 0 0
-0.242705 -0.176336 0
-0.092705 -0.285317 0
0.092705 -0.285317 0
0.242705 -0.176336 0
0.3 0 0.8
0.242705 0.176336 0.8
0.092705 0.285317 0.8
-0.092705 0.285317 0.8
-0.242705 0.176336 0.8
-0.3 0 0.8
-0.242705 -0.176336 0.8
-0.092705 -0.285317 0.8
0.092705 -0.285317 0.8
0.242705 -0.176336 0.8
0.3 0 1.6
0.242705 0.176336 1.6
0.092705 0.285317 1.6
-0.092705 0.285317 1.6
-0.242705 0.176336 1.6
-0.3 0 1.6
-0.242705 -0.176336 1.6
-0.092705 -0.285317 1.6
0.092705 -0.285317 1.6
0.242705 -0.176336 1.6
0.3 0 2.4
0.242705 0.176336 2.4
0.092705 0.285317 2.4
-0.092705 0.285317 2.4
-0.242705 0.176336 2.4
-0.3 0 2.4
-0.242705 -0.176336 2.4
-0.092705 -0.285317 2.4
0.092705 -0.285317 2.4
0.242705 -0.176336 2.4
0.3 0 3.2
0.242705 0.176336 3.2
0.092705 0.285317 3.2
-0.092705 0.285317 3.2
-0.242705 0.176336 3.2
-0.3 0 3.2
-0.242705 -0.176336 3.2
-0.092705 -0.285317 3.2
0.092705 -0.285317 3.2
0.242705 -0.176336 3.2
0.3 0 4
0.242705 0.176336 4
0.092705 0.285317 4
-0.092705 0.285317 4
-0.242705 0.176336 4
-0.3 0 4
-0.242705 -0.176336 4
-0.092705 -0.285317 4
0.092705 -0.285317 4
0.242705 -0.176336 4
0.3 0 4.8
0.242705 0.176336 4.8
0.092705 0.285317 4.8
-0.092705 0.285317 4.8
-0.242705 0.176336 4.8
-0.3 0 4.8
-0.242705 -0.176336 4.8
-0.092705 -0.285317 4.8
0.092705 -0.285317 4.8
0.242705 -0.176336 4.8
0.3 0 5.6
0.242705 0.176336 5.6
0.092705 0.285317 5.6
-0.092705 0.285317 5.6
-0.242705 0.176336 5.6
-0.3 0 5.6
-0.242705 -0.176336 5.6
-0.092705 -0.285317 5.6
0.092705 -0.285317 5.6
0.242705 -0.176336 5.6
0.3 0 6.4
0.242705 0.176336 6.4
0.092705 0.285317 6.4
-0.092705 0.285317 6.4
-0.242705 0.176336 6.4
-0.3 0 6.4
-0.242705 -0.176336 6.4
-0.092705 -0.285317 6.4
0.092705 -0.285317 6.4
0.242705 -0.176336 6.4
1 0 0
0.809017 0.587785 0
0.309017 0.951057 0
-0.309017 0.951057 0
-0.809017 0.587785 0
-1 0 0
-0.809017 -0.587785 0
-0.309017 -0.951057 0
0.309017 -0.951057 0
0.809017 -0.587785 0
0.846927 0 0.8
0.685178 0.497811 0.8
0.261715 0.805475 0.8
-0.261715 0.805475 0.8
-0.685178 0.497811 0.8
-0.846927 0 0.8
-0.685178 -0.497811 0.8
-0.261715 -0.805475 0.8
0.261715 -0.805475 0.8
0.685178 -0.497811 0.8
0.717157 0 1.6
0.580192 0.421534 1.6
0.221614 0.682057 1.6
-0.221614 0.682057 1.6
-0.580192 0.421534 1.6
-0.717157 0 1.6
-0.580192 -0.421534 1.6
-0.221614 -0.682057 1.6
0.221614 -0.682057 1.6
0.580192 -0.421534 1.6
0.630448 0 2.4
0.510043 0.370568 2.4
0.194819 0.599592 2.4
-0.194819 0.599592 2.4
-0.510043 0.370568 2.4
-0.630448 0 2.4
-0.510043 -0.370568 2.4
-0.194819 -0.599592 2.4
0.194819 -0.599592 2.4
0.510043 -0.370568 2.4
0.6 0 3.2
0.48541 0.352671 3.2
0.18541 0.570634 3.2
-0.18541 0.570634 3.2
-0.48541 0.352671 3.2
-0.6 0 3.2
-0.48541 -0.352671 3.2
-0.18541 -0.570634 3.2
0.18541 -0.570634 3.2
0.48541 -0.352671 3.2
0.630448 0 4
0.510043 0.370568 4
0.194819 0.599592 4
-0.194819 0.599592 4
-0.510043 0.370568 4
-0.630448 0 4
-0.510043 -0.370568 4
-0.194819 -0.599592 4
0.194819 -0.599592 4
0.510043 -0.370568 4
0.717157 0 4.8
0.580192 0.421534 4.8
0.221614 0.682057 4.8
-0.221614 0.682057 4.8
-0.580192 0.421534 4.8
-0.717157 0 4.8
-0.580192 -0.421534 4.8
-0.221614 -0.682057 4.8
0.221614 -0.682057 4.8
0.580192 -0.421534 4.8
0.846927 0 5.6
0.685178 0.497811 5.6
0.261715 0.805475 5.6
-0.261715 0.805475 5.6
-0.685178 0.497811 5.6
-0.846927 0 5.6
-0.685178 -0.497811 5.6
-0.261715 -0.805475 5.6
0.261715 -0.805475 5.6
0.685178 -0.497811 5.6
1 0 6.4
0.809017 0.587785 6.4
0.309017 0.951057 6.4
-0.309017 0.951057 6.4
-0.809017 0.587785 6.4
-1 0 6.4
-0.809017 -0.587785 6.4
-0.309017 -0.951057 6.4
0.309017 -0.951057 6.4
0.809017 -0.587785 6.4
1.7 0 0
1.375329 0.999235 0
0.525329 1.616796 0
-0.525329 1.616796 0
-1.375329 0.999235 0
-1.7 0 0
-1.375329 -0.999235 0
-0.525329 -1.616796 0
0.525329 -1.616796 0
1.375329 -0.999235 0
1.393853 0 0.8
1.127651 0.819286 0.8
0.430724 1.325633 0.8
-0.430724 1.325633 0.8
-1.127651 0.819286 0.8
-1.393853 0 0.8
-1.127651 -0.819286 0.8
-0.430724 -1.325633 0.8
0.430724 -1.325633 0.8
1.127651 -0.819286 0.8
1.134315 0 1.6
0.91768 0.666733 1.6
0.350522 1.078797 1.6
-0.350522 1.078797 1.6
-0.91768 0.666733 1.6
-1.134315 0 1.6
-0.91768 -0.666733 1.6
-0.350522 -1.078797 1.6
0.350522 -1.078797 1.6
0.91768 -0.666733 1.6
0.960896 0 2.4
0.777381 0.564801 2.4
0.296933 0.913867 2.4
-0.296933 0.913867 2.4
-0.777381 0.564801 2.4
-0.960896 0 2.4
-0.777381 -0.564801 2.4
-0.296933 -0.913867 2.4
0.296933 -0.913867 2.4
0.777381 -0.564801 2.4
0.9 0 3.2
0.728115 0.529007 3.2
0.278115 0.855951 3.2
-0.278115 0.855951 3.2
-0.728115 0.529007 3.2
-0.9 0 3.2
-0.728115 -0.529007 3.2
-0.278115 -0.855951 3.2
0.278115 -0.855951 3.2
0.728115 -0.529007 3.2
0.960896 0 4
0.777381 0.564801 4
0.296933 0.913867 4
-0.296933 0.913867 4
-0.777381 0.564801 4
-0.960896 0 4
-0.777381 -0.564801 4
-0.296933 -0.913867 4
0.296933 -0.913867 4
0.777381 -0.564801 4
1.134315 0 4.8
0.91768 0.666733 4.8
0.350522 1.078797 4.8
-0.350522 1.078797 4.8
-0.91768 0.666733 4.8
-1.134315 0 4.8
-0.91768 -0.666733 4.8
-0.350522 -1.078797 4.8
0.350522 -1.078797 4.8
0.91768 -0.666733 4.8
1.393853 0 5.6
1.127651 0.819286 5.6
0.430724 1.325633 5.6
-0.430724 1.325633 5.6
-1.127651 0.819286 5.6
-1.393853 0 5.6
-1.127651 -0.819286 5.6
-0.430724 -1.325633 5.6
0.430724 -1.325633 5.6
1.127651 -0.819286 5.6
1.7 0 6.4
1.375329 0.999235 6.4
0.525329 1.616796 6.4
-0.525329 1.616796 6.4
-1.375329 0.999235 6.4
-1.7 0 6.4
-1.375329 -0.999235 6.4
-0.525329 -1.616796 6.4
0.525329 -1.616796 6.4
1.375329 -0.999235 6.4
CELLS 960 4800
4 0 1 11 101
4 0 11 10 101
4 0 10 100 101
4 0 90 100 101
4 0 90 91 101
4 0 91 1 101
4 1 2 12 102
4 1 12 11 102
4 1 11 101 102
4 1 91 101 102
4 1 91 92 102
4 1 92 2 102
4 2 3 13 103
4 2 13 12 103
4 2 12 102 103
4 2 92 102 103
4 2 92 93 103
4 2 93 3 103
4 3 4 14 104
4 3 14 13 104
4 3 13 103 104
4 3 93 103 104
4 3 93 94 104
4 3 94 4 104
4 4 5 15 105
4 4 15 14 105
4 4 14 104 105
4 4 94 104 105
4 4 94 95 105
4 4 95 5 105
4 5 6 16 106
4 5 16 15 106
4 5 15 105 106
4 5 95 105 106
4 5 95 96 106
4 5 96 6 106
4 6 7 17 107
4 6 17 16 107
4 6 16 106 107
4 6 96 106 107
4 6 96 97 107
4 6 97 7 107
4 7 8 18 108
4 7 18 17 108
4 7 17 107 108
4 7 97 107 108
4 7 97 98 108
4 7 98 8 108
4 8 9 19 109
4 8 19 18 109
4 8 18 108 109
4 8 98 108 109
4 8 98 99 109
4 8 99 9 109
4 9 0 10 100
4 9 10 19 100
4 9 19 109 100
4 9 99 109 100
4 9 99 90 100
4 9 90 0 100
4 10 11 21 111
4 10 21 20 111
4 10 20 110 111
4 10 100 110 111
4 10 100 101 111
4 10 101 11 111
4 11 12 22 112
4 11 22 21 112
4 11 21 111 112
4 11 101 111 112
4 11 101 102 112
4 11 102 12 112
4 12 13 23 113
4 12 23 22 113
4 12 22 112 113
4 12 102 112 113
4 12 102 103 113
4 12 103 13 113
4 13 14 24 114
4 13 24 23 114
4 13 23 113 114
4 13 103 113 114
4 13 103 104 114
4 13 104 14 114
4 14 15 25 115
4 14 25 24 115
4 14 24 114 115
4 14 104 114 115
4 14 104 105 115
4 14 105 15 115
4 15 16 26 116
4 15 26 25 116
4 15 25 115 116
4 15 105 115 116
4 15 105 106 116
4 15 106 16 116
4 16 17 27 117
4 16 27 26 117
4 16 26 116 117
4 16 106 116 117
4 16 106 107 117
4 16 107 17 117
4 17 18 28 118
4 17 28 27 118
4 17 27 117 118
4 17 107 117 118
4 17 107 108 118
4 17 108 18 118
4 18 19 29 119
4 18 29 28 119
4 18 28 118 119
4 18 108 118 119
4 18 108 109 119
4 18 109 19 119
4 19 10 20 110
4 19 20 29 110
4 19 29 119 110
4 19 109 119 110
4 19 109 100 110
4 19 100 10 110
4 20 21 31 121
4 20 31 30 121
4 20 30 120 121
4 20 110 120 121
4 20 110 111 121
4 20 111 21 121
4 21 22 32 122
4 21 32 31 122
4 21 31 121 122
4 21 111 121 122
4 21 111 112 122
4 21 112 22 122
4 22 23 33 123
4 22 33 32 123
4 22 32 122 123
4 22 112 122 123
4 22 112 113 123
4 22 113 23 123
4 23 24 34 124
4 23 34 33 124
4 23 33 123 124
4 23 113 123 124
4 23 113 114 124
4 23 114 24 124
4 24 25 35 125
4 24 35 34 125
4 24 34 124 125
4 24 114 124 125
4 24 114 115 125
4 24 115 25 125
4 25 26 36 126
4 25 36 35 126
4 25 35 125 126
4 25 115 125 126
4 25 115 116 126
4 25 116 26 126
4 26 27 37 127
4 26 37 36 127
4 26 36 126 127
4 26 116 126 127
4 26 116 117 127
4 26 117 27 127
4 27 28 38 128
4 27 38 37 128
4 27 37 127 128
4 27 117 127 128
4 27 117 118 128
4 27 118 28 128
4 28 29 39 129
4 28 39 38 129
4 28 38 128 129
4 28 118 128 129
4 28 118 119 129
4 28 119 29 129
4 29 20 30 120
4 29 30 39 120
4 29 39 129 120
4 29 119 129 120
4 29 119 110 120
4 29 110 20 120
4 30 31 41 131
4 30 41 40 131
4 30 40 130 131
4 30 120 130 131
4 30 120 121 131
4 30 121 31 131
4 31 32 42 132
4 31 42 41 132
4 31 41 131 132
4 31 121 131 132
4 31 121 122 132
4 31 122 32 132
4 32 33 43 133
4 32 43 42 133
4 32 42 132 133
4 32 122 132 133
4 32 122 123 133
4 32 123 33 133
4 33 34 44 134
4 33 44 43 134
4 33 43 133 134
4 33 123 133 134
4 33 123 124 134
4 33 124 34 134
4 34 35 45 135
4 34 45 44 135
4 34 44 134 135
4 34 124 134 135
4 34 124 125 135
4 34 125 35 135
4 35 36 46 136
4 35 46 45 136
4 35 45 135 136
4 35 125 135 136
4 35 125 126 136
4 35 126 36 136
4 36 37 47 137
4 36 47 46 137
4 36 46 136 137
4 36 126 136 137
4 36 126 127 137
4 36 127 37 137
4 37 38 48 138
4 37 48 47 138
4 37 47 137 138
4 37 127 137 138
4 37 127 128 138
4 37 128 38 138
4 38 39 49 139
4 38 49 48 139
4 38 48 138 139
4 38 128 138 139
4 38 128 129 139
4 38 129 39 139
4 39 30 40 130
4 39 40 49 130
4 39 49 139 130
4 39 129 139 130
4 39 129 120 130
4 39 120 30 130
4 40 41 51 141
4 40 51 50 141
4 40 50 140 141
4 40 130 140 141
4 40 130 131 141
4 40 131 41 141
4 41 42 52 142
4 41 52 51 142
4 41 51 141 142
4 41 131 141 142
4 41 131 132 142
4 41 132 42 142
4 42 43 53 143
4 42 53 52 143
4 42 52 142 143
4 42 132 142 143
4 42 132 133 143
4 42 133 43 143
4 43 44 54 144
4 43 54 53 144
4 43 53 143 144
4 43 133 143 144
4 43 133 134 144
4 43 134 44 144
4 44 45 55 145
4 44 55 54 145
4 44 54 144 145
4 44 134 144 145
4 44 134 135 145
4 44 135 45 145
4 45 46 56 146
4 45 56 55 146
4 45 55 145 146
4 45 135 145 146
4 45 135 136 146
4 45 136 46 146
4 46 47 57 147
4 46 57 56 147
4 46 56 146 147
4 46 136 146 147
4 46 136 137 147
4 46 137 47 147
4 47 48 58 148
4 47 58 57 148
4 47 57 147 148
4 47 137 147 148
4 47 137 138 148
4 47 138 48 148
4 48 49 59 149
4 48 59 58 149
4 48 58 148 149
4 48 138 148 149
4 48 138 139 149
4 48 139 49 149
4 49 40 50 140
4 49 50 59 140
4 49 59 149 140
4 49 139 149 140
4 49 139 130 140
4 49 130 40 140
4 50 51 61 151
4 50 61 60 151
4 50 60 150 151
4 50 140 150 151
4 50 140 141 151
4 50 141 51 151
4 51 52 62 152
4 51 62 61 152
4 51 61 151 152
4 51 141 151 152
4 51 141 142 152
4 51 142 52 152
4 52 53 63 153
4 52 63 62 153
4 52 62 152 153
4 52 142 152 153
4 52 142 143 153
4 52 143 53 153
4 53 54 64 154
4 53 64 63 154
4 53 63 153 154
4 53 143 153 154
4 53 143 144 154
4 53 144 54 154
4 54 55 65 155
4 54 65 64 155
4 54 64 154 155
4 54 144 154 155
4 54 144 145 155
4 54 145 55 155
4 55 56 66 156
4 55 66 65 156
4 55 65 155 156
4 55 145 155 156
4 55 145 146 156
4 55 146 56 156
4 56 57 67 157
4 56 67 66 157
4 56 66 156 157
4 56 146 156 157
4 56 146 147 157
4 56 147 57 157
4 57 58 68 158
4 57 68 67 158
4 57 67 157 158
4 57 147 157 158
4 57 147 148 158
4 57 148 58 158
4 58 59 69 159
4 58 69 68 159
4 58 68 158 159
4 58 148 158 159
4 58 148 149 159
4 58 149 59 159
4 59 50 60 150
4 59 60 69 150
4 59 69 159 150
4 59 149 159 150
4 59 149 140 150
4 59 140 50 150
4 60 61 71 161
4 60 71 70 161
4 60 70 160 161
4 60 150 160 161
4 60 150 151 161
4 60 151 61 161
4 61 62 72 162
4 61 72 71 162
4 61 71 161 162
4 61 151 161 162
4 61 151 152 162
4 61 152 62 162
4 62 63 73 163
4 62 73 72 163
4 62 72 162 163
4 62 152 162 163
4 62 152 153 163
4 62 153 63 163
4 63 64 74 164
4 63 74 73 164
4 63 73 163 164
4 63 153 163 164
4 63 153 154 164
4 63 154 64 164
4 64 65 75 165
4 64 75 74 165
4 64 74 164 165
4 64 154 164 165
4 64 154 155 165
4 64 155 65 165
4 65 66 76 166
4 65 76 75 166
4 65 75 165 166
4 65 155 165 166
4 65 155 156 166
4 65 156 66 166
4 66 67 77 167
4 66 77 76 167
4 66 76 166 167
4 66 156 166 167
4 66 156 157 167
4 66 157 67 167
4 67 68 78 168
4 67 78 77 168
4 67 77 167 168
4 67 157 167 168
4 67 157 158 168
4 67 158 68 168
4 68 69 79 169
4 68 79 78 169
4 68 78 168 169
4 68 158 168 169
4 68 158 159 169
4 68 159 69 169
4 69 60 70 160
4 69 70 79 160
4 69 79 169 160
4 69 159 169 160
4 69 159 150 160
4 69 150 60 160
4 70 71 81 171
4 70 81 80 171
4 70 80 170 171
4 70 160 170 171
4 70 160 161 171
4 70 161 71 171
4 71 72 82 172
4 71 82 81 172
4 71 81 171 172
4 71 161 171 172
4 71 161 162 172
4 71 162 72 172
4 72 73 83 173
4 72 83 82 173
4 72 82 172 173
4 72 162 172 173
4 72 162 163 173
4 72 163 73 173
4 73 74 84 174
4 73 84 83 174
4 73 83 173 174
4 73 163 173 174
4 73 163 164 174
4 73 164 74 174
4 74 75 85 175
4 74 85 84 175
4 74 84 174 175
4 74 164 174 175
4 74 164 165 175
4 74 165 75 175
4 75 76 86 176
4 75 86 85 176
4 75 85 175 176
4 75 165 175 176
4 75 165 166 176
4 75 166 76 176
4 76 77 87 177
4 76 87 86 177
4 76 86 176 177
4 76 166 176 177
4 76 166 167 177
4 76 167 77 177
4 77 78 88 178
4 77 88 87 178
4 77 87 177 178
4 77 167 177 178
4 77 167 168 178
4 77 168 78 178
4 78 79 89 179
4 78 89 88 179
4 78 88 178 179
4 78 168 178 179
4 78 168 169 179
4 78 169 79 179
4 79 70 80 170
4 79 80 89 170
4 79 89 179 170
4 79 169 179 170
4 79 169 160 170
4 79 160 70 170
4 90 91 101 191
4 90 101 100 191
4 90 100 190 191
4 90 180 190 191
4 90 180 181 191
4 90 181 91 191
4 91 92 102 192
4 91 102 101 192
4 91 101 191 192
4 91 181 191 192
4 91 181 182 192
4 91 182 92 192
4 92 93 103 193
4 92 103 102 193
4 92 102 192 193
4 92 182 192 193
4 92 182 183 193
4 92 183 93 193
4 93 94 104 194
4 93 104 103 194
4 93 103 193 194
4 93 183 193 194
4 93 183 184 194
4 93 184 94 194
4 94 95 105 195
4 94 105 104 195
4 94 104 194 195
4 94 184 194 195
4 94 184 185 195
4 94 185 95 195
4 95 96 106 196
4 95 106 105 196
4 95 105 195 196
4 95 185 195 196
4 95 185 186 196
4 95 186 96 196
4 96 97 107 197
4 96 107 106 197
4 96 106 196 197
4 96 186 196 197
4 96 186 187 197
4 96 187 97 197
4 97 98 108 198
4 97 108 107 198
4 97 107 197 198
4 97 187 197 198
4 97 187 188 198
4 97 188 98 198
4 98 99 109 199
4 98 109 108 199
4 98 108 198 199
4 98 188 198 199
4 98 188 189 199
4 98 189 99 199
4 99 90 100 190
4 99 100 109 190
4 99 109 199 190
4 99 189 199 190
4 99 189 180 190
4 99 180 90 190
4 100 101 111 201
4 100 111 110 201
4 100 110 200 201
4 100 190 200 201
4 100 190 191 201
4 100 191 101 201
4 101 102 112 202
4 101 112 111 202
4 101 111 201 202
4 101 191 201 202
4 101 191 192 202
4 101 192 102 202
4 102 103 113 203
4 102 113 112 203
4 102 112 202 203
4 102 192 202 203
4 102 192 193 203
4 102 193 103 203
4 103 104 114 204
4 103 114 113 204
4 103 113 203 204
4 103 193 203 204
4 103 193 194 204
4 103 194 104 204
4 104 105 115 205
4 104 115 114 205
4 104 114 204 205
4 104 194 204 205
4 104 194 195 205
4 104 195 105 205
4 105 106 116 206
4 105 116 115 206
4 105 115 205 206
4 105 195 205 206
4 105 195 196 206
4 105 196 106 206
4 106 107 117 207
4 106 117 116 207
4 106 116 206 207
4 106 196 206 207
4 106 196 197 207
4 106 197 107 207
4 107 108 118 208
4 107 118 117 208
4 107 117 207 208
4 107 197 207 208
4 107 197 198 208
4 107 198 108 208
4 108 109 119 209
4 108 119 118 209
4 108 118 208 209
4 108 198 208 209
4 108 198 199 209
4 108 199 109 209
4 109 100 110 200
4 109 110 119 200
4 109 119 209 200
4 109 199 209 200
4 109 199 190 200
4 109 190 100 200
4 110 111 121 211
4 110 121 120 211
4 110 120 210 211
4 110 200 210 211
4 110 200 201 211
4 110 201 111 211
4 111 112 122 212
4 111 122 121 212
4 111 121 211 212
4 111 201 211 212
4 111 201 202 212
4 111 202 112 212
4 112 113 123 213
4 112 123 122 213
4 112 122 212 213
4 112 202 212 213
4 112 202 203 213
4 112 203 113 213
4 113 114 124 214
4 113 124 123 214
4 113 123 213 214
4 113 203 213 214
4 113 203 204 214
4 113 204 114 214
4 114 115 125 215
4 114 125 124 215
4 114 124 214 215
4 114 204 214 215
4 114 204 205 215
4 114 205 115 215
4 115 116 126 216
4 115 126 125 216
4 115 125 215 216
4 115 205 215 216
4 115 205 206 216
4 115 206 116 216
4 116 117 127 217
4 116 127 126 217
4 116 126 216 217
4 116 206 216 217
4 116 206 207 217
4 116 207 117 217
4 117 118 128 218
4 117 128 127 218
4 117 127 217 218
4 117 207 217 218
4 117 207 208 218
4 117 208 118 218
4 118 119 129 219
4 118 129 128 219
4 118 128 218 219
4 118 208 218 219
4 118 208 209 219
4 118 209 119 219
4 119 110 120 210
4 119 120 129 210
4 119 129 219 210
4 119 209 219 210
4 119 209 200 210
4 119 200 110 210
4 120 121 131 221
4 120 131 130 221
4 120 130 220 221
4 120 210 220 221
4 120 210 211 221
4 120 211 121 221
4 121 122 132 222
4 121 132 131 222
4 121 131 221 222
4 121 211 221 222
4 121 211 212 222
4 121 212 122 222
4 122 123 133 223
4 122 133 132 223
4 122 132 222 223
4 122 212 222 223
4 122 212 213 223
4 122 213 123 223
4 123 124 134 224
4 123 134 133 224
4 123 133 223 224
4 123 213 223 224
4 123 213 214 224
4 123 214 124 224
4 124 125 135 225
4 124 135 134 225
4 124 134 224 225
4 124 214 224 225
4 124 214 215 225
4 124 215 125 225
4 125 126 136 226
4 125 136 135 226
4 125 135 225 226
4 125 215 225 226
4 125 215 216 226
4 125 216 126 226
4 126 127 137 227
4 126 137 136 227
4 126 136 226 227
4 126 216 226 227
4 126 216 217 227
4 126 217 127 227
4 127 128 138 228
4 127 138 137 228
4 127 137 227 228
4 127 217 227 228
4 127 217 218 228
4 127 218 128 228
4 128 129 139 229
4 128 139 138 229
4 128 138 228 229
4 128 218 228 229
4 128 218 219 229
4 128 219 129 229
4 129 120 130 220
4 129 130 139 220
4 129 139 229 220
4 129 219 229 220
4 129 219 210 220
4 129 210 120 220
4 130 131 141 231
4 130 141 140 231
4 130 140 230 231
4 130 220 230 231
4 130 220 221 231
4 130 221 131 231
4 131 132 142 232
4 131 142 141 232
4 131 141 231 232
4 131 221 231 232
4 131 221 222 232
4 131 222 132 232
4 132 133 143 233
4 132 143 142 233
4 132 142 232 233
4 132 222 232 233
4 132 222 223 233
4 132 223 133 233
4 133 134 144 234
4 133 144 143 234
4 133 143 233 234
4 133 223 233 234
4 133 223 224 234
4 133 224 134 234
4 134 135 145 235
4 134 145 144 235
4 134 144 234 235
4 134 224 234 235
4 134 224 225 235
4 134 225 135 235
4 135 136 146 236
4 135 146 145 236
4 135 145 235 236
4 135 225 235 236
4 135 225 226 236
4 135 226 136 236
4 136 137 147 237
4 136 147 146 237
4 136 146 236 237
4 136 226 236 237
4 136 226 227 237
4 136 227 137 237
4 137 138 148 238
4 137 148 147 238
4 137 147 237 238
4 137 227 237 238
4 137 227 228 238
4 137 228 138 238
4 138 139 149 239
4 138 149 148 239
4 138 148 238 239
4 138 228 238 239
4 138 228 229 239
4 138 229 139 239
4 139 130 140 230
4 139 140 149 230
4 139 149 239 230
4 139 229 239 230
4 139 229 220 230
4 139 220 130 230
4 140 141 151 241
4 140 151 150 241
4 140 150 240 241
4 140 230 240 241
4 140 230 231 241
4 140 231 141 241
4 141 142 152 242
4 141 152 151 242
4 141 151 241 242
4 141 231 241 242
4 141 231 232 242
4 141 232 142 242
4 142 143 153 243
4 142 153 152 243
4 142 152 242 243
4 142 232 242 243
4 142 232 233 243
4 142 233 143 243
4 143 144 154 244
4 143 154 153 244
4 143 153 243 244
4 143 233 243 244
4 143 233 234 244
4 143 234 144 244
4 144 145 155 245
4 144 155 154 245
4 144 154 244 245
4 144 234 244 245
4 144 234 235 245
4 144 235 145 245
4 145 146 156 246
4 145 156 155 246
4 145 155 245 246
4 145 235 245 246
4 145 235 236 246
4 145 236 146 246
4 146 147 157 247
4 146 157 156 247
4 146 156 246 247
4 146 236 246 247
4 146 236 237 247
4 146 237 147 247
4 147 148 158 248
4 147 158 157 248
4 147 157 247 248
4 147 237 247 248
4 147 237 238 248
4 147 238 148 248
4 148 149 159 249
4 148 159 158 249
4 148 158 248 249
4 148 238 248 249
4 148 238 239 249
4 148 239 149 249
4 149 140 150 240
4 149 150 159 240
4 149 159 249 240
4 149 239 249 240
4 149 239 230 240
4 149 230 140 240
4 150 151 161 251
4 150 161 160 251
4 150 160 250 251
4 150 240 250 251
4 150 240 241 251
4 150 241 151 251
4 151 152 162 252
4 151 162 161 252
4 151 161 251 252
4 151 241 251 252
4 151 241 242 252
4 151 242 152 252
4 152 153 163 253
4 152 163 162 253
4 152 162 252 253
4 152 242 252 253
4 152 242 243 253
4 152 243 153 253
4 153 154 164 254
4 153 164 163 254
4 153 163 253 254
4 153 243 253 254
4 153 243 244 254
4 153 244 154 254
4 154 155 165 255
4 154 165 164 255
4 154 164 254 255
4 154 244 254 255
4 154 244 245 255
4 154 245 155 255
4 155 156 166 256
4 155 166 165 256
4 155 165 255 256
4 155 245 255 256
4 155 245 246 256
4 155 246 156 256
4 156 157 167 257
4 156 167 166 257
4 156 166 256 257
4 156 246 256 257
4 156 246 247 257
4 156 247 157 257
4 157 158 168 258
4 157 168 167 258
4 157 167 257 258
4 157 247 257 258
4 157 247 248 258
4 157 248 158 258
4 158 159 169 259
4 158 169 168 259
4 158 168 258 259
4 158 248 258 259
4 158 248 249 259
4 158 249 159 259
4 159 150 160 250
4 159 160 169 250
4 159 169 259 250
4 159 249 259 250
4 159 249 240 250
4 159 240 150 250
4 160 161 171 261
4 160 171 170 261
4 160 170 260 261
4 160 250 260 261
4 160 250 251 261
4 160 251 161 261
4 161 162 172 262
4 161 172 171 262
4 161 171 261 262
4 161 251 261 262
4 161 251 252 262
4 161 252 162 262
4 162 163 173 263
4 162 173 172 263
4 162 172 262 263
4 162 252 262 263
4 162 252 253 263
4 162 253 163 263
4 163 164 174 264
4 163 174 173 264
4 163 173 263 264
4 163 253 263 264
4 163 253 254 264
4 163 254 164 264
4 164 165 175 265
4 164 175 174 265
4 164 174 264 265
4 164 254 264 265
4 164 254 255 265
4 164 255 165 265
4 165 166 176 266
4 165 176 175 266
4 165 175 265 266
4 165 255 265 266
4 165 255 256 266
4 165 256 166 266
4 166 167 177 267
4 166 177 176 267
4 166 176 266 267
4 166 256 266 267
4 166 256 257 267
4 166 257 167 267
4 167 168 178 268
4 167 178 177 268
4 167 177 267 268
4 167 257 267 268
4 167 257 258 268
4 167 258 168 268
4 168 169 179 269
4 168 179 178 269
4 168 178 268 269
4 168 258 268 269
4 168 258 259 269
4 168 259 169 269
4 169 160 170 260
4 169 170 179 260
4 169 179 269 260
4 169 259 269 260
4 169 259 250 260
4 169 250 160 260
CELL_TYPES 960
10
10
10
10
10
10
10
10
10
10
10
10
10
10
10
10
10
10
10
10
10
10
10
10
10
10
10
10
10
10
10
10
10
10
10
10
10
10
10
10
10
10
10
10
10
10
10
10
10
10
10
10
10
10
10
10
10
10
10
10
10
10
10
10
10
10
10
10
10
10
10
10
10
10
10
10
10
10
10
10
10
10
10
10
10
10
10
10
10
10
10
10
10
10
10
10
10
10
10
10
10
10
10
10
10
10
10
10
10
10
10
10
10
10
10
10
10
10
10
10
10
10
10
10
10
10
10
10
10
10
10
10
10
10
10
10
10
10
10
10
10
10
10
10
10
10
10
10
10
10
10
10
10
10
10
10
10
10
10
10
10
10
10
10
10
10
10
10
10
10
10
10
10
10
10
10
10
10
10
10
10
10
10
10
10
10
10
10
10
10
10
10
10
10
10
10
10
10
10
10
10
10
10
10
10
10
10
10
10
10
10
10
10
10
10
10
10
10
10
10
10
10
10
10
10
10
10
10
10
10
10
10
10
10
10
10
10
10
10
10
10
10
10
10
10
10
10
10
10
10
10
10
10
10
10
10
10
10
10
10
10
10
10
10
10
10
10
10
10
10
10
10
10
10
10
10
10
10
10
10
10
10
10
10
10
10
10
10
10
10
10
10
10
10
10
10
10
10
10
10
10
10
10
10
10
10
10
10
10
10
10
10
10
10
10
10
10
10
10
10
10
10
10
10
10
10
10
10
10
10
10
10
10
10
10
10
10
10
10
10
10
10
10
10
10
10
10
10
10
10
10
10
10
10
10
10
10
10
10
10
10
10
10
10
10
10
10
10
10
10
10
10
10
10
10
10
10
10
10
10
10
10
10
10
10
10
10
10
10
10
10
10
10
10
10
10
10
10
10
10
10
10
10
10
10
10
10
10
10
10
10
10
10
10
10
10
10
10
10
10
10
10
10
10
10
10
10
10
10
10
10
10
10
10
10
10
10
10
10
10
10
10
10
10
10
10
10
10
10
10
10
10
10
10
10
10
10
10
10
10
10
10
10
10
10
10
10
10
10
10
10
10
10
10
10
10
10
10
10
10
10
10
10
10
10
10
10
10
10
10
10
10
10
10
10
10
10
10
10
10
10
10
10
10
10
10
10
10
10
10
10
10
10
10
10
10
10
10
10
10
10
10
10
10
10
10
10
10
10
10
10
10
10
10
10
10
10
10
10
10
10
10
10
10
10
10
10
10
10
10
10
10
10
10
10
10
10
10
10
10
10
10
10
10
10
10
10
10
10
10
10
10
10
10
10
10
10
10
10
10
10
10
10
10
10
10
10
10
10
10
10
10
10
10
10
10
10
10
10
10
10
10
10
10
10
10
10
10
10
10
10
10
10
10
10
10
10
10
10
10
10
10
10
10
10
10
10
10
10
10
10
10
10
10
10
10
10
10
10
10
10
10
10
10
10
10
10
10
10
10
10
10
10
10
10
10
10
10
10
10
10
10
10
10
10
10
10
10
10
10
10
10
10
10
10
10
10
10
10
10
10
10
10
10
10
10
10
10
10
10
10
10
10
10
10
10
10
10
10
10
10
10
10
10
10
10
10
10
10
10
10
10
10
10
10
10
10
10
10
10
10
10
10
10
10
10
10
10
10
10
10
10
10
10
10
10
10
10
10
10
10
10
10
10
10
10
10
10
10
10
10
10
10
10
10
10
10
10
10
10
10
10
10
10
10
10
10
10
10
10
10
10
10
10
10
10
10
10
10
10
10
10
10
10
10
10
10
10
10
10
10
10
10
10
10
10
10
10
10
10
10
10
10
10
10
10
10
10
10
10
10
10
10
10
10
10
10
10
10
10
10
10
10
10
10
10
10
10
10
10
10
10
10
10
10
10
10
10
10
10
10
10
10
10
10
10
10
10
10
10
10
10
10
10
10
10
10
10
10
10
10
10
10
10
10
10
10
10
10
10
10
10
10
10
10
10
10
10
10
10
10
10
10
10
10
10
10
10
10
10
10
10
10
10
10
10
10
10
10
10
10
10
10
10
10
10
10
10
10
10
10
10
10
10
10
10
10
10
10
10
10
10
10
10
10
10
10
10
10
10
10
10
10
10
10
10
10
10
10
10
10
10
10
10
10
10
10
10
10
10
10
10
10
10
10
10
10
10
10
10
POINT_DATA 270
SCALARS layer float
LOOKUP_TABLE default
0
0
0
0
0
0
0
0
0
0
0
0
0
0
0
0
0
0
0
0
0
0
0
0
0
0
0
0
0
0
1
1
1
1
1
1
1
1
1
1
1
1
1
1
1
1
1
1
1
1
1
1
1
1
1
1
1
1
1
1
2
2
2
2
2
2
2
2
2
2
2
2
2
2
2
2
2
2
2
2
2
2
2
2
2
2
2
2
2
2
0
0
0
0
0
0
0
0
0
0
0
0
0
0
0
0
0
0
0
0
0
0
0
0
0
0
0
0
0
0
1
1
1
1
1
1
1
1
1
1
1
1
1
1
1
1
1
1
1
1
1
1
1
1
1
1
1
1
1
1
2
2
2
2
2
2
2
2
2
2
2
2
2
2
2
2
2
2
2
2
2
2
2
2
2
2
2
2
2
2
0
0
0
0
0
0
0
0
0
0
0
0
0
0
0
0
0
0
0
0
0
0
0
0
0
0
0
0
0
0
1
1
1
1
1
1
1
1
1
1
1
1
1
1
1
1
1
1
1
1
1
1
1
1
1
1
1
1
1
1
2
2
2
2
2
2
2
2
2
2
2
2
2
2
2
2
2
2
2
2
2
2
2
2
2
2
2
2
2
2
CELL_DATA 960
SCALARS zone float
LOOKUP_TABLE default
0
0
0
0
0
0
0
0
0
0
0
0
0
0
0
0
0
0
0
0
0
0
0
0
0
0
0
0
0
0
0
0
0
0
0
0
0
0
0
0
0
0
0
0
0
0
0
0
0
0
0
0
0
0
0
0
0
0
0
0
0
0
0
0
0
0
0
0
0
0
0
0
0
0
0
0
0
0
0
0
0
0
0
0
0
0
0
0
0
0
0
0
0
0
0
0
0
0
0
0
0
0
0
0
0
0
0
0
0
0
0
0
0
0
0
0
0
0
0
0
0
1
1
0
0
0
0
1
1
0
0
0
0
1
1
0
0
0
0
1
1
0
0
0
0
1
1
0
0
0
0
1
1
0
0
0
0
1
1
0
0
0
0
1
1
0
0
0
0
1
1
0
0
0
0
1
1
0
0
0
1
1
1
1
1
1
1
1
1
1
1
1
1
1
1
1
1
1
1
1
1
1
1
1
1
1
1
1
1
1
1
1
1
1
1
1
1
1
1
1
1
1
1
1
1
1
1
1
1
1
1
1
1
1
1
1
1
1
1
1
1
1
1
1
1
1
1
1
1
1
1
1
1
1
1
1
1
1
1
1
1
1
1
1
1
1
1
1
1
1
1
1
1
1
1
1
1
1
1
1
1
1
1
1
1
1
1
1
1
1
1
1
1
1
1
1
1
1
1
1
2
2
2
2
1
1
2
2
2
2
1
1
2
2
2
2
1
1
2
2
2
2
1
1
2
2
2
2
1
1
2
2
2
2
1
1
2
2
2
2
1
1
2
2
2
2
1
1
2
2
2
2
1
1
2
2
2
2
1
1
2
2
2
2
2
2
2
2
2
2
2
2
2
2
2
2
2
2
2
2
2
2
2
2
2
2
2
2
2
2
2
2
2
2
2
2
2
2
2
2
2
2
2
2
2
2
2
2
2
2
2
2
2
2
2
2
2
2
2
2
2
2
2
2
2
2
2
2
2
2
2
2
2
2
2
2
2
2
2
2
2
2
2
2
2
2
2
2
2
2
2
2
2
2
2
2
2
2
2
2
2
2
2
2
2
2
2
2
2
2
2
2
2
2
2
2
2
2
2
2
0
0
0
0
0
0
0
0
0
0
0
0
0
0
0
0
0
0
0
0
0
0
0
0
0
0
0
0
0
0
0
0
0
0
0
0
0
0
0
0
0
0
0
0
0
0
0
0
0
0
0
0
0
0
0
0
0
0
0
0
0
0
0
0
0
0
0
0
0
0
0
0
0
0
0
0
0
0
0
0
0
0
0
0
0
0
0
0
0
0
0
0
0
0
0
0
0
0
0
0
0
0
0
0
0
0
0
0
0
0
0
0
0
0
0
0
0
0
0
0
0
1
1
0
0
0
0
1
1
0
0
0
0
1
1
0
0
0
0
1
1
0
0
0
0
1
1
0
0
0
0
1
1
0
0
0
0
1
1
0
0
0
0
1
1
0
0
0
0
1
1
0
0
0
0
1
1
0
0
0
1
1
1
1
1
1
1
1
1
1
1
1
1
1
1
1
1
1
1
1
1
1
1
1
1
1
1
1
1
1
1
1
1
1
1
1
1
1
1
1
1
1
1
1
1
1
1
1
1
1
1
1
1
1
1
1
1
1
1
1
1
1
1
1
1
1
1
1
1
1
1
1
1
1
1
1
1
1
1
1
1
1
1
1
1
1
1
1
1
1
1
1
1
1
1
1
1
1
1
1
1
1
1
1
1
1
1
1
1
1
1
1
1
1
1
1
1
1
1
1
2
2
2
2
1
1
2
2
2
2
1
1
2
2
2
2
1
1
2
2
2
2
1
1
2
2
2
2
1
1
2
2
2
2
1
1
2
2
2
2
1
1
2
2
2
2
1
1
2
2
2
2
1
1
2
2
2
2
1
1
2
2
2
2
2
2
2
2
2
2
2
2
2
2
2
2
2
2
2
2
2
2
2
2
2
2
2
2
2
2
2
2
2
2
2
2
2
2
2
2
2
2
2
2
2
2
2
2
2
2
2
2
2
2
2
2
2
2
2
2
2
2
2
2
2
2
2
2
2
2
2
2
2
2
2
2
2
2
2
2
2
2
2
2
2
2
2
2
2
2
2
2
2
2
2
2
2
2
2
2
2
2
2
2
2
2
2
2
2
2
2
2
2
2
2
2
2
2
2
2
