# vtk DataFile Version 3.0
ValidateCellsFilter mixed test: valid and invalid cells for supported VTK types
ASCII
DATASET UNSTRUCTURED_GRID
POINTS 34 float
0 0 0
1 0 0
0 0 0
0 0 0
0 0 0
1 0 0
0 1 0
0 0 0
1 0 0
1 0 0
0 0 0
1 0 0
1 1 0
0 1 0
0 0 0
1 1 0
0 1 0
1 0 0
0 0 0
1 0 0
0 1 0
0 0 1
0 0 0
1 0 0
0 0 1
0 1 0
0 0 0
1 0 0
1 1 0
0 1 0
0 0 1
1 0 1
1 1 1
0 1 1
CELLS 9 43
2 0 1
2 2 3
3 4 5 6
3 7 8 9
4 10 11 12 13
4 14 15 16 17
4 18 19 20 21
4 22 23 24 25
8 26 27 28 29 30 31 32 33
CELL_TYPES 9
3
3
5
5
9
9
10
10
12