# vtk DataFile Version 3.0
LinearExtrusionFilter test model A: open 4x4 quad sheet in the z=0 plane (25 points, 16 quads, boundary edges B=16)
ASCII
DATASET POLYDATA
POINTS 26 float
0 0 0
1 0 0
2 0 0
3 0 0
4 0 0
0 1 0
1 1 0
2 1 0
3 1 0
4 1 0
0 2 0
1 2 0
2 2 0
3 2 0
4 2 0
0 3 0
1 3 0
2 3 0
3 3 0
4 3 0
0 4 0
1 4 0
2 4 0
3 4 0
4 4 0
0.5 4 0.5
POLYGONS 16 80
4 0 1 6 5
4 1 2 7 6
4 2 3 8 7
4 3 4 9 8
4 5 6 11 10
4 6 7 12 11
4 7 8 13 12
4 8 9 14 13
4 10 11 16 15
4 11 12 17 16
4 12 13 18 17
4 13 14 19 18
4 15 16 21 20
4 16 17 22 21
4 17 18 23 22
4 18 19 24 23
POINT_DATA 26
SCALARS point_id int 1
LOOKUP_TABLE default
0
1
2
3
4
5
6
7
8
9
10
11
12
13
14
15
16
17
18
19
20
21
22
23
24
25
CELL_DATA 16
SCALARS patch_id int 1
LOOKUP_TABLE default
10
11
12
13
20
21
22
23
30
31
32
33
40
41
42
43
