# vtk DataFile Version 3.0
MergeVectorComponents test model: point scalars a1/b1/c1, cell scalar t_val
ASCII
DATASET UNSTRUCTURED_GRID
POINTS 16 float
0.000000 0.000000 0.000000
1.000000 0.000000 0.000000
2.000000 0.000000 0.000000
3.000000 0.000000 0.000000
0.000000 1.000000 0.000000
1.000000 1.000000 0.000000
2.000000 1.000000 0.000000
3.000000 1.000000 0.000000
0.000000 2.000000 0.000000
1.000000 2.000000 0.000000
2.000000 2.000000 0.000000
3.000000 2.000000 0.000000
0.000000 3.000000 0.000000
1.000000 3.000000 0.000000
2.000000 3.000000 0.000000
3.000000 3.000000 0.000000
CELLS 18 72
3 0 1 4
3 1 5 4
3 1 2 5
3 2 6 5
3 2 3 6
3 3 7 6
3 4 5 8
3 5 9 8
3 5 6 9
3 6 10 9
3 6 7 10
3 7 11 10
3 8 9 12
3 9 13 12
3 9 10 13
3 10 14 13
3 10 11 14
3 11 15 14
CELL_TYPES 18
5
5
5
5
5
5
5
5
5
5
5
5
5
5
5
5
5
5
POINT_DATA 16
SCALARS a1 float 1
LOOKUP_TABLE default
0.000000
0.100000
0.200000
0.300000
0.400000
0.500000
0.600000
0.700000
0.800000
0.900000
1.000000
1.100000
1.200000
1.300000
1.400000
1.500000
SCALARS b1 float 1
LOOKUP_TABLE default
0.000000
0.200000
0.400000
0.600000
0.800000
1.000000
1.200000
1.400000
1.600000
1.800000
2.000000
2.200000
2.400000
2.600000
2.800000
3.000000
SCALARS c1 float 1
LOOKUP_TABLE default
0.000000
0.300000
0.600000
0.900000
1.200000
1.500000
1.800000
2.100000
2.400000
2.700000
3.000000
3.300000
3.600000
3.900000
4.200000
4.500000
CELL_DATA 18
SCALARS t_val float 1
LOOKUP_TABLE default
0.000000
2.000000
4.000000
6.000000
8.000000
10.000000
12.000000
14.000000
16.000000
18.000000
20.000000
22.000000
24.000000
26.000000
28.000000
30.000000
32.000000
34.000000
