# vtk DataFile Version 3.0
MergeVectorComponents test model: point scalars u1/v1/w1 + 3-comp vel, cell scalar c_amp
ASCII
DATASET UNSTRUCTURED_GRID
POINTS 25 float
0.000000 0.000000 0.000000
1.000000 0.000000 0.000000
2.000000 0.000000 0.000000
3.000000 0.000000 0.000000
4.000000 0.000000 0.000000
0.000000 1.000000 0.000000
1.000000 1.000000 0.000000
2.000000 1.000000 0.000000
3.000000 1.000000 0.000000
4.000000 1.000000 0.000000
0.000000 2.000000 0.000000
1.000000 2.000000 0.000000
2.000000 2.000000 0.000000
3.000000 2.000000 0.000000
4.000000 2.000000 0.000000
0.000000 3.000000 0.000000
1.000000 3.000000 0.000000
2.000000 3.000000 0.000000
3.000000 3.000000 0.000000
4.000000 3.000000 0.000000
0.000000 4.000000 0.000000
1.000000 4.000000 0.000000
2.000000 4.000000 0.000000
3.000000 4.000000 0.000000
4.000000 4.000000 0.000000
CELLS 16 80
4 0 1 6 5
4 1 2 7 6
4 2 3 8 7
4 3 4 9 8
4 5 6 11 10
4 6 7 12 11
4 7 8 13 12
4 8 9 14 13
4 10 11 16 15
4 11 12 17 16
4 12 13 18 17
4 13 14 19 18
4 15 16 21 20
4 16 17 22 21
4 17 18 23 22
4 18 19 24 23
CELL_TYPES 16
9
9
9
9
9
9
9
9
9
9
9
9
9
9
9
9
POINT_DATA 25
SCALARS u1 float 1
LOOKUP_TABLE default
0.000000
1.000000
2.000000
3.000000
4.000000
5.000000
6.000000
7.000000
8.000000
9.000000
10.000000
11.000000
12.000000
13.000000
14.000000
15.000000
16.000000
17.000000
18.000000
19.000000
20.000000
21.000000
22.000000
23.000000
24.000000
SCALARS v1 float 1
LOOKUP_TABLE default
0.000000
2.000000
4.000000
6.000000
8.000000
10.000000
12.000000
14.000000
16.000000
18.000000
20.000000
22.000000
24.000000
26.000000
28.000000
30.000000
32.000000
34.000000
36.000000
38.000000
40.000000
42.000000
44.000000
46.000000
48.000000
SCALARS w1 float 1
LOOKUP_TABLE default
0.000000
3.000000
6.000000
9.000000
12.000000
15.000000
18.000000
21.000000
24.000000
27.000000
30.000000
33.000000
36.000000
39.000000
42.000000
45.000000
48.000000
51.000000
54.000000
57.000000
60.000000
63.000000
66.000000
69.000000
72.000000
SCALARS vel float 3
LOOKUP_TABLE default
0.000000 0.000000 0.000000
1.000000 2.000000 3.000000
2.000000 4.000000 6.000000
3.000000 6.000000 9.000000
4.000000 8.000000 12.000000
5.000000 10.000000 15.000000
6.000000 12.000000 18.000000
7.000000 14.000000 21.000000
8.000000 16.000000 24.000000
9.000000 18.000000 27.000000
10.000000 20.000000 30.000000
11.000000 22.000000 33.000000
12.000000 24.000000 36.000000
13.000000 26.000000 39.000000
14.000000 28.000000 42.000000
15.000000 30.000000 45.000000
16.000000 32.000000 48.000000
17.000000 34.000000 51.000000
18.000000 36.000000 54.000000
19.000000 38.000000 57.000000
20.000000 40.000000 60.000000
21.000000 42.000000 63.000000
22.000000 44.000000 66.000000
23.000000 46.000000 69.000000
24.000000 48.000000 72.000000
CELL_DATA 16
SCALARS c_amp float 1
LOOKUP_TABLE default
1.000000
1.500000
2.000000
2.500000
3.000000
3.500000
4.000000
4.500000
5.000000
5.500000
6.000000
6.500000
7.000000
7.500000
8.000000
8.500000
