# vtk DataFile Version 3.0
Complex tetrahedral mesh with varied element quality
ASCII
DATASET UNSTRUCTURED_GRID
POINTS 27 float
0.000000 0.000000 0.000000
1.000000 0.000000 0.000000
2.000000 0.000000 0.000000
0.000000 1.000000 0.000000
1.000000 1.000000 0.000000
2.000000 1.000000 0.000000
0.000000 2.000000 0.000000
1.000000 2.000000 0.000000
2.000000 2.000000 0.000000
0.000000 0.000000 1.000000
1.000000 0.000000 1.000000
2.000000 0.000000 1.000000
0.000000 1.000000 1.000000
1.150000 0.920000 1.220000
2.280000 1.030000 0.880000
0.000000 2.000000 1.000000
0.820000 2.200000 1.050000
2.000000 2.000000 1.000000
0.000000 0.000000 2.000000
1.000000 0.000000 2.000000
2.000000 0.000000 2.000000
0.000000 1.000000 2.000000
1.000000 1.000000 2.000000
2.000000 1.000000 2.000000
0.000000 2.000000 2.000000
1.000000 2.000000 2.000000
2.000000 2.000000 2.000000
CELLS 48 240
4 0 1 4 13
4 0 1 10 13
4 0 10 9 13
4 0 9 12 13
4 0 12 3 13
4 0 3 4 13
4 1 2 5 14
4 1 2 11 14
4 1 11 10 14
4 1 10 13 14
4 1 13 4 14
4 1 4 5 14
4 3 4 7 16
4 3 4 13 16
4 3 13 12 16
4 3 12 15 16
4 3 15 6 16
4 3 6 7 16
4 4 5 8 17
4 4 5 14 17
4 4 14 13 17
4 4 13 16 17
4 4 16 7 17
4 4 7 8 17
4 9 10 13 22
4 9 10 19 22
4 9 19 18 22
4 9 18 21 22
4 9 21 12 22
4 9 12 13 22
4 10 11 14 23
4 10 11 20 23
4 10 20 19 23
4 10 19 22 23
4 10 22 13 23
4 10 13 14 23
4 12 13 16 25
4 12 13 22 25
4 12 22 21 25
4 12 21 24 25
4 12 24 15 25
4 12 15 16 25
4 13 14 17 26
4 13 14 23 26
4 13 23 22 26
4 13 22 25 26
4 13 25 16 26
4 13 16 17 26
CELL_TYPES 48
10
10
10
10
10
10
10
10
10
10
10
10
10
10
10
10
10
10
10
10
10
10
10
10
10
10
10
10
10
10
10
10
10
10
10
10
10
10
10
10
10
10
10
10
10
10
10
10
