# vtk DataFile Version 3.0
OctreePoints: sphere point cloud for octree conversion
ASCII
DATASET UNSTRUCTURED_GRID
POINTS 500 float
0.831975 0.552603 0.597599
0.552364 0.808153 0.342521
0.362939 0.22375 0.66553
0.685513 0.612785 0.774526
0.839665 0.564346 0.445345
0.210838 0.490267 0.303047
0.535547 0.606743 0.168575
0.17932 0.406962 0.604919
0.254278 0.345646 0.304308
0.774696 0.511223 0.716601
0.411361 0.237673 0.714073
0.685591 0.774866 0.388175
0.426669 0.621207 0.820049
0.666701 0.615937 0.214922
0.299924 0.347354 0.743246
0.464923 0.226049 0.71499
0.844112 0.441314 0.52536
0.178474 0.390953 0.414974
0.306388 0.321546 0.730583
0.286337 0.387125 0.753195
0.806218 0.590687 0.6432
0.428071 0.784687 0.309529
0.52047 0.688572 0.205854
0.463117 0.707682 0.220701
0.277493 0.752922 0.594979
0.58507 0.827116 0.409127
0.785461 0.379978 0.336884
0.241252 0.288314 0.603625
0.465522 0.238623 0.269797
0.311941 0.677814 0.264382
0.454569 0.445084 0.842666
0.36113 0.181212 0.539865
0.541433 0.248634 0.739996
0.788191 0.558927 0.310334
0.463816 0.823268 0.370817
0.767426 0.399734 0.297688
0.40892 0.711648 0.763457
0.236342 0.702843 0.608807
0.310816 0.550032 0.790183
0.506545 0.808819 0.335416
0.472221 0.846241 0.542958
0.776275 0.293442 0.55921
0.565679 0.836493 0.42958
0.465369 0.497925 0.848276
0.692482 0.558708 0.213637
0.347739 0.342986 0.226754
0.24923 0.633463 0.704456
0.374356 0.615605 0.194469
0.457216 0.492085 0.847285
0.575218 0.409978 0.829755
0.486359 0.426685 0.158037
0.182689 0.424936 0.627197
0.304092 0.260253 0.336778
0.297883 0.587818 0.228087
0.833928 0.400285 0.467607
0.480605 0.730008 0.763097
0.6517 0.815416 0.50041
0.63578 0.35635 0.788839
0.294207 0.254555 0.358911
0.695818 0.779887 0.576279
0.211191 0.427046 0.683758
0.214649 0.444909 0.695039
0.492482 0.514951 0.1504
0.587294 0.458317 0.163634
0.612178 0.300914 0.765105
0.801866 0.614988 0.36526
0.716483 0.425044 0.764607
0.304862 0.517221 0.209957
0.511827 0.322723 0.198449
0.705096 0.714029 0.686084
0.167404 0.392387 0.482698
0.714912 0.278041 0.33554
0.582217 0.835925 0.446197
0.456119 0.153853 0.527507
0.393896 0.759769 0.290806
0.471383 0.460676 0.846605
0.154808 0.461724 0.45667
0.536142 0.725414 0.234703
0.218539 0.325547 0.38666
0.554814 0.789491 0.31108
0.377851 0.368104 0.199695
0.743685 0.33533 0.310259
0.719453 0.604714 0.751745
0.354713 0.239698 0.316603
0.693543 0.712197 0.299966
0.344915 0.425777 0.80486
0.57542 0.158758 0.48087
0.600936 0.756866 0.715248
0.312028 0.586941 0.217852
0.16151 0.571153 0.446505
0.35592 0.224269 0.660353
0.571203 0.550658 0.838916
0.317324 0.790659 0.431835
0.50204 0.741662 0.753171
0.239469 0.587168 0.283146
0.438329 0.840156 0.445317
0.768487 0.359493 0.324865
0.723914 0.233959 0.460192
0.830779 0.60883 0.535228
0.509645 0.483928 0.849498
0.608574 0.445848 0.828297
0.625906 0.716954 0.744087
0.579004 0.840819 0.489949
0.820055 0.623555 0.430728
0.838146 0.468698 0.415281
0.565646 0.198045 0.335642
0.191418 0.662128 0.468506
0.641439 0.495931 0.820122
0.431412 0.159014 0.539038
0.426755 0.742372 0.258358
0.392902 0.441839 0.828097
0.495564 0.151277 0.529537
0.359695 0.417999 0.190016
0.71053 0.220406 0.501995
0.747244 0.437807 0.260203
0.574563 0.674786 0.206078
0.344409 0.193625 0.566525
0.716567 0.70308 0.314643
0.505202 0.71871 0.773201
0.248549 0.265704 0.566163
0.201241 0.326662 0.443457
0.820624 0.360551 0.515948
0.440502 0.224132 0.292981
0.263321 0.681723 0.31708
0.398426 0.812632 0.620183
0.503813 0.174534 0.371324
0.324631 0.547046 0.20078
0.52749 0.499326 0.848918
0.54185 0.677529 0.201283
0.782234 0.374184 0.33564
0.66459 0.344013 0.766605
0.685062 0.782685 0.408669
0.424997 0.250409 0.733621
0.840061 0.472663 0.578174
0.832588 0.516361 0.607783
0.417383 0.757687 0.721973
0.806731 0.376165 0.614372
0.678607 0.65832 0.244004
0.295577 0.42897 0.224925
0.25357 0.309271 0.340644
0.590577 0.801814 0.652329
0.470415 0.83585 0.593967
0.789817 0.303935 0.491972
0.711296 0.638413 0.742273
0.442288 0.841039 0.446503
0.505505 0.458758 0.152482
0.474741 0.835634 0.595979
0.20945 0.402191 0.668862
0.845681 0.521028 0.449381
0.637045 0.37625 0.202671
0.302123 0.441715 0.78275
0.274092 0.371127 0.734217
0.673089 0.678492 0.253666
0.760287 0.308334 0.365781
0.680721 0.283499 0.707286
0.552375 0.704396 0.779247
0.741903 0.682325 0.324671
0.716425 0.307095 0.696081
0.250354 0.263606 0.434464
0.728872 0.392092 0.258187
0.736829 0.464327 0.755224
0.701533 0.314095 0.71754
0.490824 0.391556 0.16735
0.799035 0.361153 0.38253
0.683154 0.289774 0.711565
0.471101 0.772668 0.717525
0.722856 0.679914 0.701162
0.647389 0.318596 0.760517
0.618274 0.233992 0.305704
0.381422 0.828127 0.472212
0.539625 0.779621 0.706742
0.537216 0.59968 0.166565
0.716373 0.252552 0.379783
0.477208 0.623157 0.826822
0.228816 0.697865 0.599037
0.407257 0.478524 0.836805
0.625201 0.610858 0.807466
0.551476 0.606886 0.82928
0.487102 0.632303 0.823774
0.300514 0.586975 0.225882
0.378748 0.786712 0.659982
0.158868 0.475474 0.574346
0.198038 0.342328 0.419637
0.421899 0.205176 0.328306
0.525675 0.487034 0.151184
0.433384 0.157454 0.526916
0.353503 0.231013 0.669365
0.804813 0.643373 0.404955
0.340378 0.789489 0.614966
0.687654 0.234824 0.369741
0.402245 0.798799 0.653828
0.228591 0.67611 0.366499
0.402875 0.82924 0.43168
0.295238 0.611822 0.239101
0.426902 0.351219 0.808255
0.344905 0.362371 0.781964
0.193384 0.40475 0.360665
0.496759 0.513723 0.150284
0.196307 0.333081 0.450922
0.175196 0.572628 0.608294
0.578603 0.838648 0.459512
0.784265 0.296675 0.48123
0.636365 0.746912 0.707217
0.305914 0.481097 0.209357
0.327905 0.790213 0.593059
0.50193 0.23016 0.722896
0.552111 0.824274 0.620957
0.776257 0.542733 0.289391
0.20267 0.546831 0.32139
0.724396 0.610505 0.744816
0.263572 0.248972 0.440109
0.408379 0.238553 0.286105
0.513225 0.849728 0.496064
0.832314 0.511582 0.609241
0.538028 0.19968 0.675675
0.307442 0.59789 0.224611
0.757266 0.430429 0.273121
0.832506 0.608543 0.51257
0.675402 0.253196 0.324439
0.610692 0.169367 0.469523
0.828803 0.474938 0.617304
0.826774 0.393915 0.566817
0.33454 0.358409 0.773998
0.185594 0.490558 0.653492
0.249197 0.422201 0.731398
0.491528 0.287588 0.778046
0.479824 0.848968 0.482272
0.304109 0.27017 0.323068
0.206208 0.460445 0.68607
0.447882 0.834532 0.588724
0.458339 0.682454 0.204238
0.367931 0.781996 0.340201
0.725112 0.766523 0.528107
0.398192 0.222967 0.311883
0.793173 0.625184 0.644493
0.168283 0.409004 0.43532
0.592427 0.832387 0.441042
0.785565 0.305506 0.4441
0.384197 0.174999 0.558856
0.523991 0.255934 0.749712
0.839603 0.512587 0.416267
0.507298 0.165816 0.396231
0.737039 0.428591 0.747414
0.494609 0.154663 0.443315
0.222297 0.289434 0.532293
0.555419 0.784887 0.304377
0.84135 0.562951 0.455085
0.357597 0.201565 0.385291
0.674789 0.795741 0.433022
0.742849 0.751004 0.477173
0.834516 0.557228 0.58558
0.185568 0.365357 0.425814
0.42907 0.41118 0.168971
0.26718 0.557137 0.24499
0.389079 0.605343 0.185199
0.36724 0.753252 0.298162
0.283577 0.705482 0.682861
0.648823 0.236879 0.676407
0.764643 0.649644 0.32659
0.406437 0.476341 0.163568
0.496051 0.505438 0.849935
0.565095 0.172561 0.605101
0.508869 0.166628 0.606228
0.547902 0.645436 0.814728
0.556932 0.580879 0.164266
0.387315 0.296668 0.238355
0.5694 0.840115 0.544779
0.534012 0.180864 0.639625
0.295599 0.336776 0.267452
0.72858 0.700331 0.673548
0.762748 0.440785 0.723511
0.714531 0.534916 0.225669
0.357046 0.208902 0.36837
0.388384 0.584735 0.820721
0.780641 0.645214 0.65051
0.274449 0.268002 0.63343
0.529812 0.290346 0.221331
0.298329 0.352679 0.745205
0.727159 0.476862 0.234739
0.334426 0.736522 0.697845
0.261975 0.751656 0.449865
0.310194 0.794034 0.504173
0.609852 0.27516 0.744703
0.708578 0.447545 0.223877
0.659893 0.203476 0.59491
0.207311 0.625596 0.645116
0.802129 0.43341 0.663657
0.611137 0.209748 0.339058
0.152896 0.53612 0.526721
0.45872 0.155381 0.454902
0.685014 0.25103 0.337877
0.72453 0.635973 0.731512
0.508717 0.725963 0.767142
0.231457 0.276898 0.475296
0.834088 0.560907 0.415293
0.60353 0.72678 0.745667
0.584715 0.22666 0.298484
0.742238 0.273439 0.388237
0.447355 0.816063 0.640829
0.566465 0.477506 0.157106
0.209929 0.654052 0.492004
0.680715 0.633427 0.602132
0.305117 0.634251 0.364344
0.557089 0.481282 0.521645
0.447853 0.672155 0.381554
0.641998 0.339641 0.325983
0.525105 0.683533 0.279605
0.301469 0.488939 0.65721
0.493615 0.760904 0.551845
0.478578 0.458328 0.279055
0.232916 0.68511 0.574422
0.703519 0.307981 0.515801
0.46536 0.459905 0.752117
0.295452 0.297718 0.6123
0.353882 0.312033 0.644869
0.642091 0.467822 0.631169
0.612828 0.803568 0.447597
0.531194 0.603344 0.785888
0.365328 0.67427 0.548445
0.352027 0.237048 0.632075
0.639814 0.809873 0.500331
0.45242 0.375625 0.325258
0.679388 0.479351 0.606057
0.594349 0.494208 0.21387
0.393573 0.383316 0.619093
0.750413 0.380863 0.635572
0.535068 0.468378 0.370162
0.529816 0.439273 0.281308
0.403246 0.67951 0.587786
0.681993 0.292491 0.534454
0.799371 0.456681 0.638775
0.317508 0.260865 0.535587
0.7325 0.498863 0.651622
0.50621 0.341397 0.734307
0.41851 0.795308 0.505769
0.505416 0.724385 0.347987
0.492748 0.254017 0.527006
0.391587 0.536342 0.530401
0.468741 0.375244 0.282057
0.638249 0.550258 0.313494
0.64366 0.717986 0.420255
0.49673 0.175914 0.501604
0.458214 0.518166 0.46985
0.655711 0.436985 0.608347
0.386993 0.634893 0.604886
0.416007 0.371663 0.653102
0.460575 0.635801 0.782397
0.412389 0.251899 0.521816
0.54615 0.704764 0.268989
0.472805 0.327784 0.328729
0.624328 0.260583 0.459211
0.391896 0.5613 0.597257
0.447016 0.325069 0.741713
0.289452 0.419285 0.488246
0.316044 0.550346 0.552368
0.610761 0.342136 0.54615
0.574485 0.497709 0.782909
0.350336 0.709202 0.574945
0.396625 0.595633 0.584624
0.624435 0.65465 0.611427
0.602438 0.366253 0.458576
0.555702 0.662652 0.213093
0.356577 0.673237 0.272948
0.329879 0.727283 0.487293
0.714542 0.672592 0.387101
0.525601 0.46835 0.62098
0.620639 0.559192 0.725692
0.363055 0.494837 0.218034
0.443389 0.669588 0.258166
0.440419 0.219315 0.492543
0.409371 0.460368 0.815389
0.428698 0.282866 0.235512
0.743623 0.468302 0.613938
0.702989 0.316552 0.37664
0.51826 0.671966 0.483372
0.694612 0.509267 0.226338
0.698259 0.756887 0.515016
0.485287 0.431132 0.630268
0.342511 0.593154 0.53385
0.467601 0.573799 0.219425
0.641246 0.746955 0.605642
0.688274 0.654588 0.300516
0.466088 0.309946 0.387252
0.467449 0.441193 0.21656
0.448735 0.615576 0.412011
0.667157 0.718238 0.53946
0.560526 0.54311 0.380752
0.235562 0.397519 0.615738
0.675199 0.757665 0.654742
0.554543 0.298917 0.609715
0.407293 0.683824 0.55187
0.722899 0.579501 0.599889
0.337213 0.276291 0.641889
0.758904 0.546425 0.430549
0.672278 0.300593 0.443883
0.388627 0.409037 0.655117
0.621778 0.340472 0.613357
0.489963 0.459431 0.341217
0.67846 0.229672 0.45094
0.348273 0.62494 0.490643
0.616993 0.181792 0.426684
0.272986 0.416145 0.64257
0.500184 0.733348 0.71434
0.553031 0.55138 0.646649
0.377338 0.710926 0.582688
0.741139 0.320322 0.56221
0.516774 0.427037 0.367192
0.387659 0.383148 0.267693
0.507338 0.229819 0.506966
0.784146 0.394563 0.659165
0.252511 0.28809 0.571679
0.682151 0.608856 0.274002
0.690994 0.495882 0.678112
0.545144 0.594709 0.587165
0.1978 0.459546 0.361974
0.342272 0.18932 0.505136
0.367285 0.46634 0.189823
0.748705 0.580506 0.504947
0.473898 0.538021 0.704272
0.606286 0.375069 0.48294
0.779389 0.390406 0.650021
0.503184 0.270791 0.323421
0.456431 0.457595 0.515924
0.261122 0.410996 0.348026
0.436139 0.386857 0.56852
0.216154 0.624866 0.348903
0.656614 0.609595 0.78444
0.761296 0.383353 0.557918
0.638936 0.424371 0.566529
0.806602 0.366707 0.413676
0.704163 0.719229 0.619081
0.730271 0.667142 0.62979
0.518475 0.602217 0.446384
0.40328 0.403818 0.276184
0.385735 0.686415 0.241734
0.413704 0.263573 0.731942
0.456371 0.437601 0.623454
0.316271 0.460939 0.34945
0.673976 0.46425 0.523808
0.366628 0.716037 0.478311
0.417311 0.519222 0.826388
0.325002 0.598825 0.761882
0.745816 0.349544 0.684182
0.46579 0.39471 0.168669
0.534163 0.659064 0.51944
0.227831 0.351671 0.360806
0.567717 0.161505 0.510763
0.319357 0.250504 0.450467
0.580367 0.318395 0.441597
0.197376 0.518242 0.505129
0.391362 0.663059 0.58978
0.690051 0.664631 0.382763
0.272562 0.6954 0.475236
0.636772 0.592215 0.718048
0.677304 0.283772 0.399882
0.696589 0.756059 0.382347
0.670315 0.776246 0.420651
0.831607 0.497342 0.498266
0.658957 0.205249 0.571717
0.725639 0.531832 0.374848
0.206048 0.612643 0.364547
0.571835 0.448281 0.632835
0.596259 0.404318 0.710767
0.417998 0.547071 0.573566
0.625343 0.814176 0.410409
0.684159 0.551745 0.520622
0.428624 0.604693 0.324728
0.229414 0.664972 0.499331
0.420891 0.543171 0.333244
0.349904 0.791535 0.49384
0.62735 0.741865 0.373711
0.393198 0.195457 0.52952
0.506129 0.234954 0.290686
0.537815 0.408238 0.712563
0.536153 0.578364 0.210351
0.517987 0.688415 0.726338
0.464982 0.626076 0.39116
0.764572 0.696184 0.597856
0.59454 0.535589 0.237619
0.361977 0.523435 0.501801
0.611113 0.654443 0.573597
0.739771 0.544533 0.727665
0.55374 0.605791 0.686871
0.441611 0.597294 0.498627
0.488061 0.713282 0.629494
0.457724 0.488976 0.292816
0.574662 0.368808 0.652854
0.241536 0.409378 0.543156
0.373381 0.476531 0.33723
0.418905 0.580764 0.323789
0.554381 0.3689 0.684185
0.498786 0.510307 0.499132
0.397027 0.185378 0.496426
0.767638 0.607982 0.479411
0.525684 0.743021 0.451649
0.406156 0.430407 0.549197
0.502979 0.685083 0.345804
0.289341 0.506386 0.500055
0.481621 0.469892 0.574382
0.510854 0.379576 0.579148
CELLS 500 1000
1 0
1 1
1 2
1 3
1 4
1 5
1 6
1 7
1 8
1 9
1 10
1 11
1 12
1 13
1 14
1 15
1 16
1 17
1 18
1 19
1 20
1 21
1 22
1 23
1 24
1 25
1 26
1 27
1 28
1 29
1 30
1 31
1 32
1 33
1 34
1 35
1 36
1 37
1 38
1 39
1 40
1 41
1 42
1 43
1 44
1 45
1 46
1 47
1 48
1 49
1 50
1 51
1 52
1 53
1 54
1 55
1 56
1 57
1 58
1 59
1 60
1 61
1 62
1 63
1 64
1 65
1 66
1 67
1 68
1 69
1 70
1 71
1 72
1 73
1 74
1 75
1 76
1 77
1 78
1 79
1 80
1 81
1 82
1 83
1 84
1 85
1 86
1 87
1 88
1 89
1 90
1 91
1 92
1 93
1 94
1 95
1 96
1 97
1 98
1 99
1 100
1 101
1 102
1 103
1 104
1 105
1 106
1 107
1 108
1 109
1 110
1 111
1 112
1 113
1 114
1 115
1 116
1 117
1 118
1 119
1 120
1 121
1 122
1 123
1 124
1 125
1 126
1 127
1 128
1 129
1 130
1 131
1 132
1 133
1 134
1 135
1 136
1 137
1 138
1 139
1 140
1 141
1 142
1 143
1 144
1 145
1 146
1 147
1 148
1 149
1 150
1 151
1 152
1 153
1 154
1 155
1 156
1 157
1 158
1 159
1 160
1 161
1 162
1 163
1 164
1 165
1 166
1 167
1 168
1 169
1 170
1 171
1 172
1 173
1 174
1 175
1 176
1 177
1 178
1 179
1 180
1 181
1 182
1 183
1 184
1 185
1 186
1 187
1 188
1 189
1 190
1 191
1 192
1 193
1 194
1 195
1 196
1 197
1 198
1 199
1 200
1 201
1 202
1 203
1 204
1 205
1 206
1 207
1 208
1 209
1 210
1 211
1 212
1 213
1 214
1 215
1 216
1 217
1 218
1 219
1 220
1 221
1 222
1 223
1 224
1 225
1 226
1 227
1 228
1 229
1 230
1 231
1 232
1 233
1 234
1 235
1 236
1 237
1 238
1 239
1 240
1 241
1 242
1 243
1 244
1 245
1 246
1 247
1 248
1 249
1 250
1 251
1 252
1 253
1 254
1 255
1 256
1 257
1 258
1 259
1 260
1 261
1 262
1 263
1 264
1 265
1 266
1 267
1 268
1 269
1 270
1 271
1 272
1 273
1 274
1 275
1 276
1 277
1 278
1 279
1 280
1 281
1 282
1 283
1 284
1 285
1 286
1 287
1 288
1 289
1 290
1 291
1 292
1 293
1 294
1 295
1 296
1 297
1 298
1 299
1 300
1 301
1 302
1 303
1 304
1 305
1 306
1 307
1 308
1 309
1 310
1 311
1 312
1 313
1 314
1 315
1 316
1 317
1 318
1 319
1 320
1 321
1 322
1 323
1 324
1 325
1 326
1 327
1 328
1 329
1 330
1 331
1 332
1 333
1 334
1 335
1 336
1 337
1 338
1 339
1 340
1 341
1 342
1 343
1 344
1 345
1 346
1 347
1 348
1 349
1 350
1 351
1 352
1 353
1 354
1 355
1 356
1 357
1 358
1 359
1 360
1 361
1 362
1 363
1 364
1 365
1 366
1 367
1 368
1 369
1 370
1 371
1 372
1 373
1 374
1 375
1 376
1 377
1 378
1 379
1 380
1 381
1 382
1 383
1 384
1 385
1 386
1 387
1 388
1 389
1 390
1 391
1 392
1 393
1 394
1 395
1 396
1 397
1 398
1 399
1 400
1 401
1 402
1 403
1 404
1 405
1 406
1 407
1 408
1 409
1 410
1 411
1 412
1 413
1 414
1 415
1 416
1 417
1 418
1 419
1 420
1 421
1 422
1 423
1 424
1 425
1 426
1 427
1 428
1 429
1 430
1 431
1 432
1 433
1 434
1 435
1 436
1 437
1 438
1 439
1 440
1 441
1 442
1 443
1 444
1 445
1 446
1 447
1 448
1 449
1 450
1 451
1 452
1 453
1 454
1 455
1 456
1 457
1 458
1 459
1 460
1 461
1 462
1 463
1 464
1 465
1 466
1 467
1 468
1 469
1 470
1 471
1 472
1 473
1 474
1 475
1 476
1 477
1 478
1 479
1 480
1 481
1 482
1 483
1 484
1 485
1 486
1 487
1 488
1 489
1 490
1 491
1 492
1 493
1 494
1 495
1 496
1 497
1 498
1 499
CELL_TYPES 500
1
1
1
1
1
1
1
1
1
1
1
1
1
1
1
1
1
1
1
1
1
1
1
1
1
1
1
1
1
1
1
1
1
1
1
1
1
1
1
1
1
1
1
1
1
1
1
1
1
1
1
1
1
1
1
1
1
1
1
1
1
1
1
1
1
1
1
1
1
1
1
1
1
1
1
1
1
1
1
1
1
1
1
1
1
1
1
1
1
1
1
1
1
1
1
1
1
1
1
1
1
1
1
1
1
1
1
1
1
1
1
1
1
1
1
1
1
1
1
1
1
1
1
1
1
1
1
1
1
1
1
1
1
1
1
1
1
1
1
1
1
1
1
1
1
1
1
1
1
1
1
1
1
1
1
1
1
1
1
1
1
1
1
1
1
1
1
1
1
1
1
1
1
1
1
1
1
1
1
1
1
1
1
1
1
1
1
1
1
1
1
1
1
1
1
1
1
1
1
1
1
1
1
1
1
1
1
1
1
1
1
1
1
1
1
1
1
1
1
1
1
1
1
1
1
1
1
1
1
1
1
1
1
1
1
1
1
1
1
1
1
1
1
1
1
1
1
1
1
1
1
1
1
1
1
1
1
1
1
1
1
1
1
1
1
1
1
1
1
1
1
1
1
1
1
1
1
1
1
1
1
1
1
1
1
1
1
1
1
1
1
1
1
1
1
1
1
1
1
1
1
1
1
1
1
1
1
1
1
1
1
1
1
1
1
1
1
1
1
1
1
1
1
1
1
1
1
1
1
1
1
1
1
1
1
1
1
1
1
1
1
1
1
1
1
1
1
1
1
1
1
1
1
1
1
1
1
1
1
1
1
1
1
1
1
1
1
1
1
1
1
1
1
1
1
1
1
1
1
1
1
1
1
1
1
1
1
1
1
1
1
1
1
1
1
1
1
1
1
1
1
1
1
1
1
1
1
1
1
1
1
1
1
1
1
1
1
1
1
1
1
1
1
1
1
1
1
1
1
1
1
1
1
1
1
1
1
1
1
1
1
1
1
1
1
1
1
1
1
1
1
1
1
1
1
1
1
1
1
1
1
1
1
1
1
1
1
1
1
1
1
1
1
1
1
1
1
1
1
1
1
1
1
1
1
1
1
1
1
1
1
1
1
1
1
1
1
1
1
1
