# vtk DataFile Version 3.0
Tetra mesh for RandomAttributesFilter test
ASCII
DATASET UNSTRUCTURED_GRID
POINTS 125 float
0.000000 0.000000 0.000000
0.250000 0.000000 0.000000
0.500000 0.000000 0.000000
0.750000 0.000000 0.000000
1.000000 0.000000 0.000000
0.000000 0.250000 0.000000
0.250000 0.250000 0.000000
0.500000 0.250000 0.000000
0.750000 0.250000 0.000000
1.000000 0.250000 0.000000
0.000000 0.500000 0.000000
0.250000 0.500000 0.000000
0.500000 0.500000 0.000000
0.750000 0.500000 0.000000
1.000000 0.500000 0.000000
0.000000 0.750000 0.000000
0.250000 0.750000 0.000000
0.500000 0.750000 0.000000
0.750000 0.750000 0.000000
1.000000 0.750000 0.000000
0.000000 1.000000 0.000000
0.250000 1.000000 0.000000
0.500000 1.000000 0.000000
0.750000 1.000000 0.000000
1.000000 1.000000 0.000000
0.000000 0.000000 0.250000
0.250000 0.000000 0.250000
0.500000 0.000000 0.250000
0.750000 0.000000 0.250000
1.000000 0.000000 0.250000
0.000000 0.250000 0.250000
0.250000 0.250000 0.250000
0.500000 0.250000 0.250000
0.750000 0.250000 0.250000
1.000000 0.250000 0.250000
0.000000 0.500000 0.250000
0.250000 0.500000 0.250000
0.500000 0.500000 0.250000
0.750000 0.500000 0.250000
1.000000 0.500000 0.250000
0.000000 0.750000 0.250000
0.250000 0.750000 0.250000
0.500000 0.750000 0.250000
0.750000 0.750000 0.250000
1.000000 0.750000 0.250000
0.000000 1.000000 0.250000
0.250000 1.000000 0.250000
0.500000 1.000000 0.250000
0.750000 1.000000 0.250000
1.000000 1.000000 0.250000
0.000000 0.000000 0.500000
0.250000 0.000000 0.500000
0.500000 0.000000 0.500000
0.750000 0.000000 0.500000
1.000000 0.000000 0.500000
0.000000 0.250000 0.500000
0.250000 0.250000 0.500000
0.500000 0.250000 0.500000
0.750000 0.250000 0.500000
1.000000 0.250000 0.500000
0.000000 0.500000 0.500000
0.250000 0.500000 0.500000
0.500000 0.500000 0.500000
0.750000 0.500000 0.500000
1.000000 0.500000 0.500000
0.000000 0.750000 0.500000
0.250000 0.750000 0.500000
0.500000 0.750000 0.500000
0.750000 0.750000 0.500000
1.000000 0.750000 0.500000
0.000000 1.000000 0.500000
0.250000 1.000000 0.500000
0.500000 1.000000 0.500000
0.750000 1.000000 0.500000
1.000000 1.000000 0.500000
0.000000 0.000000 0.750000
0.250000 0.000000 0.750000
0.500000 0.000000 0.750000
0.750000 0.000000 0.750000
1.000000 0.000000 0.750000
0.000000 0.250000 0.750000
0.250000 0.250000 0.750000
0.500000 0.250000 0.750000
0.750000 0.250000 0.750000
1.000000 0.250000 0.750000
0.000000 0.500000 0.750000
0.250000 0.500000 0.750000
0.500000 0.500000 0.750000
0.750000 0.500000 0.750000
1.000000 0.500000 0.750000
0.000000 0.750000 0.750000
0.250000 0.750000 0.750000
0.500000 0.750000 0.750000
0.750000 0.750000 0.750000
1.000000 0.750000 0.750000
0.000000 1.000000 0.750000
0.250000 1.000000 0.750000
0.500000 1.000000 0.750000
0.750000 1.000000 0.750000
1.000000 1.000000 0.750000
0.000000 0.000000 1.000000
0.250000 0.000000 1.000000
0.500000 0.000000 1.000000
0.750000 0.000000 1.000000
1.000000 0.000000 1.000000
0.000000 0.250000 1.000000
0.250000 0.250000 1.000000
0.500000 0.250000 1.000000
0.750000 0.250000 1.000000
1.000000 0.250000 1.000000
0.000000 0.500000 1.000000
0.250000 0.500000 1.000000
0.500000 0.500000 1.000000
0.750000 0.500000 1.000000
1.000000 0.500000 1.000000
0.000000 0.750000 1.000000
0.250000 0.750000 1.000000
0.500000 0.750000 1.000000
0.750000 0.750000 1.000000
1.000000 0.750000 1.000000
0.000000 1.000000 1.000000
0.250000 1.000000 1.000000
0.500000 1.000000 1.000000
0.750000 1.000000 1.000000
1.000000 1.000000 1.000000
CELLS 384 1920
4 0 1 6 31
4 0 6 5 31
4 0 5 30 31
4 0 30 25 31
4 0 25 26 31
4 0 26 1 31
4 1 2 7 32
4 1 7 6 32
4 1 6 31 32
4 1 31 26 32
4 1 26 27 32
4 1 27 2 32
4 2 3 8 33
4 2 8 7 33
4 2 7 32 33
4 2 32 27 33
4 2 27 28 33
4 2 28 3 33
4 3 4 9 34
4 3 9 8 34
4 3 8 33 34
4 3 33 28 34
4 3 28 29 34
4 3 29 4 34
4 5 6 11 36
4 5 11 10 36
4 5 10 35 36
4 5 35 30 36
4 5 30 31 36
4 5 31 6 36
4 6 7 12 37
4 6 12 11 37
4 6 11 36 37
4 6 36 31 37
4 6 31 32 37
4 6 32 7 37
4 7 8 13 38
4 7 13 12 38
4 7 12 37 38
4 7 37 32 38
4 7 32 33 38
4 7 33 8 38
4 8 9 14 39
4 8 14 13 39
4 8 13 38 39
4 8 38 33 39
4 8 33 34 39
4 8 34 9 39
4 10 11 16 41
4 10 16 15 41
4 10 15 40 41
4 10 40 35 41
4 10 35 36 41
4 10 36 11 41
4 11 12 17 42
4 11 17 16 42
4 11 16 41 42
4 11 41 36 42
4 11 36 37 42
4 11 37 12 42
4 12 13 18 43
4 12 18 17 43
4 12 17 42 43
4 12 42 37 43
4 12 37 38 43
4 12 38 13 43
4 13 14 19 44
4 13 19 18 44
4 13 18 43 44
4 13 43 38 44
4 13 38 39 44
4 13 39 14 44
4 15 16 21 46
4 15 21 20 46
4 15 20 45 46
4 15 45 40 46
4 15 40 41 46
4 15 41 16 46
4 16 17 22 47
4 16 22 21 47
4 16 21 46 47
4 16 46 41 47
4 16 41 42 47
4 16 42 17 47
4 17 18 23 48
4 17 23 22 48
4 17 22 47 48
4 17 47 42 48
4 17 42 43 48
4 17 43 18 48
4 18 19 24 49
4 18 24 23 49
4 18 23 48 49
4 18 48 43 49
4 18 43 44 49
4 18 44 19 49
4 25 26 31 56
4 25 31 30 56
4 25 30 55 56
4 25 55 50 56
4 25 50 51 56
4 25 51 26 56
4 26 27 32 57
4 26 32 31 57
4 26 31 56 57
4 26 56 51 57
4 26 51 52 57
4 26 52 27 57
4 27 28 33 58
4 27 33 32 58
4 27 32 57 58
4 27 57 52 58
4 27 52 53 58
4 27 53 28 58
4 28 29 34 59
4 28 34 33 59
4 28 33 58 59
4 28 58 53 59
4 28 53 54 59
4 28 54 29 59
4 30 31 36 61
4 30 36 35 61
4 30 35 60 61
4 30 60 55 61
4 30 55 56 61
4 30 56 31 61
4 31 32 37 62
4 31 37 36 62
4 31 36 61 62
4 31 61 56 62
4 31 56 57 62
4 31 57 32 62
4 32 33 38 63
4 32 38 37 63
4 32 37 62 63
4 32 62 57 63
4 32 57 58 63
4 32 58 33 63
4 33 34 39 64
4 33 39 38 64
4 33 38 63 64
4 33 63 58 64
4 33 58 59 64
4 33 59 34 64
4 35 36 41 66
4 35 41 40 66
4 35 40 65 66
4 35 65 60 66
4 35 60 61 66
4 35 61 36 66
4 36 37 42 67
4 36 42 41 67
4 36 41 66 67
4 36 66 61 67
4 36 61 62 67
4 36 62 37 67
4 37 38 43 68
4 37 43 42 68
4 37 42 67 68
4 37 67 62 68
4 37 62 63 68
4 37 63 38 68
4 38 39 44 69
4 38 44 43 69
4 38 43 68 69
4 38 68 63 69
4 38 63 64 69
4 38 64 39 69
4 40 41 46 71
4 40 46 45 71
4 40 45 70 71
4 40 70 65 71
4 40 65 66 71
4 40 66 41 71
4 41 42 47 72
4 41 47 46 72
4 41 46 71 72
4 41 71 66 72
4 41 66 67 72
4 41 67 42 72
4 42 43 48 73
4 42 48 47 73
4 42 47 72 73
4 42 72 67 73
4 42 67 68 73
4 42 68 43 73
4 43 44 49 74
4 43 49 48 74
4 43 48 73 74
4 43 73 68 74
4 43 68 69 74
4 43 69 44 74
4 50 51 56 81
4 50 56 55 81
4 50 55 80 81
4 50 80 75 81
4 50 75 76 81
4 50 76 51 81
4 51 52 57 82
4 51 57 56 82
4 51 56 81 82
4 51 81 76 82
4 51 76 77 82
4 51 77 52 82
4 52 53 58 83
4 52 58 57 83
4 52 57 82 83
4 52 82 77 83
4 52 77 78 83
4 52 78 53 83
4 53 54 59 84
4 53 59 58 84
4 53 58 83 84
4 53 83 78 84
4 53 78 79 84
4 53 79 54 84
4 55 56 61 86
4 55 61 60 86
4 55 60 85 86
4 55 85 80 86
4 55 80 81 86
4 55 81 56 86
4 56 57 62 87
4 56 62 61 87
4 56 61 86 87
4 56 86 81 87
4 56 81 82 87
4 56 82 57 87
4 57 58 63 88
4 57 63 62 88
4 57 62 87 88
4 57 87 82 88
4 57 82 83 88
4 57 83 58 88
4 58 59 64 89
4 58 64 63 89
4 58 63 88 89
4 58 88 83 89
4 58 83 84 89
4 58 84 59 89
4 60 61 66 91
4 60 66 65 91
4 60 65 90 91
4 60 90 85 91
4 60 85 86 91
4 60 86 61 91
4 61 62 67 92
4 61 67 66 92
4 61 66 91 92
4 61 91 86 92
4 61 86 87 92
4 61 87 62 92
4 62 63 68 93
4 62 68 67 93
4 62 67 92 93
4 62 92 87 93
4 62 87 88 93
4 62 88 63 93
4 63 64 69 94
4 63 69 68 94
4 63 68 93 94
4 63 93 88 94
4 63 88 89 94
4 63 89 64 94
4 65 66 71 96
4 65 71 70 96
4 65 70 95 96
4 65 95 90 96
4 65 90 91 96
4 65 91 66 96
4 66 67 72 97
4 66 72 71 97
4 66 71 96 97
4 66 96 91 97
4 66 91 92 97
4 66 92 67 97
4 67 68 73 98
4 67 73 72 98
4 67 72 97 98
4 67 97 92 98
4 67 92 93 98
4 67 93 68 98
4 68 69 74 99
4 68 74 73 99
4 68 73 98 99
4 68 98 93 99
4 68 93 94 99
4 68 94 69 99
4 75 76 81 106
4 75 81 80 106
4 75 80 105 106
4 75 105 100 106
4 75 100 101 106
4 75 101 76 106
4 76 77 82 107
4 76 82 81 107
4 76 81 106 107
4 76 106 101 107
4 76 101 102 107
4 76 102 77 107
4 77 78 83 108
4 77 83 82 108
4 77 82 107 108
4 77 107 102 108
4 77 102 103 108
4 77 103 78 108
4 78 79 84 109
4 78 84 83 109
4 78 83 108 109
4 78 108 103 109
4 78 103 104 109
4 78 104 79 109
4 80 81 86 111
4 80 86 85 111
4 80 85 110 111
4 80 110 105 111
4 80 105 106 111
4 80 106 81 111
4 81 82 87 112
4 81 87 86 112
4 81 86 111 112
4 81 111 106 112
4 81 106 107 112
4 81 107 82 112
4 82 83 88 113
4 82 88 87 113
4 82 87 112 113
4 82 112 107 113
4 82 107 108 113
4 82 108 83 113
4 83 84 89 114
4 83 89 88 114
4 83 88 113 114
4 83 113 108 114
4 83 108 109 114
4 83 109 84 114
4 85 86 91 116
4 85 91 90 116
4 85 90 115 116
4 85 115 110 116
4 85 110 111 116
4 85 111 86 116
4 86 87 92 117
4 86 92 91 117
4 86 91 116 117
4 86 116 111 117
4 86 111 112 117
4 86 112 87 117
4 87 88 93 118
4 87 93 92 118
4 87 92 117 118
4 87 117 112 118
4 87 112 113 118
4 87 113 88 118
4 88 89 94 119
4 88 94 93 119
4 88 93 118 119
4 88 118 113 119
4 88 113 114 119
4 88 114 89 119
4 90 91 96 121
4 90 96 95 121
4 90 95 120 121
4 90 120 115 121
4 90 115 116 121
4 90 116 91 121
4 91 92 97 122
4 91 97 96 122
4 91 96 121 122
4 91 121 116 122
4 91 116 117 122
4 91 117 92 122
4 92 93 98 123
4 92 98 97 123
4 92 97 122 123
4 92 122 117 123
4 92 117 118 123
4 92 118 93 123
4 93 94 99 124
4 93 99 98 124
4 93 98 123 124
4 93 123 118 124
4 93 118 119 124
4 93 119 94 124
CELL_TYPES 384
10
10
10
10
10
10
10
10
10
10
10
10
10
10
10
10
10
10
10
10
10
10
10
10
10
10
10
10
10
10
10
10
10
10
10
10
10
10
10
10
10
10
10
10
10
10
10
10
10
10
10
10
10
10
10
10
10
10
10
10
10
10
10
10
10
10
10
10
10
10
10
10
10
10
10
10
10
10
10
10
10
10
10
10
10
10
10
10
10
10
10
10
10
10
10
10
10
10
10
10
10
10
10
10
10
10
10
10
10
10
10
10
10
10
10
10
10
10
10
10
10
10
10
10
10
10
10
10
10
10
10
10
10
10
10
10
10
10
10
10
10
10
10
10
10
10
10
10
10
10
10
10
10
10
10
10
10
10
10
10
10
10
10
10
10
10
10
10
10
10
10
10
10
10
10
10
10
10
10
10
10
10
10
10
10
10
10
10
10
10
10
10
10
10
10
10
10
10
10
10
10
10
10
10
10
10
10
10
10
10
10
10
10
10
10
10
10
10
10
10
10
10
10
10
10
10
10
10
10
10
10
10
10
10
10
10
10
10
10
10
10
10
10
10
10
10
10
10
10
10
10
10
10
10
10
10
10
10
10
10
10
10
10
10
10
10
10
10
10
10
10
10
10
10
10
10
10
10
10
10
10
10
10
10
10
10
10
10
10
10
10
10
10
10
10
10
10
10
10
10
10
10
10
10
10
10
10
10
10
10
10
10
10
10
10
10
10
10
10
10
10
10
10
10
10
10
10
10
10
10
10
10
10
10
10
10
10
10
10
10
10
10
10
10
10
10
10
10
10
10
10
10
10
10
10
10
10
10
10
10
10
10
10
10
10
10
10
10
10
10
10
10
10
10
10
10
10
10
10
10
10
10
10
10
POINT_DATA 125
SCALARS ExistingScalar float 1
LOOKUP_TABLE default
0.000000
0.250000
0.500000
0.750000
1.000000
0.250000
0.500000
0.750000
1.000000
1.250000
0.500000
0.750000
1.000000
1.250000
1.500000
0.750000
1.000000
1.250000
1.500000
1.750000
1.000000
1.250000
1.500000
1.750000
2.000000
0.250000
0.500000
0.750000
1.000000
1.250000
0.500000
0.750000
1.000000
1.250000
1.500000
0.750000
1.000000
1.250000
1.500000
1.750000
1.000000
1.250000
1.500000
1.750000
2.000000
1.250000
1.500000
1.750000
2.000000
2.250000
0.500000
0.750000
1.000000
1.250000
1.500000
0.750000
1.000000
1.250000
1.500000
1.750000
1.000000
1.250000
1.500000
1.750000
2.000000
1.250000
1.500000
1.750000
2.000000
2.250000
1.500000
1.750000
2.000000
2.250000
2.500000
0.750000
1.000000
1.250000
1.500000
1.750000
1.000000
1.250000
1.500000
1.750000
2.000000
1.250000
1.500000
1.750000
2.000000
2.250000
1.500000
1.750000
2.000000
2.250000
2.500000
1.750000
2.000000
2.250000
2.500000
2.750000
1.000000
1.250000
1.500000
1.750000
2.000000
1.250000
1.500000
1.750000
2.000000
2.250000
1.500000
1.750000
2.000000
2.250000
2.500000
1.750000
2.000000
2.250000
2.500000
2.750000
2.000000
2.250000
2.500000
2.750000
3.000000
