# vtk DataFile Version 3.0
random vectors test B
ASCII
DATASET UNSTRUCTURED_GRID
POINTS 27 float
0 10 0
1 10 0
2 10 0
0 11 0
1 11 0
2 11 0
0 12 0
1 12 0
2 12 0
0 10 1
1 10 1
2 10 1
0 11 1
1 11 1
2 11 1
0 12 1
1 12 1
2 12 1
0 10 2
1 10 2
2 10 2
0 11 2
1 11 2
2 11 2
0 12 2
1 12 2
2 12 2
CELLS 8 65
8 0 1 4 3 9 10 13 12
8 1 2 5 4 10 11 14 13
8 3 4 7 6 12 13 16 15
8 4 5 8 7 13 14 17 16
8 9 10 13 12 18 19 22 21
8 10 11 14 13 19 20 23 22
8 12 13 16 15 21 22 25 24
8 13 14 17 16 22 23 26 25
CELL_TYPES 8
12
12
12
12
12
12
12
12
POINT_DATA 27
SCALARS scalar float 1
LOOKUP_TABLE default
100
101
102
101
102
103
102
103
104
101
102
103
102
103
104
103
104
105
102
103
104
103
104
105
104
105
106
