# vtk DataFile Version 3.0
Structured grid for RandomAttributesFilter test
ASCII
DATASET STRUCTURED_GRID
DIMENSIONS 8 8 8
POINTS 512 float
0.000000 0.000000 0.000000
0.200000 0.000000 0.000000
0.400000 0.000000 0.000000
0.600000 0.000000 0.000000
0.800000 0.000000 0.000000
1.000000 0.000000 0.000000
1.200000 0.000000 0.000000
1.400000 0.000000 0.000000
0.000000 0.200000 0.000000
0.200000 0.200000 0.000000
0.400000 0.200000 0.000000
0.600000 0.200000 0.000000
0.800000 0.200000 0.000000
1.000000 0.200000 0.000000
1.200000 0.200000 0.000000
1.400000 0.200000 0.000000
0.000000 0.400000 0.000000
0.200000 0.400000 0.000000
0.400000 0.400000 0.000000
0.600000 0.400000 0.000000
0.800000 0.400000 0.000000
1.000000 0.400000 0.000000
1.200000 0.400000 0.000000
1.400000 0.400000 0.000000
0.000000 0.600000 0.000000
0.200000 0.600000 0.000000
0.400000 0.600000 0.000000
0.600000 0.600000 0.000000
0.800000 0.600000 0.000000
1.000000 0.600000 0.000000
1.200000 0.600000 0.000000
1.400000 0.600000 0.000000
0.000000 0.800000 0.000000
0.200000 0.800000 0.000000
0.400000 0.800000 0.000000
0.600000 0.800000 0.000000
0.800000 0.800000 0.000000
1.000000 0.800000 0.000000
1.200000 0.800000 0.000000
1.400000 0.800000 0.000000
0.000000 1.000000 0.000000
0.200000 1.000000 0.000000
0.400000 1.000000 0.000000
0.600000 1.000000 0.000000
0.800000 1.000000 0.000000
1.000000 1.000000 0.000000
1.200000 1.000000 0.000000
1.400000 1.000000 0.000000
0.000000 1.200000 0.000000
0.200000 1.200000 0.000000
0.400000 1.200000 0.000000
0.600000 1.200000 0.000000
0.800000 1.200000 0.000000
1.000000 1.200000 0.000000
1.200000 1.200000 0.000000
1.400000 1.200000 0.000000
0.000000 1.400000 0.000000
0.200000 1.400000 0.000000
0.400000 1.400000 0.000000
0.600000 1.400000 0.000000
0.800000 1.400000 0.000000
1.000000 1.400000 0.000000
1.200000 1.400000 0.000000
1.400000 1.400000 0.000000
0.000000 0.000000 0.200000
0.200000 0.000000 0.200000
0.400000 0.000000 0.200000
0.600000 0.000000 0.200000
0.800000 0.000000 0.200000
1.000000 0.000000 0.200000
1.200000 0.000000 0.200000
1.400000 0.000000 0.200000
0.000000 0.200000 0.200000
0.200000 0.200000 0.200000
0.400000 0.200000 0.200000
0.600000 0.200000 0.200000
0.800000 0.200000 0.200000
1.000000 0.200000 0.200000
1.200000 0.200000 0.200000
1.400000 0.200000 0.200000
0.000000 0.400000 0.200000
0.200000 0.400000 0.200000
0.400000 0.400000 0.200000
0.600000 0.400000 0.200000
0.800000 0.400000 0.200000
1.000000 0.400000 0.200000
1.200000 0.400000 0.200000
1.400000 0.400000 0.200000
0.000000 0.600000 0.200000
0.200000 0.600000 0.200000
0.400000 0.600000 0.200000
0.600000 0.600000 0.200000
0.800000 0.600000 0.200000
1.000000 0.600000 0.200000
1.200000 0.600000 0.200000
1.400000 0.600000 0.200000
0.000000 0.800000 0.200000
0.200000 0.800000 0.200000
0.400000 0.800000 0.200000
0.600000 0.800000 0.200000
0.800000 0.800000 0.200000
1.000000 0.800000 0.200000
1.200000 0.800000 0.200000
1.400000 0.800000 0.200000
0.000000 1.000000 0.200000
0.200000 1.000000 0.200000
0.400000 1.000000 0.200000
0.600000 1.000000 0.200000
0.800000 1.000000 0.200000
1.000000 1.000000 0.200000
1.200000 1.000000 0.200000
1.400000 1.000000 0.200000
0.000000 1.200000 0.200000
0.200000 1.200000 0.200000
0.400000 1.200000 0.200000
0.600000 1.200000 0.200000
0.800000 1.200000 0.200000
1.000000 1.200000 0.200000
1.200000 1.200000 0.200000
1.400000 1.200000 0.200000
0.000000 1.400000 0.200000
0.200000 1.400000 0.200000
0.400000 1.400000 0.200000
0.600000 1.400000 0.200000
0.800000 1.400000 0.200000
1.000000 1.400000 0.200000
1.200000 1.400000 0.200000
1.400000 1.400000 0.200000
0.000000 0.000000 0.400000
0.200000 0.000000 0.400000
0.400000 0.000000 0.400000
0.600000 0.000000 0.400000
0.800000 0.000000 0.400000
1.000000 0.000000 0.400000
1.200000 0.000000 0.400000
1.400000 0.000000 0.400000
0.000000 0.200000 0.400000
0.200000 0.200000 0.400000
0.400000 0.200000 0.400000
0.600000 0.200000 0.400000
0.800000 0.200000 0.400000
1.000000 0.200000 0.400000
1.200000 0.200000 0.400000
1.400000 0.200000 0.400000
0.000000 0.400000 0.400000
0.200000 0.400000 0.400000
0.400000 0.400000 0.400000
0.600000 0.400000 0.400000
0.800000 0.400000 0.400000
1.000000 0.400000 0.400000
1.200000 0.400000 0.400000
1.400000 0.400000 0.400000
0.000000 0.600000 0.400000
0.200000 0.600000 0.400000
0.400000 0.600000 0.400000
0.600000 0.600000 0.400000
0.800000 0.600000 0.400000
1.000000 0.600000 0.400000
1.200000 0.600000 0.400000
1.400000 0.600000 0.400000
0.000000 0.800000 0.400000
0.200000 0.800000 0.400000
0.400000 0.800000 0.400000
0.600000 0.800000 0.400000
0.800000 0.800000 0.400000
1.000000 0.800000 0.400000
1.200000 0.800000 0.400000
1.400000 0.800000 0.400000
0.000000 1.000000 0.400000
0.200000 1.000000 0.400000
0.400000 1.000000 0.400000
0.600000 1.000000 0.400000
0.800000 1.000000 0.400000
1.000000 1.000000 0.400000
1.200000 1.000000 0.400000
1.400000 1.000000 0.400000
0.000000 1.200000 0.400000
0.200000 1.200000 0.400000
0.400000 1.200000 0.400000
0.600000 1.200000 0.400000
0.800000 1.200000 0.400000
1.000000 1.200000 0.400000
1.200000 1.200000 0.400000
1.400000 1.200000 0.400000
0.000000 1.400000 0.400000
0.200000 1.400000 0.400000
0.400000 1.400000 0.400000
0.600000 1.400000 0.400000
0.800000 1.400000 0.400000
1.000000 1.400000 0.400000
1.200000 1.400000 0.400000
1.400000 1.400000 0.400000
0.000000 0.000000 0.600000
0.200000 0.000000 0.600000
0.400000 0.000000 0.600000
0.600000 0.000000 0.600000
0.800000 0.000000 0.600000
1.000000 0.000000 0.600000
1.200000 0.000000 0.600000
1.400000 0.000000 0.600000
0.000000 0.200000 0.600000
0.200000 0.200000 0.600000
0.400000 0.200000 0.600000
0.600000 0.200000 0.600000
0.800000 0.200000 0.600000
1.000000 0.200000 0.600000
1.200000 0.200000 0.600000
1.400000 0.200000 0.600000
0.000000 0.400000 0.600000
0.200000 0.400000 0.600000
0.400000 0.400000 0.600000
0.600000 0.400000 0.600000
0.800000 0.400000 0.600000
1.000000 0.400000 0.600000
1.200000 0.400000 0.600000
1.400000 0.400000 0.600000
0.000000 0.600000 0.600000
0.200000 0.600000 0.600000
0.400000 0.600000 0.600000
0.600000 0.600000 0.600000
0.800000 0.600000 0.600000
1.000000 0.600000 0.600000
1.200000 0.600000 0.600000
1.400000 0.600000 0.600000
0.000000 0.800000 0.600000
0.200000 0.800000 0.600000
0.400000 0.800000 0.600000
0.600000 0.800000 0.600000
0.800000 0.800000 0.600000
1.000000 0.800000 0.600000
1.200000 0.800000 0.600000
1.400000 0.800000 0.600000
0.000000 1.000000 0.600000
0.200000 1.000000 0.600000
0.400000 1.000000 0.600000
0.600000 1.000000 0.600000
0.800000 1.000000 0.600000
1.000000 1.000000 0.600000
1.200000 1.000000 0.600000
1.400000 1.000000 0.600000
0.000000 1.200000 0.600000
0.200000 1.200000 0.600000
0.400000 1.200000 0.600000
0.600000 1.200000 0.600000
0.800000 1.200000 0.600000
1.000000 1.200000 0.600000
1.200000 1.200000 0.600000
1.400000 1.200000 0.600000
0.000000 1.400000 0.600000
0.200000 1.400000 0.600000
0.400000 1.400000 0.600000
0.600000 1.400000 0.600000
0.800000 1.400000 0.600000
1.000000 1.400000 0.600000
1.200000 1.400000 0.600000
1.400000 1.400000 0.600000
0.000000 0.000000 0.800000
0.200000 0.000000 0.800000
0.400000 0.000000 0.800000
0.600000 0.000000 0.800000
0.800000 0.000000 0.800000
1.000000 0.000000 0.800000
1.200000 0.000000 0.800000
1.400000 0.000000 0.800000
0.000000 0.200000 0.800000
0.200000 0.200000 0.800000
0.400000 0.200000 0.800000
0.600000 0.200000 0.800000
0.800000 0.200000 0.800000
1.000000 0.200000 0.800000
1.200000 0.200000 0.800000
1.400000 0.200000 0.800000
0.000000 0.400000 0.800000
0.200000 0.400000 0.800000
0.400000 0.400000 0.800000
0.600000 0.400000 0.800000
0.800000 0.400000 0.800000
1.000000 0.400000 0.800000
1.200000 0.400000 0.800000
1.400000 0.400000 0.800000
0.000000 0.600000 0.800000
0.200000 0.600000 0.800000
0.400000 0.600000 0.800000
0.600000 0.600000 0.800000
0.800000 0.600000 0.800000
1.000000 0.600000 0.800000
1.200000 0.600000 0.800000
1.400000 0.600000 0.800000
0.000000 0.800000 0.800000
0.200000 0.800000 0.800000
0.400000 0.800000 0.800000
0.600000 0.800000 0.800000
0.800000 0.800000 0.800000
1.000000 0.800000 0.800000
1.200000 0.800000 0.800000
1.400000 0.800000 0.800000
0.000000 1.000000 0.800000
0.200000 1.000000 0.800000
0.400000 1.000000 0.800000
0.600000 1.000000 0.800000
0.800000 1.000000 0.800000
1.000000 1.000000 0.800000
1.200000 1.000000 0.800000
1.400000 1.000000 0.800000
0.000000 1.200000 0.800000
0.200000 1.200000 0.800000
0.400000 1.200000 0.800000
0.600000 1.200000 0.800000
0.800000 1.200000 0.800000
1.000000 1.200000 0.800000
1.200000 1.200000 0.800000
1.400000 1.200000 0.800000
0.000000 1.400000 0.800000
0.200000 1.400000 0.800000
0.400000 1.400000 0.800000
0.600000 1.400000 0.800000
0.800000 1.400000 0.800000
1.000000 1.400000 0.800000
1.200000 1.400000 0.800000
1.400000 1.400000 0.800000
0.000000 0.000000 1.000000
0.200000 0.000000 1.000000
0.400000 0.000000 1.000000
0.600000 0.000000 1.000000
0.800000 0.000000 1.000000
1.000000 0.000000 1.000000
1.200000 0.000000 1.000000
1.400000 0.000000 1.000000
0.000000 0.200000 1.000000
0.200000 0.200000 1.000000
0.400000 0.200000 1.000000
0.600000 0.200000 1.000000
0.800000 0.200000 1.000000
1.000000 0.200000 1.000000
1.200000 0.200000 1.000000
1.400000 0.200000 1.000000
0.000000 0.400000 1.000000
0.200000 0.400000 1.000000
0.400000 0.400000 1.000000
0.600000 0.400000 1.000000
0.800000 0.400000 1.000000
1.000000 0.400000 1.000000
1.200000 0.400000 1.000000
1.400000 0.400000 1.000000
0.000000 0.600000 1.000000
0.200000 0.600000 1.000000
0.400000 0.600000 1.000000
0.600000 0.600000 1.000000
0.800000 0.600000 1.000000
1.000000 0.600000 1.000000
1.200000 0.600000 1.000000
1.400000 0.600000 1.000000
0.000000 0.800000 1.000000
0.200000 0.800000 1.000000
0.400000 0.800000 1.000000
0.600000 0.800000 1.000000
0.800000 0.800000 1.000000
1.000000 0.800000 1.000000
1.200000 0.800000 1.000000
1.400000 0.800000 1.000000
0.000000 1.000000 1.000000
0.200000 1.000000 1.000000
0.400000 1.000000 1.000000
0.600000 1.000000 1.000000
0.800000 1.000000 1.000000
1.000000 1.000000 1.000000
1.200000 1.000000 1.000000
1.400000 1.000000 1.000000
0.000000 1.200000 1.000000
0.200000 1.200000 1.000000
0.400000 1.200000 1.000000
0.600000 1.200000 1.000000
0.800000 1.200000 1.000000
1.000000 1.200000 1.000000
1.200000 1.200000 1.000000
1.400000 1.200000 1.000000
0.000000 1.400000 1.000000
0.200000 1.400000 1.000000
0.400000 1.400000 1.000000
0.600000 1.400000 1.000000
0.800000 1.400000 1.000000
1.000000 1.400000 1.000000
1.200000 1.400000 1.000000
1.400000 1.400000 1.000000
0.000000 0.000000 1.200000
0.200000 0.000000 1.200000
0.400000 0.000000 1.200000
0.600000 0.000000 1.200000
0.800000 0.000000 1.200000
1.000000 0.000000 1.200000
1.200000 0.000000 1.200000
1.400000 0.000000 1.200000
0.000000 0.200000 1.200000
0.200000 0.200000 1.200000
0.400000 0.200000 1.200000
0.600000 0.200000 1.200000
0.800000 0.200000 1.200000
1.000000 0.200000 1.200000
1.200000 0.200000 1.200000
1.400000 0.200000 1.200000
0.000000 0.400000 1.200000
0.200000 0.400000 1.200000
0.400000 0.400000 1.200000
0.600000 0.400000 1.200000
0.800000 0.400000 1.200000
1.000000 0.400000 1.200000
1.200000 0.400000 1.200000
1.400000 0.400000 1.200000
0.000000 0.600000 1.200000
0.200000 0.600000 1.200000
0.400000 0.600000 1.200000
0.600000 0.600000 1.200000
0.800000 0.600000 1.200000
1.000000 0.600000 1.200000
1.200000 0.600000 1.200000
1.400000 0.600000 1.200000
0.000000 0.800000 1.200000
0.200000 0.800000 1.200000
0.400000 0.800000 1.200000
0.600000 0.800000 1.200000
0.800000 0.800000 1.200000
1.000000 0.800000 1.200000
1.200000 0.800000 1.200000
1.400000 0.800000 1.200000
0.000000 1.000000 1.200000
0.200000 1.000000 1.200000
0.400000 1.000000 1.200000
0.600000 1.000000 1.200000
0.800000 1.000000 1.200000
1.000000 1.000000 1.200000
1.200000 1.000000 1.200000
1.400000 1.000000 1.200000
0.000000 1.200000 1.200000
0.200000 1.200000 1.200000
0.400000 1.200000 1.200000
0.600000 1.200000 1.200000
0.800000 1.200000 1.200000
1.000000 1.200000 1.200000
1.200000 1.200000 1.200000
1.400000 1.200000 1.200000
0.000000 1.400000 1.200000
0.200000 1.400000 1.200000
0.400000 1.400000 1.200000
0.600000 1.400000 1.200000
0.800000 1.400000 1.200000
1.000000 1.400000 1.200000
1.200000 1.400000 1.200000
1.400000 1.400000 1.200000
0.000000 0.000000 1.400000
0.200000 0.000000 1.400000
0.400000 0.000000 1.400000
0.600000 0.000000 1.400000
0.800000 0.000000 1.400000
1.000000 0.000000 1.400000
1.200000 0.000000 1.400000
1.400000 0.000000 1.400000
0.000000 0.200000 1.400000
0.200000 0.200000 1.400000
0.400000 0.200000 1.400000
0.600000 0.200000 1.400000
0.800000 0.200000 1.400000
1.000000 0.200000 1.400000
1.200000 0.200000 1.400000
1.400000 0.200000 1.400000
0.000000 0.400000 1.400000
0.200000 0.400000 1.400000
0.400000 0.400000 1.400000
0.600000 0.400000 1.400000
0.800000 0.400000 1.400000
1.000000 0.400000 1.400000
1.200000 0.400000 1.400000
1.400000 0.400000 1.400000
0.000000 0.600000 1.400000
0.200000 0.600000 1.400000
0.400000 0.600000 1.400000
0.600000 0.600000 1.400000
0.800000 0.600000 1.400000
1.000000 0.600000 1.400000
1.200000 0.600000 1.400000
1.400000 0.600000 1.400000
0.000000 0.800000 1.400000
0.200000 0.800000 1.400000
0.400000 0.800000 1.400000
0.600000 0.800000 1.400000
0.800000 0.800000 1.400000
1.000000 0.800000 1.400000
1.200000 0.800000 1.400000
1.400000 0.800000 1.400000
0.000000 1.000000 1.400000
0.200000 1.000000 1.400000
0.400000 1.000000 1.400000
0.600000 1.000000 1.400000
0.800000 1.000000 1.400000
1.000000 1.000000 1.400000
1.200000 1.000000 1.400000
1.400000 1.000000 1.400000
0.000000 1.200000 1.400000
0.200000 1.200000 1.400000
0.400000 1.200000 1.400000
0.600000 1.200000 1.400000
0.800000 1.200000 1.400000
1.000000 1.200000 1.400000
1.200000 1.200000 1.400000
1.400000 1.200000 1.400000
0.000000 1.400000 1.400000
0.200000 1.400000 1.400000
0.400000 1.400000 1.400000
0.600000 1.400000 1.400000
0.800000 1.400000 1.400000
1.000000 1.400000 1.400000
1.200000 1.400000 1.400000
1.400000 1.400000 1.400000
POINT_DATA 512
SCALARS ExistingScalar float 1
LOOKUP_TABLE default
0.000000
0.000000
0.000000
0.000000
0.000000
0.000000
0.000000
0.000000
0.000000
0.000000
0.000000
0.000000
0.000000
0.000000
0.000000
0.000000
0.000000
0.000000
0.000000
0.000000
0.000000
0.000000
0.000000
0.000000
0.000000
0.000000
0.000000
0.000000
0.000000
0.000000
0.000000
0.000000
0.000000
0.000000
0.000000
0.000000
0.000000
0.000000
0.000000
0.000000
0.000000
0.000000
0.000000
0.000000
0.000000
0.000000
0.000000
0.000000
0.000000
0.000000
0.000000
0.000000
0.000000
0.000000
0.000000
0.000000
0.000000
0.000000
0.000000
0.000000
0.000000
0.000000
0.000000
0.000000
0.000000
0.000000
0.000000
0.000000
0.000000
0.000000
0.000000
0.000000
0.000000
0.008000
0.016000
0.024000
0.032000
0.040000
0.048000
0.056000
0.000000
0.016000
0.032000
0.048000
0.064000
0.080000
0.096000
0.112000
0.000000
0.024000
0.048000
0.072000
0.096000
0.120000
0.144000
0.168000
0.000000
0.032000
0.064000
0.096000
0.128000
0.160000
0.192000
0.224000
0.000000
0.040000
0.080000
0.120000
0.160000
0.200000
0.240000
0.280000
0.000000
0.048000
0.096000
0.144000
0.192000
0.240000
0.288000
0.336000
0.000000
0.056000
0.112000
0.168000
0.224000
0.280000
0.336000
0.392000
0.000000
0.000000
0.000000
0.000000
0.000000
0.000000
0.000000
0.000000
0.000000
0.016000
0.032000
0.048000
0.064000
0.080000
0.096000
0.112000
0.000000
0.032000
0.064000
0.096000
0.128000
0.160000
0.192000
0.224000
0.000000
0.048000
0.096000
0.144000
0.192000
0.240000
0.288000
0.336000
0.000000
0.064000
0.128000
0.192000
0.256000
0.320000
0.384000
0.448000
0.000000
0.080000
0.160000
0.240000
0.320000
0.400000
0.480000
0.560000
0.000000
0.096000
0.192000
0.288000
0.384000
0.480000
0.576000
0.672000
0.000000
0.112000
0.224000
0.336000
0.448000
0.560000
0.672000
0.784000
0.000000
0.000000
0.000000
0.000000
0.000000
0.000000
0.000000
0.000000
0.000000
0.024000
0.048000
0.072000
0.096000
0.120000
0.144000
0.168000
0.000000
0.048000
0.096000
0.144000
0.192000
0.240000
0.288000
0.336000
0.000000
0.072000
0.144000
0.216000
0.288000
0.360000
0.432000
0.504000
0.000000
0.096000
0.192000
0.288000
0.384000
0.480000
0.576000
0.672000
0.000000
0.120000
0.240000
0.360000
0.480000
0.600000
0.720000
0.840000
0.000000
0.144000
0.288000
0.432000
0.576000
0.720000
0.864000
1.008000
0.000000
0.168000
0.336000
0.504000
0.672000
0.840000
1.008000
1.176000
0.000000
0.000000
0.000000
0.000000
0.000000
0.000000
0.000000
0.000000
0.000000
0.032000
0.064000
0.096000
0.128000
0.160000
0.192000
0.224000
0.000000
0.064000
0.128000
0.192000
0.256000
0.320000
0.384000
0.448000
0.000000
0.096000
0.192000
0.288000
0.384000
0.480000
0.576000
0.672000
0.000000
0.128000
0.256000
0.384000
0.512000
0.640000
0.768000
0.896000
0.000000
0.160000
0.320000
0.480000
0.640000
0.800000
0.960000
1.120000
0.000000
0.192000
0.384000
0.576000
0.768000
0.960000
1.152000
1.344000
0.000000
0.224000
0.448000
0.672000
0.896000
1.120000
1.344000
1.568000
0.000000
0.000000
0.000000
0.000000
0.000000
0.000000
0.000000
0.000000
0.000000
0.040000
0.080000
0.120000
0.160000
0.200000
0.240000
0.280000
0.000000
0.080000
0.160000
0.240000
0.320000
0.400000
0.480000
0.560000
0.000000
0.120000
0.240000
0.360000
0.480000
0.600000
0.720000
0.840000
0.000000
0.160000
0.320000
0.480000
0.640000
0.800000
0.960000
1.120000
0.000000
0.200000
0.400000
0.600000
0.800000
1.000000
1.200000
1.400000
0.000000
0.240000
0.480000
0.720000
0.960000
1.200000
1.440000
1.680000
0.000000
0.280000
0.560000
0.840000
1.120000
1.400000
1.680000
1.960000
0.000000
0.000000
0.000000
0.000000
0.000000
0.000000
0.000000
0.000000
0.000000
0.048000
0.096000
0.144000
0.192000
0.240000
0.288000
0.336000
0.000000
0.096000
0.192000
0.288000
0.384000
0.480000
0.576000
0.672000
0.000000
0.144000
0.288000
0.432000
0.576000
0.720000
0.864000
1.008000
0.000000
0.192000
0.384000
0.576000
0.768000
0.960000
1.152000
1.344000
0.000000
0.240000
0.480000
0.720000
0.960000
1.200000
1.440000
1.680000
0.000000
0.288000
0.576000
0.864000
1.152000
1.440000
1.728000
2.016000
0.000000
0.336000
0.672000
1.008000
1.344000
1.680000
2.016000
2.352000
0.000000
0.000000
0.000000
0.000000
0.000000
0.000000
0.000000
0.000000
0.000000
0.056000
0.112000
0.168000
0.224000
0.280000
0.336000
0.392000
0.000000
0.112000
0.224000
0.336000
0.448000
0.560000
0.672000
0.784000
0.000000
0.168000
0.336000
0.504000
0.672000
0.840000
1.008000
1.176000
0.000000
0.224000
0.448000
0.672000
0.896000
1.120000
1.344000
1.568000
0.000000
0.280000
0.560000
0.840000
1.120000
1.400000
1.680000
1.960000
0.000000
0.336000
0.672000
1.008000
1.344000
1.680000
2.016000
2.352000
0.000000
0.392000
0.784000
1.176000
1.568000
1.960000
2.352000
2.744000
