# vtk DataFile Version 3.0
ResampleCube: tetrahedral cube (corner removed) with point field
ASCII
DATASET UNSTRUCTURED_GRID
POINTS 27 float
0 0 0
0.5 0 0
1 0 0
0 0.5 0
0.5 0.5 0
1 0.5 0
0 1 0
0.5 1 0
1 1 0
0 0 0.5
0.5 0 0.5
1 0 0.5
0 0.5 0.5
0.5 0.5 0.5
1 0.5 0.5
0 1 0.5
0.5 1 0.5
1 1 0.5
0 0 1
0.5 0 1
1 0 1
0 0.5 1
0.5 0.5 1
1 0.5 1
0 1 1
0.5 1 1
1 1 1
CELLS 42 210
4 0 1 4 13
4 0 1 10 13
4 0 3 4 13
4 0 3 12 13
4 0 9 10 13
4 0 9 12 13
4 9 10 13 22
4 9 10 19 22
4 9 12 13 22
4 9 12 21 22
4 9 18 19 22
4 9 18 21 22
4 3 4 7 16
4 3 4 13 16
4 3 6 7 16
4 3 6 15 16
4 3 12 13 16
4 3 12 15 16
4 12 13 16 25
4 12 13 22 25
4 12 15 16 25
4 12 15 24 25
4 12 21 22 25
4 12 21 24 25
4 1 2 5 14
4 1 2 11 14
4 1 4 5 14
4 1 4 13 14
4 1 10 11 14
4 1 10 13 14
4 10 11 14 23
4 10 11 20 23
4 10 13 14 23
4 10 13 22 23
4 10 19 20 23
4 10 19 22 23
4 4 5 8 17
4 4 5 14 17
4 4 7 8 17
4 4 7 16 17
4 4 13 14 17
4 4 13 16 17
CELL_TYPES 42
10
10
10
10
10
10
10
10
10
10
10
10
10
10
10
10
10
10
10
10
10
10
10
10
10
10
10
10
10
10
10
10
10
10
10
10
10
10
10
10
10
10
POINT_DATA 27
SCALARS field float 1
LOOKUP_TABLE default
0
0.25
1
0.25
0.5
1.25
1
1.25
2
0.25
0.5
1.25
0.5
0.75
1.5
1.25
1.5
2.25
1
1.25
2
1.25
1.5
2.25
2
2.25
3
