# vtk DataFile Version 3.0
iGameVis WarpByVector filter test model: tornado structured mesh (cylindrical funnel with swirl velocity)
ASCII
DATASET UNSTRUCTURED_GRID
POINTS 312 double
0.150000531387643 0 0
0.144891753781529 0.0388228567653796 0
0.129916240014352 0.075000000003042 0
0.106111092186676 0.10606601744053 0
0.0751424664414936 0.129903816764967 0
0.0392256842850698 0.144888945805971 0
0.0010387906061257 0.150000531387643 0
-0.0392256842850698 0.144891753781529 0
-0.0751424664414935 0.129916240014352 0
-0.106111092186676 0.106111092186676 0
-0.129916240014352 0.0751424664414935 0
-0.144891753781529 0.0392256842850698 0
-0.150000531387643 0.0010387906061257 0
-0.144888945805971 -0.0392256842850698 0
-0.129903816764967 -0.0751424664414935 0
-0.10606601744053 -0.106111092186676 0
-0.075000000003042 -0.129916240014352 0
-0.0388228567653795 -0.144891753781529 0
0 -0.150000531387643 0
0.0388228567653795 -0.144888945805971 0
0.075000000003042 -0.129903816764967 0
0.10606601744053 -0.10606601744053 0
0.129903816764967 -0.075000000003042 0
0.144888945805971 -0.0388228567653797 0
0.150781784155287 0 0.166666666666667
0.145646398332474 0.0390250591443659 0.166666666666667
0.13059288709776 0.0753906250030578 0.166666666666667
0.106663754125148 0.1066184446147 0.166666666666667
0.0755338334542097 0.130580399143951 0.166666666666667
0.0394299847240545 0.145643575732044 0.166666666666667
0.00104420097386594 0.150781784155287 0.166666666666667
-0.0394299847240545 0.145646398332474 0.166666666666667
-0.0755338334542096 0.13059288709776 0.166666666666667
-0.106663754125148 0.106663754125148 0.166666666666667
-0.13059288709776 0.0755338334542096 0.166666666666667
-0.145646398332474 0.0394299847240546 0.166666666666667
-0.150781784155287 0.00104420097386594 0.166666666666667
-0.145643575732044 -0.0394299847240546 0.166666666666667
-0.130580399143951 -0.0755338334542096 0.166666666666667
-0.1066184446147 -0.106663754125148 0.166666666666667
-0.0753906250030579 -0.13059288709776 0.166666666666667
-0.0390250591443659 -0.145646398332474 0.166666666666667
0 -0.150781784155287 0.166666666666667
0.0390250591443659 -0.145643575732044 0.166666666666667
0.0753906250030579 -0.130580399143951 0.166666666666667
0.1066184446147 -0.1066184446147 0.166666666666667
0.130580399143951 -0.0753906250030579 0.166666666666667
0.145643575732044 -0.039025059144366 0.166666666666667
0.156250553528795 0 0.333333333333333
0.150928910189092 0.0404404757972704 0.333333333333333
0.135329416681617 0.0781250000031687 0.333333333333333
0.110532387694454 0.110485434833885 0.333333333333333
0.0782734025432225 0.135316475796841 0.333333333333333
0.0408600877969477 0.150925985214553 0.333333333333333
0.00108207354804761 0.156250553528795 0.333333333333333
-0.0408600877969477 0.150928910189092 0.333333333333333
-0.0782734025432224 0.135329416681617 0.333333333333333
-0.110532387694454 0.110532387694454 0.333333333333333
-0.135329416681617 0.0782734025432224 0.333333333333333
-0.150928910189092 0.0408600877969477 0.333333333333333
-0.156250553528795 0.00108207354804761 0.333333333333333
-0.150925985214553 -0.0408600877969477 0.333333333333333
-0.135316475796841 -0.0782734025432224 0.333333333333333
-0.110485434833886 -0.110532387694454 0.333333333333333
-0.0781250000031688 -0.135329416681617 0.333333333333333
-0.0404404757972704 -0.150928910189092 0.333333333333333
0 -0.156250553528795 0.333333333333333
0.0404404757972704 -0.150925985214553 0.333333333333333
0.0781250000031688 -0.135316475796841 0.333333333333333
0.110485434833885 -0.110485434833885 0.333333333333333
0.135316475796841 -0.0781250000031688 0.333333333333333
0.150925985214553 -0.0404404757972705 0.333333333333333
0.17109435611403 0 0.5
0.165267156657056 0.0442823209980111 0.5
0.14818571126637 0.0855468750034698 0.5
0.121032964525427 0.120981551143105 0.5
0.0857093757848287 0.148171540997541 0.5
0.0447417961376577 0.165263953809936 0.5
0.00118487053511213 0.17109435611403 0.5
-0.0447417961376577 0.165267156657056 0.5
-0.0857093757848286 0.14818571126637 0.5
-0.121032964525427 0.121032964525427 0.5
-0.14818571126637 0.0857093757848286 0.5
-0.165267156657056 0.0447417961376578 0.5
-0.17109435611403 0.00118487053511213 0.5
-0.165263953809936 -0.0447417961376578 0.5
-0.148171540997541 -0.0857093757848286 0.5
-0.120981551143105 -0.121032964525427 0.5
-0.0855468750034698 -0.14818571126637 0.5
-0.044282320998011 -0.165267156657056 0.5
0 -0.17109435611403 0.5
0.044282320998011 -0.165263953809936 0.5
0.0855468750034698 -0.148171540997541 0.5
0.120981551143105 -0.120981551143105 0.5
0.148171540997541 -0.0855468750034698 0.5
0.165263953809936 -0.0442823209980112 0.5
0.200000708516857 0 0.666666666666667
0.193189005042038 0.0517638090205061 0.666666666666667
0.173221653352469 0.100000000004056 0.666666666666667
0.141481456248901 0.141421356587373 0.666666666666667
0.100189955255325 0.173205089019956 0.666666666666667
0.052300912380093 0.193185261074628 0.666666666666667
0.00138505414150094 0.200000708516857 0.666666666666667
-0.052300912380093 0.193189005042038 0.666666666666667
-0.100189955255325 0.173221653352469 0.666666666666667
-0.141481456248901 0.141481456248901 0.666666666666667
-0.173221653352469 0.100189955255325 0.666666666666667
-0.193189005042038 0.0523009123800931 0.666666666666667
-0.200000708516857 0.00138505414150094 0.666666666666667
-0.193185261074628 -0.0523009123800931 0.666666666666667
-0.173205089019956 -0.100189955255325 0.666666666666667
-0.141421356587374 -0.141481456248901 0.666666666666667
-0.100000000004056 -0.173221653352469 0.666666666666667
-0.0517638090205061 -0.193189005042038 0.666666666666667
0 -0.200000708516857 0.666666666666667
0.0517638090205061 -0.193185261074628 0.666666666666667
0.100000000004056 -0.173205089019956 0.666666666666667
0.141421356587373 -0.141421356587373 0.666666666666667
0.173205089019956 -0.100000000004056 0.666666666666667
0.193185261074628 -0.0517638090205062 0.666666666666667
0.24765712734314 0 0.833333333333333
0.239222322649711 0.0640981541386736 0.833333333333333
0.214497125440362 0.123828125005022 0.833333333333333
0.175193834495709 0.175119414211709 0.833333333333333
0.124063343031008 0.214476614137993 0.833333333333333
0.0647632391581621 0.239217686565067 0.833333333333333
0.00171508657365546 0.24765712734314 0.833333333333333
-0.0647632391581621 0.239222322649711 0.833333333333333
-0.124063343031008 0.214497125440362 0.833333333333333
-0.175193834495709 0.175193834495709 0.833333333333333
-0.214497125440362 0.124063343031008 0.833333333333333
-0.239222322649711 0.0647632391581622 0.833333333333333
-0.24765712734314 0.00171508657365546 0.833333333333333
-0.239217686565067 -0.0647632391581622 0.833333333333333
-0.214476614137993 -0.124063343031008 0.833333333333333
-0.175119414211709 -0.175193834495709 0.833333333333333
-0.123828125005023 -0.214497125440362 0.833333333333333
-0.0640981541386735 -0.239222322649711 0.833333333333333
0 -0.24765712734314 0.833333333333333
0.0640981541386735 -0.239217686565067 0.833333333333333
0.123828125005023 -0.214476614137993 0.833333333333333
0.175119414211709 -0.175119414211709 0.833333333333333
0.214476614137993 -0.123828125005023 0.833333333333333
0.239217686565067 -0.0640981541386738 0.833333333333333
0.318751129198741 0 1
0.307894976785748 0.0824985706264316 1
0.276072010030498 0.159375000006464 1
0.225486070896686 0.225390287061126 1
0.159677741188174 0.276045610625555 1
0.0833545791057732 0.307889009837689 1
0.00220743003801712 0.318751129198741 1
-0.0833545791057732 0.307894976785748 1
-0.159677741188174 0.276072010030498 1
-0.225486070896686 0.225486070896686 1
-0.276072010030498 0.159677741188174 1
-0.307894976785748 0.0833545791057734 1
-0.318751129198741 0.00220743003801712 1
-0.307889009837689 -0.0833545791057734 1
-0.276045610625555 -0.159677741188174 1
-0.225390287061127 -0.225486070896686 1
-0.159375000006464 -0.276072010030498 1
-0.0824985706264315 -0.307894976785748 1
0 -0.318751129198741 1
0.0824985706264315 -0.307889009837689 1
0.159375000006464 -0.276045610625555 1
0.225390287061126 -0.225390287061126 1
0.276045610625555 -0.159375000006464 1
0.307889009837689 -0.0824985706264318 1
0.417970230689526 0 1.16666666666667
0.403734834755822 0.108178272757698 1.16666666666667
0.362006189623325 0.208984375008476 1.16666666666667
0.295674137082664 0.295548538180644 1.16666666666667
0.20938135180312 0.361971572756549 1.16666666666667
0.109300734856835 0.40372701044893 1.16666666666667
0.00289454674102735 0.417970230689526 1.16666666666667
-0.109300734856835 0.403734834755822 1.16666666666667
-0.20938135180312 0.362006189623325 1.16666666666667
-0.295674137082664 0.295674137082664 1.16666666666667
-0.362006189623325 0.20938135180312 1.16666666666667
-0.403734834755822 0.109300734856835 1.16666666666667
-0.417970230689526 0.00289454674102735 1.16666666666667
-0.40372701044893 -0.109300734856835 1.16666666666667
-0.361971572756549 -0.20938135180312 1.16666666666667
-0.295548538180644 -0.295674137082664 1.16666666666667
-0.208984375008477 -0.362006189623325 1.16666666666667
-0.108178272757698 -0.403734834755822 1.16666666666667
0 -0.417970230689526 1.16666666666667
0.108178272757698 -0.40372701044893 1.16666666666667
0.208984375008477 -0.361971572756549 1.16666666666667
0.295548538180644 -0.295548538180644 1.16666666666667
0.361971572756549 -0.208984375008477 1.16666666666667
0.40372701044893 -0.108178272757699 1.16666666666667
0.550001948421357 0 1.33333333333333
0.531269763865605 0.142350474806392 1.33333333333333
0.476359546719291 0.275000000011154 1.33333333333333
0.389074004684477 0.388908730615277 1.33333333333333
0.275522376952143 0.47631399480488 1.33333333333333
0.143827509045256 0.531259467955228 1.33333333333333
0.00380889888912758 0.550001948421357 1.33333333333333
-0.143827509045256 0.531269763865605 1.33333333333333
-0.275522376952143 0.476359546719291 1.33333333333333
-0.389074004684477 0.389074004684477 1.33333333333333
-0.476359546719291 0.275522376952143 1.33333333333333
-0.531269763865605 0.143827509045256 1.33333333333333
-0.550001948421357 0.00380889888912758 1.33333333333333
-0.531259467955228 -0.143827509045256 1.33333333333333
-0.47631399480488 -0.275522376952143 1.33333333333333
-0.388908730615277 -0.389074004684477 1.33333333333333
-0.275000000011154 -0.47635954671929 1.33333333333333
-0.142350474806392 -0.531269763865605 1.33333333333333
0 -0.550001948421357 1.33333333333333
0.142350474806392 -0.531259467955228 1.33333333333333
0.275000000011154 -0.476313994804879 1.33333333333333
0.388908730615277 -0.388908730615277 1.33333333333333
0.476313994804879 -0.275000000011154 1.33333333333333
0.531259467955228 -0.142350474806392 1.33333333333333
0.7195337990001 0 1.5
0.69502763142077 0.18622839104643 1.5
0.623191963818845 0.359765625014592 1.5
0.50900164533296 0.508785427410043 1.5
0.36044901871154 0.623132371044452 1.5
0.188160704304944 0.695014161913018 1.5
0.00498294868875924 0.7195337990001 1.5
-0.188160704304944 0.69502763142077 1.5
-0.360449018711539 0.623191963818845 1.5
-0.50900164533296 0.50900164533296 1.5
-0.623191963818845 0.360449018711539 1.5
-0.69502763142077 0.188160704304944 1.5
-0.7195337990001 0.00498294868875924 1.5
-0.695014161913018 -0.188160704304944 1.5
-0.623132371044452 -0.360449018711539 1.5
-0.508785427410043 -0.50900164533296 1.5
-0.359765625014592 -0.623191963818845 1.5
-0.18622839104643 -0.69502763142077 1.5
0 -0.7195337990001 1.5
0.18622839104643 -0.695014161913018 1.5
0.359765625014592 -0.623132371044452 1.5
0.508785427410043 -0.508785427410043 1.5
0.623132371044452 -0.359765625014592 1.5
0.695014161913018 -0.186228391046431 1.5
0.931253299031617 0 1.66666666666667
0.89953630472699 0.241025235751732 1.66666666666667
0.806563323422436 0.465625000018886 1.66666666666667
0.658773030658945 0.658493191609958 1.66666666666667
0.466509479157606 0.806486195749171 1.66666666666667
0.243526123269808 0.899518871878738 1.66666666666667
0.00644915834636374 0.931253299031617 1.66666666666667
-0.243526123269808 0.89953630472699 1.66666666666667
-0.466509479157606 0.806563323422436 1.66666666666667
-0.658773030658945 0.658773030658945 1.66666666666667
-0.806563323422436 0.466509479157606 1.66666666666667
-0.89953630472699 0.243526123269809 1.66666666666667
-0.931253299031617 0.00644915834636374 1.66666666666667
-0.899518871878738 -0.243526123269809 1.66666666666667
-0.806486195749172 -0.466509479157606 1.66666666666667
-0.658493191609958 -0.658773030658945 1.66666666666667
-0.465625000018886 -0.806563323422435 1.66666666666667
-0.241025235751731 -0.89953630472699 1.66666666666667
0 -0.931253299031617 1.66666666666667
0.241025235751731 -0.899518871878738 1.66666666666667
0.465625000018886 -0.806486195749171 1.66666666666667
0.658493191609958 -0.658493191609958 1.66666666666667
0.806486195749171 -0.465625000018886 1.66666666666667
0.899518871878738 -0.241025235751732 1.66666666666667
1.18984796512177 0 1.83333333333333
1.14932365108994 0.307954223196214 1.83333333333333
1.03053350803051 0.59492187502413 1.83333333333333
0.841704132293266 0.841346586260038 1.83333333333333
0.596051960366639 1.03043496319294 1.83333333333333
0.311149568573757 1.14930137740882 1.83333333333333
0.00823999006838253 1.18984796512177 1.83333333333333
-0.311149568573757 1.14932365108994 1.83333333333333
-0.596051960366639 1.03053350803051 1.83333333333333
-0.841704132293266 0.841704132293266 1.83333333333333
-1.03053350803051 0.596051960366639 1.83333333333333
-1.14932365108994 0.311149568573757 1.83333333333333
-1.18984796512177 0.00823999006838253 1.83333333333333
-1.14930137740882 -0.311149568573757 1.83333333333333
-1.03043496319294 -0.596051960366639 1.83333333333333
-0.841346586260039 -0.841704132293265 1.83333333333333
-0.59492187502413 -1.03053350803051 1.83333333333333
-0.307954223196214 -1.14932365108994 1.83333333333333
0 -1.18984796512177 1.83333333333333
0.307954223196214 -1.14930137740882 1.83333333333333
0.59492187502413 -1.03043496319294 1.83333333333333
0.841346586260038 -0.841346586260038 1.83333333333333
1.03043496319294 -0.59492187502413 1.83333333333333
1.14930137740882 -0.307954223196215 1.83333333333333
1.50000531387643 0 2
1.44891753781529 0.388228567653796 2
1.29916240014352 0.75000000003042 2
1.06111092186676 1.0606601744053 2
0.751424664414936 1.29903816764967 2
0.392256842850698 1.44888945805971 2
0.010387906061257 1.50000531387643 2
-0.392256842850698 1.44891753781529 2
-0.751424664414935 1.29916240014352 2
-1.06111092186676 1.06111092186676 2
-1.29916240014352 0.751424664414935 2
-1.44891753781529 0.392256842850698 2
-1.50000531387643 0.010387906061257 2
-1.44888945805971 -0.392256842850698 2
-1.29903816764967 -0.751424664414935 2
-1.0606601744053 -1.06111092186676 2
-0.75000000003042 -1.29916240014352 2
-0.388228567653796 -1.44891753781529 2
0 -1.50000531387643 2
0.388228567653796 -1.44888945805971 2
0.75000000003042 -1.29903816764967 2
1.0606601744053 -1.0606601744053 2
1.29903816764967 -0.75000000003042 2
1.44888945805971 -0.388228567653797 2
CELLS 288 1440
4 0 1 25 24
4 1 2 26 25
4 2 3 27 26
4 3 4 28 27
4 4 5 29 28
4 5 6 30 29
4 6 7 31 30
4 7 8 32 31
4 8 9 33 32
4 9 10 34 33
4 10 11 35 34
4 11 12 36 35
4 12 13 37 36
4 13 14 38 37
4 14 15 39 38
4 15 16 40 39
4 16 17 41 40
4 17 18 42 41
4 18 19 43 42
4 19 20 44 43
4 20 21 45 44
4 21 22 46 45
4 22 23 47 46
4 23 0 24 47
4 24 25 49 48
4 25 26 50 49
4 26 27 51 50
4 27 28 52 51
4 28 29 53 52
4 29 30 54 53
4 30 31 55 54
4 31 32 56 55
4 32 33 57 56
4 33 34 58 57
4 34 35 59 58
4 35 36 60 59
4 36 37 61 60
4 37 38 62 61
4 38 39 63 62
4 39 40 64 63
4 40 41 65 64
4 41 42 66 65
4 42 43 67 66
4 43 44 68 67
4 44 45 69 68
4 45 46 70 69
4 46 47 71 70
4 47 24 48 71
4 48 49 73 72
4 49 50 74 73
4 50 51 75 74
4 51 52 76 75
4 52 53 77 76
4 53 54 78 77
4 54 55 79 78
4 55 56 80 79
4 56 57 81 80
4 57 58 82 81
4 58 59 83 82
4 59 60 84 83
4 60 61 85 84
4 61 62 86 85
4 62 63 87 86
4 63 64 88 87
4 64 65 89 88
4 65 66 90 89
4 66 67 91 90
4 67 68 92 91
4 68 69 93 92
4 69 70 94 93
4 70 71 95 94
4 71 48 72 95
4 72 73 97 96
4 73 74 98 97
4 74 75 99 98
4 75 76 100 99
4 76 77 101 100
4 77 78 102 101
4 78 79 103 102
4 79 80 104 103
4 80 81 105 104
4 81 82 106 105
4 82 83 107 106
4 83 84 108 107
4 84 85 109 108
4 85 86 110 109
4 86 87 111 110
4 87 88 112 111
4 88 89 113 112
4 89 90 114 113
4 90 91 115 114
4 91 92 116 115
4 92 93 117 116
4 93 94 118 117
4 94 95 119 118
4 95 72 96 119
4 96 97 121 120
4 97 98 122 121
4 98 99 123 122
4 99 100 124 123
4 100 101 125 124
4 101 102 126 125
4 102 103 127 126
4 103 104 128 127
4 104 105 129 128
4 105 106 130 129
4 106 107 131 130
4 107 108 132 131
4 108 109 133 132
4 109 110 134 133
4 110 111 135 134
4 111 112 136 135
4 112 113 137 136
4 113 114 138 137
4 114 115 139 138
4 115 116 140 139
4 116 117 141 140
4 117 118 142 141
4 118 119 143 142
4 119 96 120 143
4 120 121 145 144
4 121 122 146 145
4 122 123 147 146
4 123 124 148 147
4 124 125 149 148
4 125 126 150 149
4 126 127 151 150
4 127 128 152 151
4 128 129 153 152
4 129 130 154 153
4 130 131 155 154
4 131 132 156 155
4 132 133 157 156
4 133 134 158 157
4 134 135 159 158
4 135 136 160 159
4 136 137 161 160
4 137 138 162 161
4 138 139 163 162
4 139 140 164 163
4 140 141 165 164
4 141 142 166 165
4 142 143 167 166
4 143 120 144 167
4 144 145 169 168
4 145 146 170 169
4 146 147 171 170
4 147 148 172 171
4 148 149 173 172
4 149 150 174 173
4 150 151 175 174
4 151 152 176 175
4 152 153 177 176
4 153 154 178 177
4 154 155 179 178
4 155 156 180 179
4 156 157 181 180
4 157 158 182 181
4 158 159 183 182
4 159 160 184 183
4 160 161 185 184
4 161 162 186 185
4 162 163 187 186
4 163 164 188 187
4 164 165 189 188
4 165 166 190 189
4 166 167 191 190
4 167 144 168 191
4 168 169 193 192
4 169 170 194 193
4 170 171 195 194
4 171 172 196 195
4 172 173 197 196
4 173 174 198 197
4 174 175 199 198
4 175 176 200 199
4 176 177 201 200
4 177 178 202 201
4 178 179 203 202
4 179 180 204 203
4 180 181 205 204
4 181 182 206 205
4 182 183 207 206
4 183 184 208 207
4 184 185 209 208
4 185 186 210 209
4 186 187 211 210
4 187 188 212 211
4 188 189 213 212
4 189 190 214 213
4 190 191 215 214
4 191 168 192 215
4 192 193 217 216
4 193 194 218 217
4 194 195 219 218
4 195 196 220 219
4 196 197 221 220
4 197 198 222 221
4 198 199 223 222
4 199 200 224 223
4 200 201 225 224
4 201 202 226 225
4 202 203 227 226
4 203 204 228 227
4 204 205 229 228
4 205 206 230 229
4 206 207 231 230
4 207 208 232 231
4 208 209 233 232
4 209 210 234 233
4 210 211 235 234
4 211 212 236 235
4 212 213 237 236
4 213 214 238 237
4 214 215 239 238
4 215 192 216 239
4 216 217 241 240
4 217 218 242 241
4 218 219 243 242
4 219 220 244 243
4 220 221 245 244
4 221 222 246 245
4 222 223 247 246
4 223 224 248 247
4 224 225 249 248
4 225 226 250 249
4 226 227 251 250
4 227 228 252 251
4 228 229 253 252
4 229 230 254 253
4 230 231 255 254
4 231 232 256 255
4 232 233 257 256
4 233 234 258 257
4 234 235 259 258
4 235 236 260 259
4 236 237 261 260
4 237 238 262 261
4 238 239 263 262
4 239 216 240 263
4 240 241 265 264
4 241 242 266 265
4 242 243 267 266
4 243 244 268 267
4 244 245 269 268
4 245 246 270 269
4 246 247 271 270
4 247 248 272 271
4 248 249 273 272
4 249 250 274 273
4 250 251 275 274
4 251 252 276 275
4 252 253 277 276
4 253 254 278 277
4 254 255 279 278
4 255 256 280 279
4 256 257 281 280
4 257 258 282 281
4 258 259 283 282
4 259 260 284 283
4 260 261 285 284
4 261 262 286 285
4 262 263 287 286
4 263 240 264 287
4 264 265 289 288
4 265 266 290 289
4 266 267 291 290
4 267 268 292 291
4 268 269 293 292
4 269 270 294 293
4 270 271 295 294
4 271 272 296 295
4 272 273 297 296
4 273 274 298 297
4 274 275 299 298
4 275 276 300 299
4 276 277 301 300
4 277 278 302 301
4 278 279 303 302
4 279 280 304 303
4 280 281 305 304
4 281 282 306 305
4 282 283 307 306
4 283 284 308 307
4 284 285 309 308
4 285 286 310 309
4 286 287 311 310
4 287 264 288 311
CELL_TYPES 288
9
9
9
9
9
9
9
9
9
9
9
9
9
9
9
9
9
9
9
9
9
9
9
9
9
9
9
9
9
9
9
9
9
9
9
9
9
9
9
9
9
9
9
9
9
9
9
9
9
9
9
9
9
9
9
9
9
9
9
9
9
9
9
9
9
9
9
9
9
9
9
9
9
9
9
9
9
9
9
9
9
9
9
9
9
9
9
9
9
9
9
9
9
9
9
9
9
9
9
9
9
9
9
9
9
9
9
9
9
9
9
9
9
9
9
9
9
9
9
9
9
9
9
9
9
9
9
9
9
9
9
9
9
9
9
9
9
9
9
9
9
9
9
9
9
9
9
9
9
9
9
9
9
9
9
9
9
9
9
9
9
9
9
9
9
9
9
9
9
9
9
9
9
9
9
9
9
9
9
9
9
9
9
9
9
9
9
9
9
9
9
9
9
9
9
9
9
9
9
9
9
9
9
9
9
9
9
9
9
9
9
9
9
9
9
9
9
9
9
9
9
9
9
9
9
9
9
9
9
9
9
9
9
9
9
9
9
9
9
9
9
9
9
9
9
9
9
9
9
9
9
9
9
9
9
9
9
9
9
9
9
9
9
9
9
9
9
9
9
9
9
9
9
9
9
9
9
9
9
9
9
9
9
9
9
9
9
9
POINT_DATA 312
VECTORS velocity double
-0.0833336285486905 2.14286473410918 0.5
-0.635107658272939 2.04831394312044 0.5
-1.14360426036889 1.81427961925096 0.5
-1.57417942734938 1.4569471802792 0.5
-1.89751462561782 1.0012950192154 0.5
-2.09163412976748 0.479873059577044 0.5
-2.14344184000148 -0.0684937627468948 0.5
-2.04809015005394 -0.640862337125655 0.5
-1.8142004712296 -1.14563949520391 0.5
-1.45692213875356 -1.57482335229431 0.5
-1.00128811741019 -1.89769210060903 0.5
-0.479871499590624 -2.09167424370402 0.5
0.0684937627468948 -2.14344184000148 0.5
0.640860777139235 -2.04805003611741 0.5
1.1456325933987 -1.81402299623838 0.5
1.57479831076868 -1.45627821380863 0.5
1.89761295258767 -0.999252882575167 0.5
2.09145045063752 -0.474116820737906 0.5
2.14286473410918 0.0833336285486905 0.5
2.0482738291839 0.635106098286517 0.5
1.81410214425975 1.14359735856368 0.5
1.45630325533426 1.57415438582374 0.5
0.999259784380381 1.89743547759646 0.5
0.474118380724329 2.09141033670099 0.5
-0.0836224799474728 2.13809220686172 0.55
-0.634151455287134 2.04362920052096 0.55
-1.14146818089666 1.81000168340414 0.55
-1.57100908777484 1.45336682365478 0.55
-1.89352620975699 0.998654079453068 0.55
-2.08709977217789 0.478346018175285 0.55
-2.13867131312106 -0.0688156650717389 0.55
-2.04340463174193 -0.639893317483163 0.55
-1.80992226103955 -1.14349888291467 0.55
-1.4533416953301 -1.5716515785885 0.55
-0.998647153724785 -1.89370328948096 0.55
-0.478344452781633 -2.08713979677381 0.55
0.0688156650717389 -2.13867131312106 0.55
0.639891752089511 -2.04336460714601 0.55
1.14349195718639 -1.80974518131558 0.55
1.57162645026381 -1.45269920451644 0.55
1.89362386711637 -0.996616451706768 0.55
2.08691522799478 -0.472602590585602 0.55
2.13809220686172 0.0836224799474728 0.55
2.04358917592504 0.634149889893481 0.55
1.80982460368016 1.14146125516838 0.55
1.45272433284113 1.57098395945015 0.55
0.99662337743505 1.8934467873924 0.55
0.472604155979257 2.08687520339886 0.55
-0.0856167416596135 2.10527061596692 0.6
-0.627582972922206 2.01140930930629 0.6
-1.12678468402109 1.78057760558302 0.6
-1.54921155070183 1.428738522538 0.6
-1.86610099900808 0.980485093815533 0.6
-2.05591815314726 0.467836749809876 0.6
-2.10586353297955 -0.0710372243806563 0.6
-2.01117938492291 -0.633236692496805 0.6
-1.78049628912271 -1.12878421298181 0.6
-1.42871279494316 -1.54984417871791 0.6
-0.980478002919763 -1.86627536040296 0.6
-0.467835147084102 -2.05595756333052 0.6
0.0710372243806563 -2.10586353297955 0.6
0.633235089771031 -2.01113997473965 0.6
1.12877712208604 -1.78032192772784 0.6
1.54981845112308 -1.42808016692709 0.6
1.86619404394265 -0.978478473959041 0.6
2.05572763894714 -0.462181427509501 0.6
2.10527061596692 0.0856167416596135 0.6
2.01136989912303 0.627581370196431 0.6
1.78040324418814 1.12677759312532 0.6
1.42810589452192 1.549185823107 0.6
0.978485564854808 1.86601968254778 0.6
0.462183030235278 2.05568822876388 0.6
-0.0907963415530509 2.02105979132824 0.65
-0.610790875938991 1.92872599599189 0.65
-1.0891654992554 1.70505238182023 0.65
-1.49332979004751 1.365504865822 0.65
-1.7957672506892 0.933814200085139 0.65
-1.9759314747921 0.440812218953761 0.65
-2.02168857834522 -0.0768000049652519 0.65
-1.92848216175526 -0.616218446730606 0.65
-1.70496614591636 -1.09108504705769 0.65
-1.36547758177168 -1.49393711294295 0.65
-0.933806680207815 -1.79593463762828 0.65
-0.440810519267064 -1.97596930856803 0.65
0.0768000049652519 -2.02168857834522 0.65
0.616216747043909 -1.92844432797933 0.65
1.09107752718037 -1.70479875897728 0.65
1.49390982889263 -1.36487025887625 0.65
1.79584840172441 -0.931887132405522 0.65
1.97572547433141 -0.435382948475448 0.65
2.02105979132824 0.0907963415530509 0.65
1.92868816221596 0.610789176252293 0.65
1.70488499488115 1.08915797937808 0.65
1.36489754292657 1.49330250599719 0.65
0.931894652282844 1.79568101478533 0.65
0.435384648162147 1.97568764055547 0.65
-0.100000354258429 1.87500664234554 0.7
-0.581880212088264 1.78526501775885 0.7
-1.02411082671426 1.57395300017737 0.7
-1.39656594613108 1.25567797403976 0.7
-1.67389268718975 0.852678286008692 0.7
-1.83726227876469 0.393728423026058 0.7
-1.87569916941629 -0.0870154716818573 0.7
-1.78499646607906 -0.586915556084391 0.7
-1.57385802255174 -1.0258916571949 0.7
-1.255647924209 -1.3971293804579 0.7
-0.852670003842434 -1.67404797780706 0.7
-0.393726551042354 -1.83729737845915 0.7
0.0870154716818573 -1.87569916941629 0.7
0.586913684100687 -1.78496136638459 0.7
1.02588337502865 -1.57370273193443 0.7
1.39709933062713 -1.25508448988218 0.7
1.67395300018143 -0.850889173361791 0.7
1.83702882677936 -0.388691207046225 0.7
1.87500664234554 0.100000354258429 0.7
1.78522991806439 0.581878340104559 0.7
1.57379770956006 1.024102544548 0.7
1.25511453971294 1.39653589630031 0.7
0.850897455528047 1.67379770956412 0.7
0.388693079029932 1.83699372708489 0.7
-0.113053182239379 1.67539860537681 0.75
-0.542826303170116 1.58907700199561 0.75
-0.935612283958325 1.3945450508236 0.75
-1.26465588211886 1.10524458501429 0.75
-1.50756644860997 0.741380997664206 0.75
-1.6478696700947 0.328922170442042 0.75
-1.6761815264946 -0.101450634457172 0.75
-1.58877339685119 -0.547325598328959 0.75
-1.39443767597579 -0.937203532136493 0.75
-1.1052106128447 -1.26515933478087 0.75
-0.741371634444864 -1.50770520741637 0.75
-0.32892005411239 -1.64790103317248 0.75
0.101450634457172 -1.6761815264946 0.75
0.547323481999308 -1.58874203377341 0.75
0.937194168917151 -1.3942989171694 0.75
1.26512536261128 -1.10470716018269 0.75
1.50759783256856 -0.739780386266697 0.75
1.64759742802807 -0.324420758953546 0.75
1.67539860537681 0.113053182239379 0.75
1.58904563891783 0.542824186840464 0.75
1.39440629201721 0.935602920738985 0.75
1.10474113235227 1.26462190994927 0.75
0.739789749486038 1.50745907376216 0.75
0.3244228752832 1.64756606495029 0.75
-0.128788335029794 1.44578825433873 0.8
-0.498598220609316 1.36321426859162 0.8
-0.834435812771349 1.18781078363335 0.8
-1.11342854285834 0.931690732401335 0.8
-1.31660123993308 0.612731156734751 0.8
-1.43019857739614 0.253679284740951 0.8
-1.44668014526318 -0.118775895452679 0.8
-1.36286840657976 -0.502480895497896 0.8
-1.18768846396397 -0.835808983262449 0.8
-0.931652031861716 -1.11386299824288 0.8
-0.612720490308511 -1.31672098209583 0.8
-0.253676873852847 -1.43022564222079 0.8
0.118775895452679 -1.44668014526318 0.8
0.502478484609791 -1.36284134175511 0.8
0.835798316836209 -1.18756872180123 0.8
1.11382429770326 -0.93121757647718 0.8
1.31659866242645 -0.611347319817412 0.8
1.42987978020893 -0.249794198964266 0.8
1.44578825433873 0.128788335029794 0.8
1.36318720376697 0.498595809721211 0.8
1.1876910414706 0.83442514634511 0.8
0.931256277016799 1.11338984231872 0.8
0.611357986243652 1.3164789202637 0.8
0.249796609852372 1.42985271538429 0.8
-0.145539144527365 1.21365790250432 0.85
-0.454698981227397 1.1346544912103 0.85
-0.732879011203773 0.978386104098567 0.85
-0.961137780658889 0.755636043988982 0.85
-1.12396244537394 0.481939345006391 0.85
-1.21035895618329 0.176796363614924 0.85
-1.21466579690816 -0.137134264781215 0.85
-1.13426364477752 -0.457958268365218 0.85
-0.978247874964414 -0.734031710579361 0.85
-0.755592309877289 -0.961502481512659 0.85
-0.481927291255174 -1.12406296218313 0.85
-0.176793639155506 -1.21038167558097 0.85
0.137134264781215 -1.21466579690816 0.85
0.457955543905801 -1.13424092537984 0.85
0.734019656828144 -0.978147358155233 0.85
0.961458747400965 -0.755227609023519 0.85
1.12392473304897 -0.480774591879587 0.85
1.20999082914819 -0.173534352017684 0.85
1.21365790250432 0.145539144527365 0.85
1.13463177181261 0.454696256767978 0.85
0.978285587289385 0.732866957452557 0.85
0.755271343135212 0.961094046547195 0.85
0.480786645630803 1.12382421623979 0.85
0.173537076477103 1.20996810975051 0.85
-0.161765278947458 1.00000354258429 0.9
-0.415074858004179 0.924077238502428 0.9
-0.640105749055365 0.78522591381789 0.9
-0.821540313726419 0.593022360475306 0.9
-0.947061438321 0.360857424863424 0.9
-1.00822851391586 0.105251777207751 0.9
-1.00112380696344 -0.154840008239953 0.9
-0.923642816667468 -0.417760374802114 0.9
-0.785072273541128 -0.641055525311709 0.9
-0.592973750454952 -0.821840812034057 0.9
-0.360844027241538 -0.947144259983565 0.9
-0.105248748998817 -1.00824723375291 0.9
0.154840008239953 -1.00112380696344 0.9
0.41775734659318 -0.923624096830419 0.9
0.641042127689823 -0.784989451878563 0.9
0.821792202013703 -0.592673252147315 0.9
0.946990619706804 -0.359894250985195 0.9
1.00781281191795 -0.102563232200882 0.9
1.00000354258429 0.161765278947458 0.9
0.924058518665379 0.415071829795244 0.9
0.785143092155324 0.64009235143348 0.9
0.592721862167668 0.821491703706066 0.9
0.35990764860708 0.946907798044238 0.9
0.102566260409817 1.0077940920809 0.9
-0.176437406651365 0.815635854614201 0.95
-0.381529576657825 0.742191405762165 0.95
-0.560629837712046 0.618208062965701 0.95
-0.70155226604525 0.452225053345831 0.95
-0.794744867969752 0.255792409098508 0.95
-0.833980359860862 0.0428668126355293 0.95
-0.816857727089606 -0.170788927569628 0.95
-0.74171758182138 -0.383719972686726 0.95
-0.618040487499783 -0.561404506536251 0.95
-0.452172034391553 -0.701797362370935 0.95
-0.255777796310917 -0.79481242004797 0.95
-0.0428635097677283 -0.833995628377062 0.95
0.170788927569628 -0.816857727089606 0.95
0.383716669818926 -0.74170231330518 0.95
0.561389893748661 -0.617972935421565 0.95
0.701744343416657 -0.451926938065868 0.95
0.794644844582052 -0.255003127486712 0.95
0.833521804436276 -0.0406731137388263 0.95
0.815635854614201 0.176437406651365 0.95
0.742176137245965 0.381526273790023 0.95
0.618140510887482 0.560615224924455 0.95
0.451979957020146 0.701499247090971 0.95
0.255017740274303 0.794577292503834 0.95
0.0406764166066282 0.833506535920077 0.95
-0.189086964270379 0.662985774089029 1
-0.354239702511351 0.591466407413029 1
-0.495260915445995 0.479672278265842 1
-0.602561098538809 0.335295101140421 1
-0.668883252973046 0.16836785635234 1
-0.689840059216829 -0.00927023555192724 1
-0.664295247864941 -0.184495624574796 1
-0.590958612993115 -0.356020155637053 1
-0.479492688593006 -0.495890601361803 1
-0.335238281028951 -0.602760323936137 1
-0.168352195911068 -0.668938162362592 1
0.00927377521654671 -0.689852470158519 1
0.184495624574796 -0.664295247864941 1
0.356016615972434 -0.590946202051425 1
0.495874940920531 -0.47943777920346 1
0.602703503824668 -0.335039055631623 1
0.668758572689755 -0.16772250999526 1
0.689344675738605 0.0110542283422495 1
0.662985774089029 0.189086964270379 1
0.591453996471339 0.354236162846731 1
0.479617368876296 0.495245255004723 1
0.335095875743092 0.602504278427339 1
0.167738170436532 0.668703663300209 1
-0.0110506886776292 0.689332264796915 1
-0.199659857807534 0.539630916740256 1.05
-0.3325260269604 0.46957636221797 1.05
-0.442740943321663 0.367547567013228 1.05
-0.522815666576201 0.240557147756815 1.05
-0.567351656068628 0.0974171246782772 1.05
-0.573453629809287 -0.0517405790178888 1.05
-0.541013610406686 -0.195922780865879 1.05
-0.469040174215445 -0.333975209718138 1.05
-0.367357935492723 -0.443253470137902 1.05
-0.240497150519986 -0.522977824178974 1.05
-0.0974005885754861 -0.567396349039995 1.05
0.0517443166046513 -0.573463731576329 1.05
0.195922780865879 -0.541013610406686 1.05
0.333971472131376 -0.469030072448404 1.05
0.443236934035111 -0.367313242521355 1.05
0.522917826942145 -0.240334992917214 1.05
0.56720671751949 -0.0968880617592469 1.05
0.572927543573804 0.0531934993623903 1.05
0.539630916740256 0.199659857807534 1.05
0.469566260450928 0.332522289373637 1.05
0.36750287404186 0.442724407218872 1.05
0.240394990154042 0.522755669339372 1.05
0.0969045978620376 0.567162024548123 1.05
-0.0531897617756271 0.572917441806763 1.05
-0.208334071371726 0.441178033493067 1.1
-0.315423419758141 0.372231582608135 1.1
-0.40102745754522 0.277939921606614 1.1
-0.459335391751027 0.164777534496022 1.1
-0.486434586033024 0.0405852865105661 1.1
-0.480624075315453 -0.0858649872907679 1.1
-0.442620798223798 -0.205278804883121 1.1
-0.371672099941899 -0.31660820658076 1.1
-0.277742051553209 -0.401446476481842 1.1
-0.164714930681931 -0.459467964533808 1.1
-0.0405680319975313 -0.486471125001803 1.1
0.0858688872568196 -0.480632334067093 1.1
0.205278804883121 -0.442620798223798 1.1
0.316604306614708 -0.37166384119026 1.1
0.401429221968808 -0.277705512584431 1.1
0.459405360719717 -0.16458235789915 1.1
0.486273254948397 -0.0401490130609093 1.1
0.480072851400856 0.0870536740794381 1.1
0.441178033493067 0.208334071371726 1.1
0.372223323856496 0.315419519792089 1.1
0.277903382637835 0.401010203032186 1.1
0.164644961713241 0.459272787936936 1.1
0.0401662675739438 0.486236715979619 1.1
-0.0870497741133858 0.480064592649217 1.1
SCALARS temperature double 1
LOOKUP_TABLE default
320
320
320
320
320
320
320
320
320
320
320
320
320
320
320
320
320
320
320
320
320
320
320
320
315
315
315
315
315
315
315
315
315
315
315
315
315
315
315
315
315
315
315
315
315
315
315
315
310
310
310
310
310
310
310
310
310
310
310
310
310
310
310
310
310
310
310
310
310
310
310
310
305
305
305
305
305
305
305
305
305
305
305
305
305
305
305
305
305
305
305
305
305
305
305
305
300
300
300
300
300
300
300
300
300
300
300
300
300
300
300
300
300
300
300
300
300
300
300
300
295
295
295
295
295
295
295
295
295
295
295
295
295
295
295
295
295
295
295
295
295
295
295
295
290
290
290
290
290
290
290
290
290
290
290
290
290
290
290
290
290
290
290
290
290
290
290
290
285
285
285
285
285
285
285
285
285
285
285
285
285
285
285
285
285
285
285
285
285
285
285
285
280
280
280
280
280
280
280
280
280
280
280
280
280
280
280
280
280
280
280
280
280
280
280
280
275
275
275
275
275
275
275
275
275
275
275
275
275
275
275
275
275
275
275
275
275
275
275
275
270
270
270
270
270
270
270
270
270
270
270
270
270
270
270
270
270
270
270
270
270
270
270
270
265
265
265
265
265
265
265
265
265
265
265
265
265
265
265
265
265
265
265
265
265
265
265
265
260
260
260
260
260
260
260
260
260
260
260
260
260
260
260
260
260
260
260
260
260
260
260
260
