# vtk DataFile Version 3.0
GenerateSurfaceTangents demo: cylinder (39 points, 48 triangles), texture coordinates + normals
ASCII
DATASET POLYDATA
POINTS 39 float
1.000000 0.000000 0.000000
0.866025 0.500000 0.000000
0.500000 0.866025 0.000000
0.000000 1.000000 0.000000
-0.500000 0.866025 0.000000
-0.866025 0.500000 0.000000
-1.000000 0.000000 0.000000
-0.866025 -0.500000 0.000000
-0.500000 -0.866025 0.000000
-0.000000 -1.000000 0.000000
0.500000 -0.866025 0.000000
0.866025 -0.500000 0.000000
1.000000 -0.000000 0.000000
1.000000 0.000000 1.000000
0.866025 0.500000 1.000000
0.500000 0.866025 1.000000
0.000000 1.000000 1.000000
-0.500000 0.866025 1.000000
-0.866025 0.500000 1.000000
-1.000000 0.000000 1.000000
-0.866025 -0.500000 1.000000
-0.500000 -0.866025 1.000000
-0.000000 -1.000000 1.000000
0.500000 -0.866025 1.000000
0.866025 -0.500000 1.000000
1.000000 -0.000000 1.000000
1.000000 0.000000 2.000000
0.866025 0.500000 2.000000
0.500000 0.866025 2.000000
0.000000 1.000000 2.000000
-0.500000 0.866025 2.000000
-0.866025 0.500000 2.000000
-1.000000 0.000000 2.000000
-0.866025 -0.500000 2.000000
-0.500000 -0.866025 2.000000
-0.000000 -1.000000 2.000000
0.500000 -0.866025 2.000000
0.866025 -0.500000 2.000000
1.000000 -0.000000 2.000000
POLYGONS 48 192
3 0 1 14
3 0 14 13
3 1 2 15
3 1 15 14
3 2 3 16
3 2 16 15
3 3 4 17
3 3 17 16
3 4 5 18
3 4 18 17
3 5 6 19
3 5 19 18
3 6 7 20
3 6 20 19
3 7 8 21
3 7 21 20
3 8 9 22
3 8 22 21
3 9 10 23
3 9 23 22
3 10 11 24
3 10 24 23
3 11 12 25
3 11 25 24
3 13 14 27
3 13 27 26
3 14 15 28
3 14 28 27
3 15 16 29
3 15 29 28
3 16 17 30
3 16 30 29
3 17 18 31
3 17 31 30
3 18 19 32
3 18 32 31
3 19 20 33
3 19 33 32
3 20 21 34
3 20 34 33
3 21 22 35
3 21 35 34
3 22 23 36
3 22 36 35
3 23 24 37
3 23 37 36
3 24 25 38
3 24 38 37

POINT_DATA 39
TEXTURE_COORDINATES TCoords 2 float
0.000000 0.000000
0.083333 0.000000
0.166667 0.000000
0.250000 0.000000
0.333333 0.000000
0.416667 0.000000
0.500000 0.000000
0.583333 0.000000
0.666667 0.000000
0.750000 0.000000
0.833333 0.000000
0.916667 0.000000
1.000000 0.000000
0.000000 0.500000
0.083333 0.500000
0.166667 0.500000
0.250000 0.500000
0.333333 0.500000
0.416667 0.500000
0.500000 0.500000
0.583333 0.500000
0.666667 0.500000
0.750000 0.500000
0.833333 0.500000
0.916667 0.500000
1.000000 0.500000
0.000000 1.000000
0.083333 1.000000
0.166667 1.000000
0.250000 1.000000
0.333333 1.000000
0.416667 1.000000
0.500000 1.000000
0.583333 1.000000
0.666667 1.000000
0.750000 1.000000
0.833333 1.000000
0.916667 1.000000
1.000000 1.000000
NORMALS Normals float
1.000000 0.000000 0.000000
0.866025 0.500000 0.000000
0.500000 0.866025 0.000000
0.000000 1.000000 0.000000
-0.500000 0.866025 0.000000
-0.866025 0.500000 0.000000
-1.000000 0.000000 0.000000
-0.866025 -0.500000 0.000000
-0.500000 -0.866025 0.000000
-0.000000 -1.000000 0.000000
0.500000 -0.866025 0.000000
0.866025 -0.500000 0.000000
1.000000 -0.000000 0.000000
1.000000 0.000000 0.000000
0.866025 0.500000 0.000000
0.500000 0.866025 0.000000
0.000000 1.000000 0.000000
-0.500000 0.866025 0.000000
-0.866025 0.500000 0.000000
-1.000000 0.000000 0.000000
-0.866025 -0.500000 0.000000
-0.500000 -0.866025 0.000000
-0.000000 -1.000000 0.000000
0.500000 -0.866025 0.000000
0.866025 -0.500000 0.000000
1.000000 -0.000000 0.000000
1.000000 0.000000 0.000000
0.866025 0.500000 0.000000
0.500000 0.866025 0.000000
0.000000 1.000000 0.000000
-0.500000 0.866025 0.000000
-0.866025 0.500000 0.000000
-1.000000 0.000000 0.000000
-0.866025 -0.500000 0.000000
-0.500000 -0.866025 0.000000
-0.000000 -1.000000 0.000000
0.500000 -0.866025 0.000000
0.866025 -0.500000 0.000000
1.000000 -0.000000 0.000000
