# vtk DataFile Version 3.0
SurfaceNormalsFilter pyramid-roof test model: 9 points, 1 quad + 4 side quads + 4 roof triangles
ASCII
DATASET POLYDATA
POINTS 9 float
0.0 0.0 0.0
1.0 0.0 0.0
1.0 1.0 0.0
0.0 1.0 0.0
0.0 0.0 1.0
1.0 0.0 1.0
1.0 1.0 1.0
0.0 1.0 1.0
0.5 0.5 1.5
POLYGONS 9 41
4 0 3 2 1
4 0 1 5 4
4 1 2 6 5
4 3 7 6 2
4 0 4 7 3
3 4 5 8
3 5 6 8
3 6 7 8
3 7 4 8
POINT_DATA 9
SCALARS PointId float 1
LOOKUP_TABLE default
0.0
1.0
2.0
3.0
4.0
5.0
6.0
7.0
8.0
CELL_DATA 9
SCALARS FaceId float 1
LOOKUP_TABLE default
0.0
1.0
2.0
3.0
4.0
5.0
6.0
7.0
8.0