# vtk DataFile Version 3.0
TensorPrincipalInvariants demo: 8x8 grid with a spatially varying symmetric tensor field
ASCII
DATASET UNSTRUCTURED_GRID
POINTS 64 float
-1 -1 0
-0.714286 -1 0
-0.428571 -1 0
-0.142857 -1 0
0.142857 -1 0
0.428571 -1 0
0.714286 -1 0
1 -1 0
-1 -0.714286 0
-0.714286 -0.714286 0
-0.428571 -0.714286 0
-0.142857 -0.714286 0
0.142857 -0.714286 0
0.428571 -0.714286 0
0.714286 -0.714286 0
1 -0.714286 0
-1 -0.428571 0
-0.714286 -0.428571 0
-0.428571 -0.428571 0
-0.142857 -0.428571 0
0.142857 -0.428571 0
0.428571 -0.428571 0
0.714286 -0.428571 0
1 -0.428571 0
-1 -0.142857 0
-0.714286 -0.142857 0
-0.428571 -0.142857 0
-0.142857 -0.142857 0
0.142857 -0.142857 0
0.428571 -0.142857 0
0.714286 -0.142857 0
1 -0.142857 0
-1 0.142857 0
-0.714286 0.142857 0
-0.428571 0.142857 0
-0.142857 0.142857 0
0.142857 0.142857 0
0.428571 0.142857 0
0.714286 0.142857 0
1 0.142857 0
-1 0.428571 0
-0.714286 0.428571 0
-0.428571 0.428571 0
-0.142857 0.428571 0
0.142857 0.428571 0
0.428571 0.428571 0
0.714286 0.428571 0
1 0.428571 0
-1 0.714286 0
-0.714286 0.714286 0
-0.428571 0.714286 0
-0.142857 0.714286 0
0.142857 0.714286 0
0.428571 0.714286 0
0.714286 0.714286 0
1 0.714286 0
-1 1 0
-0.714286 1 0
-0.428571 1 0
-0.142857 1 0
0.142857 1 0
0.428571 1 0
0.714286 1 0
1 1 0
CELLS 49 245
4 0 1 9 8
4 1 2 10 9
4 2 3 11 10
4 3 4 12 11
4 4 5 13 12
4 5 6 14 13
4 6 7 15 14
4 8 9 17 16
4 9 10 18 17
4 10 11 19 18
4 11 12 20 19
4 12 13 21 20
4 13 14 22 21
4 14 15 23 22
4 16 17 25 24
4 17 18 26 25
4 18 19 27 26
4 19 20 28 27
4 20 21 29 28
4 21 22 30 29
4 22 23 31 30
4 24 25 33 32
4 25 26 34 33
4 26 27 35 34
4 27 28 36 35
4 28 29 37 36
4 29 30 38 37
4 30 31 39 38
4 32 33 41 40
4 33 34 42 41
4 34 35 43 42
4 35 36 44 43
4 36 37 45 44
4 37 38 46 45
4 38 39 47 46
4 40 41 49 48
4 41 42 50 49
4 42 43 51 50
4 43 44 52 51
4 44 45 53 52
4 45 46 54 53
4 46 47 55 54
4 48 49 57 56
4 49 50 58 57
4 50 51 59 58
4 51 52 60 59
4 52 53 61 60
4 53 54 62 61
4 54 55 63 62
CELL_TYPES 49
9
9
9
9
9
9
9
9
9
9
9
9
9
9
9
9
9
9
9
9
9
9
9
9
9
9
9
9
9
9
9
9
9
9
9
9
9
9
9
9
9
9
9
9
9
9
9
9
9
POINT_DATA 64
SCALARS stress float 6
LOOKUP_TABLE default
2 0 0.5 0.8 0 0
2.28571 0 0.5 0.571429 0 0
2.57143 0 0.5 0.342857 0 0
2.85714 0 0.5 0.114286 0 0
3.14286 0 0.5 -0.114286 0 0
3.42857 0 0.5 -0.342857 0 0
3.71429 0 0.5 -0.571429 0 0
4 0 0.5 -0.8 0 0
2 0.285714 0.5 0.571429 0 0
2.28571 0.285714 0.5 0.408163 0 0
2.57143 0.285714 0.5 0.244898 0 0
2.85714 0.285714 0.5 0.0816327 0 0
3.14286 0.285714 0.5 -0.0816327 0 0
3.42857 0.285714 0.5 -0.244898 0 0
3.71429 0.285714 0.5 -0.408163 0 0
4 0.285714 0.5 -0.571429 0 0
2 0.571429 0.5 0.342857 0 0
2.28571 0.571429 0.5 0.244898 0 0
2.57143 0.571429 0.5 0.146939 0 0
2.85714 0.571429 0.5 0.0489796 0 0
3.14286 0.571429 0.5 -0.0489796 0 0
3.42857 0.571429 0.5 -0.146939 0 0
3.71429 0.571429 0.5 -0.244898 0 0
4 0.571429 0.5 -0.342857 0 0
2 0.857143 0.5 0.114286 0 0
2.28571 0.857143 0.5 0.0816327 0 0
2.57143 0.857143 0.5 0.0489796 0 0
2.85714 0.857143 0.5 0.0163265 0 0
3.14286 0.857143 0.5 -0.0163265 0 0
3.42857 0.857143 0.5 -0.0489796 0 0
3.71429 0.857143 0.5 -0.0816327 0 0
4 0.857143 0.5 -0.114286 0 0
2 1.14286 0.5 -0.114286 0 0
2.28571 1.14286 0.5 -0.0816327 0 0
2.57143 1.14286 0.5 -0.0489796 0 0
2.85714 1.14286 0.5 -0.0163265 0 0
3.14286 1.14286 0.5 0.0163265 0 0
3.42857 1.14286 0.5 0.0489796 0 0
3.71429 1.14286 0.5 0.0816327 0 0
4 1.14286 0.5 0.114286 0 0
2 1.42857 0.5 -0.342857 0 0
2.28571 1.42857 0.5 -0.244898 0 0
2.57143 1.42857 0.5 -0.146939 0 0
2.85714 1.42857 0.5 -0.0489796 0 0
3.14286 1.42857 0.5 0.0489796 0 0
3.42857 1.42857 0.5 0.146939 0 0
3.71429 1.42857 0.5 0.244898 0 0
4 1.42857 0.5 0.342857 0 0
2 1.71429 0.5 -0.571429 0 0
2.28571 1.71429 0.5 -0.408163 0 0
2.57143 1.71429 0.5 -0.244898 0 0
2.85714 1.71429 0.5 -0.0816327 0 0
3.14286 1.71429 0.5 0.0816327 0 0
3.42857 1.71429 0.5 0.244898 0 0
3.71429 1.71429 0.5 0.408163 0 0
4 1.71429 0.5 0.571429 0 0
2 2 0.5 -0.8 0 0
2.28571 2 0.5 -0.571429 0 0
2.57143 2 0.5 -0.342857 0 0
2.85714 2 0.5 -0.114286 0 0
3.14286 2 0.5 0.114286 0 0
3.42857 2 0.5 0.342857 0 0
3.71429 2 0.5 0.571429 0 0
4 2 0.5 0.8 0 0
