# vtk DataFile Version 3.0
TextureMapToSphere demo: UV sphere (18 points, 32 triangles)
ASCII
DATASET POLYDATA
POINTS 18 float
0.000000 0.000000 1.000000
0.866025 0.000000 0.500000
0.612372 0.612372 0.500000
0.000000 0.866025 0.500000
-0.612372 0.612372 0.500000
-0.866025 0.000000 0.500000
-0.612372 -0.612372 0.500000
0.000000 -0.866025 0.500000
0.612372 -0.612372 0.500000
0.866025 0.000000 -0.500000
0.612372 0.612372 -0.500000
0.000000 0.866025 -0.500000
-0.612372 0.612372 -0.500000
-0.866025 0.000000 -0.500000
-0.612372 -0.612372 -0.500000
0.000000 -0.866025 -0.500000
0.612372 -0.612372 -0.500000
0.000000 0.000000 -1.000000
POLYGONS 32 128
3 0 1 2
3 0 2 3
3 0 3 4
3 0 4 5
3 0 5 6
3 0 6 7
3 0 7 8
3 0 8 1
3 1 2 10
3 1 10 9
3 2 3 11
3 2 11 10
3 3 4 12
3 3 12 11
3 4 5 13
3 4 13 12
3 5 6 14
3 5 14 13
3 6 7 15
3 6 15 14
3 7 8 16
3 7 16 15
3 8 1 9
3 8 9 16
3 17 10 9
3 17 11 10
3 17 12 11
3 17 13 12
3 17 14 13
3 17 15 14
3 17 16 15
3 17 9 16
