# vtk DataFile Version 3.0
TextureMapToCylinder test tube r=0.5 z=-1/0/+1 24pts 16quads
ASCII
DATASET UNSTRUCTURED_GRID
POINTS 24 float
0.5 0 -1
0.353553391 0.353553391 -1
3.061617e-17 0.5 -1
-0.353553391 0.353553391 -1
-0.5 6.123234e-17 -1
-0.353553391 -0.353553391 -1
-9.18485099e-17 -0.5 -1
0.353553391 -0.353553391 -1
0.5 0 0
0.353553391 0.353553391 0
3.061617e-17 0.5 0
-0.353553391 0.353553391 0
-0.5 6.123234e-17 0
-0.353553391 -0.353553391 0
-9.18485099e-17 -0.5 0
0.353553391 -0.353553391 0
0.5 0 1
0.353553391 0.353553391 1
3.061617e-17 0.5 1
-0.353553391 0.353553391 1
-0.5 6.123234e-17 1
-0.353553391 -0.353553391 1
-9.18485099e-17 -0.5 1
0.353553391 -0.353553391 1
CELLS 16 80
4 0 1 9 8
4 1 2 10 9
4 2 3 11 10
4 3 4 12 11
4 4 5 13 12
4 5 6 14 13
4 6 7 15 14
4 7 0 8 15
4 8 9 17 16
4 9 10 18 17
4 10 11 19 18
4 11 12 20 19
4 12 13 21 20
4 13 14 22 21
4 14 15 23 22
4 15 8 16 23
CELL_TYPES 16
9
9
9
9
9
9
9
9
9
9
9
9
9
9
9
9
POINT_DATA 24
SCALARS p_val float 1
LOOKUP_TABLE default
0
1
2
3
4
5
6
7
8
9
10
11
12
13
14
15
16
17
18
19
20
21
22
23
CELL_DATA 16
SCALARS c_val float 1
LOOKUP_TABLE default
0
1
2
3
4
5
6
7
8
9
10
11
12
13
14
15
