# vtk DataFile Version 3.0
iGameVis Threshold filter test model: smooth scalar field on a quad plane
ASCII
DATASET UNSTRUCTURED_GRID
POINTS 441 double
-1 -1 0.05
-0.9 -1 0.045
-0.8 -1 0.04
-0.7 -1 0.035
-0.6 -1 0.03
-0.5 -1 0.025
-0.4 -1 0.02
-0.3 -1 0.015
-0.2 -1 0.01
-0.1 -1 0.005
0 -1 0
0.1 -1 -0.005
0.2 -1 -0.01
0.3 -1 -0.015
0.4 -1 -0.02
0.5 -1 -0.025
0.6 -1 -0.03
0.7 -1 -0.035
0.8 -1 -0.04
0.9 -1 -0.045
1 -1 -0.05
-1 -0.9 0.045
-0.9 -0.9 0.0405
-0.8 -0.9 0.036
-0.7 -0.9 0.0315
-0.6 -0.9 0.027
-0.5 -0.9 0.0225
-0.4 -0.9 0.018
-0.3 -0.9 0.0135
-0.2 -0.9 0.009
-0.1 -0.9 0.0045
0 -0.9 0
0.1 -0.9 -0.0045
0.2 -0.9 -0.009
0.3 -0.9 -0.0135
0.4 -0.9 -0.018
0.5 -0.9 -0.0225
0.6 -0.9 -0.027
0.7 -0.9 -0.0315
0.8 -0.9 -0.036
0.9 -0.9 -0.0405
1 -0.9 -0.045
-1 -0.8 0.04
-0.9 -0.8 0.036
-0.8 -0.8 0.032
-0.7 -0.8 0.028
-0.6 -0.8 0.024
-0.5 -0.8 0.02
-0.4 -0.8 0.016
-0.3 -0.8 0.012
-0.2 -0.8 0.008
-0.1 -0.8 0.004
0 -0.8 0
0.1 -0.8 -0.004
0.2 -0.8 -0.008
0.3 -0.8 -0.012
0.4 -0.8 -0.016
0.5 -0.8 -0.02
0.6 -0.8 -0.024
0.7 -0.8 -0.028
0.8 -0.8 -0.032
0.9 -0.8 -0.036
1 -0.8 -0.04
-1 -0.7 0.035
-0.9 -0.7 0.0315
-0.8 -0.7 0.028
-0.7 -0.7 0.0245
-0.6 -0.7 0.021
-0.5 -0.7 0.0175
-0.4 -0.7 0.014
-0.3 -0.7 0.0105
-0.2 -0.7 0.007
-0.1 -0.7 0.0035
0 -0.7 0
0.1 -0.7 -0.0035
0.2 -0.7 -0.007
0.3 -0.7 -0.0105
0.4 -0.7 -0.014
0.5 -0.7 -0.0175
0.6 -0.7 -0.021
0.7 -0.7 -0.0245
0.8 -0.7 -0.028
0.9 -0.7 -0.0315
1 -0.7 -0.035
-1 -0.6 0.03
-0.9 -0.6 0.027
-0.8 -0.6 0.024
-0.7 -0.6 0.021
-0.6 -0.6 0.018
-0.5 -0.6 0.015
-0.4 -0.6 0.012
-0.3 -0.6 0.009
-0.2 -0.6 0.006
-0.1 -0.6 0.003
0 -0.6 0
0.1 -0.6 -0.003
0.2 -0.6 -0.006
0.3 -0.6 -0.009
0.4 -0.6 -0.012
0.5 -0.6 -0.015
0.6 -0.6 -0.018
0.7 -0.6 -0.021
0.8 -0.6 -0.024
0.9 -0.6 -0.027
1 -0.6 -0.03
-1 -0.5 0.025
-0.9 -0.5 0.0225
-0.8 -0.5 0.02
-0.7 -0.5 0.0175
-0.6 -0.5 0.015
-0.5 -0.5 0.0125
-0.4 -0.5 0.01
-0.3 -0.5 0.0075
-0.2 -0.5 0.005
-0.1 -0.5 0.0025
0 -0.5 0
0.1 -0.5 -0.0025
0.2 -0.5 -0.005
0.3 -0.5 -0.0075
0.4 -0.5 -0.01
0.5 -0.5 -0.0125
0.6 -0.5 -0.015
0.7 -0.5 -0.0175
0.8 -0.5 -0.02
0.9 -0.5 -0.0225
1 -0.5 -0.025
-1 -0.4 0.02
-0.9 -0.4 0.018
-0.8 -0.4 0.016
-0.7 -0.4 0.014
-0.6 -0.4 0.012
-0.5 -0.4 0.01
-0.4 -0.4 0.008
-0.3 -0.4 0.006
-0.2 -0.4 0.004
-0.1 -0.4 0.002
0 -0.4 0
0.1 -0.4 -0.002
0.2 -0.4 -0.004
0.3 -0.4 -0.006
0.4 -0.4 -0.008
0.5 -0.4 -0.01
0.6 -0.4 -0.012
0.7 -0.4 -0.014
0.8 -0.4 -0.016
0.9 -0.4 -0.018
1 -0.4 -0.02
-1 -0.3 0.015
-0.9 -0.3 0.0135
-0.8 -0.3 0.012
-0.7 -0.3 0.0105
-0.6 -0.3 0.009
-0.5 -0.3 0.0075
-0.4 -0.3 0.006
-0.3 -0.3 0.0045
-0.2 -0.3 0.003
-0.1 -0.3 0.0015
0 -0.3 0
0.1 -0.3 -0.0015
0.2 -0.3 -0.003
0.3 -0.3 -0.0045
0.4 -0.3 -0.006
0.5 -0.3 -0.0075
0.6 -0.3 -0.009
0.7 -0.3 -0.0105
0.8 -0.3 -0.012
0.9 -0.3 -0.0135
1 -0.3 -0.015
-1 -0.2 0.01
-0.9 -0.2 0.009
-0.8 -0.2 0.008
-0.7 -0.2 0.007
-0.6 -0.2 0.006
-0.5 -0.2 0.005
-0.4 -0.2 0.004
-0.3 -0.2 0.003
-0.2 -0.2 0.002
-0.1 -0.2 0.001
0 -0.2 0
0.1 -0.2 -0.001
0.2 -0.2 -0.002
0.3 -0.2 -0.003
0.4 -0.2 -0.004
0.5 -0.2 -0.005
0.6 -0.2 -0.006
0.7 -0.2 -0.007
0.8 -0.2 -0.008
0.9 -0.2 -0.009
1 -0.2 -0.01
-1 -0.1 0.005
-0.9 -0.1 0.0045
-0.8 -0.1 0.004
-0.7 -0.1 0.0035
-0.6 -0.1 0.003
-0.5 -0.1 0.0025
-0.4 -0.1 0.002
-0.3 -0.1 0.0015
-0.2 -0.1 0.001
-0.1 -0.1 0.0005
0 -0.1 0
0.1 -0.1 -0.0005
0.2 -0.1 -0.001
0.3 -0.1 -0.0015
0.4 -0.1 -0.002
0.5 -0.1 -0.0025
0.6 -0.1 -0.003
0.7 -0.1 -0.0035
0.8 -0.1 -0.004
0.9 -0.1 -0.0045
1 -0.1 -0.005
-1 0 0
-0.9 0 0
-0.8 0 0
-0.7 0 0
-0.6 0 0
-0.5 0 0
-0.4 0 0
-0.3 0 0
-0.2 0 0
-0.1 0 0
0 0 0
0.1 0 0
0.2 0 0
0.3 0 0
0.4 0 0
0.5 0 0
0.6 0 0
0.7 0 0
0.8 0 0
0.9 0 0
1 0 0
-1 0.1 -0.005
-0.9 0.1 -0.0045
-0.8 0.1 -0.004
-0.7 0.1 -0.0035
-0.6 0.1 -0.003
-0.5 0.1 -0.0025
-0.4 0.1 -0.002
-0.3 0.1 -0.0015
-0.2 0.1 -0.001
-0.1 0.1 -0.0005
0 0.1 0
0.1 0.1 0.000500000000000001
0.2 0.1 0.001
0.3 0.1 0.0015
0.4 0.1 0.002
0.5 0.1 0.0025
0.6 0.1 0.003
0.7 0.1 0.0035
0.8 0.1 0.004
0.9 0.1 0.0045
1 0.1 0.005
-1 0.2 -0.01
-0.9 0.2 -0.009
-0.8 0.2 -0.008
-0.7 0.2 -0.007
-0.6 0.2 -0.006
-0.5 0.2 -0.005
-0.4 0.2 -0.004
-0.3 0.2 -0.003
-0.2 0.2 -0.002
-0.1 0.2 -0.001
0 0.2 0
0.1 0.2 0.001
0.2 0.2 0.002
0.3 0.2 0.003
0.4 0.2 0.004
0.5 0.2 0.005
0.6 0.2 0.006
0.7 0.2 0.007
0.8 0.2 0.008
0.9 0.2 0.009
1 0.2 0.01
-1 0.3 -0.015
-0.9 0.3 -0.0135
-0.8 0.3 -0.012
-0.7 0.3 -0.0105
-0.6 0.3 -0.009
-0.5 0.3 -0.0075
-0.4 0.3 -0.006
-0.3 0.3 -0.0045
-0.2 0.3 -0.003
-0.1 0.3 -0.0015
0 0.3 0
0.1 0.3 0.0015
0.2 0.3 0.003
0.3 0.3 0.0045
0.4 0.3 0.006
0.5 0.3 0.0075
0.6 0.3 0.009
0.7 0.3 0.0105
0.8 0.3 0.012
0.9 0.3 0.0135
1 0.3 0.015
-1 0.4 -0.02
-0.9 0.4 -0.018
-0.8 0.4 -0.016
-0.7 0.4 -0.014
-0.6 0.4 -0.012
-0.5 0.4 -0.01
-0.4 0.4 -0.008
-0.3 0.4 -0.006
-0.2 0.4 -0.004
-0.1 0.4 -0.002
0 0.4 0
0.1 0.4 0.002
0.2 0.4 0.004
0.3 0.4 0.006
0.4 0.4 0.008
0.5 0.4 0.01
0.6 0.4 0.012
0.7 0.4 0.014
0.8 0.4 0.016
0.9 0.4 0.018
1 0.4 0.02
-1 0.5 -0.025
-0.9 0.5 -0.0225
-0.8 0.5 -0.02
-0.7 0.5 -0.0175
-0.6 0.5 -0.015
-0.5 0.5 -0.0125
-0.4 0.5 -0.01
-0.3 0.5 -0.0075
-0.2 0.5 -0.005
-0.1 0.5 -0.0025
0 0.5 0
0.1 0.5 0.0025
0.2 0.5 0.005
0.3 0.5 0.0075
0.4 0.5 0.01
0.5 0.5 0.0125
0.6 0.5 0.015
0.7 0.5 0.0175
0.8 0.5 0.02
0.9 0.5 0.0225
1 0.5 0.025
-1 0.6 -0.03
-0.9 0.6 -0.027
-0.8 0.6 -0.024
-0.7 0.6 -0.021
-0.6 0.6 -0.018
-0.5 0.6 -0.015
-0.4 0.6 -0.012
-0.3 0.6 -0.009
-0.2 0.6 -0.006
-0.1 0.6 -0.003
0 0.6 0
0.1 0.6 0.003
0.2 0.6 0.006
0.3 0.6 0.009
0.4 0.6 0.012
0.5 0.6 0.015
0.6 0.6 0.018
0.7 0.6 0.021
0.8 0.6 0.024
0.9 0.6 0.027
1 0.6 0.03
-1 0.7 -0.035
-0.9 0.7 -0.0315
-0.8 0.7 -0.028
-0.7 0.7 -0.0245
-0.6 0.7 -0.021
-0.5 0.7 -0.0175
-0.4 0.7 -0.014
-0.3 0.7 -0.0105
-0.2 0.7 -0.007
-0.1 0.7 -0.0035
0 0.7 0
0.1 0.7 0.0035
0.2 0.7 0.007
0.3 0.7 0.0105
0.4 0.7 0.014
0.5 0.7 0.0175
0.6 0.7 0.021
0.7 0.7 0.0245
0.8 0.7 0.028
0.9 0.7 0.0315
1 0.7 0.035
-1 0.8 -0.04
-0.9 0.8 -0.036
-0.8 0.8 -0.032
-0.7 0.8 -0.028
-0.6 0.8 -0.024
-0.5 0.8 -0.02
-0.4 0.8 -0.016
-0.3 0.8 -0.012
-0.2 0.8 -0.008
-0.1 0.8 -0.004
0 0.8 0
0.1 0.8 0.004
0.2 0.8 0.008
0.3 0.8 0.012
0.4 0.8 0.016
0.5 0.8 0.02
0.6 0.8 0.024
0.7 0.8 0.028
0.8 0.8 0.032
0.9 0.8 0.036
1 0.8 0.04
-1 0.9 -0.045
-0.9 0.9 -0.0405
-0.8 0.9 -0.036
-0.7 0.9 -0.0315
-0.6 0.9 -0.027
-0.5 0.9 -0.0225
-0.4 0.9 -0.018
-0.3 0.9 -0.0135
-0.2 0.9 -0.009
-0.1 0.9 -0.0045
0 0.9 0
0.1 0.9 0.0045
0.2 0.9 0.009
0.3 0.9 0.0135
0.4 0.9 0.018
0.5 0.9 0.0225
0.6 0.9 0.027
0.7 0.9 0.0315
0.8 0.9 0.036
0.9 0.9 0.0405
1 0.9 0.045
-1 1 -0.05
-0.9 1 -0.045
-0.8 1 -0.04
-0.7 1 -0.035
-0.6 1 -0.03
-0.5 1 -0.025
-0.4 1 -0.02
-0.3 1 -0.015
-0.2 1 -0.01
-0.1 1 -0.005
0 1 0
0.1 1 0.005
0.2 1 0.01
0.3 1 0.015
0.4 1 0.02
0.5 1 0.025
0.6 1 0.03
0.7 1 0.035
0.8 1 0.04
0.9 1 0.045
1 1 0.05
CELLS 400 2000
4 0 1 22 21
4 1 2 23 22
4 2 3 24 23
4 3 4 25 24
4 4 5 26 25
4 5 6 27 26
4 6 7 28 27
4 7 8 29 28
4 8 9 30 29
4 9 10 31 30
4 10 11 32 31
4 11 12 33 32
4 12 13 34 33
4 13 14 35 34
4 14 15 36 35
4 15 16 37 36
4 16 17 38 37
4 17 18 39 38
4 18 19 40 39
4 19 20 41 40
4 21 22 43 42
4 22 23 44 43
4 23 24 45 44
4 24 25 46 45
4 25 26 47 46
4 26 27 48 47
4 27 28 49 48
4 28 29 50 49
4 29 30 51 50
4 30 31 52 51
4 31 32 53 52
4 32 33 54 53
4 33 34 55 54
4 34 35 56 55
4 35 36 57 56
4 36 37 58 57
4 37 38 59 58
4 38 39 60 59
4 39 40 61 60
4 40 41 62 61
4 42 43 64 63
4 43 44 65 64
4 44 45 66 65
4 45 46 67 66
4 46 47 68 67
4 47 48 69 68
4 48 49 70 69
4 49 50 71 70
4 50 51 72 71
4 51 52 73 72
4 52 53 74 73
4 53 54 75 74
4 54 55 76 75
4 55 56 77 76
4 56 57 78 77
4 57 58 79 78
4 58 59 80 79
4 59 60 81 80
4 60 61 82 81
4 61 62 83 82
4 63 64 85 84
4 64 65 86 85
4 65 66 87 86
4 66 67 88 87
4 67 68 89 88
4 68 69 90 89
4 69 70 91 90
4 70 71 92 91
4 71 72 93 92
4 72 73 94 93
4 73 74 95 94
4 74 75 96 95
4 75 76 97 96
4 76 77 98 97
4 77 78 99 98
4 78 79 100 99
4 79 80 101 100
4 80 81 102 101
4 81 82 103 102
4 82 83 104 103
4 84 85 106 105
4 85 86 107 106
4 86 87 108 107
4 87 88 109 108
4 88 89 110 109
4 89 90 111 110
4 90 91 112 111
4 91 92 113 112
4 92 93 114 113
4 93 94 115 114
4 94 95 116 115
4 95 96 117 116
4 96 97 118 117
4 97 98 119 118
4 98 99 120 119
4 99 100 121 120
4 100 101 122 121
4 101 102 123 122
4 102 103 124 123
4 103 104 125 124
4 105 106 127 126
4 106 107 128 127
4 107 108 129 128
4 108 109 130 129
4 109 110 131 130
4 110 111 132 131
4 111 112 133 132
4 112 113 134 133
4 113 114 135 134
4 114 115 136 135
4 115 116 137 136
4 116 117 138 137
4 117 118 139 138
4 118 119 140 139
4 119 120 141 140
4 120 121 142 141
4 121 122 143 142
4 122 123 144 143
4 123 124 145 144
4 124 125 146 145
4 126 127 148 147
4 127 128 149 148
4 128 129 150 149
4 129 130 151 150
4 130 131 152 151
4 131 132 153 152
4 132 133 154 153
4 133 134 155 154
4 134 135 156 155
4 135 136 157 156
4 136 137 158 157
4 137 138 159 158
4 138 139 160 159
4 139 140 161 160
4 140 141 162 161
4 141 142 163 162
4 142 143 164 163
4 143 144 165 164
4 144 145 166 165
4 145 146 167 166
4 147 148 169 168
4 148 149 170 169
4 149 150 171 170
4 150 151 172 171
4 151 152 173 172
4 152 153 174 173
4 153 154 175 174
4 154 155 176 175
4 155 156 177 176
4 156 157 178 177
4 157 158 179 178
4 158 159 180 179
4 159 160 181 180
4 160 161 182 181
4 161 162 183 182
4 162 163 184 183
4 163 164 185 184
4 164 165 186 185
4 165 166 187 186
4 166 167 188 187
4 168 169 190 189
4 169 170 191 190
4 170 171 192 191
4 171 172 193 192
4 172 173 194 193
4 173 174 195 194
4 174 175 196 195
4 175 176 197 196
4 176 177 198 197
4 177 178 199 198
4 178 179 200 199
4 179 180 201 200
4 180 181 202 201
4 181 182 203 202
4 182 183 204 203
4 183 184 205 204
4 184 185 206 205
4 185 186 207 206
4 186 187 208 207
4 187 188 209 208
4 189 190 211 210
4 190 191 212 211
4 191 192 213 212
4 192 193 214 213
4 193 194 215 214
4 194 195 216 215
4 195 196 217 216
4 196 197 218 217
4 197 198 219 218
4 198 199 220 219
4 199 200 221 220
4 200 201 222 221
4 201 202 223 222
4 202 203 224 223
4 203 204 225 224
4 204 205 226 225
4 205 206 227 226
4 206 207 228 227
4 207 208 229 228
4 208 209 230 229
4 210 211 232 231
4 211 212 233 232
4 212 213 234 233
4 213 214 235 234
4 214 215 236 235
4 215 216 237 236
4 216 217 238 237
4 217 218 239 238
4 218 219 240 239
4 219 220 241 240
4 220 221 242 241
4 221 222 243 242
4 222 223 244 243
4 223 224 245 244
4 224 225 246 245
4 225 226 247 246
4 226 227 248 247
4 227 228 249 248
4 228 229 250 249
4 229 230 251 250
4 231 232 253 252
4 232 233 254 253
4 233 234 255 254
4 234 235 256 255
4 235 236 257 256
4 236 237 258 257
4 237 238 259 258
4 238 239 260 259
4 239 240 261 260
4 240 241 262 261
4 241 242 263 262
4 242 243 264 263
4 243 244 265 264
4 244 245 266 265
4 245 246 267 266
4 246 247 268 267
4 247 248 269 268
4 248 249 270 269
4 249 250 271 270
4 250 251 272 271
4 252 253 274 273
4 253 254 275 274
4 254 255 276 275
4 255 256 277 276
4 256 257 278 277
4 257 258 279 278
4 258 259 280 279
4 259 260 281 280
4 260 261 282 281
4 261 262 283 282
4 262 263 284 283
4 263 264 285 284
4 264 265 286 285
4 265 266 287 286
4 266 267 288 287
4 267 268 289 288
4 268 269 290 289
4 269 270 291 290
4 270 271 292 291
4 271 272 293 292
4 273 274 295 294
4 274 275 296 295
4 275 276 297 296
4 276 277 298 297
4 277 278 299 298
4 278 279 300 299
4 279 280 301 300
4 280 281 302 301
4 281 282 303 302
4 282 283 304 303
4 283 284 305 304
4 284 285 306 305
4 285 286 307 306
4 286 287 308 307
4 287 288 309 308
4 288 289 310 309
4 289 290 311 310
4 290 291 312 311
4 291 292 313 312
4 292 293 314 313
4 294 295 316 315
4 295 296 317 316
4 296 297 318 317
4 297 298 319 318
4 298 299 320 319
4 299 300 321 320
4 300 301 322 321
4 301 302 323 322
4 302 303 324 323
4 303 304 325 324
4 304 305 326 325
4 305 306 327 326
4 306 307 328 327
4 307 308 329 328
4 308 309 330 329
4 309 310 331 330
4 310 311 332 331
4 311 312 333 332
4 312 313 334 333
4 313 314 335 334
4 315 316 337 336
4 316 317 338 337
4 317 318 339 338
4 318 319 340 339
4 319 320 341 340
4 320 321 342 341
4 321 322 343 342
4 322 323 344 343
4 323 324 345 344
4 324 325 346 345
4 325 326 347 346
4 326 327 348 347
4 327 328 349 348
4 328 329 350 349
4 329 330 351 350
4 330 331 352 351
4 331 332 353 352
4 332 333 354 353
4 333 334 355 354
4 334 335 356 355
4 336 337 358 357
4 337 338 359 358
4 338 339 360 359
4 339 340 361 360
4 340 341 362 361
4 341 342 363 362
4 342 343 364 363
4 343 344 365 364
4 344 345 366 365
4 345 346 367 366
4 346 347 368 367
4 347 348 369 368
4 348 349 370 369
4 349 350 371 370
4 350 351 372 371
4 351 352 373 372
4 352 353 374 373
4 353 354 375 374
4 354 355 376 375
4 355 356 377 376
4 357 358 379 378
4 358 359 380 379
4 359 360 381 380
4 360 361 382 381
4 361 362 383 382
4 362 363 384 383
4 363 364 385 384
4 364 365 386 385
4 365 366 387 386
4 366 367 388 387
4 367 368 389 388
4 368 369 390 389
4 369 370 391 390
4 370 371 392 391
4 371 372 393 392
4 372 373 394 393
4 373 374 395 394
4 374 375 396 395
4 375 376 397 396
4 376 377 398 397
4 378 379 400 399
4 379 380 401 400
4 380 381 402 401
4 381 382 403 402
4 382 383 404 403
4 383 384 405 404
4 384 385 406 405
4 385 386 407 406
4 386 387 408 407
4 387 388 409 408
4 388 389 410 409
4 389 390 411 410
4 390 391 412 411
4 391 392 413 412
4 392 393 414 413
4 393 394 415 414
4 394 395 416 415
4 395 396 417 416
4 396 397 418 417
4 397 398 419 418
4 399 400 421 420
4 400 401 422 421
4 401 402 423 422
4 402 403 424 423
4 403 404 425 424
4 404 405 426 425
4 405 406 427 426
4 406 407 428 427
4 407 408 429 428
4 408 409 430 429
4 409 410 431 430
4 410 411 432 431
4 411 412 433 432
4 412 413 434 433
4 413 414 435 434
4 414 415 436 435
4 415 416 437 436
4 416 417 438 437
4 417 418 439 438
4 418 419 440 439
CELL_TYPES 400
9
9
9
9
9
9
9
9
9
9
9
9
9
9
9
9
9
9
9
9
9
9
9
9
9
9
9
9
9
9
9
9
9
9
9
9
9
9
9
9
9
9
9
9
9
9
9
9
9
9
9
9
9
9
9
9
9
9
9
9
9
9
9
9
9
9
9
9
9
9
9
9
9
9
9
9
9
9
9
9
9
9
9
9
9
9
9
9
9
9
9
9
9
9
9
9
9
9
9
9
9
9
9
9
9
9
9
9
9
9
9
9
9
9
9
9
9
9
9
9
9
9
9
9
9
9
9
9
9
9
9
9
9
9
9
9
9
9
9
9
9
9
9
9
9
9
9
9
9
9
9
9
9
9
9
9
9
9
9
9
9
9
9
9
9
9
9
9
9
9
9
9
9
9
9
9
9
9
9
9
9
9
9
9
9
9
9
9
9
9
9
9
9
9
9
9
9
9
9
9
9
9
9
9
9
9
9
9
9
9
9
9
9
9
9
9
9
9
9
9
9
9
9
9
9
9
9
9
9
9
9
9
9
9
9
9
9
9
9
9
9
9
9
9
9
9
9
9
9
9
9
9
9
9
9
9
9
9
9
9
9
9
9
9
9
9
9
9
9
9
9
9
9
9
9
9
9
9
9
9
9
9
9
9
9
9
9
9
9
9
9
9
9
9
9
9
9
9
9
9
9
9
9
9
9
9
9
9
9
9
9
9
9
9
9
9
9
9
9
9
9
9
9
9
9
9
9
9
9
9
9
9
9
9
9
9
9
9
9
9
9
9
9
9
9
9
9
9
9
9
9
9
9
9
9
9
9
9
9
9
9
9
9
9
9
9
9
9
9
9
9
9
9
9
9
9
9
9
9
9
9
9
9
9
9
9
9
9
9
9
9
9
9
9
9
9
9
9
9
9
POINT_DATA 441
SCALARS Pressure double 1
LOOKUP_TABLE default
-1.5
-1.1745
-0.896
-0.6615
-0.468
-0.3125
-0.192
-0.1035
-0.044
-0.0105
0
-0.00950000000000001
-0.036
-0.0765000000000001
-0.128
-0.1875
-0.252
-0.3185
-0.384
-0.4455
-0.5
-1.1745
-0.8711
-0.612
-0.3945
-0.2159
-0.0735000000000001
0.0353999999999999
0.1135
0.1635
0.1881
0.19
0.1719
0.1365
0.0864999999999999
0.0246
-0.0465
-0.1241
-0.2055
-0.288
-0.3689
-0.4455
-0.896
-0.612
-0.3696
-0.1664
0
0.132
0.232
0.3024
0.3456
0.364
0.36
0.336
0.2944
0.2376
0.168
0.0879999999999999
-1.68753899743024E-16
-0.0936000000000001
-0.1904
-0.288
-0.384
-0.6615
-0.3945
-0.1664
0.0249000000000002
0.1815
0.3055
0.399
0.4641
0.5029
0.5175
0.51
0.4825
0.4371
0.3759
0.301
0.2145
0.1185
0.0151000000000001
-0.0936000000000001
-0.2055
-0.3185
-0.468
-0.2159
0
0.1815
0.3304
0.4485
0.5376
0.5995
0.636
0.6489
0.64
0.6111
0.564
0.5005
0.4224
0.3315
0.2296
0.1185
0
-0.1241
-0.252
-0.3125
-0.0735000000000001
0.132
0.3055
0.4485
0.5625
0.649
0.7095
0.7455
0.7585
0.75
0.7215
0.6745
0.6105
0.531
0.4375
0.3315
0.2145
0.0879999999999999
-0.0464999999999999
-0.1875
-0.192
0.0353999999999999
0.232
0.399
0.5376
0.649
0.7344
0.795
0.832
0.8466
0.84
0.8134
0.768
0.705
0.6256
0.531
0.4224
0.301
0.168
0.0246000000000001
-0.128
-0.1035
0.1135
0.3024
0.4641
0.5995
0.7095
0.795
0.8569
0.8961
0.9135
0.91
0.8865
0.8439
0.7831
0.705
0.6105
0.5005
0.3759
0.2376
0.0865000000000001
-0.0765000000000001
-0.044
0.1635
0.3456
0.5029
0.636
0.7455
0.832
0.8961
0.9384
0.9595
0.96
0.9405
0.9016
0.8439
0.768
0.6745
0.564
0.4371
0.2944
0.1365
-0.036
-0.0105
0.1881
0.364
0.5175
0.6489
0.7585
0.8466
0.9135
0.9595
0.9849
0.99
0.9751
0.9405
0.8865
0.8134
0.7215
0.6111
0.4825
0.336
0.1719
-0.00950000000000001
0
0.19
0.36
0.51
0.64
0.75
0.84
0.91
0.96
0.99
1
0.99
0.96
0.91
0.84
0.75
0.64
0.51
0.36
0.19
0
-0.00950000000000001
0.1719
0.336
0.4825
0.6111
0.7215
0.8134
0.8865
0.9405
0.9751
0.99
0.9849
0.9595
0.9135
0.8466
0.7585
0.6489
0.5175
0.364
0.1881
-0.0105
-0.036
0.1365
0.2944
0.4371
0.564
0.6745
0.768
0.8439
0.9016
0.9405
0.96
0.9595
0.9384
0.8961
0.832
0.7455
0.636
0.5029
0.3456
0.1635
-0.044
-0.0765000000000001
0.0864999999999999
0.2376
0.3759
0.5005
0.6105
0.705
0.7831
0.8439
0.8865
0.91
0.9135
0.8961
0.8569
0.795
0.7095
0.5995
0.4641
0.3024
0.1135
-0.1035
-0.128
0.0246
0.168
0.301
0.4224
0.531
0.6256
0.705
0.768
0.8134
0.84
0.8466
0.832
0.795
0.7344
0.649
0.5376
0.399
0.232
0.0354000000000003
-0.192
-0.1875
-0.0465
0.0879999999999999
0.2145
0.3315
0.4375
0.531
0.6105
0.6745
0.7215
0.75
0.7585
0.7455
0.7095
0.649
0.5625
0.4485
0.3055
0.132
-0.0734999999999998
-0.3125
-0.252
-0.1241
-1.68753899743024E-16
0.1185
0.2296
0.3315
0.4224
0.5005
0.564
0.6111
0.64
0.6489
0.636
0.5995
0.5376
0.4485
0.3304
0.1815
-2.75335310107039E-16
-0.2159
-0.468
-0.3185
-0.2055
-0.0936000000000001
0.0151000000000001
0.1185
0.2145
0.301
0.3759
0.4371
0.4825
0.51
0.5175
0.5029
0.4641
0.399
0.3055
0.1815
0.0249000000000002
-0.1664
-0.3945
-0.6615
-0.384
-0.288
-0.1904
-0.0936000000000001
0
0.0879999999999999
0.168
0.2376
0.2944
0.336
0.36
0.364
0.3456
0.3024
0.232
0.132
-2.75335310107039E-16
-0.1664
-0.3696
-0.612
-0.896
-0.4455
-0.3689
-0.288
-0.2055
-0.1241
-0.0464999999999999
0.0246000000000001
0.0865000000000001
0.1365
0.1719
0.19
0.1881
0.1635
0.1135
0.0354000000000003
-0.0734999999999998
-0.2159
-0.3945
-0.612
-0.871099999999999
-1.1745
-0.5
-0.4455
-0.384
-0.3185
-0.252
-0.1875
-0.128
-0.0765000000000001
-0.036
-0.00950000000000001
0
-0.0105
-0.044
-0.1035
-0.192
-0.3125
-0.468
-0.6615
-0.896
-1.1745
-1.5
SCALARS Temperature double 1
LOOKUP_TABLE default
250
250.125
250.5
251.125
252
253.125
254.5
256.125
258
260.125
262.5
265.125
268
271.125
274.5
278.125
282
286.125
290.5
295.125
300
254.875
255
255.375
256
256.875
258
259.375
261
262.875
265
267.375
270
272.875
276
279.375
283
286.875
291
295.375
300
304.875
259.5
259.625
260
260.625
261.5
262.625
264
265.625
267.5
269.625
272
274.625
277.5
280.625
284
287.625
291.5
295.625
300
304.625
309.5
263.875
264
264.375
265
265.875
267
268.375
270
271.875
274
276.375
279
281.875
285
288.375
292
295.875
300
304.375
309
313.875
268
268.125
268.5
269.125
270
271.125
272.5
274.125
276
278.125
280.5
283.125
286
289.125
292.5
296.125
300
304.125
308.5
313.125
318
271.875
272
272.375
273
273.875
275
276.375
278
279.875
282
284.375
287
289.875
293
296.375
300
303.875
308
312.375
317
321.875
275.5
275.625
276
276.625
277.5
278.625
280
281.625
283.5
285.625
288
290.625
293.5
296.625
300
303.625
307.5
311.625
316
320.625
325.5
278.875
279
279.375
280
280.875
282
283.375
285
286.875
289
291.375
294
296.875
300
303.375
307
310.875
315
319.375
324
328.875
282
282.125
282.5
283.125
284
285.125
286.5
288.125
290
292.125
294.5
297.125
300
303.125
306.5
310.125
314
318.125
322.5
327.125
332
284.875
285
285.375
286
286.875
288
289.375
291
292.875
295
297.375
300
302.875
306
309.375
313
316.875
321
325.375
330
334.875
287.5
287.625
288
288.625
289.5
290.625
292
293.625
295.5
297.625
300
302.625
305.5
308.625
312
315.625
319.5
323.625
328
332.625
337.5
289.875
290
290.375
291
291.875
293
294.375
296
297.875
300
302.375
305
307.875
311
314.375
318
321.875
326
330.375
335
339.875
292
292.125
292.5
293.125
294
295.125
296.5
298.125
300
302.125
304.5
307.125
310
313.125
316.5
320.125
324
328.125
332.5
337.125
342
293.875
294
294.375
295
295.875
297
298.375
300
301.875
304
306.375
309
311.875
315
318.375
322
325.875
330
334.375
339
343.875
295.5
295.625
296
296.625
297.5
298.625
300
301.625
303.5
305.625
308
310.625
313.5
316.625
320
323.625
327.5
331.625
336
340.625
345.5
296.875
297
297.375
298
298.875
300
301.375
303
304.875
307
309.375
312
314.875
318
321.375
325
328.875
333
337.375
342
346.875
298
298.125
298.5
299.125
300
301.125
302.5
304.125
306
308.125
310.5
313.125
316
319.125
322.5
326.125
330
334.125
338.5
343.125
348
298.875
299
299.375
300
300.875
302
303.375
305
306.875
309
311.375
314
316.875
320
323.375
327
330.875
335
339.375
344
348.875
299.5
299.625
300
300.625
301.5
302.625
304
305.625
307.5
309.625
312
314.625
317.5
320.625
324
327.625
331.5
335.625
340
344.625
349.5
299.875
300
300.375
301
301.875
303
304.375
306
307.875
310
312.375
315
317.875
321
324.375
328
331.875
336
340.375
345
349.875
300
300.125
300.5
301.125
302
303.125
304.5
306.125
308
310.125
312.5
315.125
318
321.125
324.5
328.125
332
336.125
340.5
345.125
350
VECTORS Velocity double
1 -1 0.25
1 -0.9 0.225
1 -0.8 0.2
1 -0.7 0.175
1 -0.6 0.15
1 -0.5 0.125
1 -0.4 0.1
1 -0.3 0.075
1 -0.2 0.05
1 -0.1 0.025
1 0 0
1 0.1 -0.025
1 0.2 -0.05
1 0.3 -0.075
1 0.4 -0.1
1 0.5 -0.125
1 0.6 -0.15
1 0.7 -0.175
1 0.8 -0.2
1 0.9 -0.225
1 1 -0.25
0.9 -1 0.225
0.9 -0.9 0.2025
0.9 -0.8 0.18
0.9 -0.7 0.1575
0.9 -0.6 0.135
0.9 -0.5 0.1125
0.9 -0.4 0.09
0.9 -0.3 0.0675
0.9 -0.2 0.045
0.9 -0.1 0.0225
0.9 0 0
0.9 0.1 -0.0225
0.9 0.2 -0.045
0.9 0.3 -0.0675
0.9 0.4 -0.09
0.9 0.5 -0.1125
0.9 0.6 -0.135
0.9 0.7 -0.1575
0.9 0.8 -0.18
0.9 0.9 -0.2025
0.9 1 -0.225
0.8 -1 0.2
0.8 -0.9 0.18
0.8 -0.8 0.16
0.8 -0.7 0.14
0.8 -0.6 0.12
0.8 -0.5 0.1
0.8 -0.4 0.08
0.8 -0.3 0.06
0.8 -0.2 0.04
0.8 -0.1 0.02
0.8 0 0
0.8 0.1 -0.02
0.8 0.2 -0.04
0.8 0.3 -0.06
0.8 0.4 -0.08
0.8 0.5 -0.1
0.8 0.6 -0.12
0.8 0.7 -0.14
0.8 0.8 -0.16
0.8 0.9 -0.18
0.8 1 -0.2
0.7 -1 0.175
0.7 -0.9 0.1575
0.7 -0.8 0.14
0.7 -0.7 0.1225
0.7 -0.6 0.105
0.7 -0.5 0.0875
0.7 -0.4 0.07
0.7 -0.3 0.0525
0.7 -0.2 0.035
0.7 -0.1 0.0175
0.7 0 0
0.7 0.1 -0.0175
0.7 0.2 -0.035
0.7 0.3 -0.0525
0.7 0.4 -0.07
0.7 0.5 -0.0875
0.7 0.6 -0.105
0.7 0.7 -0.1225
0.7 0.8 -0.14
0.7 0.9 -0.1575
0.7 1 -0.175
0.6 -1 0.15
0.6 -0.9 0.135
0.6 -0.8 0.12
0.6 -0.7 0.105
0.6 -0.6 0.09
0.6 -0.5 0.075
0.6 -0.4 0.06
0.6 -0.3 0.045
0.6 -0.2 0.03
0.6 -0.1 0.015
0.6 0 0
0.6 0.1 -0.015
0.6 0.2 -0.03
0.6 0.3 -0.045
0.6 0.4 -0.06
0.6 0.5 -0.075
0.6 0.6 -0.09
0.6 0.7 -0.105
0.6 0.8 -0.12
0.6 0.9 -0.135
0.6 1 -0.15
0.5 -1 0.125
0.5 -0.9 0.1125
0.5 -0.8 0.1
0.5 -0.7 0.0875
0.5 -0.6 0.075
0.5 -0.5 0.0625
0.5 -0.4 0.05
0.5 -0.3 0.0375
0.5 -0.2 0.025
0.5 -0.1 0.0125
0.5 0 0
0.5 0.1 -0.0125
0.5 0.2 -0.025
0.5 0.3 -0.0375
0.5 0.4 -0.05
0.5 0.5 -0.0625
0.5 0.6 -0.075
0.5 0.7 -0.0875
0.5 0.8 -0.1
0.5 0.9 -0.1125
0.5 1 -0.125
0.4 -1 0.1
0.4 -0.9 0.09
0.4 -0.8 0.08
0.4 -0.7 0.07
0.4 -0.6 0.06
0.4 -0.5 0.05
0.4 -0.4 0.04
0.4 -0.3 0.03
0.4 -0.2 0.02
0.4 -0.1 0.01
0.4 0 0
0.4 0.1 -0.01
0.4 0.2 -0.02
0.4 0.3 -0.03
0.4 0.4 -0.04
0.4 0.5 -0.05
0.4 0.6 -0.06
0.4 0.7 -0.07
0.4 0.8 -0.08
0.4 0.9 -0.09
0.4 1 -0.1
0.3 -1 0.075
0.3 -0.9 0.0675
0.3 -0.8 0.06
0.3 -0.7 0.0525
0.3 -0.6 0.045
0.3 -0.5 0.0375
0.3 -0.4 0.03
0.3 -0.3 0.0225
0.3 -0.2 0.015
0.3 -0.1 0.0075
0.3 0 0
0.3 0.1 -0.00750000000000001
0.3 0.2 -0.015
0.3 0.3 -0.0225
0.3 0.4 -0.03
0.3 0.5 -0.0375
0.3 0.6 -0.045
0.3 0.7 -0.0525
0.3 0.8 -0.06
0.3 0.9 -0.0675
0.3 1 -0.075
0.2 -1 0.05
0.2 -0.9 0.045
0.2 -0.8 0.04
0.2 -0.7 0.035
0.2 -0.6 0.03
0.2 -0.5 0.025
0.2 -0.4 0.02
0.2 -0.3 0.015
0.2 -0.2 0.01
0.2 -0.1 0.005
0.2 0 0
0.2 0.1 -0.005
0.2 0.2 -0.01
0.2 0.3 -0.015
0.2 0.4 -0.02
0.2 0.5 -0.025
0.2 0.6 -0.03
0.2 0.7 -0.035
0.2 0.8 -0.04
0.2 0.9 -0.045
0.2 1 -0.05
0.1 -1 0.025
0.1 -0.9 0.0225
0.1 -0.8 0.02
0.1 -0.7 0.0175
0.1 -0.6 0.015
0.1 -0.5 0.0125
0.1 -0.4 0.01
0.1 -0.3 0.0075
0.1 -0.2 0.005
0.1 -0.1 0.0025
0.1 0 0
0.1 0.1 -0.0025
0.1 0.2 -0.005
0.1 0.3 -0.0075
0.1 0.4 -0.01
0.1 0.5 -0.0125
0.1 0.6 -0.015
0.1 0.7 -0.0175
0.1 0.8 -0.02
0.1 0.9 -0.0225
0.1 1 -0.025
0 -1 0
0 -0.9 0
0 -0.8 0
0 -0.7 0
0 -0.6 0
0 -0.5 0
0 -0.4 0
0 -0.3 0
0 -0.2 0
0 -0.1 0
0 0 0
0 0.1 0
0 0.2 0
0 0.3 0
0 0.4 0
0 0.5 0
0 0.6 0
0 0.7 0
0 0.8 0
0 0.9 0
0 1 0
-0.1 -1 -0.025
-0.1 -0.9 -0.0225
-0.1 -0.8 -0.02
-0.1 -0.7 -0.0175
-0.1 -0.6 -0.015
-0.1 -0.5 -0.0125
-0.1 -0.4 -0.01
-0.1 -0.3 -0.00750000000000001
-0.1 -0.2 -0.005
-0.1 -0.1 -0.0025
-0.1 0 0
-0.1 0.1 0.0025
-0.1 0.2 0.005
-0.1 0.3 0.00750000000000001
-0.1 0.4 0.01
-0.1 0.5 0.0125
-0.1 0.6 0.015
-0.1 0.7 0.0175
-0.1 0.8 0.02
-0.1 0.9 0.0225
-0.1 1 0.025
-0.2 -1 -0.05
-0.2 -0.9 -0.045
-0.2 -0.8 -0.04
-0.2 -0.7 -0.035
-0.2 -0.6 -0.03
-0.2 -0.5 -0.025
-0.2 -0.4 -0.02
-0.2 -0.3 -0.015
-0.2 -0.2 -0.01
-0.2 -0.1 -0.005
-0.2 0 0
-0.2 0.1 0.005
-0.2 0.2 0.01
-0.2 0.3 0.015
-0.2 0.4 0.02
-0.2 0.5 0.025
-0.2 0.6 0.03
-0.2 0.7 0.035
-0.2 0.8 0.04
-0.2 0.9 0.045
-0.2 1 0.05
-0.3 -1 -0.075
-0.3 -0.9 -0.0675
-0.3 -0.8 -0.06
-0.3 -0.7 -0.0525
-0.3 -0.6 -0.045
-0.3 -0.5 -0.0375
-0.3 -0.4 -0.03
-0.3 -0.3 -0.0225
-0.3 -0.2 -0.015
-0.3 -0.1 -0.0075
-0.3 0 0
-0.3 0.1 0.00750000000000001
-0.3 0.2 0.015
-0.3 0.3 0.0225
-0.3 0.4 0.03
-0.3 0.5 0.0375
-0.3 0.6 0.045
-0.3 0.7 0.0525
-0.3 0.8 0.06
-0.3 0.9 0.0675
-0.3 1 0.075
-0.4 -1 -0.1
-0.4 -0.9 -0.09
-0.4 -0.8 -0.08
-0.4 -0.7 -0.07
-0.4 -0.6 -0.06
-0.4 -0.5 -0.05
-0.4 -0.4 -0.04
-0.4 -0.3 -0.03
-0.4 -0.2 -0.02
-0.4 -0.1 -0.01
-0.4 0 0
-0.4 0.1 0.01
-0.4 0.2 0.02
-0.4 0.3 0.03
-0.4 0.4 0.04
-0.4 0.5 0.05
-0.4 0.6 0.06
-0.4 0.7 0.07
-0.4 0.8 0.08
-0.4 0.9 0.09
-0.4 1 0.1
-0.5 -1 -0.125
-0.5 -0.9 -0.1125
-0.5 -0.8 -0.1
-0.5 -0.7 -0.0875
-0.5 -0.6 -0.075
-0.5 -0.5 -0.0625
-0.5 -0.4 -0.05
-0.5 -0.3 -0.0375
-0.5 -0.2 -0.025
-0.5 -0.1 -0.0125
-0.5 0 0
-0.5 0.1 0.0125
-0.5 0.2 0.025
-0.5 0.3 0.0375
-0.5 0.4 0.05
-0.5 0.5 0.0625
-0.5 0.6 0.075
-0.5 0.7 0.0875
-0.5 0.8 0.1
-0.5 0.9 0.1125
-0.5 1 0.125
-0.6 -1 -0.15
-0.6 -0.9 -0.135
-0.6 -0.8 -0.12
-0.6 -0.7 -0.105
-0.6 -0.6 -0.09
-0.6 -0.5 -0.075
-0.6 -0.4 -0.06
-0.6 -0.3 -0.045
-0.6 -0.2 -0.03
-0.6 -0.1 -0.015
-0.6 0 0
-0.6 0.1 0.015
-0.6 0.2 0.03
-0.6 0.3 0.045
-0.6 0.4 0.06
-0.6 0.5 0.075
-0.6 0.6 0.09
-0.6 0.7 0.105
-0.6 0.8 0.12
-0.6 0.9 0.135
-0.6 1 0.15
-0.7 -1 -0.175
-0.7 -0.9 -0.1575
-0.7 -0.8 -0.14
-0.7 -0.7 -0.1225
-0.7 -0.6 -0.105
-0.7 -0.5 -0.0875
-0.7 -0.4 -0.07
-0.7 -0.3 -0.0525
-0.7 -0.2 -0.035
-0.7 -0.1 -0.0175
-0.7 0 0
-0.7 0.1 0.0175
-0.7 0.2 0.035
-0.7 0.3 0.0525
-0.7 0.4 0.07
-0.7 0.5 0.0875
-0.7 0.6 0.105
-0.7 0.7 0.1225
-0.7 0.8 0.14
-0.7 0.9 0.1575
-0.7 1 0.175
-0.8 -1 -0.2
-0.8 -0.9 -0.18
-0.8 -0.8 -0.16
-0.8 -0.7 -0.14
-0.8 -0.6 -0.12
-0.8 -0.5 -0.1
-0.8 -0.4 -0.08
-0.8 -0.3 -0.06
-0.8 -0.2 -0.04
-0.8 -0.1 -0.02
-0.8 0 0
-0.8 0.1 0.02
-0.8 0.2 0.04
-0.8 0.3 0.06
-0.8 0.4 0.08
-0.8 0.5 0.1
-0.8 0.6 0.12
-0.8 0.7 0.14
-0.8 0.8 0.16
-0.8 0.9 0.18
-0.8 1 0.2
-0.9 -1 -0.225
-0.9 -0.9 -0.2025
-0.9 -0.8 -0.18
-0.9 -0.7 -0.1575
-0.9 -0.6 -0.135
-0.9 -0.5 -0.1125
-0.9 -0.4 -0.09
-0.9 -0.3 -0.0675
-0.9 -0.2 -0.045
-0.9 -0.1 -0.0225
-0.9 0 0
-0.9 0.1 0.0225
-0.9 0.2 0.045
-0.9 0.3 0.0675
-0.9 0.4 0.09
-0.9 0.5 0.1125
-0.9 0.6 0.135
-0.9 0.7 0.1575
-0.9 0.8 0.18
-0.9 0.9 0.2025
-0.9 1 0.225
-1 -1 -0.25
-1 -0.9 -0.225
-1 -0.8 -0.2
-1 -0.7 -0.175
-1 -0.6 -0.15
-1 -0.5 -0.125
-1 -0.4 -0.1
-1 -0.3 -0.075
-1 -0.2 -0.05
-1 -0.1 -0.025
-1 0 0
-1 0.1 0.025
-1 0.2 0.05
-1 0.3 0.075
-1 0.4 0.1
-1 0.5 0.125
-1 0.6 0.15
-1 0.7 0.175
-1 0.8 0.2
-1 0.9 0.225
-1 1 0.25
