# vtk DataFile Version 3.0
Complex asymmetric model for TransformFilter
ASCII
DATASET UNSTRUCTURED_GRID
POINTS 17 float
-2.800000 -1.800000 0.000000
1.900000 -2.000000 0.000000
3.000000 0.200000 0.000000
1.700000 2.000000 0.000000
-1.200000 2.500000 0.000000
-2.900000 0.800000 0.000000
-2.000000 -1.250000 1.400000
1.250000 -1.400000 1.600000
2.000000 0.100000 1.300000
1.000000 1.350000 1.700000
-0.900000 1.550000 1.200000
-2.000000 0.500000 1.500000
-1.350000 -0.800000 3.000000
0.950000 -0.900000 3.250000
1.250000 0.650000 2.800000
-0.650000 1.000000 3.100000
0.100000 0.050000 4.800000
CELLS 18 86
4 0 1 7 6
4 1 2 8 7
4 2 3 9 8
4 3 4 10 9
4 4 5 11 10
4 5 0 6 11
4 6 7 13 12
4 7 8 14 13
3 8 9 14
4 9 10 15 14
3 10 11 15
4 11 6 12 15
3 12 13 16
3 13 14 16
3 14 15 16
3 15 12 16
4 0 6 11 5
6 1 2 3 4 5 0
CELL_TYPES 18
9
9
9
9
9
9
9
9
5
9
5
9
5
5
5
5
7
7
