<?xml version="1.0"?>
<VTKFile type="UnstructuredGrid" version="0.1" byte_order="LittleEndian">
  <UnstructuredGrid>
    <Piece NumberOfPoints="27" NumberOfCells="8">
      <Points>
        <DataArray type="Float32" NumberOfComponents="3" format="ascii">
0 0 0
1 0 0
2 0 0
0 1 0
1 1 0
2 1 0
0 2 0
1 2 0
2 2 0
0 0 1.5
1 0 1.5
2 0 1.5
0 1 1.5
1 1 1.5
2 1 1.5
0 2 1.5
1 2 1.5
2 2 1.5
0 0 3
1 0 3
2 0 3
0 1 3
1 1 3
2 1 3
0 2 3
1 2 3
2 2 3
        </DataArray>
      </Points>
      <Cells>
        <DataArray type="Int64" Name="connectivity" format="ascii">
0 0 1 0 1 3 0 3 0 9 0 9 1 0 9 1 3 0 9 3
1 1 1 1 1 3 1 3 1 9 1 9 1 1 9 1 3 1 9 3
3 3 1 3 1 3 3 3 3 9 3 9 1 3 9 1 3 3 9 3
4 4 1 4 1 3 4 3 4 9 4 9 1 4 9 1 3 4 9 3
9 9 1 9 1 3 9 3 9 9 9 9 1 9 9 1 3 9 9 3
10 10 1 10 1 3 10 3 10 9 10 9 1 10 9 1 3 10 9 3
12 12 1 12 1 3 12 3 12 9 12 9 1 12 9 1 3 12 9 3
13 13 1 13 1 3 13 3 13 9 13 9 1 13 9 1 3 13 9 3
        </DataArray>
        <DataArray type="Int64" Name="offsets" format="ascii">
8
16
24
32
40
48
56
64
        </DataArray>
        <DataArray type="UInt8" Name="types" format="ascii">
12
12
12
12
12
12
12
12
        </DataArray>
      </Cells>
      <PointData>
        <DataArray type="Float32" Name="pressure" format="ascii">
100
101
102
103
104
105
106
107
108
109
110
111
112
113
114
115
116
117
118
119
120
121
122
123
124
125
126
        </DataArray>
        <DataArray type="Float32" Name="displacement" NumberOfComponents="3" format="ascii">
0.1 0 0.05
0.1 0 0.05
0.1 0 0.05
0.1 0 0.05
0.1 0 0.05
0.1 0 0.05
0.1 0 0.05
0.1 0 0.05
0.1 0 0.05
0.1 0 0.05
0.1 0 0.05
0.1 0 0.05
0.1 0 0.05
0.1 0 0.05
0.1 0 0.05
0.1 0 0.05
0.1 0 0.05
0.1 0 0.05
0.1 0 0.05
0.1 0 0.05
0.1 0 0.05
0.1 0 0.05
0.1 0 0.05
0.1 0 0.05
0.1 0 0.05
0.1 0 0.05
0.1 0 0.05
        </DataArray>
      </PointData>
    </Piece>
  </UnstructuredGrid>
</VTKFile>
