<?xml version="1.0"?>
<VTKFile type="UnstructuredGrid" version="0.1" byte_order="LittleEndian">
  <UnstructuredGrid>
    <Piece NumberOfPoints="64" NumberOfCells="27">
      <Points>
        <DataArray type="Float32" NumberOfComponents="3" format="ascii">
0 0 0
1 0 0
2 0 0
3 0 0
0 1 0
1 1 0
2 1 0
3 1 0
0 2 0
1 2 0
2 2 0
3 2 0
0 3 0
1 3 0
2 3 0
3 3 0
0 0 2.5
1 0 2.5
2 0 2.5
3 0 2.5
0 1 2.5
1 1 2.5
2 1 2.5
3 1 2.5
0 2 2.5
1 2 2.5
2 2 2.5
3 2 2.5
0 3 2.5
1 3 2.5
2 3 2.5
3 3 2.5
0 0 5
1 0 5
2 0 5
3 0 5
0 1 5
1 1 5
2 1 5
3 1 5
0 2 5
1 2 5
2 2 5
3 2 5
0 3 5
1 3 5
2 3 5
3 3 5
0 0 7.5
1 0 7.5
2 0 7.5
3 0 7.5
0 1 7.5
1 1 7.5
2 1 7.5
3 1 7.5
0 2 7.5
1 2 7.5
2 2 7.5
3 2 7.5
0 3 7.5
1 3 7.5
2 3 7.5
3 3 7.5
        </DataArray>
      </Points>
      <Cells>
        <DataArray type="Int64" Name="connectivity" format="ascii">
0 0 1 0 1 4 0 4 0 16 0 16 1 0 16 1 4 0 16 4
1 1 1 1 1 4 1 4 1 16 1 16 1 1 16 1 4 1 16 4
2 2 1 2 1 4 2 4 2 16 2 16 1 2 16 1 4 2 16 4
4 4 1 4 1 4 4 4 4 16 4 16 1 4 16 1 4 4 16 4
5 5 1 5 1 4 5 4 5 16 5 16 1 5 16 1 4 5 16 4
6 6 1 6 1 4 6 4 6 16 6 16 1 6 16 1 4 6 16 4
8 8 1 8 1 4 8 4 8 16 8 16 1 8 16 1 4 8 16 4
9 9 1 9 1 4 9 4 9 16 9 16 1 9 16 1 4 9 16 4
10 10 1 10 1 4 10 4 10 16 10 16 1 10 16 1 4 10 16 4
16 16 1 16 1 4 16 4 16 16 16 16 1 16 16 1 4 16 16 4
17 17 1 17 1 4 17 4 17 16 17 16 1 17 16 1 4 17 16 4
18 18 1 18 1 4 18 4 18 16 18 16 1 18 16 1 4 18 16 4
20 20 1 20 1 4 20 4 20 16 20 16 1 20 16 1 4 20 16 4
21 21 1 21 1 4 21 4 21 16 21 16 1 21 16 1 4 21 16 4
22 22 1 22 1 4 22 4 22 16 22 16 1 22 16 1 4 22 16 4
24 24 1 24 1 4 24 4 24 16 24 16 1 24 16 1 4 24 16 4
25 25 1 25 1 4 25 4 25 16 25 16 1 25 16 1 4 25 16 4
26 26 1 26 1 4 26 4 26 16 26 16 1 26 16 1 4 26 16 4
32 32 1 32 1 4 32 4 32 16 32 16 1 32 16 1 4 32 16 4
33 33 1 33 1 4 33 4 33 16 33 16 1 33 16 1 4 33 16 4
34 34 1 34 1 4 34 4 34 16 34 16 1 34 16 1 4 34 16 4
36 36 1 36 1 4 36 4 36 16 36 16 1 36 16 1 4 36 16 4
37 37 1 37 1 4 37 4 37 16 37 16 1 37 16 1 4 37 16 4
38 38 1 38 1 4 38 4 38 16 38 16 1 38 16 1 4 38 16 4
40 40 1 40 1 4 40 4 40 16 40 16 1 40 16 1 4 40 16 4
41 41 1 41 1 4 41 4 41 16 41 16 1 41 16 1 4 41 16 4
42 42 1 42 1 4 42 4 42 16 42 16 1 42 16 1 4 42 16 4
        </DataArray>
        <DataArray type="Int64" Name="offsets" format="ascii">
8
16
24
32
40
48
56
64
72
80
88
96
104
112
120
128
136
144
152
160
168
176
184
192
200
208
216
        </DataArray>
        <DataArray type="UInt8" Name="types" format="ascii">
12
12
12
12
12
12
12
12
12
12
12
12
12
12
12
12
12
12
12
12
12
12
12
12
12
12
12
        </DataArray>
      </Cells>
      <PointData>
        <DataArray type="Float32" Name="pressure" format="ascii">
300
301
302
303
304
305
306
307
308
309
310
311
312
313
314
315
316
317
318
319
320
321
322
323
324
325
326
327
328
329
330
331
332
333
334
335
336
337
338
339
340
341
342
343
344
345
346
347
348
349
350
351
352
353
354
355
356
357
358
359
360
361
362
363
        </DataArray>
        <DataArray type="Float32" Name="displacement" NumberOfComponents="3" format="ascii">
0.3 0 0.15
0.3 0 0.15
0.3 0 0.15
0.3 0 0.15
0.3 0 0.15
0.3 0 0.15
0.3 0 0.15
0.3 0 0.15
0.3 0 0.15
0.3 0 0.15
0.3 0 0.15
0.3 0 0.15
0.3 0 0.15
0.3 0 0.15
0.3 0 0.15
0.3 0 0.15
0.3 0 0.15
0.3 0 0.15
0.3 0 0.15
0.3 0 0.15
0.3 0 0.15
0.3 0 0.15
0.3 0 0.15
0.3 0 0.15
0.3 0 0.15
0.3 0 0.15
0.3 0 0.15
0.3 0 0.15
0.3 0 0.15
0.3 0 0.15
0.3 0 0.15
0.3 0 0.15
0.3 0 0.15
0.3 0 0.15
0.3 0 0.15
0.3 0 0.15
0.3 0 0.15
0.3 0 0.15
0.3 0 0.15
0.3 0 0.15
0.3 0 0.15
0.3 0 0.15
0.3 0 0.15
0.3 0 0.15
0.3 0 0.15
0.3 0 0.15
0.3 0 0.15
0.3 0 0.15
0.3 0 0.15
0.3 0 0.15
0.3 0 0.15
0.3 0 0.15
0.3 0 0.15
0.3 0 0.15
0.3 0 0.15
0.3 0 0.15
0.3 0 0.15
0.3 0 0.15
0.3 0 0.15
0.3 0 0.15
0.3 0 0.15
0.3 0 0.15
0.3 0 0.15
0.3 0 0.15
        </DataArray>
      </PointData>
    </Piece>
  </UnstructuredGrid>
</VTKFile>
